<svg height="512pt" viewBox="-53 0 512 512" width="512pt" xmlns="http://www.w3.org/2000/svg"><path d="m287.179688 123.203125v-25.597656c0-23.710938-15.367188-43.886719-36.660157-51.128907-.632812-25.734374-21.703125-46.476562-47.53125-46.476562s-46.898437 20.742188-47.53125 46.476562c-21.292969 7.242188-36.660156 27.417969-36.660156 51.128907v25.597656c-70.027344 32.144531-118.796875 103.074219-118.796875 185.222656 0 112.25 91.058594 203.574219 202.988281 203.574219 111.925781 0 202.988281-91.324219 202.988281-203.574219 0-82.148437-48.773437-153.078125-118.796874-185.222656zm-84.191407 358.796875c-82.222656 0-151.222656-57.859375-168.703125-135.128906 24.128906-19.796875 54.632813-30.054688 84.445313-28.242188 27.363281 1.667969 51.875 13.28125 69.019531 32.710938l7.984375 9.042968c22.457031 25.449219 54.308594 40.648438 89.6875 42.804688 2.855469.171875 5.714844.257812 8.570313.257812 21.074218 0 42.15625-4.691406 61.679687-13.5-29.140625 54.726563-86.644531 92.054688-152.683594 92.054688zm-30.191406-408.394531h60.386719c13.230468 0 24 10.765625 24 24v14.621093c-17.261719-4.800781-35.433594-7.378906-54.195313-7.378906s-36.933593 2.578125-54.191406 7.378906v-14.621093c0-13.234375 10.765625-24 24-24zm30.191406 61.246093c77.839844 0 143.824219 51.855469 165.472657 122.941407-21.65625 20.972656-49.976563 33.589843-78.855469 34.898437-27.359375 1.238282-52.953125-7.703125-72.039063-25.1875l-8.894531-8.148437c-25.007813-22.910157-58.261719-34.644531-93.660156-33.039063-26.566407 1.203125-52.6875 9.988282-75.335938 24.875 23.625-67.671875 87.902344-116.339844 163.3125-116.339844zm172.988281 173.574219c0 12.398438-1.3125 24.496094-3.789062 36.164063-24.207031 20.066406-54.929688 30.476562-84.945312 28.648437-27.363282-1.664062-51.875-13.277343-69.015626-32.707031l-7.984374-9.046875c-22.457032-25.445313-54.308594-40.644531-89.6875-42.800781-31.421876-1.910156-63.328126 6.792968-90.5 24.234375-.035157-1.492188-.054688-2.992188-.054688-4.492188 0-3.347656.105469-6.664062.289062-9.960937.5625-.460938 1.101563-.949219 1.605469-1.5 22.238281-24.425782 53.027344-39.253906 84.476563-40.679688 27.363281-1.242187 52.953125 7.703125 72.039062 25.1875l8.894532 8.148438c23.496093 21.523437 54.277343 33.183594 87.269531 33.183594 2.121093 0 4.253906-.046876 6.394531-.144532 30.101562-1.367187 59.625-12.457031 84.1875-31.144531.535156 5.566406.820312 11.207031.820312 16.910156zm-172.988281-278.425781c8.292969 0 15.246094 5.820312 17.074219 13.605469h-34.148438c1.828126-7.785157 8.78125-13.605469 17.074219-13.605469zm0 0"/></svg>