<svg height="512pt" viewBox="0 0 512 512" width="512pt" xmlns="http://www.w3.org/2000/svg"><path d="m497 123.839844h-68.398438c9.769532-12.996094 15.609376-29.277344 15.609376-46.941406 0-42.402344-33.539063-76.898438-74.757813-76.898438-26.148437 0-49.90625 13.652344-63.640625 36.542969l-21.460938 32.210937c-.925781 1.269532-1.820312 2.570313-2.644531 3.9375l-25.707031 38.585938-25.707031-38.585938c-.824219-1.367187-1.71875-2.667968-2.644531-3.9375l-21.460938-32.210937c-13.734375-22.890625-37.492188-36.542969-63.640625-36.542969-41.222656 0-74.757813 34.496094-74.757813 76.898438 0 17.664062 5.835938 33.945312 15.609376 46.941406h-68.398438c-8.285156 0-15 6.71875-15 15v98.082031c0 8.28125 6.714844 15 15 15h10.894531v245.078125c0 8.285156 6.714844 15 15 15h430.210938c8.285156 0 15-6.714844 15-15v-245.078125h10.894531c8.285156 0 15-6.71875 15-15v-98.082031c0-8.28125-6.714844-15-15-15zm-441.105469 128.082031h143.453125v230.078125h-143.453125zm130.324219-174.421875c6.558594 0 12.640625 3.070312 16.765625 8.34375l25.273437 37.933594h-41.738281c-.101562 0-.203125-.003906-.300781-.003906-12.03125 0-21.820312-10.378907-21.820312-23.136719 0-12.757813 9.789062-23.136719 21.820312-23.136719zm139.5625 0c12.03125 0 21.820312 10.378906 21.820312 23.136719 0 12.757812-9.789062 23.136719-21.820312 23.136719-.101562 0-.199219.003906-.296875.003906h-41.742187l25.273437-37.933594c4.125-5.269531 10.207031-8.34375 16.765625-8.34375zm-96.433594 404.5v-328.199219h53.304688v328.199219zm-199.347656-328.160156h169.347656v68.082031h-169.347656zm282.652344 98.082031h143.453125v230.078125h-143.453125zm0-30v-68.082031h169.347656v68.082031zm56.800781-191.921875c24.679687 0 44.757813 21.039062 44.757813 46.898438 0 24.792968-18.464844 45.144531-41.742188 46.777343 3.285156-6.972656 5.132812-14.789062 5.132812-23.039062 0-26.398438-18.878906-48.355469-43.515624-52.445313 8.453124-11.460937 21.355468-18.191406 35.367187-18.191406zm-226.90625 0c14.011719 0 26.914063 6.730469 35.367187 18.191406-24.636718 4.089844-43.515624 26.046875-43.515624 52.445313 0 8.25 1.847656 16.066406 5.132812 23.039062-23.277344-1.632812-41.742188-21.984375-41.742188-46.777343 0-25.859376 20.078126-46.898438 44.757813-46.898438zm0 0"/></svg>