<svg height="512pt" viewBox="-23 0 512 512" width="512pt" xmlns="http://www.w3.org/2000/svg"><path d="m403.578125 345.078125v-124.066406c0-73.070313-45.941406-135.566407-110.355469-159.957031.015625-.292969.042969-.585938.042969-.882813.003906-33.179687-26.914063-60.171875-59.996094-60.171875-33.085937 0-60 26.992188-60 60.171875 0 .296875.027344.589844.042969.882813-64.414062 24.390624-110.351562 86.886718-110.351562 159.957031v124.066406c-36.929688 15.351563-62.960938 51.796875-62.960938 94.210937v.363282c0 8.285156 6.714844 15 15 15h147.652344c6.933594 32.722656 35.957031 57.347656 70.617187 57.347656 34.65625 0 63.679688-24.625 70.617188-57.347656h147.648437c8.285156 0 15-6.714844 15-15v-.363282c0-42.417968-26.03125-78.863281-62.957031-94.210937zm-372.082031 79.574219c6.78125-32.695313 35.808594-57.339844 70.480468-57.339844h262.582032c34.675781 0 63.703125 24.644531 70.480468 57.339844zm201.773437-344.542969c77.367188 0 140.308594 63.207031 140.308594 140.902344v116.703125c-2.972656-.261719-5.980469-.402344-9.019531-.402344h-262.582032c-3.039062 0-6.042968.140625-9.015624.402344v-116.703125c0-77.695313 62.941406-140.902344 140.308593-140.902344zm0-50.109375c13.945313 0 25.695313 9.617188 29.042969 22.605469-9.441406-1.632813-19.144531-2.496094-29.042969-2.496094-9.902343 0-19.605469.863281-29.046875 2.496094 3.347656-12.988281 15.101563-22.605469 29.046875-22.605469zm0 452c-17.992187 0-33.390625-11.375-39.449219-27.347656h78.894532c-6.058594 15.972656-21.453125 27.347656-39.445313 27.347656zm0 0"/></svg>