<svg height="512pt" viewBox="-122 0 512 512.001" width="512pt" xmlns="http://www.w3.org/2000/svg"><path d="m228.914062 39.136719c-25.339843-25.25-58.9375-39.136719-94.664062-39.136719-.160156 0-.320312 0-.480469 0-73.761719.257812-133.769531 61.175781-133.769531 135.796875v330.101563c0 25.421874 20.652344 46.101562 46.039062 46.101562 25.382813 0 46.035157-20.679688 46.035157-46.101562v-329.042969c0-23.488281 18.664062-42.84375 41.605469-43.140625 11.355468-.132813 22.0625 4.164062 30.144531 12.144531 8.121093 8.011719 12.589843 18.71875 12.589843 30.144531v19.925782c0 25.421874 20.652344 46.101562 46.039063 46.101562 25.382813 0 46.035156-20.679688 46.035156-46.101562v-21.433594c0-36.058594-14.054687-69.925782-39.574219-95.359375zm-7.414062 38.136719c-.667969.644531-1.292969 1.355468-1.847656 2.140624l-19.363282 27.382813c-3.550781-8.050781-8.589843-15.453125-14.988281-21.871094l.074219-41.542969c8.082031 4.570313 15.601562 10.265626 22.363281 17.003907 5.21875 5.203125 9.816407 10.863281 13.761719 16.886719zm-161.097656-16.042969 28.699218 18.707031c-7.613281 6.226562-13.976562 13.972656-18.605468 22.78125l-38.710938 13.589844c3.925782-21.257813 14.144532-40.316406 28.617188-55.078125zm1.671875 219.804687-32.074219 32.140625v-57.824219c.292969-.253906.585938-.503906.863281-.78125l31.210938-31.28125zm0-100.214844-32.074219 32.144532v-64.238282l32.074219-11.257812zm-32.074219 174.742188c.292969-.25.585938-.503906.863281-.78125l31.210938-31.277344v57.742188l-32.074219 32.140625zm16.039062 126.4375c-8.84375 0-16.039062-7.222656-16.039062-16.101562v-10.125c.292969-.25.585938-.5.863281-.78125l31.210938-31.277344v42.183594c0 8.878906-7.195313 16.101562-16.035157 16.101562zm87.25-418.28125c-4.167968.050781-8.246093.492188-12.21875 1.242188l-35.113281-22.882813c14.347657-7.652344 30.644531-12.015625 47.917969-12.074219h.371094c7.191406 0 14.265625.730469 21.152344 2.144532l-.0625 34.6875c-7.042969-2.144532-14.453126-3.222657-22.046876-3.117188zm105.199219 92.210938c0 8.878906-7.195312 16.101562-16.035156 16.101562-8.84375 0-16.039063-7.222656-16.039063-16.101562v-5.945313c.21875-.265625.445313-.519531.648438-.804687l28.339844-40.082032c2.035156 8.207032 3.085937 16.722656 3.085937 25.398438zm0 0"/></svg>