<svg height="512pt" viewBox="-67 0 512 512.001" width="512pt" xmlns="http://www.w3.org/2000/svg"><path d="m378.535156 52.441406c.035156-28.878906-23.351562-52.4023435-52.152344-52.441406h-152.203124c-.027344 0-.050782 0-.074219 0-13.878907 0-26.949219 5.398438-36.8125 15.203125-9.902344 9.851563-15.367188 22.953125-15.386719 36.894531-.023438 18.714844 9.71875 35.175782 24.371094 44.515625v176.464844l-83.601563 37.503906c-52.976562 23.371094-77.101562 85.558594-53.777343 138.625 11.269531 25.644531 31.925781 45.382813 58.164062 55.578125 12.390625 4.8125 25.292969 7.214844 38.164062 7.214844 14.34375 0 28.648438-2.984375 42.152344-8.941406l139.453125-62.207032c4.742188-2.089843 9.363281-4.554687 13.738281-7.324218 34.476563-18.445313 55.832032-54.003906 55.78125-92.941406v-245.417969c2.410157-1.714844 4.703126-3.632813 6.835938-5.769531 9.878906-9.898438 15.328125-23.023438 15.347656-36.957032zm-52.171875-22.445312c12.242188.019531 22.1875 10.066406 22.171875 22.40625-.007812 5.949218-2.34375 11.5625-6.578125 15.804687-4.210937 4.21875-9.757812 6.539063-15.625 6.539063-.015625 0-.03125 0-.050781 0h-152.203125c-12.035156-.015625-22.191406-10.367188-22.175781-22.605469.007812-5.914063 2.332031-11.476563 6.542968-15.664063 4.199219-4.179687 9.761719-6.480468 15.679688-6.480468h.03125zm-290.003906 407.140625c-10.542969-23.992188-7.519531-50.578125 5.714844-71.125 17.5-.757813 34.527343 4.648437 48.507812 15.550781 15.601563 12.167969 25.539063 29.695312 27.988281 49.355469 2.265626 18.214843-2.125 36.109375-12.371093 51.050781-9.523438.125-19.09375-1.578125-28.273438-5.144531-18.761719-7.292969-33.523437-21.386719-41.566406-39.6875zm108 34.421875c4.464844-14.105469 5.871094-29.148438 3.976563-44.34375-3.433594-27.605469-17.394532-52.21875-39.308594-69.308594-11.207032-8.738281-23.804688-14.96875-37.128906-18.515625.976562-.484375 1.960937-.957031 2.96875-1.402344l92.546874-41.511719c5.394532-2.417968 8.863282-7.777343 8.863282-13.6875v-58.246093c2.613281-.910157 5.007812-2.554688 6.847656-4.894531l28.601562-36.449219 28.601563 36.449219c2.84375 3.625 7.238281 5.738281 11.84375 5.738281.054687 0 .109375 0 .167969-.003907 4.546875-.046874 8.824218-2.160156 11.632812-5.738281l28.601563-36.445312 28.601562 36.445312c1.4375 1.832031 3.222657 3.222657 5.183594 4.1875v52.035157c-23.667969 3.117187-45.554687 13.84375-62.753906 31-20.722657 20.664062-32.171875 48.175781-32.238281 77.464843-.035157 15.371094 3.128906 30.421875 9.210937 44.304688zm141.652344-64.265625c-.375.195312-.742188.414062-1.101563.640625-3.234375 2.078125-6.664062 3.917968-10.242187 5.496094l-6.699219 2.988281c-4.363281-10.035157-6.636719-20.90625-6.609375-32.015625.050781-21.289063 8.367187-41.28125 23.425781-56.292969 11.515625-11.488281 25.925782-18.988281 41.570313-21.863281v34.359375c.035156 27.988281-15.425781 53.542969-40.34375 66.6875zm40.34375-229.636719-21.550781-27.460938c-2.855469-4.019531-7.589844-6.421874-12.582032-6.316406-4.898437.105469-9.382812 2.589844-12.082031 6.566406l-27.992187 35.675782-28.191407-35.925782c-2.855469-4.019531-7.589843-6.4375-12.582031-6.316406-4.894531.105469-9.378906 2.589844-12.078125 6.566406l-23.019531 29.332032v-75.03125h150.007812.050782c.003906 0 .011718-.003906.019531-.003906zm0 0"/></svg>