<svg height="512pt" viewBox="0 0 512 511" width="512pt" xmlns="http://www.w3.org/2000/svg"><path d="m497 94.105469c8.285156 0 15-6.714844 15-15v-63.605469c0-8.285156-6.714844-15-15-15h-482c-8.285156 0-15 6.714844-15 15v63.605469c0 8.285156 6.714844 15 15 15h11.105469v388.382812h-11.105469c-8.285156 0-15 6.714844-15 15 0 8.285157 6.714844 15 15 15h482c8.285156 0 15-6.714843 15-15 0-8.285156-6.714844-15-15-15h-11.105469v-388.382812zm-15-30h-9.304688c-.59375-.070313-1.191406-.117188-1.804687-.117188h-27.769531v-33.488281h38.878906zm-107.726562-.117188v-33.488281h38.847656v33.488281zm-30 0h-38.847657v-33.488281h38.847657zm-68.847657 0h-38.851562v-33.488281h38.851562zm-68.851562 0h-38.847657v-33.488281h38.847657zm-68.847657 0h-38.847656v-33.488281h38.847656zm-107.726562-33.488281h38.878906v33.488281h-27.773437c-.609375 0-1.210938.046875-1.800781.117188h-9.304688zm96.894531 261.417969c0-72.382813 58.703125-131.269531 130.859375-131.269531s130.859375 58.886718 130.859375 131.269531v190.550781l-261.882812.019531zm329-148.425781h-36.214843c-8.285157 0-15 6.71875-15 15 0 8.285156 6.714843 15 15 15h36.214843v227.789062h-7.085937c-8.285156 0-15 6.714844-15 15s6.714844 15 15 15h7.085937v51.207031l-37.28125-.019531v-176.054688h7.089844c8.285156 0 15-6.714843 15-15 0-8.285156-6.714844-15-15-15h-7.835937c-7.808594-81.675781-76.632813-145.765624-160.113282-145.765624-50.136718 0-94.984375 23.121093-124.507812 59.277343-.578125-.066406-1.164063-.113281-1.761719-.113281h-21.078125c-8.285156 0-15 6.71875-15 15 0 8.285156 6.714844 15 15 15h3.492188c-10.871094 21.710938-17.003907 46.203125-17.003907 72.105469l.164063 190.570312h-40.953125v-157.949219h7.09375c8.285156 0 15-6.714843 15-15 0-8.28125-6.714844-15-15-15h-7.09375v-200.433593h254.511719c-1.460938 2.316406-2.320313 5.054687-2.320313 7.996093 0 8.285157 6.714844 15 15 15h21.078125c8.285156 0 15-6.714843 15-15 0-2.941406-.859375-5.679687-2.324219-7.996093h98.84375zm0 0"/><path d="m146.300781 451.359375.035157.109375c3.355468 10.503906 10.625 19.082031 20.46875 24.152344 5.964843 3.074218 12.429687 4.628906 18.9375 4.628906 4.226562 0 8.476562-.65625 12.613281-1.984375l57.644531-18.476563 57.644531 18.476563c4.136719 1.328125 8.386719 1.984375 12.617188 1.984375 6.503906 0 12.96875-1.554688 18.933593-4.628906 9.84375-5.070313 17.113282-13.648438 20.460938-24.125l.054688-.164063c3.910156-12.246093 1.789062-25.007812-4.699219-35.050781 6.488281-10.046875 8.609375-22.8125 4.691406-35.078125l-.039063-.109375c-3.351562-10.503906-10.625-19.082031-20.46875-24.152344-3.210937-1.65625-6.566406-2.863281-10-3.628906 2.25-16.21875-.429687-33.140625-8.414062-48.507812l-18.554688-35.710938c-2.582031-4.972656-7.714843-8.085938-13.308593-8.085938-.035157 0-.070313 0-.105469 0-1.515625.011719-2.996094.25-4.402344.691407l-20.882812-66.59375c-1.816406-5.792969-6.949219-9.921875-13-10.453125-6.03125-.53125-11.824219 2.636718-14.625 8.027344l-58.253906 112.125c-8.046876 15.484374-10.710938 32.550781-8.367188 48.878906-2.898438.769531-5.742188 1.847656-8.476562 3.253906-9.84375 5.074219-17.113282 13.652344-20.460938 24.128906l-.054688.164063c-3.910156 12.246093-1.789062 25.007812 4.699219 35.050781-6.484375 10.046875-8.605469 22.8125-4.6875 35.078125zm42.898438-68.496094 140.582031 45.066407c5.957031 1.910156 9.253906 8.3125 7.359375 14.25l-.054687.160156c-.914063 2.867187-2.914063 5.214844-5.628907 6.613281-2.71875 1.402344-5.789062 1.664063-8.65625.746094l-140.582031-45.066407c-5.957031-1.910156-9.253906-8.316406-7.359375-14.25l.050781-.160156c.917969-2.867187 2.917969-5.214844 5.632813-6.613281 2.71875-1.398437 5.789062-1.664063 8.65625-.746094zm137.027343-.539062c1.792969 0 3.578126.433593 5.230469 1.285156 2.714844 1.398437 4.714844 3.746094 5.640625 6.640625l.035156.109375c.902344 2.828125.625 5.75-.542968 8.25l-31.453125-10.082031 17.667969-5.664063c1.117187-.359375 2.269531-.539062 3.421874-.539062zm-145.683593 66.628906c-2.714844-1.398437-4.714844-3.75-5.640625-6.640625l-.035156-.109375c-.902344-2.828125-.625-5.75.542968-8.25l31.453125 10.082031-17.664062 5.664063c-2.867188.917969-5.941407.652343-8.65625-.746094zm29.726562-130.316406 41.503907-79.886719 19.140624 61.03125c1.828126 5.828125 7.011719 9.96875 13.101563 10.460938 3.738281.300781 7.367187-.808594 10.242187-2.972657l5.902344 11.367188c6.417969 12.351562 7.410156 26.300781 3.425782 38.882812l-33.371094 10.699219v-11.605469c0-8.28125-6.714844-15-15-15-8.28125 0-15 6.71875-15 15v11.101563l-33.535156-10.75c-3.78125-12.4375-2.734376-26.15625 3.589843-38.328125zm0 0"/><path d="m148.554688 112.277344h-55.222657c-8.28125 0-15 6.714844-15 15 0 8.28125 6.71875 15 15 15h55.222657c8.285156 0 15-6.71875 15-15 0-8.285156-6.714844-15-15-15zm0 0"/></svg>