<svg height="511pt" viewBox="-30 0 511 511.998" width="511pt" xmlns="http://www.w3.org/2000/svg"><path d="m246.816406 302.257812c0-11.601562-9.375-21.003906-20.941406-21.003906-11.5625 0-20.941406 9.402344-20.941406 21.003906 0 11.597657 9.378906 21 20.941406 21 11.566406 0 20.941406-9.402343 20.941406-21zm0 0"/><path d="m246.816406 365.257812c0-11.597656-9.375-21-20.941406-21-11.5625 0-20.941406 9.402344-20.941406 21 0 11.601563 9.378906 21.003907 20.941406 21.003907 11.566406 0 20.941406-9.402344 20.941406-21.003907zm0 0"/><path d="m246.816406 428.261719c0-11.601563-9.375-21.003907-20.941406-21.003907-11.5625 0-20.941406 9.402344-20.941406 21.003907 0 11.597656 9.378906 21 20.941406 21 11.566406 0 20.941406-9.402344 20.941406-21zm0 0"/><path d="m438.234375 275.640625-26.863281-10.703125 31.804687-16.5625c7.351563-3.828125 10.203125-12.886719 6.375-20.230469-3.824219-7.347656-12.882812-10.203125-20.230469-6.378906l-91.441406 47.621094c-15.476562-17.941407-35.214844-32.09375-57.617187-40.871094 18.339843-15.53125 30.019531-38.730469 30.019531-64.625 0-12.960937-2.933594-25.246094-8.152344-36.234375h6.46875c8.285156 0 15-6.71875 15-15 0-8.285156-6.714844-15-15-15h-20.601562v-82.65625c0-8.285156-6.714844-15-15-15h-94.238282c-8.28125 0-15 6.714844-15 15v82.652344h-20.601562c-8.285156 0-15 6.71875-15 15 0 8.285156 6.714844 15 15 15h6.40625c-3.515625 7.421875-5.925781 15.339844-7.148438 23.554687h-17.679687c-8.285156 0-15 6.714844-15 15 0 8.28125 6.714844 15 15 15h18.523437c3.996094 19.175781 14.480469 35.988281 29.046876 48.011719-22.0625 8.972656-41.460938 23.1875-56.65625 41.097656l-93.21875-48.542968c-7.347657-3.828126-16.40625-.972657-20.230469 6.375-3.828125 7.347656-.972657 16.40625 6.375 20.230468l31.804687 16.566406-26.863281 10.703126c-7.695313 3.066406-11.449219 11.789062-8.382813 19.484374 2.339844 5.875 7.980469 9.453126 13.941407 9.453126 1.84375 0 3.726562-.34375 5.546875-1.070313l50.890625-20.277344 23.039062 12c-11.324219 20.820313-17.765625 44.679688-17.765625 70.019531 0 80.914063 65.664063 146.738282 146.371094 146.738282 39.101562 0 75.867188-15.265625 103.511719-42.992188 27.636719-27.714844 42.855469-64.558594 42.855469-103.746094 0-25.765624-6.664063-49.992187-18.34375-71.058593l21.058593-10.96875 50.890625 20.277343c1.820313.726563 3.699219 1.070313 5.546875 1.070313 5.960938 0 11.597657-3.578125 13.9375-9.453125 3.070313-7.691406-.683593-16.417969-8.378906-19.484375zm-180.238281-245.640625v67.652344h-64.238282v-67.652344zm-49.496094 121.207031h-35.546875c2.054687-8.703125 6.21875-16.761719 12.242187-23.550781h81.328126c8.546874 9.648438 13.753906 22.339844 13.753906 36.234375 0 30.105469-24.402344 54.601563-54.402344 54.601563-23.964844 0-44.347656-15.644532-51.582031-37.285157h34.207031c8.285156 0 15-6.714843 15-15 0-8.285156-6.714844-15-15-15zm135.027344 214.050781c0 31.191407-12.109375 60.511719-34.101563 82.5625-21.976562 22.042969-51.191406 34.179688-82.269531 34.179688-64.164062 0-116.367188-52.371094-116.367188-116.742188 0-20.34375 5.21875-39.488281 14.378907-56.160156l20.921875 10.898438c2.214844 1.152344 4.582031 1.699218 6.914062 1.699218 5.414063 0 10.644532-2.941406 13.316406-8.078124 3.828126-7.34375.972657-16.402344-6.375-20.230469l-16.847656-8.773438c21.199219-22.230469 51.042969-36.097656 84.058594-36.097656 32.570312 0 62.050781 13.5 83.195312 35.207031l-18.546874 9.65625c-7.347657 3.828125-10.199219 12.886719-6.375 20.234375 2.675781 5.132813 7.902343 8.074219 13.316406 8.074219 2.335937 0 4.703125-.546875 6.917968-1.699219l22.90625-11.929687c9.515626 16.917968 14.957032 36.429687 14.957032 57.199218zm0 0"/></svg>