<svg height="511pt" viewBox="0 0 511.9993 511" width="511pt" xmlns="http://www.w3.org/2000/svg"><path d="m200.855469 82.21875c14.976562 6.714844 34.5625 10.410156 55.144531 10.410156s40.164062-3.695312 55.140625-10.410156c25.375-11.375 29.164063-27.222656 29.164063-35.652344 0-8.433594-3.789063-24.28125-29.164063-35.65625-14.976563-6.710937-34.558594-10.410156-55.140625-10.410156s-40.167969 3.699219-55.144531 10.410156c-25.375 11.375-29.164063 27.222656-29.164063 35.65625 0 8.429688 3.789063 24.277344 29.164063 35.652344zm14.402343-44.839844c10.996094-4.4375 25.464844-6.882812 40.742188-6.882812 15.273438 0 29.742188 2.445312 40.738281 6.882812 9.929688 4.003906 13.078125 8.046875 13.535157 9.1875-.457032 1.136719-3.605469 5.179688-13.535157 9.1875-10.996093 4.433594-25.464843 6.878906-40.738281 6.878906-15.277344 0-29.746094-2.445312-40.742188-6.878906-9.929687-4.007812-13.078124-8.050781-13.535156-9.1875.457032-1.140625 3.605469-5.183594 13.535156-9.1875zm0 0"/><path d="m508.285156 369.695312-83.871094-185.941406c-12.476562-27.65625-45.1875-40.046875-72.921874-27.621094l-26.636719 11.933594c-.460938.207032-.925781.394532-1.390625.597656.003906-.144531.011718-.289062.011718-.433593 0-37.109375-30.269531-67.300781-67.476562-67.300781-37.210938 0-67.480469 30.191406-67.480469 67.300781 0 .144531.011719.289062.011719.433593-.464844-.203124-.929688-.394531-1.390625-.601562l-26.636719-11.933594c-27.730468-12.421875-60.445312-.03125-72.921875 27.625l-83.867187 185.941406c-4.601563 10.207032-4.9375 21.617188-.949219 32.128907 4 10.53125 11.851563 18.867187 22.105469 23.460937 17.269531 7.734375 37.074218 2.859375 48.949218-10.667968 3.402344 3.234374 7.367188 5.898437 11.773438 7.871093 17.976562 8.054688 38.699219 2.441407 50.367188-12.367187 3.300781 3.042968 7.105468 5.558594 11.316406 7.445312 13.496094 6.046875 28.535156 4.378906 40.132812-3.089844-2.175781 37.816407-33.746094 67.921876-72.253906 67.921876-8.285156 0-15 6.714843-15 14.996093 0 8.285157 6.714844 15 15 15h281.683594c8.285156 0 15-6.714843 15-15 0-8.28125-6.714844-14.996093-15-14.996093-38.503906 0-70.074219-30.105469-72.253906-67.917969 11.597656 7.464843 26.636718 9.132812 40.132812 3.085937 4.210938-1.886718 8.015625-4.402344 11.316406-7.445312 11.667969 14.808594 32.390625 20.421875 50.367188 12.367187 4.40625-1.972656 8.371094-4.636719 11.773437-7.871093 8.039063 9.160156 19.707031 14.351562 31.769531 14.347656 5.753907 0 11.601563-1.183594 17.179688-3.683594 10.253906-4.589844 18.105469-12.921875 22.105469-23.457031 3.992187-10.511719 3.65625-21.921875-.945313-32.128907zm-27.097656 21.480469c-1.148438 3.027344-3.394531 5.421875-6.324219 6.730469-6.007812 2.691406-13.351562-.078125-16.046875-6.046875l-11.253906-24.953125h-.003906c-3.402344-7.550781-12.289063-10.914062-19.839844-7.507812s-10.910156 12.289062-7.503906 19.839843l.015625.035157c1.289062 2.878906 1.371093 6.113281.234375 9.109374-1.152344 3.03125-3.398438 5.421876-6.324219 6.734376-6.007813 2.6875-13.355469-.082032-16.046875-6.050782l-12.1875-27.015625c-.011719-.023437-.019531-.046875-.03125-.070312-3.40625-7.550781-12.285156-10.910157-19.839844-7.503907-7.550781 3.40625-10.910156 12.289063-7.507812 19.839844l.011718.019532c1.292969 2.882812 1.378907 6.121093.238282 9.125-1.148438 3.027343-3.394532 5.417968-6.324219 6.730468-6.007813 2.691406-13.351563-.078125-16.046875-6.046875-1.121094-2.484375-2.371094-4.882812-3.738281-7.195312 1.304687-2.480469 2.753906-4.894531 4.359375-7.234375 1.082031-1.398438 2.164062-2.867188 3.210937-4.378906.007813-.007813.011719-.015626.019531-.023438 11.871094-17.105469 18.144532-37.171875 18.144532-58.027344 0-39.457031-22.5625-73.75-55.5-90.738281 3.753906-3.625 7.082031-7.679687 9.917968-12.082031 8.242188-2.460938 16.363282-5.464844 24.300782-9.023438l26.636718-11.933594c12.675782-5.679687 27.621094-.035156 33.3125 12.582032l83.871094 185.945312c1.300782 2.882813 1.390625 6.128906.246094 9.140625zm-321.644531-.984375c-2.925781-1.3125-5.171875-3.703125-6.324219-6.734375-1.140625-3.007812-1.054688-6.253906.25-9.140625 3.40625-7.554687.046875-16.433594-7.503906-19.839844-7.554688-3.40625-16.4375-.046874-19.839844 7.503907l-12.21875 27.085937c-2.691406 5.96875-10.042969 8.738282-16.046875 6.046875-2.929687-1.3125-5.175781-3.699219-6.324219-6.730469-1.140625-3-1.054687-6.242187.238282-9.125l.011718-.019531c3.402344-7.550781.042969-16.433593-7.507812-19.839843-7.546875-3.40625-16.433594-.042969-19.839844 7.507812l-11.257812 24.953125c-2.691407 5.96875-10.039063 8.738281-16.046876 6.050781-2.925781-1.3125-5.171874-3.703125-6.320312-6.734375-1.144531-3.007812-1.058594-6.253906.246094-9.144531l83.871094-185.941406c5.691406-12.617188 20.632812-18.261719 33.308593-12.582032l26.636719 11.933594c7.941406 3.554688 16.0625 6.558594 24.304688 9.023438 2.835937 4.410156 6.171874 8.46875 9.933593 12.097656-32.921875 16.992188-55.472656 51.277344-55.472656 90.71875 0 21.179688 6.449219 41.5 18.65625 58.761719.003906.007812.007813.011719.011719.015625.703125.996094 1.433594 1.988281 2.226562 3.023437 1.777344 2.535157 3.371094 5.164063 4.792969 7.871094-1.367187 2.308594-2.617187 4.707031-3.734375 7.1875-2.695312 5.96875-10.046875 8.738281-16.050781 6.050781zm58.976562-221.960937c0-20.570313 16.8125-37.300781 37.480469-37.300781 20.664062 0 37.480469 16.730468 37.480469 37.300781 0 19.152343-14.582031 34.972656-33.273438 37.0625-1.390625-.058594-2.78125-.09375-4.183593-.09375-1.417969 0-2.820313.035156-4.222657.09375-18.695312-2.085938-33.28125-17.90625-33.28125-37.0625zm37.40625 139.660156-51.390625-51.214844c13.132813-13.25 31.359375-21.480469 51.488282-21.480469 20.109374 0 38.324218 8.21875 51.453124 21.445313zm-38.386719 102.421875c0-21.179688-6.453124-41.5-18.65625-58.761719-.003906-.003906-.011718-.011719-.015624-.015625-.695313-.988281-1.445313-2.003906-2.226563-3.023437-8.507813-12.125-13.003906-26.375-13.003906-41.230469 0-8.675781 1.550781-17 4.382812-24.710938l52.894531 52.710938v147.117188h-53.332031c18.5-18.480469 29.957031-43.976563 29.957031-72.085938zm53.375 72.085938v-147.109376l53.089844-52.777343c2.847656 7.726562 4.402344 16.070312 4.402344 24.769531 0 14.578125-4.347656 28.609375-12.570312 40.597656-1.085938 1.40625-2.171876 2.882813-3.226563 4.402344-.007813.011719-.015625.023438-.023437.03125-11.855469 17.101562-18.125 37.15625-18.125 57.996094 0 28.113281 11.457031 53.609375 29.957031 72.085937h-53.503907zm0 0"/></svg>