<svg height="512pt" viewBox="-22 0 512 512" width="512pt" xmlns="http://www.w3.org/2000/svg"><path d="m192.773438 320.683594c8.28125 0 15-6.71875 15-15v-20.277344c0-8.285156-6.71875-15-15-15-8.285157 0-15 6.714844-15 15v20.277344c0 8.28125 6.714843 15 15 15zm0 0"/><path d="m468.839844 373.273438c0-30.949219-25.171875-56.125-56.113282-56.125-30.9375 0-56.109374 25.175781-56.109374 56.125 0 9.429687 2.351562 18.320312 6.476562 26.132812h-68.070312v-223.773438c0-8.285156-6.714844-15-15-15h-51.183594v-9.4375c12.207031-3.609374 22.8125-11.566406 29.78125-22.800781 9.804687-15.800781 10.726562-35.183593 2.464844-51.851562l-33.804688-68.203125c-2.53125-5.109375-7.738281-8.339844-13.441406-8.339844-5.699219 0-10.90625 3.230469-13.4375 8.339844l-33.804688 68.203125c-8.261718 16.667969-7.34375 36.050781 2.460938 51.851562 6.96875 11.234375 17.574218 19.191407 29.785156 22.800781v9.4375h-51.1875c-8.28125 0-15 6.714844-15 15v223.773438h-117.65625c-8.285156 0-15 6.714844-15 15 0 8.28125 6.714844 15 15 15h16.664062c5.71875 46.484375 45.441407 82.59375 93.445313 82.59375h177.464844c48.003906 0 87.726562-36.109375 93.445312-82.59375h16.664063c.128906 0 .253906-.015625.382812-.019531 30.78125-.183594 55.773438-25.28125 55.773438-56.113281zm-274.289063-260.695313c-4.292969-6.917969-4.695312-15.410156-1.074219-22.710937l20.367188-41.089844 20.363281 41.089844c3.621094 7.300781 3.21875 15.789062-1.074219 22.710937-3.828124 6.167969-9.890624 9.960937-16.878906 10.671875-.789062-.128906-1.589844-.210938-2.410156-.210938-.824219 0-1.625.082032-2.410156.210938-6.992188-.710938-13.054688-4.503906-16.882813-10.671875zm-16.777343 78.054687v53.855469c0 8.285157 6.714843 15 15 15 8.28125 0 15-6.714843 15-15v-53.855469h57.25v208.773438h-102.367188v-208.773438zm124.800781 291.367188h-177.464844c-31.425781 0-57.628906-22.722656-63.089844-52.59375h303.644531c-5.460937 29.871094-31.664062 52.59375-63.089843 52.59375zm110.152343-82.605469c-14.394531 0-26.109374-11.71875-26.109374-26.121093 0-14.40625 11.714843-26.125 26.109374-26.125 14.398438 0 26.113282 11.71875 26.113282 26.125 0 14.402343-11.714844 26.121093-26.113282 26.121093zm0 0"/></svg>