<svg height="512pt" viewBox="0 -101 512 512" width="512pt" xmlns="http://www.w3.org/2000/svg"><path d="m192.671875 86.578125c-4.316406-48.445313-45.792969-86.578125-96.152344-86.578125-53.21875 0-96.519531 42.585938-96.519531 94.929688v200.265624c0 8.285157 6.714844 15 15 15h163.039062c8.285157 0 15-6.714843 15-15v-65.386718c0-16.054688 6.394532-31.164063 18-42.546875l27.035157-26.507813c8.605469-8.433594 13.34375-19.675781 13.34375-31.644531 0-11.972656-4.738281-23.210937-13.34375-31.644531-12.261719-12.027344-29.898438-15.65625-45.402344-10.886719zm24.398437 52.757813-27.03125 26.507812c-17.15625 16.820312-27 40.136719-27 63.96875v50.382812h-23.910156v-30.597656c0-8.285156-6.71875-15-15-15-8.285156 0-15 6.714844-15 15v30.597656h-25.074218v-30.597656c0-8.285156-6.714844-15-15-15-8.285157 0-15 6.714844-15 15v30.597656h-24.054688v-185.265624c0-35.800782 29.839844-64.929688 66.519531-64.929688 36.679688 0 66.519531 29.128906 66.519531 64.929688v19.941406c0 6.042968 3.625 11.492187 9.195313 13.832031 5.566406 2.335937 11.996094 1.109375 16.308594-3.121094l6.828125-6.695312c5.984375-5.867188 15.71875-5.867188 21.703125 0 2.800781 2.746093 4.34375 6.378906 4.34375 10.222656 0 3.847656-1.542969 7.480469-4.347657 10.226563zm0 0"/><path d="m415.480469 0c-50.359375 0-91.835938 38.132812-96.152344 86.578125-15.503906-4.765625-33.140625-1.140625-45.402344 10.886719-8.605469 8.4375-13.34375 19.675781-13.34375 31.644531 0 11.972656 4.738281 23.210937 13.34375 31.648437l27.035157 26.507813c11.605468 11.378906 18 26.492187 18 42.546875v65.382812c0 8.285157 6.714843 15 15 15h163.039062c8.285156 0 15-6.714843 15-15v-200.265624c0-52.34375-43.300781-94.929688-96.519531-94.929688zm66.519531 280.195312h-24.054688v-30.597656c0-8.285156-6.714843-15-15-15-8.285156 0-15 6.714844-15 15v30.597656h-25.074218v-30.597656c0-8.285156-6.714844-15-15-15-8.28125 0-15 6.714844-15 15v30.597656h-23.910156v-50.382812c0-23.832031-9.839844-47.148438-27-63.96875l-27.03125-26.507812c-2.804688-2.75-4.347657-6.378907-4.347657-10.226563 0-3.84375 1.542969-7.476563 4.347657-10.222656 5.980468-5.867188 15.714843-5.867188 21.699218 0l6.828125 6.695312c4.3125 4.226563 10.742188 5.457031 16.3125 3.121094 5.566407-2.339844 9.191407-7.792969 9.191407-13.832031v-19.941406c0-35.800782 29.839843-64.929688 66.519531-64.929688 36.679687 0 66.519531 29.128906 66.519531 64.929688zm0 0"/></svg>