<svg height="512pt" viewBox="-42 0 512 512.001" width="512pt" xmlns="http://www.w3.org/2000/svg"><path d="m393.871094 364.40625c.175781-1.675781.113281-183.425781.113281-183.425781 0-99.792969-81.121094-180.980469-180.835937-180.980469-99.710938 0-180.832032 81.1875-180.832032 180.980469v83.988281c-18.957031 7.925781-32.316406 26.660156-32.316406 48.457031v16.519531c0 28.949219 23.550781 52.496094 52.5 52.496094h226.449219c-9.679688 13.445313-15.40625 29.925782-15.40625 47.730469 0 45.121094 36.671875 81.828125 81.746093 81.828125 45.078126 0 81.746094-36.707031 81.746094-81.828125 0-26.921875-13.058594-50.84375-33.164062-65.765625zm-100.328125 65.765625c0-28.582031 23.210937-51.832031 51.746093-51.832031 28.535157 0 51.746094 23.25 51.746094 51.832031 0 28.578125-23.210937 51.828125-51.746094 51.828125-28.53125 0-51.746093-23.25-51.746093-51.828125zm-263.542969-100.226563v-16.519531c0-12.402343 10.09375-22.496093 22.5-22.496093h243.957031l.125 61.511718h-244.082031c-12.40625 0-22.5-10.089844-22.5-22.496094zm333.984375-148.964843.152344 169.582031c-6.054688-1.4375-12.359375-2.222656-18.847657-2.222656-6.4375 0-12.695312.773437-18.707031 2.1875v-74.671875c0-4.714844-2.175781-8.914063-5.578125-11.664063l-53.507812-53.507812c-5.859375-5.859375-15.355469-5.859375-21.214844 0-5.855469 5.855468-5.855469 15.355468 0 21.210937l28.960938 28.960938h-212.925782v-79.875c0-83.25 67.660156-150.980469 150.832032-150.980469 83.171874 0 150.835937 67.730469 150.835937 150.980469zm0 0"/></svg>