<svg height="512pt" viewBox="0 0 512 512" width="512pt" xmlns="http://www.w3.org/2000/svg"><path d="m256.019531 367.546875c-34.59375 0-61.695312 19.890625-61.695312 45.28125 0 25.394531 27.101562 45.285156 61.695312 45.285156 34.597657 0 61.699219-19.890625 61.699219-45.285156 0-25.390625-27.101562-45.28125-61.699219-45.28125zm0 60.566406c-19.054687 0-31.695312-9.199219-31.695312-15.285156 0-6.082031 12.640625-15.28125 31.695312-15.28125 19.054688 0 31.699219 9.199219 31.699219 15.28125 0 6.085937-12.644531 15.285156-31.699219 15.285156zm0 0"/><path d="m198.027344 321.910156c0-10.386718-8.429688-18.804687-18.828125-18.804687-10.398438 0-18.828125 8.417969-18.828125 18.804687 0 10.386719 8.429687 18.808594 18.828125 18.808594 10.398437 0 18.828125-8.421875 18.828125-18.808594zm0 0"/><path d="m351.671875 321.910156c0-10.386718-8.429687-18.804687-18.828125-18.804687s-18.828125 8.417969-18.828125 18.804687c0 10.386719 8.429687 18.808594 18.828125 18.808594s18.828125-8.421875 18.828125-18.808594zm0 0"/><path d="m497 207.886719-133.636719-.058594 72.683594-71.367187h60.910156c8.285157 0 15-6.714844 15-15v-60.097657c0-8.285156-6.714843-15-15-15-8.28125 0-15 6.714844-15 15v45.097657h-37.042969v-91.460938c0-8.285156-6.714843-15-15-15-8.28125 0-15 6.714844-15 15v100.167969l-12.222656 12-57.445312-57.378907c-5.859375-5.855468-15.355469-5.851562-21.210938.011719-5.855468 5.859375-5.847656 15.359375.011719 21.210938l57.238281 57.175781-60.738281 59.640625h-128.746094l-60.742187-59.640625 57.238281-57.175781c5.859375-5.855469 5.867187-15.351563.011719-21.210938-5.855469-5.863281-15.351563-5.867187-21.210938-.015625l-57.445312 57.382813-12.222656-12v-100.167969c0-8.285156-6.714844-15-15-15-8.285157 0-15 6.714844-15 15v91.460938h-37.046876v-45.097657c0-8.285156-6.714843-15-15-15-8.28125 0-15 6.714844-15 15v60.097657c0 8.285156 6.71875 15 15 15h60.914063l72.679687 71.367187-133.976562-.027344c-8.285156 0-15 6.714844-15 15v8.21875c0 42.457031 34.542969 77 77 77h20.050781v45.222657c0 87.539062 71.3125 158.757812 158.96875 158.757812 87.660157 0 158.972657-71.21875 158.972657-158.757812v-45.140626h20.007812c42.457031 0 77-34.539062 77-77v-8.214843c0-8.285157-6.714844-15-15-15zm-369.949219 145.355469v-115.414063h257.914063l.027344 115.414063c0 71-57.855469 128.757812-128.972657 128.757812-71.113281 0-128.96875-57.761719-128.96875-128.757812zm-30.015625-75.222657h-20.035156c-23.613281 0-43.214844-17.503906-46.511719-40.21875h66.546875zm317.929688-40.132812h66.546875c-3.296875 22.710937-22.898438 40.214843-46.511719 40.214843h-20.035156zm0 0"/></svg>