<svg height="511pt" viewBox="-56 1 511 511.99899" width="511pt" xmlns="http://www.w3.org/2000/svg"><path d="m373.691406 253.859375c16.71875-16.816406 25.925782-39.175781 25.925782-62.949219 0-45.589844-34.253907-83.289062-78.253907-88.464844-11.597656-26.03125-37.054687-43.832031-65.753906-45.324218-9.050781-15.601563-21.644531-28.878906-36.84375-38.753906-18.488281-12.015626-39.945313-18.367188-62.050781-18.367188-63.105469 0-114.445313 51.613281-114.445313 115.050781 0 2.347657.070313 4.707031.214844 7.058594-25.832031 14.980469-41.984375 42.628906-41.984375 73.242187 0 46.660157 37.769531 84.621094 84.199219 84.621094l226.296875.007813c23.6875 0 45.953125-9.273438 62.695312-26.121094zm-288.992187-4.015625c-29.816407 0-54.070313-24.445312-54.070313-54.492188 0-22.261718 13.21875-42.078124 33.679688-50.484374 6.460937-2.652344 10.25-9.398438 9.15625-16.292969-.707032-4.460938-1.066406-9.011719-1.066406-13.523438 0-46.828125 37.824218-84.921875 84.316406-84.921875 32.414062 0 62.339844 19.074219 76.234375 48.597656 2.679687 5.691407 8.617187 9.121094 14.878906 8.597657 1.441406-.121094 2.703125-.179688 3.855469-.179688 20.558594 0 38.828125 13.917969 44.425781 33.84375 1.828125 6.503907 7.757813 10.988281 14.503906 10.988281.1875 0 .375-.003906.566407-.007812 32.167968.101562 58.308593 26.503906 58.308593 58.941406 0 15.761719-6.09375 30.574219-17.164062 41.710938-11.046875 11.113281-25.722657 17.230468-41.328125 17.230468zm0 0"/><path d="m372.078125 377.828125h-7.152344v-7.152344c0-8.320312-6.746093-15.066406-15.066406-15.066406s-15.0625 6.746094-15.0625 15.066406v7.152344h-7.15625c-8.320313 0-15.0625 6.746094-15.0625 15.066406 0 8.316407 6.742187 15.0625 15.0625 15.0625h7.15625v7.15625c0 8.316407 6.742187 15.0625 15.0625 15.0625s15.066406-6.746093 15.066406-15.0625v-7.15625h7.152344c8.320313 0 15.066406-6.746093 15.066406-15.0625 0-8.320312-6.746093-15.066406-15.066406-15.066406zm0 0"/><path d="m198.402344 328.3125c-4.144532-7.214844-13.355469-9.699219-20.566406-5.550781l-17.199219 9.890625v-19.84375c0-8.320313-6.742188-15.0625-15.0625-15.0625-8.320313 0-15.066407 6.742187-15.066407 15.0625v19.839844l-17.191406-9.886719c-7.210937-4.144531-16.421875-1.664063-20.566406 5.550781-4.148438 7.210938-1.664062 16.417969 5.546875 20.566406l17.0625 9.8125-17.0625 9.8125c-7.210937 4.148438-9.695313 13.355469-5.546875 20.566406 2.785156 4.847657 7.855469 7.558594 13.070312 7.558594 2.546876 0 5.128907-.648437 7.496094-2.007812l17.191406-9.886719v19.820313c0 8.320312 6.746094 15.0625 15.066407 15.0625 8.320312 0 15.0625-6.742188 15.0625-15.0625v-19.824219l17.199219 9.890625c2.367187 1.359375 4.949218 2.007812 7.496093 2.007812 5.214844 0 10.285157-2.710937 13.070313-7.558594 4.148437-7.210937 1.664062-16.417968-5.546875-20.566406l-17.0625-9.8125 17.0625-9.8125c7.210937-4.148437 9.695312-13.355468 5.546875-20.566406zm0 0"/><path d="m250.066406 429.421875c0-10.386719-8.429687-18.808594-18.828125-18.808594-10.402343 0-18.832031 8.421875-18.832031 18.808594s8.429688 18.808594 18.832031 18.808594c10.398438 0 18.828125-8.421875 18.828125-18.808594zm0 0"/><path d="m332.914062 493.191406c0-10.390625-8.429687-18.8125-18.828124-18.8125-10.402344 0-18.832032 8.421875-18.832032 18.8125 0 10.386719 8.429688 18.808594 18.832032 18.808594 10.398437 0 18.828124-8.421875 18.828124-18.808594zm0 0"/><path d="m53.648438 386.214844c0-10.386719-8.433594-18.808594-18.832032-18.808594-10.398437 0-18.832031 8.421875-18.832031 18.808594 0 10.386718 8.433594 18.808594 18.832031 18.808594 10.398438 0 18.832032-8.421876 18.832032-18.808594zm0 0"/><path d="m146.128906 468.585938c0-10.386719-8.429687-18.808594-18.828125-18.808594-10.402343 0-18.832031 8.421875-18.832031 18.808594 0 10.386718 8.429688 18.808593 18.832031 18.808593 10.398438 0 18.828125-8.421875 18.828125-18.808593zm0 0"/><path d="m302.191406 327.46875c0-10.390625-8.429687-18.808594-18.828125-18.808594-10.402343 0-18.832031 8.417969-18.832031 18.808594 0 10.386719 8.429688 18.808594 18.832031 18.808594 10.398438 0 18.828125-8.421875 18.828125-18.808594zm0 0"/></svg>