<svg height="512pt" viewBox="-150 0 512 512" width="512pt" xmlns="http://www.w3.org/2000/svg"><path d="m164.117188 317.066406v-260.035156c0-31.445312-25.398438-57.03125-56.621094-57.03125h-3.933594c-31.222656 0-56.621094 25.582031-56.621094 57.03125v260.035156c-29.164062 19.648438-46.941406 52.789063-46.941406 88.511719 0 58.683594 47.339844 106.421875 105.527344 106.421875 58.191406 0 105.53125-47.738281 105.53125-106.421875 0-35.726563-17.777344-68.863281-46.941406-88.511719zm-58.589844 164.933594c-41.644532 0-75.527344-34.28125-75.527344-76.421875 0-27.886719 15.03125-53.570313 39.230469-67.019531 4.757812-2.648438 7.710937-7.664063 7.710937-13.109375v-150.855469h24.585938c8.285156 0 15-6.714844 15-15s-6.714844-15-15-15h-24.585938v-19.480469h24.585938c8.285156 0 15-6.71875 15-15 0-8.285156-6.714844-15-15-15h-24.585938v-38.082031c0-14.90625 11.941406-27.03125 26.621094-27.03125h3.933594c14.679687 0 26.621094 12.125 26.621094 27.03125v268.414062c0 5.449219 2.953124 10.464844 7.710937 13.113282 24.199219 13.449218 39.230469 39.132812 39.230469 67.019531 0 42.140625-33.882813 76.421875-75.53125 76.421875zm0 0"/><path d="m120.527344 353.382812v-104.921874c0-8.285157-6.714844-15-15-15-8.28125 0-15 6.714843-15 15v104.921874c-22.496094 6.5625-38.996094 27.484376-38.996094 52.230469 0 29.984375 24.222656 54.382813 53.996094 54.382813 29.777344 0 54-24.398438 54-54.382813 0-24.746093-16.5-45.667969-39-52.230469zm-15 76.613282c-13.230469 0-23.996094-10.9375-23.996094-24.382813 0-13.445312 10.765625-24.382812 23.996094-24.382812 13.234375 0 24 10.941406 24 24.382812 0 13.445313-10.765625 24.382813-24 24.382813zm0 0"/></svg>