<svg height="512pt" viewBox="-1 0 512 512" width="512pt" xmlns="http://www.w3.org/2000/svg"><path d="m296.871094 238.097656c0-11.089844-8.933594-20.082031-19.957032-20.082031-11.023437 0-19.957031 8.992187-19.957031 20.082031 0 11.09375 8.933594 20.085938 19.957031 20.085938 11.023438 0 19.957032-8.992188 19.957032-20.085938zm0 0"/><path d="m368.722656 238.097656c0-11.089844-8.9375-20.082031-19.957031-20.082031-11.023437 0-19.960937 8.992187-19.960937 20.082031 0 11.09375 8.9375 20.085938 19.960937 20.085938 11.019531 0 19.957031-8.992188 19.957031-20.085938zm0 0"/><path d="m68.433594 222.332031h71.273437c8.285157 0 15-6.714843 15-15v-71.71875c0-8.285156-6.714843-15-15-15h-71.273437c-8.285156 0-15 6.714844-15 15v71.71875c0 8.285157 6.714844 15 15 15zm15-71.71875h41.273437v41.71875h-41.273437zm0 0"/><path d="m99.824219 431.730469c0-11.09375-8.9375-20.085938-19.960938-20.085938-11.019531 0-19.957031 8.992188-19.957031 20.085938 0 11.089843 8.9375 20.082031 19.957031 20.082031 11.023438 0 19.960938-8.992188 19.960938-20.082031zm0 0"/><path d="m275.457031 431.730469c0-11.09375-8.933593-20.085938-19.957031-20.085938s-19.960938 8.992188-19.960938 20.085938c0 11.089843 8.9375 20.082031 19.960938 20.082031s19.957031-8.992188 19.957031-20.082031zm0 0"/><path d="m477.9375 367.464844-16.777344-60.8125c-1.796875-6.503906-7.714844-11.007813-14.460937-11.007813h-6.144531c3.898437-7.574219 6.117187-16.15625 6.117187-25.257812v-64.578125c0-30.417969-24.636719-55.164063-54.917969-55.164063h-5.980468v-41.652343h13.023437c8.285156 0 15-6.714844 15-15 0-8.28125-6.714844-15-15-15h-111.765625c-8.285156 0-15 6.71875-15 15 0 8.285156 6.714844 15 15 15h12.859375v41.652343h-91.023437v-56.117187c19.644531-6.089844 33.953124-24.429688 33.953124-46.050782v-.277343c0-26.578125-21.621093-48.199219-48.199218-48.199219h-145.945313c-26.578125 0-48.199219 21.621094-48.199219 48.199219v374.839843c-.308593 2.855469-.476562 5.753907-.476562 8.691407 0 44.261719 35.828125 80.269531 79.863281 80.269531 40.792969 0 74.515625-30.898438 79.269531-70.628906h17.097657c4.753906 39.730468 38.480469 70.628906 79.269531 70.628906s74.511719-30.898438 79.269531-70.628906h16.097657c4.753906 39.730468 38.476562 70.628906 79.269531 70.628906 44.035156 0 79.863281-36.007812 79.863281-80.269531 0-26.257813-12.609375-49.609375-32.0625-64.265625zm-97.667969 64.265625c0-27.722657 22.371094-50.273438 49.867188-50.273438 27.496093 0 49.863281 22.550781 49.863281 50.273438 0 27.71875-22.367188 50.269531-49.863281 50.269531-27.496094 0-49.867188-22.550781-49.867188-50.269531zm-74.90625 0c0 27.71875-22.367187 50.269531-49.863281 50.269531s-49.867188-22.550781-49.867188-50.269531c0-27.722657 22.371094-50.273438 49.867188-50.273438s49.863281 22.550781 49.863281 50.273438zm-175.632812 0c0 27.71875-22.371094 50.269531-49.867188 50.269531-27.496093 0-49.863281-22.550781-49.863281-50.269531 0-27.722657 22.367188-50.273438 49.863281-50.273438 27.496094 0 49.867188 22.550781 49.867188 50.273438zm-99.253907-383.53125c0-10.035157 8.164063-18.199219 18.199219-18.199219h145.945313c10.035156 0 18.199218 8.164062 18.199218 18.199219v.277343c0 10.035157-8.164062 18.199219-18.199218 18.199219h-164.144532zm299.414063 61.128906h25.882813v41.296875h-25.882813zm-120.882813 71.316406h182.746094c13.738282 0 24.917969 11.289063 24.917969 25.167969v64.578125c0 13.875-11.179687 25.164063-24.917969 25.164063h-182.746094zm221.128907 170.8125c-37.042969 0-68.269531 25.480469-77.257813 59.914063h-20.125c-8.988281-34.433594-40.214844-59.914063-77.253906-59.914063s-68.265625 25.480469-77.253906 59.914063h-21.125c-8.988282-34.433594-40.214844-59.914063-77.253906-59.914063-18.636719 0-35.789063 6.46875-49.390626 17.261719v-43.074219h404.800782l7.398437 26.8125c-4.085937-.652343-8.273437-1-12.539062-1zm-251.269531-55.8125h-148.390626v-198.96875h148.390626zm0 0"/><path d="m450.09375 431.730469c0-11.09375-8.9375-20.085938-19.957031-20.085938-11.023438 0-19.960938 8.992188-19.960938 20.085938 0 11.089843 8.9375 20.082031 19.960938 20.082031 11.019531 0 19.957031-8.992188 19.957031-20.082031zm0 0"/></svg>