<svg height="512pt" viewBox="-1 0 512 512.00005" width="512pt" xmlns="http://www.w3.org/2000/svg"><path d="m505.691406 4.519531c-5.8125-5.90625-15.308594-5.984375-21.210937-.167969-52.03125 51.203126-120.21875 81.929688-194.667969 88.320313-7.007812-12.207031-19.984375-20.421875-34.8125-20.421875-14.414062 0-27.078125 7.765625-34.214844 19.410156-72.246094-8.238281-140.710937-38.75-195.804687-87.855468-6.183594-5.511719-15.664063-4.96875-21.175781 1.214843-5.515626 6.183594-4.96875 15.667969 1.214843 21.179688 59.042969 52.625 132.269531 85.570312 209.640625 94.957031v53.867188c-14.34375 8.222656-26.21875 20.839843-33.84375 36.734374-9.105468 18.996094-11.246094 50.941407-5.867187 87.640626 5.242187 35.75 16.476562 69.324218 30.824219 92.113281 17.5625 27.898437 36.214843 33.757812 48.769531 33.757812 12.636719 0 31.445312-5.941406 49.261719-34.242187 14.398437-22.875 25.734374-56.375 31.101562-91.910156 5.523438-36.585938 3.488281-68.425782-5.589844-87.359376-7.644531-15.945312-19.574218-28.589843-33.972656-36.808593v-52.628907c80.253906-7.53125 153.804688-41.105468 210.179688-96.585937 5.902343-5.8125 5.980468-15.308594.167968-21.214844zm-261.03125 159.925781v-50.992187c0-6.074219 4.734375-11.203125 10.339844-11.203125s10.34375 5.128906 10.34375 11.203125v50.992187zm33.753906 210.601563c-8.089843 12.851563-16.792968 20.222656-23.875 20.222656-7.0625 0-15.367187-7.011719-23.378906-19.738281-26.921875-42.765625-36.246094-123.789062-23.292968-150.800781 8.53125-17.789063 24.46875-28.878907 43.148437-30.28125h8.097656c18.683594 1.402343 34.621094 12.492187 43.148438 30.28125 12.800781 26.6875 3.164062 107.40625-23.847657 150.316406zm0 0"/><path d="m255 462.988281c-8.285156 0-15 6.714844-15 15v19.011719c0 8.285156 6.714844 15 15 15s15-6.714844 15-15v-19.011719c0-8.285156-6.714844-15-15-15zm0 0"/><path d="m340.152344 451.988281c-3.824219-7.347656-12.878906-10.207031-20.230469-6.382812s-10.207031 12.882812-6.382813 20.230469l8.710938 16.742187c2.671875 5.136719 7.898438 8.078125 13.316406 8.078125 2.332032 0 4.699219-.542969 6.910156-1.695312 7.351563-3.824219 10.207032-12.878907 6.382813-20.230469zm0 0"/><path d="m401.757812 407.289062-15.53125-10.148437c-6.9375-4.53125-16.234374-2.585937-20.761718 4.351563-4.535156 6.933593-2.585938 16.230468 4.351562 20.761718l15.53125 10.148438c2.53125 1.65625 5.375 2.445312 8.191406 2.445312 4.894532 0 9.691407-2.394531 12.566407-6.796875 4.535156-6.933593 2.585937-16.230469-4.347657-20.761719zm0 0"/><path d="m190.078125 445.605469c-7.347656-3.820313-16.40625-.964844-20.226563 6.382812l-8.710937 16.742188c-3.824219 7.351562-.964844 16.40625 6.382813 20.230469 2.210937 1.152343 4.578124 1.695312 6.910156 1.695312 5.417968 0 10.648437-2.941406 13.320312-8.078125l8.710938-16.742187c3.820312-7.347657.964844-16.40625-6.386719-20.230469zm0 0"/><path d="m123.777344 397.140625-15.53125 10.148437c-6.9375 4.53125-8.886719 13.828126-4.351563 20.761719 2.875 4.40625 7.675781 6.796875 12.570313 6.796875 2.8125 0 5.660156-.789062 8.1875-2.445312l15.53125-10.148438c6.9375-4.53125 8.886718-13.824218 4.355468-20.761718-4.535156-6.9375-13.832031-8.882813-20.761718-4.351563zm0 0"/></svg>