<svg height="512pt" viewBox="-73 0 512 512" width="512pt" xmlns="http://www.w3.org/2000/svg"><path d="m351.035156 118.144531h-90.183594v-42.171875c0-42.601562-34.1875-75.972656-77.835937-75.972656-42.917969 0-77.835937 34.980469-77.835937 77.976562v40.171876h-90.179688c-8.285156 0-15 6.714843-15 15v363.851562c0 8.285156 6.714844 15 15 15h336.03125c8.285156 0 15-6.714844 15-15v-363.855469c.003906-8.28125-6.714844-15-14.996094-15zm-15 363.855469h-306.035156v-333.855469h306.03125v333.855469zm-200.855468-404.023438c0-26.453124 21.460937-47.976562 47.835937-47.976562 26.824219 0 47.835937 20.195312 47.835937 45.972656v42.175782h-95.671874zm0 0"/><path d="m100.847656 395.441406h67.167969v33.386719c0 8.285156 6.71875 15 15 15 8.285156 0 15-6.714844 15-15v-33.386719h67.171875c5.597656 0 10.734375-3.121094 13.3125-8.089844 2.578125-4.972656 2.175781-10.964843-1.050781-15.546874l-31.851563-45.234376c5.335938-.234374 10.167969-3.300781 12.644532-8.074218 2.578124-4.972656 2.175781-10.96875-1.050782-15.546875l-25.066406-35.59375c1.207031-1.140625 2.234375-2.484375 3.023438-4.003907 2.578124-4.972656 2.171874-10.964843-1.050782-15.546874l-38.816406-55.121094c-2.8125-3.992188-7.386719-6.367188-12.265625-6.367188s-9.457031 2.375-12.265625 6.367188l-38.816406 55.121094c-3.226563 4.582031-3.628906 10.574218-1.050782 15.546874.789063 1.519532 1.816407 2.867188 3.019532 4.003907l-25.0625 35.59375c-3.226563 4.578125-3.628906 10.574219-1.050782 15.546875 2.476563 4.769531 7.308594 7.839844 12.644532 8.074218l-31.855469 45.234376c-3.222656 4.582031-3.628906 10.574218-1.046875 15.546874 2.582031 4.96875 7.714844 8.089844 13.316406 8.089844zm60.753906-75.21875c3.222657-4.578125 3.628907-10.574218 1.046876-15.542968-2.476563-4.773438-7.304688-7.839844-12.644532-8.078126l22.199219-31.523437c3.222656-4.578125 3.628906-10.574219 1.050781-15.546875-.789062-1.519531-1.816406-2.863281-3.023437-4l12.785156-18.160156 12.789063 18.160156c-1.207032 1.136719-2.234376 2.484375-3.023438 4-2.578125 4.972656-2.171875 10.96875 1.050781 15.546875l22.199219 31.523437c-5.339844.238282-10.171875 3.304688-12.644531 8.078126-2.582031 4.96875-2.175781 10.964843 1.046875 15.542968l31.84375 45.21875h-106.519532zm0 0"/></svg>