<svg height="512pt" viewBox="0 -41 512 512" width="512pt" xmlns="http://www.w3.org/2000/svg"><path d="m497 316.085938c8.285156 0 15-6.71875 15-15 0-8.285157-6.714844-15-15-15h-38.144531v-22h38.144531c8.285156 0 15-6.71875 15-15 0-8.285157-6.714844-15-15-15h-38.40625c-1.292969-6.972657-7.394531-12.257813-14.738281-12.257813h-83.15625l.003906-166.828125c0-14.714844-5.933594-28.578125-16.699219-39.042969-10.59375-10.289062-24.476562-15.957031-39.089844-15.957031h-236.769531c-6.808593 0-12.546875 4.535156-14.382812 10.75h-38.761719c-8.285156 0-15 6.714844-15 15s6.714844 15 15 15h38.144531v22h-38.144531c-8.285156 0-15 6.714844-15 15s6.714844 15 15 15h38.144531v22h-38.144531c-8.285156 0-15 6.714844-15 15s6.714844 15 15 15h38.144531v22h-38.144531c-8.285156 0-15 6.714844-15 15s6.714844 15 15 15h38.507812c1.484376 6.71875 7.46875 11.75 14.636719 11.75h83.152344v167.328125c0 14.714844 5.929687 28.578125 16.699219 39.042969 10.59375 10.289062 24.472656 15.957031 39.089844 15.957031h236.769531c6.804687 0 12.542969-4.535156 14.378906-10.742187h38.765625c8.285156 0 15-6.71875 15-15 0-8.285157-6.714844-15-15-15h-38.144531v-22h38.144531c8.285156 0 15-6.71875 15-15 0-8.285157-6.714844-15-15-15h-38.144531v-22zm-315.703125 59.742187v-132.484375c.445313.253906.894531.503906 1.347656.75 9.355469 5.0625 20.242188 7.734375 31.480469 7.734375h121.707031l-24.398437 19.335937c-3.988282 2.855469-6.375 7.535157-6.273438 12.535157.101563 4.878906 2.558594 9.347656 6.5 12.054687l39.054688 31.089844-38.867188 30.800781c-3.984375 2.851563-6.375 7.535157-6.273437 12.535157.101562 4.875 2.5625 9.34375 6.5 12.050781l23.363281 18.597656h-128.351562c-13.980469 0-25.789063-11.449219-25.789063-25zm202.304687 25-38.882812-30.957031 39.398438-31.222656c3.675781-2.910157 5.777343-7.421876 5.683593-12.113282-.09375-4.457031-2.167969-8.644531-5.65625-11.425781l-39.839843-31.714844 39.398437-31.222656c.136719-.109375.257813-.230469.390625-.34375h44.761719v149zm-169.476562-179c-6.269531 0-12.222656-1.425781-17.207031-4.121094-9.769531-5.285156-15.605469-14.324219-15.617188-24.179687.011719-9.808594 5.75-18.75 14.621094-22.78125.152344-.066406.304687-.140625.457031-.214844l132.355469-65.582031c.664063-.304688 1.320313-.621094 1.96875-.953125v117.832031zm116.574219-166.996094v.105469c0 9.824219-5.738281 18.777344-14.625 22.8125-.152344.070312-.304688.140625-.453125.21875l-113.214844 56.09375-37.1875-29.46875 39.324219-31.304688c3.785156-2.730468 6.136719-7.121093 6.234375-11.890624.101562-5.109376-2.398438-9.871094-6.546875-12.699219l-23.597657-18.695313h124.277344c13.925782-.003906 25.695313 11.351563 25.789063 24.828125zm-247.554688-24.832031h49.1875l39.300781 31.144531-39.84375 31.714844c-3.574218 2.847656-5.65625 7.214844-5.65625 11.785156 0 4.582031 2.09375 8.910157 5.683594 11.753907l41.636719 32.996093c-9.691406 7.238281-16.75 17.5-20.054687 29.105469h-70.253907zm0 0"/></svg>