<svg height="512pt" viewBox="-1 0 512 512" width="512pt" xmlns="http://www.w3.org/2000/svg"><path d="m482.539062 100.199219c-8.203124 1.175781-13.898437 8.773437-12.722656 16.972656.429688 3.019531.78125 5.953125 1.09375 8.847656 3.566406 33.09375-.707031 58.179688-13.035156 76.449219-13.414062 19.871094-38.28125 31.527344-61.878906 29-5.515625-.59375-10.945313-1.957031-16.132813-3.984375.949219-1.636719 1.828125-3.3125 2.632813-5.019531 4.339844-9.1875 6.140625-19.761719 5.4375-30.257813-.539063-8.007812-2.53125-15.964843-5.988282-23.234375-6.894531-14.5-18.503906-24.414062-32.695312-27.917968-15.65625-3.863282-32.917969 6.542968-38.484375 23.195312-3.632813 10.867188-2.675781 23.296875 2.84375 36.941406 4.585937 11.339844 11.300781 21.578125 19.570313 30.273438-7.46875 3.980468-16.25 6.871094-25.902344 8.394531-8.183594 1.292969-13.769532 8.972656-12.476563 17.15625 1.164063 7.390625 7.542969 12.660156 14.796875 12.660156.777344 0 1.566406-.058593 2.355469-.183593 17.925781-2.832032 33.945313-9.390626 46.65625-18.738282 10.5625 5.589844 22.152344 9.25 34.191406 10.539063 3.277344.351562 6.550781.523437 9.824219.523437 31.542969 0 62.210938-16.042968 80.113281-42.566406 17.761719-26.316406 23.246094-61.097656 16.773438-106.328125-1.175781-8.199219-8.78125-13.898437-16.972657-12.722656zm-143.320312 73.558593c.609375-1.820312 2.292969-3.238281 3.117188-3.503906 6.964843 1.855469 10.824218 8.042969 12.515624 11.601563 4.160157 8.746093 4.363282 19.660156.519532 27.804687-.15625.332032-.320313.664063-.488282.992188-5.714843-6.003906-10.355468-13.019532-13.460937-20.707032-2.726563-6.742187-3.488281-12.339843-2.203125-16.1875zm0 0"/><path d="m402.269531 318.671875c0-10.421875-8.351562-18.867187-18.652343-18.867187-10.304688 0-18.65625 8.445312-18.65625 18.867187 0 10.417969 8.351562 18.863281 18.65625 18.863281 10.300781 0 18.652343-8.445312 18.652343-18.863281zm0 0"/><path d="m430.128906 115.214844c0-10.417969-8.351562-18.863282-18.65625-18.863282-10.300781 0-18.652344 8.445313-18.652344 18.863282 0 10.417968 8.351563 18.863281 18.652344 18.863281 10.304688 0 18.65625-8.445313 18.65625-18.863281zm0 0"/><path d="m467.6875 85.394531c23.355469 0 42.359375-19.152343 42.359375-42.695312 0-23.546875-19-42.699219-42.359375-42.699219s-42.359375 19.152344-42.359375 42.699219c0 23.542969 19.003906 42.695312 42.359375 42.695312zm0-55.394531c6.816406 0 12.363281 5.695312 12.363281 12.699219 0 7-5.546875 12.695312-12.363281 12.695312s-12.363281-5.695312-12.363281-12.695312c0-7.003907 5.546875-12.699219 12.363281-12.699219zm0 0"/><path d="m268.949219 179.675781c0-10.417969-8.351563-18.863281-18.65625-18.863281-10.300781 0-18.652344 8.445312-18.652344 18.863281s8.351563 18.863281 18.652344 18.863281c10.304687 0 18.65625-8.445312 18.65625-18.863281zm0 0"/><path d="m366.164062 40.292969c0-10.417969-8.355468-18.863281-18.65625-18.863281-10.304687 0-18.65625 8.445312-18.65625 18.863281 0 10.421875 8.351563 18.867187 18.65625 18.867187 10.300782 0 18.65625-8.445312 18.65625-18.867187zm0 0"/><path d="m243.371094 102.265625h7.011718v7.28125c0 8.285156 6.714844 15 15 15 8.285157 0 15-6.714844 15-15v-7.28125h7.011719c8.285157 0 15-6.71875 15-15 0-8.285156-6.714843-15-15-15h-7.011719v-7.285156c0-8.28125-6.714843-15-15-15-8.285156 0-15 6.71875-15 15v7.285156h-7.011718c-8.285156 0-15 6.714844-15 15 0 8.28125 6.714844 15 15 15zm0 0"/><path d="m150.253906 138.484375c-5.601562-6.105469-15.089844-6.515625-21.195312-.917969-6.105469 5.601563-6.511719 15.089844-.914063 21.195313l5.882813 6.414062-131.511719 304.890625c-4.796875 11.128906-2.632813 23.539063 5.648437 32.386719 5.835938 6.230469 13.628907 9.546875 21.722657 9.546875 3.394531 0 6.847656-.585938 10.222656-1.785156l309.5-110.011719 4.292969 4.679687c2.960937 3.226563 7.003906 4.859376 11.058594 4.859376 3.625 0 7.253906-1.304688 10.136718-3.945313 6.105469-5.601563 6.511719-15.089844.914063-21.191406zm-12.066406 305.03125-45.101562-107.679687 41.9375-97.222657 75.105468 179.332031zm-108.125 38.429687 46.523438-107.855468 33.289062 79.488281zm208.375-74.0625-86.914062-207.523437 4.65625-10.789063 171.234374 186.683594zm0 0"/></svg>