<svg height="511pt" viewBox="-52 1 511 511.999" width="511pt" xmlns="http://www.w3.org/2000/svg"><path d="m405.953125 260.429688c-3.707031-19.144532-10.933594-35.621094-21.511719-49.070313-1.425781-46.203125-20.105468-89.351563-52.960937-122.039063-30.53125-30.375-70.101563-48.523437-112.707031-51.996093v-22.324219c0-8.285156-6.714844-15-15-15-8.285157 0-15 6.714844-15 15v22.320312c-42.410157 3.476563-81.898438 21.703126-112.472657 52.230469-32.753906 32.703125-51.558593 75.753907-53.292969 121.75-10.867187 13.683594-17.902343 29.59375-21.460937 48.445313-4.191406 22.226562 4.382813 44.640625 22.375 58.507812l7.390625 5.691406c1.542969 38.179688 15.425781 73.453126 41.339844 104.945313 30.617187 37.214844 74.375 65.707031 126.550781 82.394531 1.488281.476563 3.027344.714844 4.570313.714844 1.582031 0 3.164062-.25 4.683593-.75 52.628907-17.296875 97.980469-46.527344 127.691407-82.304688 26.105468-31.429687 40.585937-67.765624 42.121093-105.472656l6.347657-5.109375c17.367187-13.976562 25.542968-36.175781 21.335937-57.933593zm-310.136719 149.402343c-15.261718-18.546875-25.523437-38.582031-30.703125-59.839843l4.546875 3.5c6 4.625 14.511719 4.042968 19.835938-1.351563l51.199218-51.929687 52.519532 52.050781c5.839844 5.789062 15.25 5.796875 21.101562.019531l52.875-52.246094 54.195313 52.363282c2.894531 2.792968 6.652343 4.210937 10.425781 4.210937 3.316406 0 6.644531-1.09375 9.402344-3.3125l2.722656-2.191406c-5.46875 20.742187-15.871094 40.617187-30.867188 58.671875-25.300781 30.46875-64 55.710937-109.351562 71.410156-44.054688-14.941406-82.234375-40.160156-107.902344-71.355469zm280.679688-143.703125c2.09375 10.8125-2 21.875-10.6875 28.863282l-33.09375 26.636718-50.953125-49.230468c-2.792969-2.703126-6.527344-4.210938-10.414063-4.214844l-8.425781-.003906c-.003906 0-.007813 0-.011719 0-3.945312 0-7.734375 1.554687-10.539062 4.328124l-48.582032 48-48.488281-48.058593c-2.808593-2.785157-6.597656-4.34375-10.550781-4.347657l-8.230469-.003906c-.003906 0-.007812 0-.011719 0-4.011718 0-7.859374 1.609375-10.679687 4.46875l-48.375 49.058594-35.222656-27.136719c-8.996094-6.933593-13.289063-18.113281-11.203125-29.175781 1.453125-7.707031 3.59375-14.585938 6.507812-20.851562l31.914063 24.609374c6.003906 4.628907 14.519531 4.054688 19.839843-1.347656l51.214844-51.9375 52.730469 52.082032c5.847656 5.777343 15.261719 5.769531 21.101563-.023438l52.664062-52.214844 54.183594 52.351563c2.894531 2.796875 6.652344 4.214843 10.425781 4.210937 3.316406 0 6.640625-1.09375 9.394531-3.308594l29.128906-23.414062c2.777344 6.261719 4.910157 13.152344 6.363282 20.660156zm-172.800782-199.425781c83.085938 0 150.746094 67.386719 150.832032 150.210937 0 .824219.078125 1.636719.210937 2.4375l-22.222656 17.863282-50.960937-49.234375c-2.792969-2.699219-6.527344-4.210938-10.410157-4.210938l-8.429687-.003906c-.003906 0-.003906 0-.007813 0-3.957031 0-7.753906 1.5625-10.5625 4.347656l-48.390625 47.976563-48.679687-48.074219c-2.804688-2.773437-6.585938-4.328125-10.53125-4.328125l-8.230469-.007812c-.003906 0-.007812 0-.011719 0-4.011719 0-7.859375 1.609374-10.679687 4.46875l-48.371094 49.054687-24.441406-18.847656c.042968-.441407.066406-.882813.070312-1.332031.683594-82.886719 68.339844-150.320313 150.816406-150.320313zm0 0"/></svg>