<svg height="511pt" viewBox="-1 1 511 511.999" width="511pt" xmlns="http://www.w3.org/2000/svg"><path d="m509.761719 78.15625c-1.765625-5.421875-6.453125-9.371094-12.09375-10.195312l-56.386719-8.230469-25.226562-51.34375c-2.523438-5.132813-7.746094-8.386719-13.464844-8.386719s-10.9375 3.253906-13.460938 8.386719l-25.226562 51.34375-56.386719 8.230469c-5.640625.824218-10.328125 4.773437-12.09375 10.195312s-.308594 11.375 3.765625 15.363281l17.246094 16.886719c-53.621094 6.332031-106.222656 24.289062-153.265625 53.132812-39.664063 24.320313-73.605469 55.257813-100.886719 91.957032-29.058594 39.09375-49.707031 83.691406-61.371094 132.546875-1.460937 6.121093 1.054688 12.507812 6.300782 15.984375 5.246093 3.480468 12.105468 3.3125 17.175781-.417969l63.203125-46.492187 17.1875 141.6875c.875 7.210937 6.789062 12.757812 14.039062 13.167968.289063.019532.574219.027344.859375.027344 6.902344 0 12.960938-4.734375 14.582031-11.519531 38.964844-163.195313 107.082032-284.855469 186.886719-333.789063 4.832031-2.960937 9.699219-5.644531 14.59375-8.0625l-5.351562 31.355469c-.960938 5.628906 1.359375 11.320313 5.984375 14.671875s10.753906 3.785156 15.804687 1.117188l50.417969-26.625 50.417969 26.625c2.199219 1.160156 4.605469 1.734374 7 1.734374 3.105469 0 6.195312-.960937 8.804687-2.851562 4.625-3.351562 6.945313-9.042969 5.984375-14.671875l-9.644531-56.480469 40.839844-39.984375c4.074218-3.988281 5.53125-9.941406 3.765625-15.363281zm-71.210938 39.410156c-3.515625 3.445313-5.121093 8.394532-4.292969 13.246094l5.84375 34.222656-30.503906-16.109375c-4.382812-2.316406-9.628906-2.316406-14.011718 0l-30.507813 16.109375 5.84375-34.222656c.828125-4.851562-.773437-9.800781-4.289063-13.246094l-24.816406-24.296875 34.230469-4.996093c4.890625-.710938 9.117187-3.789063 11.296875-8.226563l15.246094-31.03125 15.25 31.03125c2.179687 4.4375 6.40625 7.515625 11.296875 8.226563l34.230469 4.996093zm-252.976562 159.597656c-23.222657 41.703126-43.359375 89.472657-60.160157 142.632813l-11.136718-91.789063c-.640625-5.292968-4.042969-9.847656-8.9375-11.960937-1.910156-.828125-3.9375-1.230469-5.949219-1.230469-3.148437 0-6.273437.988282-8.890625 2.914063l-47.300781 34.796875c25.972656-67.976563 73.054687-125.03125 135.648437-163.414063 38.390625-23.535156 80.765625-39.203125 124.242188-46.519531-43.535156 27.429688-83.058594 72.6875-117.515625 134.570312zm0 0"/><path d="m327.789062 246.269531h-7.125v-7.214843c0-8.285157-6.714843-15-15-15-8.285156 0-15 6.714843-15 15v7.214843h-7.125c-8.28125 0-15 6.714844-15 15 0 8.285157 6.71875 15 15 15h7.125v7.214844c0 8.285156 6.714844 15 15 15 8.285157 0 15-6.714844 15-15v-7.214844h7.125c8.285157 0 15-6.714843 15-15 0-8.285156-6.714843-15-15-15zm0 0"/><path d="m124.375 101.421875h7.125v7.214844c0 8.285156 6.714844 15 15 15s15-6.714844 15-15v-7.214844h7.125c8.28125 0 15-6.71875 15-15 0-8.285156-6.71875-15-15-15h-7.125v-7.21875c0-8.28125-6.714844-15-15-15s-15 6.71875-15 15v7.21875h-7.125c-8.285156 0-15 6.714844-15 15 0 8.28125 6.71875 15 15 15zm0 0"/><path d="m263.15625 46.128906c0-10.417968-8.351562-18.863281-18.65625-18.863281s-18.65625 8.445313-18.65625 18.863281c0 10.417969 8.351562 18.863282 18.65625 18.863282s18.65625-8.445313 18.65625-18.863282zm0 0"/><path d="m275.15625 357.421875c0-10.417969-8.351562-18.867187-18.65625-18.867187s-18.65625 8.449218-18.65625 18.867187 8.351562 18.863281 18.65625 18.863281 18.65625-8.445312 18.65625-18.863281zm0 0"/><path d="m407.8125 300.398438c0-10.421876-8.351562-18.867188-18.65625-18.867188s-18.65625 8.445312-18.65625 18.867188c0 10.417968 8.351562 18.863281 18.65625 18.863281s18.65625-8.445313 18.65625-18.863281zm0 0"/></svg>