<svg height="511pt" viewBox="-55 1 511 511.999" width="511pt" xmlns="http://www.w3.org/2000/svg"><path d="m402.484375 192.417969c0-30.503907-24.671875-55.324219-55-55.324219h-66.953125c7.765625-13.636719 11.957031-29.21875 11.957031-45.484375 0-50.511719-40.820312-91.609375-90.996093-91.609375-50.175782 0-90.996094 41.097656-90.996094 91.609375 0 16.265625 4.1875 31.851563 11.953125 45.484375h-66.953125c-30.324219 0-54.996094 24.820312-54.996094 55.324219 0 30.503906 24.671875 55.320312 54.996094 55.320312h53.648437l-54.496093 185.238281c-12.699219 26.90625-1.8125 59.402344 24.726562 73 7.808594 4 16.273438 6.023438 24.816406 6.023438 5.722656 0 11.476563-.910156 17.085938-2.738281 14.058594-4.582031 25.460937-14.367188 32.109375-27.554688l45.457031-90.152343c.558594-1.113282 1.449219-1.675782 2.644531-1.675782 1.195313 0 2.085938.5625 2.648438 1.675782l45.457031 90.152343c6.648438 13.1875 18.050781 22.972657 32.109375 27.554688 13.984375 4.558593 28.867187 3.390625 41.902344-3.285157 26.539062-13.601562 37.425781-46.09375 24.726562-73.003906l-54.496093-185.234375h53.648437c30.328125 0 55-24.816406 55-55.320312zm-30 0c0 13.960937-11.214844 25.320312-25 25.320312h-5.996094v-50.644531h5.996094c13.785156 0 25 11.359375 25 25.324219zm-341.984375 0c0-13.964844 11.210938-25.324219 24.996094-25.324219h7.003906v50.644531h-7.003906c-13.785156 0-24.996094-11.359375-24.996094-25.320312zm81.480469 288.324219c-6.332031 2.0625-13.054688 1.542968-18.921875-1.464844-12.351563-6.324219-17.273438-21.628906-10.980469-34.113282.40625-.804687.738281-1.648437.996094-2.519531l1.574219-5.355469 47.246093 20.414063-5.292969 10.496094c-3.023437 6-8.21875 10.457031-14.621093 12.542969zm197.945312-1.464844c-5.867187 3.007812-12.589843 3.527344-18.925781 1.464844-6.402344-2.085938-11.59375-6.542969-14.621094-12.542969l-5.289062-10.492188 47.246094-20.414062 1.574218 5.351562c.253906.871094.589844 1.710938.996094 2.519531 6.292969 12.484376 1.367188 27.789063-10.980469 34.113282zm-50.527343-242.304688 50.40625 171.328125-52.246094 22.570313-26.632813-52.824219c-5.652343-11.203125-16.929687-18.164063-29.433593-18.164063-12.507813 0-23.785157 6.960938-29.433594 18.164063l-26.632813 52.824219-52.246093-22.574219 50.40625-171.324219c1.332031-4.535156.453124-9.433594-2.378907-13.21875-2.835937-3.785156-7.285156-6.015625-12.011719-6.015625h-36.695312v-50.644531h62.375c6.394531 0 12.089844-4.054688 14.175781-10.101562 2.089844-6.046876.113281-12.75-4.917969-16.699219-15.019531-11.785157-23.636718-29.527344-23.636718-48.683594 0-33.972656 27.363281-61.609375 60.996094-61.609375 33.632812 0 60.996093 27.636719 60.996093 61.609375 0 19.15625-8.613281 36.898437-23.636719 48.683594-5.03125 3.949219-7.007812 10.652343-4.917968 16.699219 2.085937 6.046874 7.78125 10.101562 14.175781 10.101562h63.382813v50.644531h-37.703126c-4.726562 0-9.175781 2.230469-12.007812 6.015625-2.835938 3.785156-3.714844 8.683594-2.382812 13.21875zm0 0"/><path d="m220.148438 215.816406c0-10.457031-8.355469-18.9375-18.65625-18.9375-10.304688 0-18.65625 8.480469-18.65625 18.9375 0 10.460938 8.351562 18.9375 18.65625 18.9375 10.300781 0 18.65625-8.476562 18.65625-18.9375zm0 0"/><path d="m220.148438 282.132812c0-10.457031-8.355469-18.9375-18.65625-18.9375-10.304688 0-18.65625 8.480469-18.65625 18.9375 0 10.460938 8.351562 18.941407 18.65625 18.941407 10.300781 0 18.65625-8.480469 18.65625-18.941407zm0 0"/><path d="m233.269531 93.058594c-5.882812-5.832032-15.378906-5.792969-21.214843.085937-2.832032 2.855469-6.582032 4.429688-10.5625 4.429688-3.980469 0-7.730469-1.574219-10.5625-4.429688-5.835938-5.882812-15.332032-5.921875-21.214844-.085937-5.878906 5.835937-5.917969 15.332031-.082032 21.210937 8.507813 8.578125 19.824219 13.300781 31.859376 13.300781 12.039062 0 23.355468-4.722656 31.863281-13.300781 5.832031-5.878906 5.792969-15.375-.085938-21.210937zm0 0"/></svg>