<svg height="512pt" viewBox="-61 0 512 512.00073" width="512pt" xmlns="http://www.w3.org/2000/svg"><path d="m337.824219 195.59375c-8.164063 0-15.894531 1.875-22.792969 5.214844v-56.539063c0-8.285156-6.71875-15-15-15h-285.03125c-8.285156 0-15 6.714844-15 15v282.730469c0 46.871094 38.132812 85 85 85h145.027344c46.871094 0 85-38.128906 85-85v-16.6875c6.898437 3.339844 14.632812 5.214844 22.796875 5.214844 28.949219 0 52.503906-23.554688 52.503906-52.503906v-114.925782c0-28.949218-23.554687-52.503906-52.503906-52.503906zm22.503906 167.429688c0 12.40625-10.09375 22.503906-22.503906 22.503906-12.410157 0-22.503907-10.097656-22.503907-22.503906v-114.925782c0-12.410156 10.09375-22.503906 22.503907-22.503906 12.410156 0 22.503906 10.09375 22.503906 22.503906zm-130.300781 118.976562h-145.027344c-30.328125 0-55-24.671875-55-55v-267.730469h255.027344v267.730469c0 30.328125-24.671875 55-55 55zm0 0"/><path d="m222.621094 325.355469c5.339844-.230469 10.175781-3.296875 12.65625-8.074219 2.578125-4.96875 2.175781-10.960938-1.046875-15.542969l-25.074219-35.632812c1.207031-1.136719 2.234375-2.484375 3.027344-4.003907 2.578125-4.96875 2.175781-10.964843-1.046875-15.542968l-38.816407-55.160156c-2.8125-3.992188-7.386718-6.367188-12.269531-6.367188-4.878906 0-9.457031 2.375-12.265625 6.367188l-38.816406 55.160156c-3.222656 4.578125-3.625 10.574218-1.046875 15.542968.789063 1.519532 1.816406 2.867188 3.027344 4.003907l-25.074219 35.632812c-3.226562 4.582031-3.628906 10.574219-1.046875 15.542969 2.476563 4.777344 7.3125 7.84375 12.65625 8.074219l-31.871094 45.285156c-3.222656 4.578125-3.625 10.574219-1.046875 15.542969 2.582032 4.96875 7.714844 8.089844 13.316406 8.089844h67.167969v33.417968c0 8.285156 6.714844 15 15 15 8.285157 0 15-6.714844 15-15v-33.417968h67.167969c5.601562 0 10.734375-3.121094 13.3125-8.089844 2.582031-4.96875 2.175781-10.964844-1.046875-15.542969zm-115.84375 38.917969 31.859375-45.269532c3.222656-4.578125 3.625-10.574218 1.042969-15.542968-2.476563-4.773438-7.3125-7.839844-12.65625-8.074219l22.210937-31.5625c3.226563-4.582031 3.628906-10.574219 1.046875-15.542969-.789062-1.523438-1.816406-2.871094-3.023438-4.007812l12.792969-18.179688 12.792969 18.179688c-1.210938 1.140624-2.238281 2.488281-3.027344 4.007812-2.582031 4.96875-2.175781 10.960938 1.046875 15.542969l22.210938 31.5625c-5.34375.234375-10.179688 3.300781-12.660157 8.074219-2.578124 4.96875-2.175781 10.964843 1.046876 15.542968l31.859374 45.269532zm0 0"/><path d="m71.894531 77.382812-3.261719 3.601563c-5.5625 6.136719-5.089843 15.625 1.046876 21.1875 2.875 2.601563 6.476562 3.878906 10.066406 3.878906 4.089844 0 8.160156-1.660156 11.121094-4.929687l3.261718-3.597656c14.515625-16.027344 14.515625-40.195313 0-56.222657-3.9375-4.351562-4.082031-11.039062-.335937-15.554687l.964843-1.167969c5.292969-6.375 4.410157-15.832031-1.964843-21.121094-6.375-5.292969-15.832031-4.410156-21.121094 1.964844l-.96875 1.171875c-13.210937 15.929688-12.699219 39.507812 1.191406 54.84375 4.117188 4.546875 4.117188 11.398438 0 15.945312zm0 0"/><path d="m145.835938 77.382812-3.261719 3.601563c-5.5625 6.136719-5.089844 15.625 1.050781 21.1875 2.871094 2.601563 6.472656 3.878906 10.0625 3.878906 4.089844 0 8.164062-1.660156 11.121094-4.929687l3.261718-3.597656c14.515626-16.027344 14.515626-40.195313 0-56.222657-3.9375-4.351562-4.082031-11.039062-.335937-15.554687l.964844-1.167969c5.292969-6.375 4.410156-15.832031-1.964844-21.121094-6.375-5.292969-15.832031-4.410156-21.121094 1.964844l-.96875 1.171875c-13.210937 15.929688-12.699219 39.507812 1.191407 54.84375 4.117187 4.546875 4.117187 11.398438 0 15.945312zm0 0"/><path d="m219.777344 77.382812-3.257813 3.601563c-5.5625 6.140625-5.09375 15.625 1.046875 21.1875 2.871094 2.601563 6.472656 3.878906 10.066406 3.878906 4.085938 0 8.160157-1.660156 11.121094-4.929687l3.261719-3.597656c14.511719-16.027344 14.511719-40.199219 0-56.222657-3.941406-4.351562-4.085937-11.039062-.335937-15.558593l.964843-1.167969c5.289063-6.375 4.40625-15.832031-1.96875-21.121094-6.378906-5.289063-15.835937-4.40625-21.125 1.972656l-.964843 1.164063c-13.210938 15.933594-12.699219 39.511718 1.191406 54.847656 4.117187 4.546875 4.117187 11.398438 0 15.945312zm0 0"/></svg>