<svg height="512pt" viewBox="-33 0 512 512" width="512pt" xmlns="http://www.w3.org/2000/svg"><path d="m236.378906 411.925781c-8.683594 3.5625-18.242187 3.5625-26.921875 0-7.664062-3.148437-16.429687.511719-19.574219 8.171875-3.148437 7.664063.511719 16.429688 8.175782 19.578125 8.015625 3.289063 16.4375 4.9375 24.859375 4.9375s16.84375-1.644531 24.859375-4.9375c7.660156-3.148437 11.320312-11.914062 8.175781-19.578125-3.148437-7.660156-11.910156-11.324218-19.574219-8.171875zm0 0"/><path d="m391.328125 160.695312c-2.785156-89.074218-77.289063-160.695312-168.480469-160.695312-91.199218 0-165.707031 71.625-168.488281 160.703125-30.375 2.417969-54.359375 27.890625-54.359375 58.878906v.367188c0 26.46875 17.453125 48.929687 41.441406 56.453125-4.007812 17.578125-6.042968 34.527344-6.042968 50.570312 0 102.023438 84.121093 185.027344 187.519531 185.027344 103.394531 0 187.515625-83.003906 187.515625-185.023438 0-16.050781-2.035156-33.007812-6.046875-50.589843 23.996093-7.542969 41.449219-29.988281 41.449219-56.4375v-.367188c0-31.035156-24.0625-56.539062-54.507813-58.886719zm-168.410156 321.304688c-86.855469 0-157.519531-69.542969-157.519531-155.023438 0-14.757812 2.144531-31.125 6.238281-47.878906h4.675781c8.746094 67.359375 74.515625 125.457032 146.25 125.648438.117188 0 .234375.007812.351562.007812.121094 0 .234376-.007812.351563-.007812 57.125-.152344 110.457031-37.109375 134.164063-86.226563 8.078124-1.542969 15.554687-4.761719 22.050781-9.277343.625 6.105468.953125 12.039062.953125 17.734374 0 85.480469-70.664063 155.023438-157.515625 155.023438zm-192.917969-262.050781v-.367188c0-16.035156 13.046875-29.082031 29.085938-29.082031h229.929687v58.597656h-229.941406c-16.03125 0-29.074219-13.078125-29.074219-29.148437zm331.421875-54.0625.066406 42.160156c-4.78125-1.277344-9.804687-1.972656-14.996093-1.972656-9.945313 0-19.308594 2.511719-27.476563 6.917969v-37.492188c0-3.320312-1.101563-6.546875-3.132813-9.175781l-32.75-42.363281c-5.066406-6.554688-14.484374-7.761719-21.039062-2.695313-6.558594 5.066406-7.761719 14.488281-2.695312 21.042969l14.0625 18.191406h-189.082032c2.882813-72.4375 63.890625-130.5 138.46875-130.5 76.410156 0 138.574219 60.949219 138.574219 135.886719zm-102.152344 202.460937c-.191406-19.714844-16.421875-35.699218-36.351562-35.699218-19.9375 0-36.171875 15.992187-36.355469 35.71875-40.066406-14.097657-73.003906-49.792969-79.898438-89.269532h184.773438c5.019531 16.507813 17.460938 29.871094 33.484375 36.300782-14.683594 23.875-38.527344 43.375-65.652344 52.949218zm-36.351562 6.402344c-.042969 0-.085938-.003906-.128907-.003906-3.449218-.0625-6.234374-2.75-6.234374-6.042969 0-3.339844 2.855468-6.054687 6.363281-6.054687 3.507812 0 6.363281 2.714843 6.363281 6.054687-.003906 3.292969-2.789062 5.980469-6.234375 6.042969-.042969 0-.085937.003906-.128906.003906zm123.574219-85.191406c-15.148438 0-27.476563-11.996094-27.476563-26.742188s12.328125-26.742187 27.476563-26.742187c15.152343 0 27.480468 11.996093 27.480468 26.742187s-12.328125 26.742188-27.480468 26.742188zm69.34375-69.609375c0 10.8125-5.929688 20.265625-14.699219 25.292969-2.140625-6.460938-5.421875-12.414063-9.613281-17.628907l-.0625-36.726562c13.804687 2.257812 24.375 14.265625 24.375 28.695312zm0 0"/><path d="m188.402344 309.898438c0-10.34375-8.394532-18.726563-18.75-18.726563-10.355469 0-18.753906 8.382813-18.753906 18.726563s8.398437 18.730468 18.753906 18.730468c10.355468 0 18.75-8.386718 18.75-18.730468zm0 0"/><path d="m294.933594 309.898438c0-10.34375-8.394532-18.726563-18.75-18.726563-10.355469 0-18.75 8.382813-18.75 18.726563s8.394531 18.730468 18.75 18.730468c10.355468 0 18.75-8.386718 18.75-18.730468zm0 0"/></svg>