<svg height="512pt" viewBox="0 -38 512 511" width="512pt" xmlns="http://www.w3.org/2000/svg"><path d="m497 405.550781h-82.371094v-54.707031h39.207032c7.269531 0 13.496093-5.21875 14.769531-12.375l41.898437-235.742188c.773438-4.367187-.421875-8.859374-3.273437-12.257812-2.847657-3.402344-7.058594-5.367188-11.496094-5.367188-43.800781 0-84.847656 9.234376-119.382813 26.480469-17.203124-22.835937-40.582031-39.738281-67.253906-47.511719l40.898438-37.515624c4.558594-4.183594 6.082031-10.730469 3.839844-16.496094-2.242188-5.761719-7.792969-9.558594-13.976563-9.558594h-127.945313c-6.183593 0-11.734374 3.796875-13.976562 9.558594-2.246094 5.765625-.71875 12.3125 3.835938 16.496094l40.902343 37.515624c-48.847656 14.234376-86.652343 59.089844-95.703125 114.910157h-29.367187c-4.730469 0-9.183594 2.230469-12.015625 6.019531-2.832032 3.789062-3.710938 8.691406-2.371094 13.230469l27.296875 92.425781 14.601563 49.433594c1.882812 6.375 7.738281 10.75 14.386718 10.75h39.726563v54.707031h-111.414063c-31.878906.003906-57.816406-25.800781-57.816406-57.511719 0-31.714844 25.9375-57.515625 57.816406-57.515625 6.527344 0 12.0625-4.171875 14.125-9.992187.554688-1.566406.875-3.246094.875-5.007813 0-8.28125-6.714844-15-15-15-48.421875 0-87.816406 39.257813-87.816406 87.515625 0 48.253906 39.394531 87.515625 87.816406 87.515625h409.183594c8.285156 0 15-6.71875 15-15 0-8.285156-6.714844-15-15-15zm-302.90625-196.570312 13.769531 51.21875c1.765625 6.554687 7.703125 11.105469 14.488281 11.105469h70.175782c8.285156 0 15-6.714844 15-15 0-36.398438 17.664062-70.863282 49.742187-97.050782 30.980469-25.292968 73.253907-40.492187 120.460938-43.570312l-36.464844 205.160156h-270.550781l-33.039063-111.863281zm107.21875-178.480469-25.425781 23.324219-25.429688-23.324219zm-25.425781 58.828125c29.460937 0 56.011719 14.507813 74.488281 37.601563-4.164062 2.890624-8.195312 5.917968-12.078125 9.085937-19.226563 15.699219-34.289063 34.101563-44.765625 54.691406-8.261719 16.234375-13.351562 33.199219-15.207031 50.601563h-44.472657l-13.773437-51.222656c-1.761719-6.550782-7.699219-11.105469-14.484375-11.105469h-28.140625c10.292969-51.285157 50.519531-89.652344 98.433594-89.652344zm-46.65625 261.515625h155.398437v54.707031h-155.398437zm0 0"/></svg>