<svg height="511pt" viewBox="1 -18 511.99813 511" width="511pt" xmlns="http://www.w3.org/2000/svg"><path d="m507.597656 26.117188c5.863282-5.855469 5.867188-15.351563.015625-21.214844-5.851562-5.859375-15.347656-5.871094-21.210937-.015625-12.898438 12.871093-32.515625 19.621093-55.238282 18.964843-21.847656-.617187-44.046874-7.863281-60.902343-19.878906-5.355469-3.816406-12.574219-3.703125-17.800781.285156-5.230469 3.984376-7.253907 10.914063-4.992188 17.089844.042969.117188 3.824219 13.484375-5.394531 37.167969-8.90625 22.878906-31.167969 58.179687-86.074219 102.007813-52.746094-42.121094-75.152344-76.242188-84.621094-98.441407-10.574218-24.792969-7.296875-39.023437-6.78125-40.898437 2.523438-6.136719.574219-12.875-4.617187-17.046875-5.238281-4.2070315-12.773438-4.0664065-18.242188-.167969-16.859375 12.015625-39.058593 19.261719-60.902343 19.882812-22.707032.648438-42.34375-6.09375-55.238282-18.96875-5.863281-5.851562-15.359375-5.84375-21.210937.019532-5.855469 5.863281-5.847657 15.359375.015625 21.210937 28.894531 28.851563 23.230468 82.894531-.191406 115.269531-3.949219 5.457032-4.1875005 13.039063.011718 18.304688 4.148438 5.207031 10.824219 7.207031 16.96875 4.703125 1.824219-.425781 15.761719-3.117187 39.65625 7.765625 21.46875 9.78125 54.546875 32.273438 96.046875 83.832031-.164062 2.347657-.257812 4.71875-.257812 7.109375 0 4.964844.375 9.847656 1.082031 14.621094-48.21875 6.78125-85.441406 48.25-85.441406 98.242188 0 54.710937 44.574218 99.21875 99.359375 99.21875 35.554687 0 66.800781-18.746094 84.359375-46.859376 17.5625 28.113282 48.808594 46.859376 84.359375 46.859376 54.789062 0 99.359375-44.507813 99.359375-99.21875 0-49.992188-37.21875-91.460938-85.4375-98.242188.707031-4.773438 1.078125-9.65625 1.078125-14.621094 0-2.390625-.089844-4.761718-.257813-7.109375 41.503906-51.558593 74.582032-74.050781 96.050782-83.832031 23.894531-10.882812 37.828124-8.191406 39.65625-7.765625 6.140624 2.5 12.816406.503906 16.96875-4.703125 4.199218-5.265625 3.960937-12.847656.011718-18.304688-23.417968-32.375-29.082031-86.417968-.1875-115.265624zm-167.238281 419.066406c-38.246094 0-69.363281-31.054688-69.363281-69.222656 0-5.167969.589844-10.199219 1.671875-15.046876 31.847656-5.394531 58.582031-25.972656 72.453125-53.988281 36.03125 2.453125 64.597656 32.46875 64.597656 69.039063 0 38.164062-31.117188 69.21875-69.359375 69.21875zm-238.082031-69.222656c0-36.566407 28.566406-66.585938 64.59375-69.039063 13.875 28.019531 40.609375 48.59375 72.457031 53.988281 1.082031 4.851563 1.667969 9.882813 1.667969 15.050782 0 38.167968-31.113282 69.21875-69.359375 69.21875-38.246094 0-69.359375-31.050782-69.359375-69.21875zm153.71875-43.644532c-38.242188 0-69.359375-31.050781-69.359375-69.21875 0-38.167968 31.117187-69.21875 69.359375-69.21875 38.246094 0 69.363281 31.050782 69.363281 69.21875 0 38.167969-31.117187 69.21875-69.363281 69.21875zm-213.925782-197.304687c11.199219-25.738281 15.246094-56.347657 8.710938-83.992188 27.507812 6.246094 58.046875 2.144531 83.875-8.949219 1.082031 7.820313 3.28125 16.980469 7.308594 27.328126 12.789062 32.855468 39.238281 66.675781 78.839844 100.914062-7.117188 2.703125-13.851563 6.195312-20.082032 10.375l-50.808594-50.722656c-5.863281-5.855469-15.359374-5.847656-21.214843.019531-5.851563 5.863281-5.84375 15.359375.019531 21.210937l49.867188 49.78125c-4.808594 5.964844-8.941407 12.488282-12.28125 19.460938-33.566407-38.574219-66.351563-64.628906-97.851563-77.679688-9.980469-4.140624-18.816406-6.5-26.382813-7.746093zm291.339844 65.964843 49.867188-49.78125c5.863281-5.855468 5.871094-15.351562.019531-21.214843-5.855469-5.863281-15.355469-5.871094-21.214844-.015625l-50.808593 50.722656c-6.230469-4.179688-12.960938-7.671875-20.082032-10.375 39.597656-34.238281 66.050782-68.058594 78.835938-100.917969 4.027344-10.347656 6.230468-19.503906 7.3125-27.324219 25.832031 11.09375 56.363281 15.195313 83.875 8.945313-6.535156 27.644531-2.488282 58.257813 8.710937 83.992187-7.566406 1.25-16.402343 3.609376-26.382812 7.746094-31.5 13.050782-64.289063 39.105469-97.851563 77.679688-3.339844-6.972656-7.472656-13.496094-12.28125-19.457032zm0 0"/></svg>