<svg height="512pt" viewBox="0 -1 512 512" width="512pt" xmlns="http://www.w3.org/2000/svg"><path d="m512 254.410156c0-21.515625-8.699219-41.894531-23.550781-56.746094.949219-1.265624 1.832031-2.589843 2.640625-3.960937 11.859375-20.210937 5.085937-46.320313-15.097656-58.203125-5.761719-3.390625-12.183594-5.304688-18.695313-5.738281-2.113281-28.359375-19.023437-52.632813-42.988281-65.097657-.972656-6.800781-3.171875-13.503906-6.605469-19.824218-9.820313-18.101563-27.875-29.320313-48.28125-30.007813-.710937-.023437-1.425781-.035156-2.140625-.035156h-5.410156c-14.457032 0-28.273438 2.789063-40.949219 7.855469-14.644531-14.335938-34.429687-22.652344-55.671875-22.652344-20.980469 0-40.601562 8.167969-55.21875 22.242188-12.386719-4.804688-25.839844-7.445313-39.902344-7.445313h-5.410156c-.714844 0-1.429688.011719-2.128906.035156-20.417969.6875-38.472656 11.90625-48.292969 30.007813-3.242187 5.972656-5.382813 12.292968-6.429687 18.710937-25.101563 12.085938-42.972657 36.953125-45.175782 66.136719-13.519531.925781-26.304687 8.335938-33.695312 20.933594-9.171875 15.621094-7.203125 34.769531 3.484375 48.148437-14.183594 14.761719-22.480469 34.710938-22.480469 55.640625 0 20.894532 7.9375 40.429688 21.875 55.105469-1.042969 1.363281-2.007812 2.792969-2.878906 4.28125-11.863282 20.210937-5.089844 46.320313 15.097656 58.199219 5.703125 3.359375 12.023438 5.273437 18.433594 5.738281 1.679687 42.453125 36.46875 76.519531 79.128906 76.859375 2.03125 12.011719 9.210938 22.945312 20.382812 29.523438 9.785157 5.761718 21.222657 7.359374 32.207032 4.507812 4.210937-1.09375 8.160156-2.789062 11.753906-5.015625 14.933594 16.609375 36.308594 26.390625 59.25 26.390625 22.773438 0 43.992188-9.628906 58.90625-26.007812.589844.390624 1.195312.765624 1.8125 1.125 9.78125 5.761718 21.21875 7.363281 32.207031 4.507812s20.210938-9.824219 25.964844-19.625c2.804687-4.78125 4.605469-10.035156 5.386719-15.425781 20.644531-.46875 39.980468-8.753907 54.625-23.453125 14.652344-14.699219 22.902344-34.109375 23.347656-54.824219 12.046875-2.023437 23.019531-9.226563 29.59375-20.417969 8.070312-13.761718 7.472656-30.351562-.148438-43.265625 15.757813-14.964843 25.054688-36.003906 25.054688-58.203125zm-80.957031 94.4375c-4.144531 3.621094-5.976563 9.21875-4.769531 14.589844.824218 3.667969 1.242187 7.398438 1.242187 11.085938 0 13.382812-5.1875 25.964843-14.613281 35.425781-9.410156 9.445312-21.921875 14.644531-35.222656 14.644531-3.789063 0-7.621094-.445312-11.378907-1.328125-5.480469-1.285156-11.214843.605469-14.859375 4.898437-3.640625 4.289063-4.574218 10.261719-2.417968 15.457032 1.53125 3.6875 1.253906 7.765625-.757813 11.195312-1.691406 2.882813-4.402344 4.933594-7.632813 5.769532-3.222656.835937-6.578124.367187-9.449218-1.320313-2.175782-1.285156-3.894532-3.167969-4.964844-5.445313-2.421875-5.15625-7.554688-8.496093-13.246094-8.621093-.109375 0-.222656-.003907-.332031-.003907-5.566406 0-10.6875 3.085938-13.28125 8.03125-8.664063 16.515626-25.566406 26.773438-44.109375 26.773438-18.515625 0-35.402344-10.234375-44.078125-26.707031-2.59375-4.925781-7.703125-8.011719-13.269531-8.011719h-.003906c-5.5625 0-10.671876 3.082031-13.269532 8.003906-.09375.175782-.1875.351563-.289062.53125-1.695313 2.882813-4.40625 4.933594-7.636719 5.769532-3.222656.835937-6.574219.367187-9.445313-1.320313-5.28125-3.109375-7.53125-9.519531-5.355468-15.246094 1.980468-5.214843.90625-11.101562-2.796875-15.277343-3.699219-4.175782-9.414063-5.957032-14.832031-4.613282-3.921876.972656-7.949219 1.464844-11.972657 1.464844-27.480469 0-49.835937-22.460938-49.835937-50.070312 0-3.945313.472656-7.914063 1.402344-11.796876 1.398437-5.820312-.796876-11.910156-5.585938-15.503906-4.789062-3.589844-11.253906-3.988281-16.445312-1.019531-3.886719 2.226563-8.6875 2.199219-12.527344-.058594-5.949219-3.503906-7.941406-11.203125-4.441406-17.167969 1.8125-3.089843 4.386718-4.589843 6.226562-5.308593 5.289062-2.058594 8.960938-6.929688 9.488281-12.578125.527344-5.652344-2.179687-11.117188-6.992187-14.121094-14.773438-9.21875-23.589844-25.128906-23.589844-42.558594 0-17.667968 9.441406-34.21875 24.636719-43.191406 5.0625-2.992188 7.914062-8.664062 7.289062-14.515625-.628906-5.847656-4.613281-10.789063-10.195312-12.640625-.847657-.28125-1.660157-.648438-2.417969-1.09375-5.949219-3.5-7.941406-11.203125-4.445312-17.164062 3.414062-5.8125 10.722656-7.871094 16.640624-4.691407 5.085938 2.734375 11.296876 2.300781 15.957032-1.109375s6.949218-9.195312 5.882812-14.871094c-.585937-3.125-.882812-6.269531-.882812-9.355468 0-16.160156 7.667968-30.546875 19.53125-39.710938 1.027344 2.34375 2.214844 4.636719 3.5625 6.875l3.171875 5.253906c4.757812 7.898438 7.417969 17.464844 7.691406 27.667969.679687 25.496094 21.421875 49.773438 45.464844 56.023438.71875 2.519531 1.089843 5.125 1.089843 7.78125 0 13.503906-9.304687 24.914062-22.128906 27.136719-3.984375.6875-7.519531 2.957031-9.808594 6.292968-2.289062 3.332032-3.132812 7.449219-2.34375 11.414063.648438 3.253906.976563 6.585937.976563 9.898437 0 1.332032-.066406 2.757813-.203125 4.351563-.652344 7.613281 4.523438 14.496093 12.015625 15.992187 12.453125 2.480469 21.492187 13.847656 21.492187 27.019532 0 4.953124-1.285156 9.808593-3.722656 14.046874-3.710937 6.457032-2.125 14.660157 3.726563 19.265626 4.71875 3.710937 8.691406 8.171874 11.800781 13.253906 3.65625 5.96875 10.957031 8.613281 17.589844 6.378906 2.910156-.984375 5.945312-1.480469 9.023437-1.480469 11.761719 0 22.210938 7.253907 25.996094 18.050781 2.144531 6.113282 7.894531 10.039063 14.144531 10.039063 1.050782 0 2.113282-.109375 3.179688-.339844 3.472656-.75 7.019531-1.128906 10.535156-1.128906 2.054688 0 4.136719.136719 6.363281.421875 6.871094.882812 13.480469-3.078125 15.9375-9.574219 3.945313-10.449219 14.3125-17.46875 25.792969-17.46875 4.121094 0 8.085938.867188 11.785156 2.574219 7.066406 3.265625 15.449219.585938 19.3125-6.171875 3.039063-5.316406 6.957032-9.96875 11.640625-13.835937 5.753907-4.746094 7.144531-13.003907 3.265625-19.375-2.671875-4.382813-4.085937-9.453126-4.085937-14.65625 0-14.191407 10.25-25.960938 23.839843-27.382813 8.078126-.84375 14.015626-7.964844 13.394532-16.0625-.113282-1.519531-.167969-2.765625-.167969-3.917969 0-3.167968.308594-6.375.914063-9.539062.804687-4.183594-.210938-8.515625-2.792969-11.90625-2.582031-3.394532-6.484375-5.527344-10.734375-5.871094-13.710938-1.105469-24.453125-13.152344-24.453125-27.425781 0-2.355469.285156-4.664063.84375-6.90625 25.703125-4.433594 48.757812-29.996094 49.476562-56.898438.269531-10.207031 2.929688-19.773437 7.691407-27.667969l3.167968-5.257812c1.121094-1.859375 2.125-3.761719 3.023438-5.695312 11.019531 9.191406 18.050781 23.054687 18.050781 38.535156 0 3.101562-.296875 6.261718-.886719 9.390625-1.074218 5.6875 1.222656 11.480469 5.894532 14.894531 4.671874 3.410156 10.890624 3.832031 15.980468 1.078125 3.886719-2.101563 8.472656-2.023437 12.269532.214844 5.949218 3.5 7.941406 11.199219 4.441406 17.164062-1.835938 3.125-4.445313 4.628907-6.308594 5.339844-5.417969 2.066406-9.15625 7.070313-9.609375 12.847656-.449219 5.78125 2.46875 11.300781 7.5 14.183594 15.546875 8.910156 25.203125 25.582031 25.203125 43.519531 0 17.804688-9.554688 34.421875-24.933594 43.363282-4.585937 2.664062-7.421875 7.550781-7.460937 12.855468-.039063 5.304688 2.726562 10.234375 7.269531 12.964844 5.859375 3.523438 7.808594 11.195312 4.34375 17.097656-3.074219 5.238282-9.417969 7.503906-15.074219 5.398438-5.160156-1.917969-10.957031-.859375-15.101562 2.757812zm-112.589844-28.011718c-1.0625 1.183593-2.09375 2.398437-3.085937 3.644531-3.921876-.828125-7.9375-1.242188-12.023438-1.242188-19.960938 0-38.359375 10.351563-48.726562 26.625-1.464844.011719-2.925782.0625-4.390626.15625-10.320312-16.394531-28.675781-26.78125-48.832031-26.78125-2.484375 0-4.953125.15625-7.398437.472657-1.199219-1.464844-2.453125-2.886719-3.753906-4.261719 1.804687-5.683594 2.734374-11.652344 2.734374-17.675781 0-21.835938-12.160156-41.328126-30.453124-51.035157 18.335937-9.644531 30.453124-29.042969 30.453124-51.066406 0-2.089844-.121093-4.164063-.339843-6.222656h10.644531c17.921875 0 34.230469-7.03125 46.347656-18.464844 2.09375.214844 4.21875.324219 6.371094.324219s4.277344-.109375 6.371094-.324219c12.117187 11.433594 28.421875 18.464844 46.347656 18.464844h6.871094c-.21875 2.054687-.328125 4.128906-.328125 6.222656 0 21.902344 12.355469 41.3125 30.492187 50.992187-18.273437 9.601563-30.492187 28.953126-30.492187 51.109376 0 6.53125 1.089843 12.96875 3.191406 19.0625zm-62.453125-239.628907c17.632812 0 31.980469 14.378907 31.980469 32.050781 0 17.671876-14.347657 32.050782-31.980469 32.050782s-31.980469-14.378906-31.980469-32.050782c0-17.671874 14.347657-32.050781 31.980469-32.050781zm124.75 6.242188-3.167969 5.257812c-7.433593 12.328125-11.582031 26.976563-11.992187 42.355469-.351563 13.265625-14.878906 28.382812-27.269532 28.382812h-29.601562c-4.648438 0-9.105469-.855468-13.222656-2.40625 13.726562-11.390624 22.484375-28.582031 22.484375-47.78125 0-18.585937-8.21875-35.277343-21.191407-46.660156 14.445313-13.511718 33.808594-21.804687 55.082032-21.804687h5.410156c.371094 0 .738281.007812 1.117188.019531 9.8125.332031 18.175781 5.558594 22.9375 14.335938 4.890624 9.003906 4.667968 19.585937-.585938 28.300781zm-112.046875-34.925781c-4.101563-.859376-8.347656-1.316407-12.703125-1.316407s-8.601562.457031-12.703125 1.316407c-4.632813-5.265626-9.746094-10.089844-15.28125-14.402344 7.945313-5.214844 17.351563-8.121094 27.234375-8.121094 10.242188 0 19.945312 3.109375 28.050781 8.65625-5.277343 4.175781-10.160156 8.820312-14.597656 13.867188zm-138.042969 6.625c4.765625-8.777344 13.125-14.003907 22.949219-14.335938.367187-.011719.738281-.019531 1.109375-.019531h5.410156c21.269532 0 40.636719 8.292969 55.082032 21.804687-12.976563 11.382813-21.191407 28.074219-21.191407 46.660156 0 19.199219 8.757813 36.390626 22.480469 47.78125-4.113281 1.550782-8.570312 2.40625-13.222656 2.40625h-29.597656c-12.390626 0-26.917969-15.117187-27.273438-28.382812-.410156-15.378906-4.554688-30.027344-11.988281-42.355469l-3.167969-5.253906c-5.253906-8.71875-5.476562-19.300781-.589844-28.304687zm0 0"/><path d="m454.785156 256.921875c0-11.058594-8.929687-20.023437-19.949218-20.023437-11.015626 0-19.949219 8.964843-19.949219 20.023437s8.933593 20.023437 19.949219 20.023437c11.019531 0 19.949218-8.964843 19.949218-20.023437zm0 0"/><path d="m120.933594 196.855469c0-11.058594-8.933594-20.023438-19.949219-20.023438-11.019531 0-19.949219 8.964844-19.949219 20.023438 0 11.058593 8.929688 20.023437 19.949219 20.023437 11.015625 0 19.949219-8.964844 19.949219-20.023437zm0 0"/><path d="m384.152344 375.539062c0-11.058593-8.933594-20.023437-19.949219-20.023437-11.019531 0-19.949219 8.964844-19.949219 20.023437 0 11.058594 8.929688 20.023438 19.949219 20.023438 11.015625 0 19.949219-8.964844 19.949219-20.023438zm0 0"/><path d="m146.296875 327.488281c0-11.058593-8.929687-20.023437-19.949219-20.023437-11.015625 0-19.949218 8.964844-19.949218 20.023437 0 11.058594 8.933593 20.023438 19.949218 20.023438 11.019532 0 19.949219-8.964844 19.949219-20.023438zm0 0"/><path d="m248.878906 427.105469c0-11.058594-8.933594-20.023438-19.953125-20.023438-11.015625 0-19.949219 8.964844-19.949219 20.023438 0 11.058593 8.933594 20.023437 19.949219 20.023437 11.019531 0 19.953125-8.964844 19.953125-20.023437zm0 0"/></svg>