<svg height="512pt" viewBox="-5 0 512 512.001" width="512pt" xmlns="http://www.w3.org/2000/svg"><path d="m250.742188 50.402344c8.285156 0 15-6.714844 15-15v-20.402344c0-8.285156-6.714844-15-15-15-8.285157 0-15 6.714844-15 15v20.402344c0 8.285156 6.714843 15 15 15zm0 0"/><path d="m165.570312 60.273438c2.664063 5.164062 7.90625 8.125 13.34375 8.125 2.3125 0 4.664063-.539063 6.863282-1.671876 7.363281-3.800781 10.25-12.847656 6.453125-20.210937l-8.710938-16.875c-3.796875-7.363281-12.84375-10.25-20.207031-6.453125-7.363281 3.800781-10.25 12.847656-6.453125 20.210938zm0 0"/><path d="m315.707031 66.726562c2.199219 1.132813 4.550781 1.671876 6.867188 1.671876 5.433593 0 10.679687-2.960938 13.34375-8.125l8.707031-16.875c3.800781-7.363282.914062-16.410157-6.449219-20.210938-7.359375-3.796875-16.410156-.910156-20.210937 6.453125l-8.707032 16.875c-3.800781 7.363281-.910156 16.410156 6.449219 20.210937zm0 0"/><path d="m493.195312 445.585938-54.578124-27.289063c-.585938-.289063-1.1875-.542969-1.804688-.757813-5.558594-1.921874-11.289062-2.820312-16.972656-2.78125l-23.105469-76.957031c13.550781-7.40625 24.613281-18.984375 31.355469-33.171875 8.929687-18.792968 9.566406-40.601562 1.761718-59.886718l-56.710937-155.222657c-2.730469-7.476562-10.824219-11.519531-18.445313-9.207031l-93.351562 28.316406c-6.085938 1.847656-10.167969 7.242188-10.601562 13.289063-.429688-6.046875-4.511719-11.441407-10.601563-13.289063l-93.351563-28.316406c-7.617187-2.3125-15.710937 1.730469-18.441406 9.207031l-56.710937 155.222657c-7.808594 19.285156-7.167969 41.09375 1.761719 59.886718 6.742187 14.1875 17.804687 25.761719 31.355468 33.171875l-23.113281 76.957031c-5.679687-.039062-11.410156.859376-16.964844 2.78125-.617187.214844-1.21875.46875-1.804687.757813l-54.578125 27.289063c-5.5 2.75-8.765625 8.578124-8.2382815 14.707031.5312505 6.125 4.7460935 11.308593 10.6367185 13.078125l126.632813 37.996094c1.425781.425781 2.875.632812 4.3125.632812 4.527343 0 8.914062-2.058594 11.804687-5.746094 3.808594-4.859375 4.25-11.554687 1.117188-16.871094l-31.261719-53.042968c-.347656-.585938-.730469-1.144532-1.148437-1.675782-3.425782-4.347656-7.441407-8.035156-11.855469-11.011718l23.175781-77.15625c2.140625.1875 4.285156.292968 6.425781.292968 13.21875 0 26.355469-3.5625 37.890625-10.5 17.808594-10.703124 30.347656-28.542968 34.441406-48.980468l38.15625-160.863282c.199219-.832031.308594-1.660156.363282-2.488281.054687.828125.164062 1.65625.359375 2.488281l38.160156 160.863282c4.09375 20.4375 16.632813 38.277344 34.441406 48.980468 11.535157 6.9375 24.667969 10.5 37.886719 10.5 2.140625 0 4.285156-.105468 6.425781-.292968l23.171875 77.160156c-4.414062 2.976562-8.421875 6.664062-11.851562 11.007812-.417969.53125-.800782 1.089844-1.144532 1.675782l-31.265624 53.042968c-3.132813 5.316407-2.6875 12.011719 1.117187 16.871094 2.894531 3.6875 7.277344 5.746094 11.808594 5.746094 1.433593 0 2.886719-.207031 4.308593-.632812l126.636719-37.996094c5.890625-1.765625 10.105469-6.949219 10.632813-13.078125.527344-6.125-2.738282-11.957031-8.238282-14.707031zm-437.65625 9.917968 19.75-9.875c8.117188-2.441406 17.0625.28125 22.742188 6.929688l11.238281 19.070312zm127.304688-174.269531c-2.4375 12.433594-9.722656 22.855469-20.519531 29.34375-10.671875 6.417969-23.097657 7.960937-34.992188 4.351563-11.925781-3.621094-21.457031-11.851563-26.835937-23.175782-5.4375-11.441406-5.785156-24.195312-.984375-35.921875.074219-.175781.144531-.355469.210937-.539062l25.65625-70.230469h80.269532l-22.679688 95.597656c-.042969.1875-.085938.382813-.125.574219zm35.09375-147.988281-5.175781 21.8125h-76.421875l15.316406-41.921875zm121.222656 177.332031c-10.792968-6.488281-18.082031-16.910156-20.519531-29.34375-.039063-.191406-.078125-.386719-.125-.578125l-22.675781-95.597656h80.265625l25.660156 70.234375c.0625.179687.136719.359375.207031.539062 4.804688 11.722657 4.453125 24.480469-.980468 35.921875-5.382813 11.324219-14.914063 19.554688-26.835938 23.171875-11.898438 3.613281-24.324219 2.070313-34.996094-4.347656zm-50.4375-155.519531-5.175781-21.8125 66.28125-20.109375 15.316406 41.925781h-76.421875zm103.492188 316.570312 11.242187-19.070312c5.675781-6.648438 14.617188-9.371094 22.738281-6.929688l19.753907 9.875zm0 0"/></svg>