<svg height="511pt" viewBox="-15 1 511 511.999" width="511pt" xmlns="http://www.w3.org/2000/svg"><path d="m482.082031 137.964844c0-41.445313-14.566406-71.660156-44.53125-92.359375-25.871093-17.875-59.941406-27.140625-99.394531-37.867188-7.839844-2.132812-15.945312-4.335937-24.140625-6.65625-2.539063-.71875-5.160156-1.082031-7.789063-1.082031h-130.601562c-3.003906 0-5.984375.472656-8.851562 1.40625-12.257813 3.984375-24.121094 7.519531-35.597657 10.941406-36.21875 10.800782-67.5 20.125-90.871093 37.46875-27.15625 20.15625-39.804688 48.167969-39.804688 88.152344l.023438 277.855469c0 21.457031 17.355468 38.914062 38.691406 38.914062h46.503906c2.988281 0 5.898438-.34375 8.691406-.992187v14.441406c0 24.15625 19.601563 43.8125 43.691406 43.8125h221.617188c16.535156 0 29.992188-13.480469 30-30.050781l.011719-28.152344c2.761719.621094 5.613281.941406 8.511719.941406h45.234374c21.335938 0 38.691407-17.457031 38.691407-38.914062zm-451.558593 277.863281v-14.285156h63.886718v14.285156c0 4.914063-3.898437 8.910156-8.691406 8.910156h-46.503906c-4.792969 0-8.691406-3.996093-8.691406-8.910156zm93.886718 52.359375v-301.445312c0-8.285157-6.714844-15-15-15s-15 6.714843-15 15v204.800781h-63.886718l-.023438-233.578125c0-30.089844 8.539062-49.847656 27.6875-64.058594 19.121094-14.191406 48.058594-22.820312 81.558594-32.808594 7.132812-2.125 14.4375-4.3125 21.910156-6.617187 8.585938 36.035156 40.816406 62.90625 79.179688 62.90625 38.558593 0 70.921874-27.148438 79.308593-63.46875 3.417969.9375 6.804688 1.859375 10.136719 2.765625 82.261719 22.371094 121.800781 36.019531 121.800781 101.300781l.085938 233.558594h-62.421875v-204.800781c0-8.285157-6.714844-15-15-15-8.28125 0-15 6.714843-15 15l-.027344 315.257812h-221.617188c-7.550781 0-13.691406-6.195312-13.691406-13.8125zm165.691406-437.859375c-6.378906 21.417969-26.050781 37.0625-49.265624 37.0625-23.214844 0-42.886719-15.644531-49.265626-37.0625zm102.25 391.960937c-1.664062-1.671874-2.585937-3.9375-2.601562-6.390624v-14.359376h62.421875v14.285157c0 4.914062-3.898437 8.914062-8.695313 8.914062h-45.234374c-2.851563 0-4.777344-1.332031-5.890626-2.449219zm0 0"/><path d="m303.914062 270.132812c5.339844-.238281 10.171876-3.304687 12.648438-8.078124 2.578125-4.972657 2.171875-10.964844-1.050781-15.546876l-25.066407-35.597656c1.207032-1.136718 2.234376-2.480468 3.019532-4.003906 2.582031-4.96875 2.175781-10.964844-1.046875-15.542969l-38.820313-55.125c-2.808594-3.988281-7.382812-6.359375-12.261718-6.359375-4.878907 0-9.457032 2.371094-12.265626 6.359375l-38.816406 55.125c-3.222656 4.578125-3.628906 10.574219-1.050781 15.542969.789063 1.523438 1.816406 2.867188 3.023437 4.003906l-25.066406 35.597656c-3.226562 4.582032-3.628906 10.574219-1.050781 15.546876 2.476563 4.773437 7.308594 7.839843 12.644531 8.078124l-31.851562 45.230469c-3.226563 4.582031-3.628906 10.574219-1.050782 15.546875 2.582032 4.972656 7.714844 8.089844 13.316407 8.089844h67.167969v33.386719c0 8.285156 6.714843 15 15 15 8.28125 0 15-6.714844 15-15v-33.386719h67.167968c5.601563 0 10.734375-3.117188 13.3125-8.089844 2.582032-4.972656 2.175782-10.96875-1.050781-15.546875zm-115.839843 38.867188 31.84375-45.21875c3.222656-4.578125 3.628906-10.574219 1.046875-15.542969-2.476563-4.773437-7.308594-7.839843-12.644532-8.078125l22.195313-31.523437c3.226563-4.578125 3.632813-10.574219 1.050781-15.542969-.789062-1.523438-1.8125-2.867188-3.019531-4.003906l12.789063-18.160156 12.785156 18.160156c-1.203125 1.136718-2.230469 2.480468-3.019532 4.003906-2.578124 4.96875-2.175781 10.964844 1.050782 15.542969l22.195312 31.523437c-5.335937.238282-10.167968 3.304688-12.644531 8.078125-2.582031 4.96875-2.175781 10.964844 1.050781 15.542969l31.839844 45.21875zm0 0"/></svg>