<svg height="512pt" viewBox="0 -26 512 512" width="512pt" xmlns="http://www.w3.org/2000/svg"><path d="m467 51.152344h-58.199219v-14.402344c0-20.265625-16.535156-36.75-36.855469-36.75-20.316406 0-36.847656 16.484375-36.847656 36.75v14.398438h-39.246094v-14.398438c0-20.265625-16.53125-36.75-36.851562-36.75s-36.851562 16.484375-36.851562 36.75v14.398438h-45.246094v-14.398438c0-20.265625-16.53125-36.75-36.851563-36.75-20.320312 0-36.851562 16.484375-36.851562 36.75v14.398438h-58.199219c-24.8125 0-45 20.1875-45 45v318.199218c0 24.8125 20.1875 45 45 45h422c24.8125 0 45-20.1875 45-45v-318.195312c0-24.816406-20.1875-45-45-45zm0 378.195312h-422c-8.269531 0-15-6.730468-15-15v-225.742187h452v225.742187c0 8.269532-6.730469 15-15 15zm-422-348.195312h101.902344v17.515625c0 8.28125 6.71875 15 15 15 8.285156 0 15-6.71875 15-15v-17.515625h88.949218v17.515625c0 8.28125 6.714844 15 15 15 8.285157 0 15-6.71875 15-15v-17.515625h82.949219v17.515625c0 8.28125 6.714844 15 15 15 8.28125 0 15-6.71875 15-15v-17.515625h58.199219c8.269531 0 15 6.726562 15 15v62.453125h-452v-62.453125c0-8.273438 6.730469-15 15-15zm320.097656-44.402344c0-3.660156 3.136719-6.75 6.847656-6.75 3.714844 0 6.855469 3.089844 6.855469 6.75v14.398438h-13.703125zm-112.949218 0c0-3.660156 3.136718-6.75 6.851562-6.75s6.851562 3.089844 6.851562 6.75v14.398438h-13.703124zm-118.949219 0c0-3.660156 3.140625-6.75 6.855469-6.75 3.710937 0 6.847656 3.089844 6.847656 6.75v14.398438h-13.703125zm0 0"/><path d="m354.40625 365.570312h-11.71875v-128.4375c0-6.378906-4.035156-12.0625-10.058594-14.164062-6.027344-2.097656-12.71875-.160156-16.6875 4.835938l-36.785156 46.300781c-5.152344 6.484375-4.070312 15.921875 2.417969 21.074219 6.484375 5.152343 15.921875 4.070312 21.074219-2.414063l10.039062-12.636719v85.441406h-11.722656c-8.285156 0-15 6.714844-15 15 0 8.285157 6.714844 15 15 15h53.445312c8.28125 0 15-6.714843 15-15 0-8.285156-6.71875-15-15.003906-15zm0 0"/><path d="m217.003906 284.988281 28.222656-38.011719c3.378907-4.550781 3.902344-10.617187 1.355469-15.683593-2.546875-5.0625-7.730469-8.257813-13.398437-8.257813l-68.230469-.003906c-8.28125 0-15 6.71875-15 15 0 8.285156 6.714844 15 15 15l38.410156.003906-24.578125 33.097656c-3.378906 4.554688-3.902344 10.621094-1.355468 15.683594 2.546874 5.066406 7.730468 8.261719 13.398437 8.261719 9.636719 0 16.902344 2.445313 21.597656 7.273437 5.703125 5.867188 7.53125 15.058594 7.34375 21.707032-.402343 14.363281-11.46875 25.609375-25.1875 25.609375-10.136719 0-19.230469-6.035157-23.167969-15.371094-3.21875-7.636719-12.019531-11.214844-19.652343-7.992187-7.632813 3.21875-11.210938 12.015624-7.992188 19.648437 8.636719 20.480469 28.582031 33.714844 50.8125 33.714844 30.078125 0 54.3125-24.054688 55.179688-54.765625.222656-7.941406-.871094-28.082032-15.828125-43.464844-3.8125-3.917969-9.308594-8.234375-16.929688-11.449219zm0 0"/></svg>