<svg height="512pt" viewBox="0 0 512 512" width="512pt" xmlns="http://www.w3.org/2000/svg"><path d="m437.019531 74.980469c-48.351562-48.351563-112.640625-74.980469-181.019531-74.980469s-132.667969 26.628906-181.019531 74.980469c-48.351563 48.351562-74.980469 112.640625-74.980469 181.019531s26.628906 132.667969 74.980469 181.019531c48.351562 48.351563 112.640625 74.980469 181.019531 74.980469s132.667969-26.628906 181.019531-74.980469c48.351563-48.351562 74.980469-112.640625 74.980469-181.019531s-26.628906-132.667969-74.980469-181.019531zm-2.972656 306.34375c5.636719 0 10.679687-2.527344 14.113281-6.507813-18.230468 29.382813-43.007812 54.292969-72.28125 72.683594 2.703125-3.285156 4.335938-7.511719 4.335938-12.121094 0-10.46875-8.398438-18.957031-18.753906-18.957031-10.359376 0-18.753907 8.488281-18.753907 18.957031 0 10.472656 8.394531 18.960938 18.753907 18.960938 1.148437 0 2.269531-.121094 3.363281-.320313-30.160157 16.640625-64.503907 26.585938-101.019531 27.832031 6.457031-2.996093 10.949218-9.574218 10.949218-17.222656 0-10.472656-8.394531-18.960937-18.753906-18.960937s-18.753906 8.488281-18.753906 18.960937c0 7.648438 4.492187 14.226563 10.949218 17.222656-36.554687-1.25-70.933593-11.214843-101.117187-27.886718 1.203125.246094 2.441406.375 3.714844.375 10.355469 0 18.753906-8.488282 18.753906-18.957032 0-10.472656-8.398437-18.960937-18.753906-18.960937-10.359375 0-18.753907 8.488281-18.753907 18.960937 0 4.78125 1.765626 9.140626 4.660157 12.476563-30.078125-18.769531-55.453125-44.394531-73.894531-74.695313 3.386718 4.929688 9.015624 8.160157 15.402343 8.160157 10.355469 0 18.753907-8.488281 18.753907-18.960938 0-10.46875-8.394532-18.957031-18.753907-18.957031s-18.753906 8.488281-18.753906 18.957031c0 3.132813.761719 6.078125 2.09375 8.675781-19.441406-32.730468-30.851563-70.761718-31.5-111.363281 1.691406 8.710938 9.28125 15.285157 18.394531 15.285157 10.355469 0 18.753906-8.488282 18.753906-18.960938 0-10.46875-8.394531-18.957031-18.753906-18.957031-9.113281 0-16.703125 6.570312-18.394531 15.28125 1.296875-80.746094 45.140625-151.335938 110.058594-190.273438-4.871094 3.425781-8.066407 9.117188-8.066407 15.570313 0 10.46875 8.394532 18.957031 18.753907 18.957031 10.355469 0 18.753906-8.488281 18.753906-18.957031 0-10.472656-8.398437-18.960938-18.753906-18.960938-2.984375 0-5.792969.722656-8.296875 1.976563 33.378906-19.464844 72.160156-30.636719 113.503906-30.636719 40.953125 0 79.394531 10.949219 112.554688 30.074219-2.1875-.90625-4.582032-1.414063-7.09375-1.414063-10.359376 0-18.753907 8.488282-18.753907 18.960938 0 10.46875 8.394531 18.957031 18.753907 18.957031 10.355468 0 18.753906-8.488281 18.753906-18.957031 0-6.042969-2.804688-11.410156-7.15625-14.882813 63.296875 38.484375 106.277344 107.175781 108.808594 185.90625-2.839844-6.816406-9.511719-11.605469-17.289063-11.605469-10.355469 0-18.753906 8.488282-18.753906 18.960938s8.394531 18.960938 18.753906 18.960938c7.777344 0 14.449219-4.789063 17.289063-11.605469-1.238282 38.5-12.148438 74.597656-30.382813 105.941406.839844-2.152344 1.3125-4.484375 1.3125-6.933594 0-10.472656-8.394531-18.960937-18.753906-18.960937-10.355469 0-18.753907 8.488281-18.753907 18.960937 0 10.472657 8.398438 18.960938 18.757813 18.960938zm0 0"/><path d="m271 214.476562v-110.679687c0-8.285156-6.714844-15-15-15s-15 6.714844-15 15v110.679687c-16.984375 6.152344-29.152344 22.441407-29.152344 41.523438 0 24.34375 19.808594 44.152344 44.152344 44.152344s44.152344-19.808594 44.152344-44.152344c0-19.082031-12.167969-35.371094-29.152344-41.523438zm-15 55.675782c-7.804688 0-14.152344-6.351563-14.152344-14.152344 0-6.8125 4.84375-12.515625 11.265625-13.851562.933594.179687 1.898438.28125 2.886719.28125s1.953125-.101563 2.886719-.28125c6.421875 1.335937 11.265625 7.039062 11.265625 13.851562 0 7.804688-6.347656 14.152344-14.152344 14.152344zm0 0"/><path d="m274.753906 48.992188c0-10.46875-8.394531-18.957032-18.753906-18.957032s-18.753906 8.488282-18.753906 18.957032c0 10.472656 8.394531 18.960937 18.753906 18.960937s18.753906-8.488281 18.753906-18.960937zm0 0"/><path d="m452.800781 150.636719c0-10.472657-8.398437-18.960938-18.753906-18.960938-10.359375 0-18.757813 8.488281-18.757813 18.960938 0 10.46875 8.398438 18.957031 18.757813 18.957031 10.355469 0 18.753906-8.488281 18.753906-18.957031zm0 0"/><path d="m96.960938 150.636719c0-10.472657-8.394532-18.960938-18.753907-18.960938-10.355469 0-18.753906 8.488281-18.753906 18.960938 0 10.46875 8.398437 18.957031 18.753906 18.957031 10.359375 0 18.753907-8.488281 18.753907-18.957031zm0 0"/></svg>