<svg height="512pt" viewBox="0 0 512 512" width="512pt" xmlns="http://www.w3.org/2000/svg"><path d="m511.410156 193.984375c-1.953125-13.285156-9.015625-25.007813-19.894531-33.003906l-59.398437-43.667969c.207031-.996094.320312-2.023438.320312-3.078125v-83.363281c0-8.285156-6.714844-15-15-15h-55.546875c-8.285156 0-15 6.714844-15 15v23.78125l-60.855469-44.738282c-17.980468-13.21875-42.144531-13.21875-60.125 0l-205.480468 151.066407c-10.875 7.996093-17.941407 19.714843-19.890626 33.003906-1.945312 13.242187 1.425782 26.441406 9.5 37.167969 12.585938 16.722656 33.820313 23.402344 53.074219 18.511718v247.339844c0 8.28125 6.714844 14.996094 14.996094 14.996094h355.644531c8.285156 0 15-6.714844 15-14.996094v-247.359375c4.148438 1.0625 8.390625 1.59375 12.621094 1.59375 15.410156 0 30.644531-6.945312 40.535156-20.085937 8.070313-10.722656 11.445313-23.925782 9.5-37.167969zm-134.523437-148.117187h25.554687v49.625l-25.554687-18.785157zm-186.871094 436.136718h-96.90625v-22.796875h96.90625zm0-52.792968h-96.90625v-23.378907h96.90625zm0-53.371094h-96.90625v-23.378906h96.90625zm101.835937 103.710937h-71.839843v-127.082031h71.839843zm126.90625 2.453125h-96.910156v-22.796875h96.910156zm0-52.792968h-96.910156v-23.375h96.910156zm0-53.371094h-96.910156v-23.378906h96.910156zm0-53.375h-325.648437v-23.375h325.648437zm0-53.367188h-325.648437v-23.375h325.648437zm-303.222656-53.371094 67.132813-49.351562c-.234375 1.054688-.367188 2.144531-.367188 3.265625v46.085937zm83.089844-61.082031 45.414062-33.386719c6.824219-4.789062 16.042969-4.976562 23.050782-.550781l46.191406 33.9375zm100.945312 29.996094v31.003906h-87.273437v-31.003906zm29.617188-18.3125 67.234375 49.398437h-66.855469v-46.085937c0-1.136719-.136718-2.246094-.378906-3.3125zm148.753906 46.785156c-6.761718 8.984375-19.675781 10.84375-28.785156 4.144531l-163.121094-119.921874c-8.988281-6.609376-19.527344-9.914063-30.0625-9.914063s-21.074218 3.304687-30.0625 9.914063l-163.117187 119.921874c-9.113281 6.699219-22.027344 4.839844-28.789063-4.144531-3.214844-4.269531-4.558594-9.519531-3.789062-14.769531.777344-5.296875 3.613281-9.984375 7.984375-13.195312l205.476562-151.066407c7.242188-5.320312 17.355469-5.320312 24.59375 0l38.277344 28.140625 167.203125 122.925782c4.371094 3.210937 7.203125 7.898437 7.984375 13.195312.769531 5.253906-.578125 10.5-3.792969 14.769531zm0 0"/></svg>