<svg height="512pt" viewBox="-64 0 512 512" width="512pt" xmlns="http://www.w3.org/2000/svg"><path d="m152.441406 188.414062c-10.714844-9.222656-16.859375-18.375-16.859375-25.109374l.003907-136.015626c0-15.046874-12.25-27.289062-27.308594-27.289062h-37.109375c-15.058594 0-27.308594 12.242188-27.308594 27.289062l-.003906 136.011719c0 6.734375-6.144531 15.890625-16.863281 25.109375-17.148438 14.761719-26.9843755 36.179688-26.9843755 58.769532l-.0078125 237.527343c0 15.046875 12.25 27.285157 27.308594 27.289063l124.800781.003906h.003906c7.289063 0 14.144531-2.835938 19.296875-7.984375 5.164063-5.152344 8.007813-12.007813 8.007813-19.300781l.007812-237.527344c0-22.589844-9.832031-44.011719-26.984375-58.773438zm-3.351562 97.242188-.003906 124.320312h-33.75l.003906-124.320312zm-75.160156-214.542969h31.585937l-.003906 55.996094h-31.582031zm31.585937-41.039062v10.96875h-31.585937v-10.972657zm-75.445313 451.851562.007813-234.746093c0-13.820313 6.027344-26.933594 16.53125-35.976563 17.871094-15.378906 27.316406-31.941406 27.320313-47.902344v-6.117187h31.582031v6.117187c0 15.960938 9.445312 32.523438 27.3125 47.90625 10.503906 9.042969 16.53125 22.15625 16.53125 35.980469v8.398438l-49.050781-.003907c-3.988282 0-7.8125 1.582031-10.628907 4.402344-2.820312 2.820313-4.40625 6.644531-4.40625 10.632813l-.003906 154.394531c0 3.984375 1.582031 7.8125 4.402344 10.632812 2.820312 2.816407 6.644531 4.402344 10.632812 4.402344h49.050781l-.003906 41.878906zm0 0"/><path d="m367.875 484.769531-53.34375-37.894531v-57.925781c17.992188-3.296875 34.640625-12.449219 47.125-26.214844 16.058594-17.703125 23.933594-41.539063 21.601562-65.394531-.011718-.125-.027343-.253906-.042968-.378906l-13.945313-113.128907c-.925781-7.519531-7.3125-13.167969-14.886719-13.167969h-109.703124c-7.574219 0-13.957032 5.648438-14.886719 13.167969l-13.945313 113.128907c-.015625.125-.027344.25-.039062.378906-2.332032 23.855468 5.539062 47.691406 21.597656 65.394531 12.488281 13.765625 29.132812 22.917969 47.125 26.214844v58.75l-52.179688 37.070312c-5.320312 3.78125-7.585937 10.570313-5.605468 16.789063 1.984375 6.21875 7.765625 10.441406 14.292968 10.441406h118.148438c6.527344 0 12.304688-4.222656 14.289062-10.441406 1.984376-6.21875-.28125-13.003906-5.601562-16.789063zm-67.761719-11.339843 12.0625 8.570312h-24.125zm41.003907-272.765626 9.742187 79.023438h-102.65625l9.742187-79.023438zm12.378906 109.023438c-.898438 12.152344-5.796875 23.785156-14.058594 32.890625-10.375 11.441406-24.546875 17.738281-39.90625 17.738281-15.355469 0-29.527344-6.296875-39.902344-17.738281-8.261718-9.105469-13.160156-20.734375-14.0625-32.890625zm0 0"/></svg>