<svg height="512pt" viewBox="0 -43 512 512" width="512pt" xmlns="http://www.w3.org/2000/svg"><path d="m497 395.003906h-96.851562v-32.789062h8.507812c30.859375 0 55.964844-25.03125 55.964844-55.800782v-291.414062c0-8.285156-6.71875-15-15-15h-143.378906c-8.28125 0-15 6.714844-15 15v49.109375h-7.433594c-8.285156 0-15 6.71875-15 15 0 8.285156 6.714844 15 15 15h7.433594v22.457031h-7.433594c-8.285156 0-15 6.714844-15 15 0 8.28125 6.714844 15 15 15h7.433594v7.339844c0 36.152344-41.976563 52.996094-70.34375 52.996094h-28.3125c-45.367188 0-82.273438 36.785156-82.273438 82 0 4.769531.476562 9.429687 1.351562 13.949218 6.558594 33.773438 36.429688 59.359376 72.199219 59.359376h7.902344v32.792968h-117.71875c-24.289063 0-44.046875-19.652344-44.046875-43.808594s19.761719-43.804687 44.046875-43.804687c6.890625 0 12.683594-4.652344 14.441406-10.984375.355469-1.28125.558594-2.625.558594-4.015625 0-8.285156-6.714844-15-15-15-40.828125 0-74.046875 33.109375-74.046875 73.804687 0 40.699219 33.21875 73.808594 74.046875 73.808594h422.953125c8.285156 0 15-6.714844 15-15s-6.714844-15-15-15zm-348.503906-80.875 284.9375.003906c-3.308594 10.464844-13.164063 18.082032-24.777344 18.082032h-224.792969c-14.554687 0-27.453125-7.144532-35.367187-18.085938zm72.402344-77.226562c23.132812 0 46.929687-7.214844 65.289062-19.796875 22.605469-15.488281 35.054688-37.933594 35.054688-63.199219v-7.339844h41.570312c8.285156 0 15-6.71875 15-15 0-8.285156-6.714844-15-15-15h-41.570312v-22.457031h41.570312c8.285156 0 15-6.714844 15-15 0-8.28125-6.714844-15-15-15h-41.570312v-34.109375h113.378906v254.132812l-294.078125-.003906c2.429687-26.441406 24.839843-47.226562 52.042969-47.226562zm.867187 125.3125h148.382813v32.789062h-148.382813zm0 0"/></svg>