<svg height="511pt" viewBox="0 -25 511.99898 511" width="511pt" xmlns="http://www.w3.org/2000/svg"><path d="m422.996094 119.628906c0-11.046875-8.976563-20.003906-20.042969-20.003906-11.070313 0-20.042969 8.957031-20.042969 20.003906s8.972656 20 20.042969 20c11.066406 0 20.042969-8.953125 20.042969-20zm0 0"/><path d="m492.878906 314.113281c-9.503906-6.285156-20.890625-8.496093-32.054687-6.214843-11.164063 2.277343-20.773438 8.769531-27.058594 18.273437-1.480469 2.238281-3.039063 4.410156-4.660156 6.519531l-15.914063-135.148437 3.71875 1.054687c20.792969 5.910156 43.242188-.9375 57.195313-17.445312 17.898437-21.183594 17.230469-52.539063-1.550781-72.9375l-19.421876-21.097656c16.863282-6.429688 28.875-22.757813 28.875-41.847657 0-24.6875-20.082031-44.769531-44.769531-44.769531h-77.414062c-11.554688 0-22.523438 4.390625-30.882813 12.355469l-49.570312 47.226562c-12.121094 1.640625-23.300782 7.234375-31.976563 16.101563-10.148437 10.375-15.738281 24.078125-15.738281 38.59375 0 6.496094 1.136719 12.726562 3.207031 18.519531h-60.875c-5.703125 0-11.164062.527344-16.332031 1.527344-9.75-16.132813-27.488281-26.945313-47.714844-26.945313-30.695312 0-55.671875 24.898438-55.671875 55.5 0 11.816406 3.710938 23.039063 10.375 32.304688-6.980469 1.617187-13.34375-.621094-14.640625-1.128906-4.628906-2.078126-9.839844-1.605469-14.105468 1.144531-4.289063 2.761719-6.71875 7.582031-6.71875 12.683593 0 30.601563 24.972656 55.5 55.667968 55.5 2.96875 0 5.878906-.242187 8.722656-.6875l-13.035156 66.316407c-.785156-1.097657-1.554687-2.207031-2.304687-3.339844-12.96875-19.625-39.484375-25.03125-59.109375-12.0625-19.621094 12.972656-25.03125 39.492187-12.0625 59.113281 36.789062 55.648438 98.578125 88.867188 165.285156 88.867188h167.308594c66.707031 0 128.496094-33.222656 165.285156-88.867188 12.972656-19.621094 7.5625-46.136718-12.058594-59.109375zm-320.535156 117.976563c-56.605469 0-109.039062-28.191406-140.257812-75.410156-1.863282-2.820313-2.519532-6.199219-1.84375-9.511719.679687-3.3125 2.605468-6.164063 5.421874-8.027344 2.144532-1.417969 4.566407-2.097656 6.960938-2.097656 4.113281 0 8.148438 1.996093 10.578125 5.675781 26.519531 40.109375 71.058594 64.054688 119.140625 64.054688h167.308594c48.085937 0 92.621094-23.945313 119.140625-64.054688 1.867187-2.820312 4.71875-4.746094 8.03125-5.421875 3.3125-.679687 6.6875-.023437 9.507812 1.84375 2.820313 1.863281 4.746094 4.714844 5.421875 8.027344.675782 3.3125.019532 6.6875-1.84375 9.511719-31.21875 47.21875-83.648437 75.410156-140.257812 75.410156zm-64.332031-87.050782c.105469-.375.195312-.757812.269531-1.144531l19.769531-100.570312c7.515625-9.21875 12.140625-20.867188 12.453125-33.570313 15.238282-10.035156 24.921875-27.214844 25.097656-45.855468 2.65625-.394532 5.457032-.601563 8.386719-.601563h22.824219v26c0 24.261719 19.738281 44.003906 44.003906 44.003906h.199219c-.003906.113281-.019531.222657-.019531.332031v37.671876h-6.085938c-18.273437 0-46.398437-5.875-59.144531-14.621094-3.910156-2.679688-8.851563-3.355469-13.335937-1.824219-4.484376 1.53125-7.980469 5.09375-9.429688 9.601563l-27.28125 84.824218c-.058594.183594-.113281.367188-.167969.554688-1.316406 4.71875-6.457031 7.585937-11.226562 6.265625-2.324219-.644531-4.265625-2.167969-5.464844-4.292969-1.183594-2.097656-1.484375-4.503906-.847656-6.773438zm-41.902344-119.25c11.429687-1.378906 23.769531-6.535156 33.671875-18.890624 2.664062-3.328126 3.789062-7.628907 3.089844-11.832032-.695313-4.203125-3.148438-7.914062-6.742188-10.203125-7.421875-4.726562-11.855468-12.757812-11.855468-21.484375 0-14.058594 11.515624-25.5 25.667968-25.5s25.667969 11.441406 25.667969 25.5c0 10.570313-6.691406 20.167969-16.652344 23.882813-6.914062 2.574219-10.925781 9.796875-9.464843 17.027343.457031 2.257813.796874 4.09375 1 5.234376-.601563 13.53125-11.875 24.355468-25.644532 24.355468-7.386718 0-14.050781-3.113281-18.738281-8.089844zm230.128906-140.335937 53.398438-50.875c2.761719-2.628906 6.378906-4.078125 10.1875-4.078125h77.417969c8.140624 0 14.765624 6.625 14.765624 14.769531s-6.625 14.769531-14.765624 14.769531h-65.507813c-3.851563 0-7.558594 1.484376-10.347656 4.140626l-44.769531 42.65625c-2.703126 2.574218-4.347657 6.0625-4.617188 9.785156-.9375 13.105468-11.980469 23.367187-25.128906 23.367187-13.902344 0-25.210938-11.308593-25.210938-25.210937 0-13.566406 11.03125-24.863282 24.589844-25.191406 3.730469-.089844 7.289062-1.5625 9.988281-4.132813zm154.949219 76.335937c-6.359375 7.523438-16.59375 10.644532-26.074219 7.953126l-25.347656-7.207032c-4.828125-1.371094-10.015625-.242187-13.828125 3.011719-3.816406 3.25-5.757812 8.191406-5.171875 13.171875l20.289063 172.308594c.597656 5.050781-2.53125 9.703125-7.433594 11.0625-2.726563.753906-5.570313.371094-8-1.085938-2.429688-1.457031-4.105469-3.78125-4.726563-6.546875l-20.878906-93.425781c-1.089844-4.871094-4.527344-8.878906-9.175781-10.699219-4.644532-1.816406-9.890625-1.207031-13.996094 1.632813-11.132812 7.691406-45.214844 17.316406-65.84375 19.0625v-37.390625c0-.113281-.015625-.222657-.019531-.335938h.199219c24.265624 0 44.003906-19.738281 44.003906-44.003906v-27.195313c13.265625-7.984374 23-21.378906 25.949218-37.1875l18.613282-17.734374 17.988281-17.136719h37.3125l35.4375 38.492187c8.5625 9.296875 8.867187 23.59375.703125 33.253906zm-296.828125 196.4375 21.847656-67.9375c18.574219 7.207032 41.808594 11.015626 58.703125 11.015626h30.128906c17.460938 0 47.738282-6.441407 69.855469-15.121094l16.722657 74.816406c1.152343 5.160156 3.332031 10.007812 6.328124 14.28125-5.992187.980469-12.101562 1.488281-18.289062 1.488281h-167.3125c-9.074219 0-17.984375-1.089843-26.582031-3.164062 3.894531-4.273438 6.894531-9.472657 8.597656-15.378907zm106.179687-194.929687c7.367188 4.011719 15.746094 6.378906 24.644532 6.648437v19.351563c0 7.71875-6.28125 14-14.003906 14h-30.363282c-7.722656 0-14.003906-6.28125-14.003906-14v-26zm0 0"/></svg>