<svg height="511pt" viewBox="0 0 511.9995 511" width="511pt" xmlns="http://www.w3.org/2000/svg"><path d="m507.667969 4.953125c-3.394531-3.433594-8.234375-5.0195312-13.003907-4.273437l-219.855468 34.628906c-5.589844.882812-10.207032 4.828125-11.941406 10.210937-1.738282 5.382813-.300782 11.285157 3.71875 15.265625l16.035156 15.878906-123.824219 122.636719c-2.84375 2.816407-4.445313 6.65625-4.445313 10.65625 0 4.003907 1.601563 7.84375 4.445313 10.660157l13.621094 13.492187-63.796875 63.792969c-5.859375 5.855468-5.859375 15.351562-.003906 21.210937 2.929687 2.929688 6.769531 4.394531 10.609374 4.394531 3.835938 0 7.675782-1.464843 10.605469-4.390624l63.902344-63.898438 63.589844 62.984375-97.089844 97.082031c-5.859375 5.855469-5.859375 15.351563 0 21.210938 2.929687 2.929687 6.765625 4.394531 10.605469 4.394531s7.675781-1.464844 10.605468-4.390625l97.195313-97.183594 13.347656 13.21875c2.921875 2.894532 6.738281 4.339844 10.554688 4.339844 3.820312 0 7.636719-1.445312 10.558593-4.339844l124.027344-122.839844 12.671875 12.546876c2.855469 2.828124 6.664063 4.34375 10.558594 4.34375 1.535156 0 3.082031-.234376 4.589844-.71875 5.328125-1.714844 9.261719-6.253907 10.195312-11.773438l36.644531-216.085938c.808594-4.761718-.726562-9.621093-4.121093-13.054687zm-148.394531 259.628906-113.277344.175781-40.890625-40.5h194.882812zm-152.75-70.324219 38.988281-38.617187s116.863281.222656 117.113281.207031l38.78125 38.410156zm125.851562-68.371093h-56.820312l28.410156-28.136719zm-56.261719 168.695312h52.867188l-26.433594 26.183594zm174.285157-93.972656-141.636719-140.277344 169.960937-26.769531zm0 0"/><path d="m14.394531 476.984375-9.949219 9.855469c-5.886718 5.828125-5.933593 15.328125-.101562 21.214844 2.933594 2.960937 6.792969 4.445312 10.65625 4.445312 3.8125 0 7.628906-1.449219 10.554688-4.34375l9.949218-9.855469c5.886719-5.828125 5.933594-15.324219.105469-21.210937-5.832031-5.886719-15.328125-5.933594-21.214844-.105469zm0 0"/><path d="m164.519531 347.980469c-5.859375-5.859375-15.355469-5.859375-21.210937-.003907l-98.324219 98.3125c-5.859375 5.855469-5.859375 15.355469 0 21.210938 2.929687 2.929688 6.765625 4.394531 10.605469 4.394531s7.675781-1.464843 10.605468-4.390625l98.320313-98.3125c5.859375-5.855468 5.859375-15.355468.003906-21.210937zm0 0"/><path d="m321.351562 416.390625h-7.167968v-6.953125c0-8.285156-6.714844-15-15-15-8.28125 0-15 6.714844-15 15v6.953125h-7.164063c-8.285156 0-15 6.714844-15 15 0 8.28125 6.714844 15 15 15h7.164063v6.953125c0 8.285156 6.71875 15 15 15 8.285156 0 15-6.714844 15-15v-6.953125h7.167968c8.285157 0 15-6.71875 15-15 0-8.285156-6.714843-15-15-15zm0 0"/><path d="m39 252.5625h7.167969v6.953125c0 8.28125 6.714843 15 15 15 8.28125 0 15-6.71875 15-15v-6.953125h7.164062c8.285157 0 15-6.71875 15-15 0-8.285156-6.714843-15-15-15h-7.164062v-6.957031c0-8.28125-6.71875-15-15-15-8.285157 0-15 6.71875-15 15v6.957031h-7.167969c-8.285156 0-15 6.714844-15 15 0 8.28125 6.714844 15 15 15zm0 0"/><path d="m129.644531 445.984375-9.949219 9.851563c-5.882812 5.832031-5.929687 15.328124-.101562 21.214843 2.933594 2.960938 6.796875 4.441407 10.65625 4.441407 3.816406 0 7.632812-1.445313 10.558594-4.339844l9.949218-9.855469c5.886719-5.832031 5.929688-15.328125.101563-21.214844-5.832031-5.886719-15.332031-5.929687-21.214844-.097656zm0 0"/><path d="m78.03125 328.597656-9.953125 9.855469c-5.882813 5.828125-5.929687 15.324219-.101563 21.210937 2.933594 2.960938 6.796876 4.445313 10.660157 4.445313 3.8125 0 7.628906-1.445313 10.554687-4.339844l9.949219-9.855469c5.886719-5.832031 5.933594-15.328124.101563-21.214843-5.828126-5.882813-15.328126-5.929688-21.210938-.101563zm0 0"/></svg>