<svg height="512pt" viewBox="0 -1 512.00006 512" width="512pt" xmlns="http://www.w3.org/2000/svg"><path d="m512 220.085938c.011719-4.605469-2.089844-8.964844-5.707031-11.816407l-59.410157-46.914062v-132.335938c0-16-13.019531-29.019531-29.023437-29.019531h-322.207031c-16.003906 0-29.023438 13.019531-29.023438 29.019531v131.238281l-60.910156 48c-3.691406 2.90625-5.8046875 7.375-5.71484375 12.070313l-.00390625 245.632813c0 24.824218 20.195312 45.023437 45.019531 45.023437h421.960938c24.824219 0 45.019531-20.199219 45.019531-45.023437zm-466.980469 260.882812c-8.273437 0-15.003906-6.730469-15.003906-15.007812v-191.980469l176 97.515625c31.296875 17.339844 68.671875 17.339844 99.96875 0l176-97.515625v191.984375c0 8.273437-6.730469 15.003906-15.003906 15.003906zm371.847657-450.953125v245.730469l-125.429688 69.496094c-22.1875 12.296874-48.6875 12.296874-70.875 0l-123.917969-68.65625v-246.570313zm65.097656 197.285156-.03125 12.398438-35.050782 19.417969v-59.519532zm-415.332032-28.832031v61.488281l-36.238281-20.078125-.242187-12.660156zm0 0"/><path d="m416.316406 417.828125c5.855469-5.867187 5.84375-15.367187-.023437-21.222656l-38.9375-38.847657c-5.867188-5.855468-15.367188-5.84375-21.222657.023438-5.855468 5.867188-5.84375 15.371094.023438 21.222656l38.9375 38.851563c2.929688 2.921875 6.765625 4.382812 10.601562 4.382812 3.847657 0 7.691407-1.46875 10.621094-4.410156zm0 0"/><path d="m447.574219 427.8125c-5.871094-5.855469-15.367188-5.84375-21.222657.023438-5.855468 5.871093-5.84375 15.371093.023438 21.226562l10.644531 10.617188c2.929688 2.921874 6.765625 4.382812 10.601563 4.382812 3.84375 0 7.691406-1.46875 10.621094-4.40625 5.855468-5.867188 5.84375-15.367188-.023438-21.222656zm0 0"/><path d="m117.792969 417.855469 38.9375-38.851563c5.867187-5.851562 5.875-15.355468.023437-21.222656-5.855468-5.867188-15.355468-5.878906-21.222656-.023438l-38.9375 38.847657c-5.867188 5.855469-5.878906 15.355469-.027344 21.222656 2.933594 2.941406 6.777344 4.410156 10.625 4.410156 3.835938 0 7.671875-1.460937 10.601563-4.382812zm0 0"/><path d="m65.3125 427.8125-10.644531 10.621094c-5.867188 5.855468-5.878907 15.355468-.023438 21.222656 2.929688 2.9375 6.777344 4.40625 10.621094 4.40625 3.835937 0 7.671875-1.460938 10.601563-4.382812l10.644531-10.617188c5.867187-5.855469 5.878906-15.355469.023437-21.226562-5.855468-5.863282-15.355468-5.875-21.222656-.023438zm0 0"/><path d="m150.613281 103.742188h73.417969c8.289062 0 15.007812-6.71875 15.007812-15.007813 0-8.285156-6.71875-15.003906-15.007812-15.003906h-73.417969c-8.289062 0-15.007812 6.71875-15.007812 15.003906 0 8.289063 6.71875 15.007813 15.007812 15.007813zm0 0"/><path d="m361.878906 135.976562h-211.265625c-8.289062 0-15.007812 6.71875-15.007812 15.003907 0 8.289062 6.71875 15.007812 15.007812 15.007812h211.265625c8.289063 0 15.007813-6.71875 15.007813-15.007812 0-8.285157-6.71875-15.003907-15.007813-15.003907zm0 0"/><path d="m361.878906 191.25h-211.265625c-8.289062 0-15.007812 6.71875-15.007812 15.007812 0 8.285157 6.71875 15.003907 15.007812 15.003907h211.265625c8.289063 0 15.007813-6.71875 15.007813-15.003907 0-8.289062-6.71875-15.007812-15.007813-15.007812zm0 0"/></svg>