<svg height="512pt" viewBox="-48 0 512 512" width="512pt" xmlns="http://www.w3.org/2000/svg"><path d="m377.882812 422.554688c5.140626-7.71875 8.144532-16.976563 8.144532-26.921876v-.28125c0-18.820312-10.738282-35.167968-26.398438-43.269531 35.277344-37.421875 56.941406-87.867187 56.941406-143.292969-.003906-115.128906-93.4375-208.789062-208.285156-208.789062-114.851562 0-208.285156 93.660156-208.285156 208.789062 0 55.425782 21.664062 105.871094 56.941406 143.292969-15.664062 8.101563-26.398437 24.449219-26.398437 43.269531v.28125c0 9.945313 3.003906 19.203126 8.144531 26.921876-13.042969 8.746093-21.644531 23.621093-21.644531 40.46875v.28125c0 26.851562 21.84375 48.695312 48.695312 48.695312h285.089844c26.851563 0 48.695313-21.84375 48.695313-48.695312v-.28125c0-16.847657-8.601563-31.722657-21.640626-40.46875zm-8.359374 40.75c0 10.308593-8.386719 18.695312-18.695313 18.695312h-285.089844c-10.308593 0-18.695312-8.386719-18.695312-18.695312v-.28125c0-10.308594 8.386719-18.695313 18.695312-18.695313h285.089844c10.3125 0 18.695313 8.386719 18.695313 18.695313zm-339.523438-254.515626c0-98.585937 79.976562-178.789062 178.285156-178.789062 98.304688 0 178.28125 80.203125 178.28125 178.789062 0 55.429688-25.28125 105.046876-64.890625 137.863282h-98.390625v-20.425782h36.765625c4.882813 0 9.460938-2.378906 12.269531-6.375 2.808594-3.996093 3.496094-9.109374 1.839844-13.707031l-51.761718-143.816406c-2.144532-5.949219-7.789063-9.917969-14.113282-9.917969-6.324218 0-11.972656 3.96875-14.113281 9.917969l-51.765625 143.816406c-1.652344 4.597657-.96875 9.710938 1.839844 13.707031 2.8125 3.996094 7.390625 6.375 12.273437 6.375h36.765625v20.425782h-98.394531c-39.609375-32.816406-64.890625-82.433594-64.890625-137.863282zm147.859375 87.4375 30.425781-84.527343 30.421875 84.527343zm-117.316406 99.125c0-10.3125 8.386719-18.695312 18.695312-18.695312h258.089844c10.3125 0 18.699219 8.386719 18.699219 18.695312v.28125c0 10.308594-8.386719 18.695313-18.699219 18.695313h-258.089844c-10.308593 0-18.695312-8.386719-18.695312-18.695313zm0 0"/><path d="m296.371094 206.992188c-8.28125 0-15 6.714843-15 15 0 8.28125 6.71875 15 15 15h7.125v7.179687c0 8.285156 6.714844 15 15 15s15-6.714844 15-15v-7.179687h7.125c8.28125 0 15-6.71875 15-15 0-8.285157-6.71875-15-15-15h-7.125v-7.183594c0-8.285156-6.714844-15-15-15s-15 6.714844-15 15v7.183594zm0 0"/><path d="m94.402344 161.816406h7.121094v7.179688c0 8.285156 6.714843 15 15 15 8.285156 0 15-6.714844 15-15v-7.179688h7.125c8.285156 0 15-6.71875 15-15 0-8.285156-6.714844-15-15-15h-7.125v-7.183594c0-8.285156-6.714844-15-15-15-8.285157 0-15 6.714844-15 15v7.183594h-7.121094c-8.285156 0-15 6.714844-15 15 0 8.28125 6.714844 15 15 15zm0 0"/><path d="m106.332031 239.605469c0-10.402344-8.351562-18.835938-18.65625-18.835938-10.304687 0-18.65625 8.433594-18.65625 18.835938 0 10.402343 8.351563 18.835937 18.65625 18.835937 10.304688 0 18.65625-8.433594 18.65625-18.835937zm0 0"/><path d="m299.007812 140.339844c0-10.40625-8.355468-18.835938-18.65625-18.835938-10.304687 0-18.65625 8.429688-18.65625 18.835938 0 10.402344 8.351563 18.835937 18.65625 18.835937 10.300782 0 18.65625-8.433593 18.65625-18.835937zm0 0"/><path d="m208.34375 74.160156c0-10.402344-8.355469-18.835937-18.65625-18.835937-10.304688 0-18.65625 8.433593-18.65625 18.835937s8.351562 18.835938 18.65625 18.835938c10.300781 0 18.65625-8.433594 18.65625-18.835938zm0 0"/></svg>