<svg height="511pt" viewBox="-86 0 511 511.99988" width="511pt" xmlns="http://www.w3.org/2000/svg"><path d="m339.949219 85.707031c0-8.285156-6.71875-15-15-15h-35.511719v-55.707031c0-4.648438-2.15625-9.039062-5.839844-11.878906-3.6875-2.839844-8.480468-3.8125-12.976562-2.625l-258.9375 68.140625c-6.589844 1.734375-11.183594 7.691406-11.183594 14.507812v413.855469c0 8.285156 6.714844 15 15 15h309.449219c3.976562 0 7.792969-1.582031 10.605469-4.394531s4.394531-6.628907 4.394531-10.605469zm-80.511719-15h-137.734375l137.734375-36.25zm50.511719 411.292969h-279.449219v-381.292969h279.449219zm0 0"/><path d="m77.453125 324.824219h43.878906c6.335938 20.898437 25.777344 36.160156 48.722657 36.160156 22.945312 0 42.386718-15.261719 48.722656-36.160156h44.21875c8.285156 0 15-6.714844 15-15 0-20.015625-11.195313-41.132813-26.761719-52.398438v-26.644531c0-40.210938-29.46875-73.65625-67.949219-79.917969v-14.765625c0-8.28125-6.714844-14.996094-15-14.996094-8.28125 0-15 6.714844-15 14.996094v15.492188c-36.5625 7.808594-64.070312 40.34375-64.070312 79.191406v26.644531c-15.566406 11.269531-26.761719 32.386719-26.761719 52.398438 0 8.285156 6.71875 15 15 15zm32.628906-45c5.535157-2.351563 9.132813-7.789063 9.132813-13.804688v-35.238281c0-26.804688 20.800781-48.824219 47.113281-50.824219.640625.085938 1.292969.140625 1.957031.140625.984375 0 1.945313-.097656 2.875-.28125 27.695313.503906 50.074219 23.164063 50.074219 50.964844v35.238281c0 6.015625 3.597656 11.453125 9.132813 13.804688 5.410156 2.300781 10.535156 8.167969 13.851562 15h-147.988281c3.316406-6.832031 8.441406-12.699219 13.851562-15zm45.433594 45.265625h29.078125c-3.765625 3.644531-8.894531 5.894531-14.539062 5.894531-5.644532 0-10.773438-2.246094-14.539063-5.894531zm0 0"/><path d="m126.050781 412.851562h88.347657c8.285156 0 15-6.714843 15-15 0-8.285156-6.714844-15-15-15h-88.347657c-8.285156 0-15 6.714844-15 15 0 8.285157 6.714844 15 15 15zm0 0"/><path d="m240.292969 429.417969h-140.136719c-8.285156 0-15 6.714843-15 15 0 8.28125 6.714844 15 15 15h140.136719c8.285156 0 15-6.71875 15-15 0-8.285157-6.714844-15-15-15zm0 0"/></svg>