<svg height="512pt" viewBox="-19 0 512 512.00125" width="512pt" xmlns="http://www.w3.org/2000/svg"><path d="m250.507812 271.023438h86.980469c16.542969 0 30-13.457032 30-30v-23.523438c0-16.542969-13.457031-30-30-30h-86.980469c-16.542968 0-30 13.457031-30 30v23.523438c0 16.542968 13.457032 30 30 30zm0-53.523438h86.980469l.019531 23.523438s-.007812 0-.019531 0h-86.980469zm0 0"/><path d="m343.003906 284.984375h-72.71875c-8.285156 0-15 6.714844-15 15s6.714844 15 15 15h72.71875c8.28125 0 14.996094-6.714844 14.996094-15s-6.714844-15-14.996094-15zm0 0"/><path d="m118.527344 241.878906h72.71875c8.28125 0 15-6.714844 15-15 0-8.28125-6.71875-15-15-15h-72.71875c-8.285156 0-15 6.71875-15 15 0 8.285156 6.714844 15 15 15zm0 0"/><path d="m474.09375 48.28125c0-26.621094-21.582031-48.28125-48.105469-48.28125l-272.613281.00390625c-.117188-.00390625-.21875-.00390625-.335938 0h-104.933593c-26.523438 0-48.105469 21.66015575-48.105469 48.28124975v.058594.054688 35.21875c0 9.984374 3.253906 19.21875 8.746094 26.703124v46.585938c0 8.28125 6.714844 15 15 15h20.867187v325.09375c0 8.285156 6.71875 15 15 15h354.867188c8.285156 0 15-6.714844 15-15v-325.09375h20.871093c8.28125 0 15-6.71875 15-15v-80.917969c5.5-7.847656 8.742188-17.402343 8.742188-27.707031zm-398.621094 281.011719v-23.523438h86.984375l.015625 23.519531s-.003906.003907-.015625.003907zm97.046875 151.707031v-23.523438h86.980469l.019531 23.523438s-.007812 0-.019531 0zm226.164063-94.960938s-.003906 0-.019532 0h-52.101562v-23.523437h52.101562zm.796875-53.503906c-.273438-.007812-.542969-.019531-.816407-.019531h-52.101562c-16.542969 0-30 13.457031-30 30v23.523437c0 16.542969 13.457031 30 30 30h52.101562c.273438 0 .542969-.011718.816407-.023437v13.058594h-46.894531c-8.285157 0-15 6.714843-15 15 0 8.285156 6.714843 15 15 15h46.894531v22.925781h-110.007813c.011719-.332031.027344-.664062.027344-1v-23.523438c0-16.542968-13.457031-30-30-30h-86.980469c-16.542969 0-30 13.457032-30 30v23.523438c0 .335938.011719.667969.023438 1h-67.929688v-78.066406h78.789063c8.285156 0 15-6.71875 15-15 0-8.285156-6.714844-15-15-15h-78.789063v-14.664063c.289063.007813.570313.023438.859375.023438h86.984375c16.539063 0 30-13.460938 30-30v-23.523438c0-16.542969-13.460937-30-30-30h-86.984375c-.289062 0-.570312.011719-.859375.019531v-103.882812h324.867188zm-351.375-302.53125h105.046875.109375l272.726562-.003906c9.984375 0 18.105469 8.203125 18.105469 18.28125 0 10.082031-8.121094 18.28125-18.105469 18.28125h-20.679687c-8.285156 0-15 6.71875-15 15v32.75c0 12.320312-9.933594 22.339844-22.144532 22.339844-12.210937 0-22.144531-10.019532-22.144531-22.339844v-32.746094c0-8.285156-6.714843-15-15-15h-57.402343c-6.289063 0-11.914063 3.925782-14.082032 9.832032-2.761718 7.527343-9.921875 12.585937-17.816406 12.585937h-3.164062c-7.894532 0-15.054688-5.058594-17.816407-12.585937-2.167969-5.90625-7.792969-9.832032-14.082031-9.832032h-30.535156c-8.28125 0-15 6.714844-15 15v12.089844c0 4.359375-3.625 8.042969-7.917969 8.042969-4.289063 0-7.917969-3.683594-7.917969-8.042969v-12.089844c0-8.285156-6.714844-15-15-15h-54.566406c-8.285156 0-15 6.714844-15 15v2.050782c0 8.34375-6.714844 15.132812-14.96875 15.132812h-.78125c-8.253906 0-14.96875-6.789062-14.96875-15.132812v-35.066407c0-.09375.003906-.1875.003906-.265625 0-.066406 0-.136718-.003906-.203125.109375-9.984375 8.1875-18.078125 18.105469-18.078125zm-9.363281 98.300782c2.039062.285156 4.113281.445312 6.226562.445312h.78125c20.3125 0 37.523438-13.589844 43.082031-32.183594h26.566407c1.484374 19.621094 17.875 35.132813 37.808593 35.132813 19.933594 0 36.320313-15.511719 37.808594-35.132813h6.480469c8.925781 13.734375 24.34375 22.417969 41.0625 22.417969h3.160156c16.71875 0 32.136719-8.683594 41.0625-22.417969h33.242188v17.746094c0 10.121094 2.882812 19.574219 7.859374 27.59375h-285.140624zm375.738281 13.601562h-2.03125c4.972656-8.019531 7.859375-17.472656 7.859375-27.59375v-17.746094h5.679687c3.203125 0 6.332031-.324218 9.363281-.925781v46.265625zm0 0"/></svg>