<svg height="512pt" viewBox="0 -22 512 512" width="512pt" xmlns="http://www.w3.org/2000/svg"><path d="m497 375.585938h-17.851562c4.097656-10.125 5.503906-20.089844 5.503906-28.980469 0-77.5-102.441406-181.484375-222.003906-192.355469-38.261719-3.476562-74.191407-.628906-105.996094 8.25l-8.457032-6.128906c-15.832031-11.472656-37.285156-10.09375-51.507812 3.132812l-47.398438-47.941406.054688-9.617188c.046875-8.285156-6.628906-15.039062-14.914062-15.085937-.027344 0-.058594 0-.085938 0-8.246094 0-14.953125 6.65625-15 14.914063l-.003906.832031-.832032-.003907c-.03125 0-.058593 0-.085937 0-8.246094 0-14.953125 6.660157-15 14.914063-.046875 8.285156 6.632813 15.039063 14.914063 15.085937l9.621093.054688 47.394531 47.941406c-9.679687 10.175782-13.203124 24.195313-10.144531 37.21875-11.792969 13.667969-20.785156 29.023438-26.464843 45.515625-15.484376 44.984375-15.128907 82.671875 1 112.253907h-24.742188c-8.285156 0-15 6.71875-15 15 0 8.285156 6.714844 15 15 15h1.132812v16.066406c0 25.160156 20.472657 45.632812 45.636719 45.632812h388.464844c25.164063 0 45.632813-20.472656 45.632813-45.632812v-16.066406h1.132812c8.285156 0 15-6.714844 15-15 0-8.28125-6.714844-15-15-15zm-46.769531 61.699218h-388.460938c-8.625 0-15.636719-7.015625-15.636719-15.636718v-16.0625h419.734376v16.0625c0 8.621093-7.011719 15.636718-15.636719 15.636718zm-379.878907-69.21875c-16.082031-22.546875-17.171874-54.5-3.242187-94.972656 3.355469-9.75 8.109375-18.917969 14.15625-27.414062l54.503906 77.039062c12.394531 17.523438 31.769531 28.652344 53.152344 30.53125 2.148437.1875 4.292969.28125 6.425781.28125 19.121094 0 37.511719-7.496094 51.242188-21.070312 15.265625-15.09375 23.082031-36.023438 21.445312-57.425782-1.636718-21.402344-12.542968-40.902344-29.921875-53.5l-48.945312-35.472656c13.425781-2.160156 27.535156-3.257812 42.210937-3.257812 9.304688 0 18.839844.4375 28.554688 1.320312 48.503906 4.410156 98.796875 27.40625 137.988281 63.09375 34.992187 31.867188 56.730469 69.949219 56.730469 99.386719 0 5.257812-.003906 16.671875-9.828125 28.976562h-25.164063c7.605469-8.339843 14.003906-18.226562 18.753906-29.199219 1.582032-3.652343 1.648438-7.78125.183594-11.480468-1.460937-3.699219-4.335937-6.664063-7.988281-8.246094l-91.507813-39.617188c-2.832031-3.1875-5.878906-6.238281-9.132812-9.128906-2.976562-2.640625-6.886719-3.984375-10.851562-3.75-3.972657.238282-7.6875 2.042969-10.324219 5.019532l-71.097657 80.15625c-2.640624 2.976562-3.988281 6.878906-3.75 10.847656.113282 1.890625.589844 3.71875 1.371094 5.402344h-158.726562c-2.265625-2.378907-4.355469-4.878907-6.238282-7.519532zm150.15625-122.238281c10.230469 7.414063 16.652344 18.894531 17.613282 31.492187.964844 12.601563-3.636719 24.921876-12.625 33.804688v.003906c-8.984375 8.882813-21.355469 13.347656-33.945313 12.238282-12.585937-1.105469-23.992187-7.660157-31.292969-17.976563l-64.136718-90.65625c-3.019532-4.269531-2.511719-10.039063 1.207031-13.71875l19.527344-19.304687c2.066406-2.042969 4.765625-3.085938 7.484375-3.085938 2.175781 0 4.363281.667969 6.25 2.035156zm75.027344 129.757813c-7.996094-1.046876-16.4375-3.960938-24.472656-8.660157l32.789062-36.96875c-.261718 8.128907.5 16.128907 2.34375 23.746094 1.824219 7.527344 4.613282 14.363281 8.222657 20.410156-1.980469.667969-4.070313 1.15625-6.242188 1.472657zm57.699219-5.042969c-8.707031-3.773438-15.058594-12.261719-17.878906-23.90625-2.148438-8.863281-2.089844-18.644531.078125-28.492188l68.144531 29.503907c-13.539063 19.585937-34.421875 29.785156-50.34375 22.894531zm0 0"/><path d="m170.964844 107.007812-3.261719 3.582032c-5.574219 6.125-5.128906 15.613281.996094 21.1875 2.875 2.617187 6.492187 3.90625 10.09375 3.90625 4.074219 0 8.136719-1.652344 11.097656-4.902344l3.261719-3.585938c14.550781-15.988281 14.550781-40.109374 0-56.097656-3.902344-4.289062-4.046875-10.878906-.335938-15.332031l.96875-1.164063c5.304688-6.363281 4.445313-15.820312-1.917968-21.125-6.363282-5.304687-15.820313-4.445312-21.128907 1.917969l-.964843 1.164063c-13.25 15.894531-12.738282 39.425781 1.191406 54.726562 4.078125 4.484375 4.078125 11.242188 0 15.722656zm0 0"/><path d="m244.90625 77.007812-3.261719 3.582032c-5.574219 6.128906-5.128906 15.613281 1 21.1875 2.875 2.617187 6.488281 3.90625 10.089844 3.90625 4.078125 0 8.136719-1.648438 11.097656-4.902344l3.261719-3.582031c14.554688-15.992188 14.554688-40.109375 0-56.101563-3.902344-4.289062-4.046875-10.878906-.335938-15.332031l.96875-1.160156c5.304688-6.363281 4.445313-15.824219-1.917968-21.128907-6.363282-5.300781-15.820313-4.445312-21.125 1.921876l-.96875 1.160156c-13.25 15.894531-12.734375 39.425781 1.191406 54.730468 4.078125 4.480469 4.078125 11.238282 0 15.71875zm0 0"/><path d="m318.847656 107.007812-3.261718 3.582032c-5.574219 6.125-5.128907 15.613281 1 21.1875 2.875 2.617187 6.488281 3.90625 10.089843 3.90625 4.078125 0 8.136719-1.652344 11.097657-4.902344l3.261718-3.585938c14.554688-15.988281 14.554688-40.109374 0-56.097656-3.902344-4.289062-4.046875-10.878906-.335937-15.332031l.96875-1.164063c5.304687-6.363281 4.445312-15.820312-1.917969-21.125-6.363281-5.304687-15.824219-4.445312-21.128906 1.917969l-.964844 1.164063c-13.25 15.894531-12.734375 39.425781 1.191406 54.730468 4.078125 4.480469 4.078125 11.238282 0 15.71875zm0 0"/></svg>