<svg height="512pt" viewBox="0 -97 512.00097 512" width="512pt" xmlns="http://www.w3.org/2000/svg"><path d="m498.640625 130.109375c-25.042969-50.949219-79.351563-78.332031-132.972656-71.933594 1.359375-9.984375-.269531-20.148437-4.820313-29.398437-12.492187-25.417969-43.421875-35.992188-68.9375-23.570313-12.40625 6.039063-21.699218 16.53125-26.164062 29.550781-4.453125 12.980469-3.570313 26.910157 2.484375 39.230469 4.632812 9.421875 11.800781 16.796875 20.28125 21.722657-13.738281 13.789062-24.273438 30.601562-30.765625 49.53125-.625 1.824218-1.203125 3.65625-1.746094 5.492187-.539062-1.835937-1.117188-3.667969-1.742188-5.492187-6.496093-18.929688-17.027343-35.742188-30.769531-49.53125 8.484375-4.925782 15.652344-12.300782 20.28125-21.722657 6.054688-12.320312 6.9375-26.25 2.484375-39.230469-4.464844-13.019531-13.753906-23.511718-26.160156-29.550781-25.519531-12.421875-56.445312-1.851562-68.941406 23.570313-4.546875 9.253906-6.175782 19.414062-4.820313 29.398437-53.621093-6.398437-107.925781 20.980469-132.972656 71.933594-15.308594 31.152344-17.539063 66.378906-6.28125 99.199219 11.292969 32.917968 34.789063 59.464844 66.167969 74.757812.003906.003906.007812.003906.011718.007813 0 0 .003907 0 .003907.003906.015625.003906.03125.011719.046875.019531 18.402344 8.960938 37.910156 13.199219 57.140625 13.199219 48.335937 0 94.886719-26.808594 117.523437-72.859375 3.277344-6.671875 5.953125-13.53125 8.027344-20.511719 2.074219 6.980469 4.75 13.839844 8.027344 20.511719 22.640625 46.054688 69.183594 72.859375 117.523437 72.859375 19.226563 0 38.742188-4.242187 57.140625-13.199219.015625-.007812.03125-.015625.046875-.019531 0-.003906.003907-.003906.003907-.003906.003906-.003907.007812-.003907.011718-.007813 31.378906-15.292968 54.875-41.839844 66.167969-74.757812 11.261719-32.820313 9.027344-68.046875-6.28125-99.199219zm-398.171875 152.601563 15.289062-31.105469c3.488282-1.800781 6.460938-4.683594 8.324219-8.480469 4.597657-9.355469.789063-20.609375-8.511719-25.136719-9.300781-4.523437-20.566406-.609375-25.164062 8.746094-1.863281 3.792969-2.324219 7.898437-1.617188 11.742187l-15.304687 31.132813c-17.695313-12.097656-30.972656-29.449219-38.035156-50.035156-6.953125-20.277344-7.203125-41.75-.917969-61.832031l178.554688 86.914062c-25.046876 35.625-70.886719 51.140625-112.617188 38.054688zm30.351562-195.476563c13.847657 0 27.894532 2.859375 41.25 8.863281.90625.507813 1.820313 1 2.761719 1.457032.863281.421874 1.738281.8125 2.613281 1.179687 22.902344 11.945313 40.054688 31.800781 48.441407 56.238281 7.070312 20.617188 7.210937 42.472656.601562 62.84375l-178.847656-87.054687c19.050781-27.71875 50.578125-43.527344 83.179687-43.527344zm46.222657-28.964844c-1.847657-5.378906-1.480469-11.15625 1.03125-16.261719 3.734375-7.601562 11.421875-12.019531 19.414062-12.019531 3.1875 0 6.425781.703125 9.476563 2.1875 5.183594 2.523438 9.058594 6.894531 10.917968 12.3125 1.847657 5.382813 1.480469 11.15625-1.03125 16.265625-4.886718 9.9375-16.535156 14.4375-26.777343 10.722656-.683594-.347656-1.363281-.691406-2.050781-1.027343-.683594-.335938-1.371094-.652344-2.054688-.972657-4.183594-2.597656-7.316406-6.507812-8.925781-11.207031zm261.472656 211.339844-15.300781-31.132813c.707031-3.84375.25-7.949218-1.617188-11.742187-4.597656-9.355469-15.863281-13.269531-25.164062-8.746094-9.300782 4.527344-13.113282 15.78125-8.511719 25.136719 1.867187 3.796875 4.839844 6.675781 8.324219 8.480469l15.289062 31.105469c-41.730468 13.089843-87.570312-2.429688-112.617187-38.054688l178.554687-86.914062c6.285156 20.082031 6.035156 41.554687-.917968 61.832031-7.066407 20.585937-20.339844 37.9375-38.039063 50.035156zm-103.957031-170.875c.878906-.367187 1.75-.757813 2.613281-1.179687.933594-.453126 1.839844-.941407 2.734375-1.441407 44.808594-20.160156 97.300781-4.851562 124.449219 34.652344l-178.839844 87.050781c-6.609375-20.371094-6.46875-42.226562.601563-62.84375 8.386718-24.4375 25.542968-44.292968 48.441406-56.238281zm-39.410156-37.980469c-2.507813-5.105468-2.875-10.882812-1.03125-16.261718 1.859374-5.421876 5.738281-9.792969 10.917968-12.316407 3.054688-1.484375 6.292969-2.1875 9.480469-2.1875 7.988281 0 15.679687 4.417969 19.414063 12.019531 2.507812 5.105469 2.875 10.882813 1.03125 16.265626-1.613282 4.699218-4.746094 8.605468-8.929688 11.207031-.6875.320312-1.371094.636719-2.054688.96875-.6875.335937-1.367187.679687-2.046874 1.027343-10.246094 3.714844-21.890626-.78125-26.78125-10.722656zm0 0"/></svg>