<svg height="512pt" viewBox="-6 0 512 512" width="512pt" xmlns="http://www.w3.org/2000/svg"><path d="m489.460938 44.074219c-14.457032-26.550781-40.890626-43.003907-70.703126-44.0195315-1.050781-.0351563-2.105468-.0546875-3.167968-.0546875h-8.839844c-53.128906 0-100.691406 24.472656-132.175781 62.816406-7.3125-1.898437-14.976563-2.90625-22.871094-2.90625-8.839844 0-17.390625 1.269532-25.484375 3.628906-31.476562-38.757812-79.296875-63.539062-132.757812-63.539062h-8.84375c-1.058594 0-2.117188.0195312-3.164063.0546875-29.8125 1.0156245-56.246094 17.4687505-70.703125 44.0195315-14.902344 27.367187-14.277344 59.605469 1.667969 86.238281l5.175781 8.648438c8.640625 14.429687 13.464844 31.824218 13.953125 50.296874.550781 20.691407 10.324219 42.160157 26.820313 58.894532 14.5625 14.777344 32.457031 24 50.046874 26.007812l-47.601562 165.105469c-.070312.242187-.132812.488281-.191406.734375-.183594.785156-.351563 1.570312-.5 2.359375-3.550782 18.933594 5.972656 36.90625 23.695312 44.722656 17.992188 7.933594 37.984375 2.765625 49.742188-12.855469l8.085937-10.746093c.929688-1.238281 2.164063-1.6875 3.65625-1.335938 1.511719.355469 2.425781 1.320313 2.710938 2.867188l2.464843 13.230469c3.585938 19.265624 19.210938 32.8125 38.878907 33.710937.675781.03125 1.347656.046875 2.015625.046875 18.441406 0 33.976562-11.65625 39.019531-29.519531.21875-.769531.421875-1.546875.605469-2.335938.058594-.246093.109375-.496093.15625-.746093l18.953125-104.140626 18.953125 104.140626c.042968.25.09375.5.152344.746093.1875.789063.386718 1.566407.605468 2.335938 5.042969 17.863281 20.578125 29.519531 39.019532 29.519531.667968 0 1.339843-.015625 2.015624-.046875 19.671876-.898437 35.296876-14.445313 38.882813-33.710937l2.460937-13.230469c.289063-1.546875 1.199219-2.511719 2.714844-2.867188 1.496094-.351562 2.722656.097657 3.652344 1.335938l8.089844 10.746093c11.757812 15.621094 31.746094 20.789063 49.738281 12.855469 17.726563-7.816406 27.246094-25.789062 23.695313-44.730469-.148438-.78125-.3125-1.566406-.496094-2.351562-.058594-.246094-.125-.492188-.195313-.734375l-47.597656-165.105469c17.585937-2.007812 35.484375-11.230468 50.042969-26.007812 16.496094-16.734375 26.273437-38.203125 26.820312-58.894532.488282-18.472656 5.3125-35.867187 13.953125-50.296874l5.179688-8.648438c15.945312-26.632812 16.566406-58.871094 1.667969-86.238281zm-32.585938 79.476562c-11.28125 18.847657-17.578125 41.292969-18.203125 64.914063-.722656 27.269531-28.511719 56.117187-54.066406 56.117187h-48.363281c-14.472657 0-27.941407-4.40625-39.179688-11.949219 18.089844-10.402343 32.34375-26.824218 40.054688-46.535156l32.992187 7.351563c1.097656.246093 2.195313.363281 3.273437.363281 6.875 0 13.070313-4.753906 14.628907-11.742188 1.800781-8.085937-3.292969-16.101562-11.378907-17.902343l-33.277343-7.414063c.066406-1.46875.105469-2.945312.105469-4.429687 0-2.875-.136719-5.714844-.394532-8.527344l33.566406-7.476563c8.085938-1.804687 13.179688-9.816406 11.375-17.902343-1.800781-8.085938-9.816406-13.1875-17.902343-11.378907l-34.582031 7.707032c-7.027344-15.84375-18.355469-29.339844-32.484376-38.980469 25.867188-28.128906 62.785157-45.765625 103.710938-45.765625h8.839844c.714844 0 1.429687.011719 2.144531.035156 19.089844.652344 36.054687 11.261719 45.378906 28.386719 9.769531 17.941406 9.371094 39.054687-1.058593 56.480469zm-52.585938 336.082031c-1.949218.855469-8.699218 3.152344-13.667968-3.445312l-8.085938-10.746094c-8.125-10.796875-21.332031-15.589844-34.480468-12.503906-13.160157 3.089844-22.875 13.277344-25.351563 26.585938l-2.464844 13.234374c-1.519531 8.175782-8.617187 9.128907-10.753906 9.226563-2.550781.121094-8.746094-.394531-10.796875-7.660156-.070312-.234375-.132812-.476563-.191406-.714844l-33.144532-182.125 6.707032-36.847656c.214844-.945313.398437-1.894531.558594-2.839844 17.378906 14.238281 39.527343 22.785156 63.625 22.785156h24.453124l49.757813 172.585938c.054687.242187.105469.484375.148437.726562 1.402344 7.460938-3.945312 10.695313-6.3125 11.738281zm-202.765624 14.691407c-2.050782 7.265625-8.238282 7.789062-10.796876 7.660156-2.136718-.097656-9.234374-1.050781-10.757812-9.230469l-2.460938-13.234375c-2.476562-13.308593-12.191406-23.496093-25.351562-26.582031-13.144531-3.085938-26.355469 1.703125-34.480469 12.5l-8.089843 10.746094c-4.964844 6.597656-11.714844 4.304687-13.664063 3.445312-2.367187-1.042968-7.714844-4.273437-6.316406-11.730468.046875-.242188.097656-.488282.152343-.734376l49.753907-172.582031h24.457031c28.480469 0 54.242188-11.9375 72.621094-31.105469 2.21875.371094 4.464844.664063 6.730468.871094-.078124 1.273438-.261718 2.554688-.5625 3.835938-.054687.246094-.105468.492187-.152343.738281l-40.890625 224.683594c-.058594.242187-.125.480469-.191406.71875zm-85.917969-229.742188c-25.554688 0-53.347657-28.847656-54.070313-56.117187-.625-23.621094-6.917968-46.066406-18.203125-64.917969l-5.175781-8.644531c-10.433594-17.425782-10.828125-38.539063-1.058594-56.480469 9.324219-17.121094 26.289063-27.734375 45.382813-28.386719.710937-.023437 1.421875-.035156 2.140625-.035156h8.839844c41.589843 0 79.042968 18.207031 104.957031 47.132812-13.226563 9.535157-23.839844 22.515626-30.542969 37.628907l-34.65625-7.722657c-8.085938-1.800781-16.101562 3.292969-17.90625 11.378907-1.800781 8.085937 3.292969 16.101562 11.378906 17.902343l33.644532 7.496094c-.253907 2.804688-.394532 5.640625-.394532 8.507813 0 1.480469.039063 2.949219.109375 4.410156l-33.359375 7.433594c-8.085937 1.804687-13.179687 9.816406-11.378906 17.90625 1.558594 6.984375 7.753906 11.738281 14.628906 11.738281 1.078125 0 2.175782-.117188 3.273438-.363281l33.066406-7.367188c7.460938 19.085938 21.058594 35.085938 38.332031 45.53125-11.523437 8.160157-25.535156 12.96875-40.648437 12.96875zm197.859375-92.257812c0 4.257812-.429688 8.414062-1.234375 12.433593-.035157.136719-.082031.261719-.113281.402344-.03125.144532-.046876.289063-.074219.4375-6.039063 28.058594-30.792969 49.140625-60.339844 49.140625-34.054687 0-61.761719-28-61.761719-62.414062 0-34.414063 27.707032-62.414063 61.761719-62.414063s61.761719 28 61.761719 62.414063zm0 0"/></svg>