<svg height="512pt" viewBox="0 0 512 512" width="512pt" xmlns="http://www.w3.org/2000/svg"><path d="m497 97.140625c8.285156 0 15-6.714844 15-15v-67.140625c0-8.285156-6.714844-15-15-15h-482c-8.285156 0-15 6.714844-15 15v67.140625c0 8.285156 6.714844 15 15 15h29.183594v317.71875h-29.183594c-8.285156 0-15 6.714844-15 15v67.140625c0 8.285156 6.714844 15 15 15h482c8.285156 0 15-6.714844 15-15v-67.140625c0-8.285156-6.714844-15-15-15h-29.183594v-317.71875zm-15 384.859375h-452v-37.140625h29.183594c8.285156 0 15-6.714844 15-15v-347.71875c0-8.285156-6.714844-15-15-15h-29.183594v-37.140625h452v37.140625h-29.183594c-8.285156 0-15 6.714844-15 15v347.71875c0 8.285156 6.714844 15 15 15h29.183594zm0 0"/><path d="m379.765625 77.4375h-247.53125c-8.28125 0-15 6.71875-15 15v328.125c0 8.285156 6.71875 15 15 15h247.527344c8.285156 0 15-6.714844 15-15v-328.125c.003906-8.28125-6.714844-15-14.996094-15zm-232.53125 328.125v-134.0625h93.765625v134.0625zm0-206.179688c2.085937 8.839844 9.964844 15.425782 19.394531 15.425782 11.019532 0 19.949219-8.980469 19.949219-20.0625 0-11.082032-8.933594-20.0625-19.949219-20.0625-9.429687 0-17.308594 6.585937-19.394531 15.425781v-82.667969h19.167969c.613281 10.523438 9.269531 18.871094 19.886718 18.871094 10.621094 0 19.273438-8.347656 19.890626-18.871094h34.820312v134.0625h-93.765625zm123.765625 72.117188h93.765625v134.0625h-93.765625zm0-30v-134.0625h93.765625v74.542969c-1.507813-.363281-3.078125-.582031-4.695313-.582031-11.019531 0-19.949218 8.984374-19.949218 20.066406 0 11.082031 8.929687 20.0625 19.949218 20.0625 1.617188 0 3.1875-.214844 4.695313-.582032v20.554688zm0 0"/><path d="m325.152344 143.265625c0-11.082031-8.929688-20.0625-19.949219-20.0625-11.015625 0-19.949219 8.980469-19.949219 20.0625s8.933594 20.0625 19.949219 20.0625c11.019531 0 19.949219-8.980469 19.949219-20.0625zm0 0"/><path d="m227.328125 340.394531c0-11.078125-8.933594-20.0625-19.949219-20.0625-11.019531 0-19.949218 8.984375-19.949218 20.0625 0 11.082031 8.929687 20.066407 19.949218 20.066407 11.015625 0 19.949219-8.984376 19.949219-20.066407zm0 0"/><path d="m329.746094 302.742188c0-11.082032-8.929688-20.0625-19.949219-20.0625-11.015625 0-19.949219 8.980468-19.949219 20.0625 0 11.082031 8.933594 20.0625 19.949219 20.0625 11.019531 0 19.949219-8.980469 19.949219-20.0625zm0 0"/></svg>