<svg height="512pt" viewBox="-16 0 512 512" width="512pt" xmlns="http://www.w3.org/2000/svg"><path d="m480.3125 240.171875c-1.25-8.1875-8.894531-13.8125-17.089844-12.570313l-44.511718 6.78125c.382812-2.554687.585937-5.164062.585937-7.824218v-5.128906c0-18.785157-9.925781-35.285157-24.796875-44.566407v-3.0625c0-95.835937-79.335938-173.800781-176.851562-173.800781-97.519532 0-176.855469 77.964844-176.855469 173.800781l-.148438 57.363281-23.382812-3.5625c-8.183594-1.242187-15.839844 4.382813-17.089844 12.570313-1.246094 8.1875 4.382813 15.839844 12.570313 17.089844l8.042968 1.222656v101.328125c0 21.441406 17.414063 38.886719 38.816406 38.886719 5.667969 0 11.050782-1.230469 15.90625-3.425781 21.390626 67.464843 87.136719 116.726562 164.722657 116.726562 77.589843 0 143.339843-49.265625 164.722656-116.738281 4.863281 2.203125 10.253906 3.4375 15.929687 3.4375 21.402344 0 38.816407-17.441407 38.816407-38.886719v-101.328125l8.042969-1.222656c8.1875-1.25 13.816406-8.898438 12.570312-17.089844zm-50.613281 119.640625c0 4.902344-3.957031 8.886719-8.816407 8.886719-4.863281 0-8.816406-3.984375-8.816406-8.886719v-94.070312l17.632813-2.6875zm-331.277344-4.15625v-21.179688c26.140625-5.648437 45.925781-28.207031 46.921875-55.421874h221.457031c5.304688 0 10.429688-.796876 15.265625-2.269532v78.523438c-4.132812 70.515625-66.167968 126.691406-141.835937 126.691406-75.542969 0-137.496094-55.988281-141.808594-126.34375zm-38.820313 13.042969c-4.863281 0-8.816406-3.984375-8.816406-8.886719v-35.0625c5.300782 3.765625 11.238282 6.695312 17.636719 8.597656v26.464844c0 4.902344-3.957031 8.886719-8.820313 8.886719zm304.8125-199.839844h-206.117187l16.515625-16.257813c2.980469-2.933593 4.476562-6.808593 4.476562-10.683593.003907-3.800781-1.429687-7.605469-4.308593-10.527344-5.8125-5.90625-15.308594-5.980469-21.210938-.167969l-41.667969 41.011719c-3.371093 2.75-5.523437 6.933594-5.523437 11.625v37.855469c-6.523437-2.414063-13.582031-3.742188-20.949219-3.742188-5.175781 0-10.195312.652344-14.984375 1.875l.148438-46.046875c0-79.292969 65.878906-143.800781 146.855469-143.800781 79.285156 0 144.09375 61.847656 146.765624 138.859375zm24.882813 52.570313v5.128906c0 12.402344-10.09375 22.496094-22.496094 22.496094h-228.515625c-.542968-.992188-1.109375-1.964844-1.707031-2.921876v-47.203124h230.222656c12.402344 0 22.496094 10.09375 22.496094 22.5zm-303.667969 26.542968c16.414063 0 29.769532 12.980469 29.769532 28.9375 0 15.957032-13.355469 28.9375-29.769532 28.9375-16.414062 0-29.769531-12.980468-29.769531-28.9375 0-15.957031 13.355469-28.9375 29.769531-28.9375zm0 0"/><path d="m255.496094 410.015625c-9.164063 3.761719-19.265625 3.761719-28.429688 0-7.667968-3.144531-16.429687.519531-19.574218 8.183594-3.140626 7.664062.523437 16.425781 8.1875 19.570312 8.253906 3.386719 16.929687 5.078125 25.601562 5.078125 8.675781 0 17.347656-1.691406 25.605469-5.078125 7.664062-3.144531 11.328125-11.90625 8.183593-19.570312-3.144531-7.664063-11.90625-11.328125-19.574218-8.183594zm0 0"/><path d="m219.800781 365.691406c0-10.652344-8.679687-19.289062-19.386719-19.289062-10.707031 0-19.386718 8.636718-19.386718 19.289062s8.679687 19.289063 19.386718 19.289063c10.707032 0 19.386719-8.636719 19.386719-19.289063zm0 0"/><path d="m301.53125 365.691406c0-10.652344-8.675781-19.289062-19.382812-19.289062-10.707032 0-19.386719 8.636718-19.386719 19.289062s8.679687 19.289063 19.386719 19.289063c10.707031 0 19.382812-8.636719 19.382812-19.289063zm0 0"/></svg>