<svg height="511pt" viewBox="-21 1 511 511.9988" width="511pt" xmlns="http://www.w3.org/2000/svg"><path d="m469.773438 400.136719c-7.367188-23.945313-30.425782-50.210938-58.371094-57.894531l-12.402344-40.3125c-5.96875-19.398438-16.863281-36.398438-31.539062-49.625.003906-.273438.019531-.546876.019531-.824219 0-34.183594-23.097657-63.019531-54.386719-71.523438 49.851562-59.945312 80.429688-56.792969 83.804688-56.226562 6.085937 2.671875 12.648437.742187 16.929687-4.410157 4.355469-5.242187 4.003906-13.023437.035156-18.570312-14.878906-20.808594-18.789062-56.789062-.617187-75.175781.007812-.007813.015625-.011719.023437-.019531 5.828125-5.886719 5.78125-15.382813-.105469-21.214844-5.882812-5.828125-15.378906-5.78125-21.210937.105468-.003906.003907-.003906.003907-.007813.007813-17.90625 18.066406-53.632812 13.902344-74.5-1.140625-5.503906-3.96875-13.191406-4.261719-18.453124.027344-5.1875 4.226562-7.140626 10.863281-4.535157 16.984375.65625 3.230469 5.652344 37.300781-58.988281 90.574219-64.640625-53.273438-59.644531-87.34375-58.988281-90.574219 2.605469-6.121094.652343-12.757813-4.53125-16.984375-5.261719-4.289063-12.953125-3.992188-18.457031-.027344-20.867188 15.042969-56.59375 19.210938-74.5 1.140625-.003907-.003906-.003907-.003906-.007813-.007813-5.832031-5.886718-15.328125-5.929687-21.210937-.105468-5.886719 5.832031-5.933594 15.328125-.105469 21.214844 18.195312 18.375 14.292969 54.378906-.59375 75.195312-3.820313 5.339844-3.722657 12.542969.242187 17.78125 3.960938 5.230469 10.867188 7.28125 17.046875 5.054688.308594-.117188 31.636719-5.851563 83.464844 56.375-24.308594 6.613281-43.671875 25.496093-51.09375 49.632812-4.703125 4.230469-9.050781 8.9375-12.96875 14.089844l-22.480469 29.558594c-24.167968-1.566407-52.230468 10.949218-67.722656 31.320312-5 6.570312-3.746094 15.953125 2.808594 20.976562l48.28125 37.046876c-11.164063 25.539062-3.980469 56.453124 19.078125 74.144531 10.902343 8.363281 23.953125 12.773437 37.445312 12.773437 2.75 0 5.523438-.183594 8.300781-.554687 11.390626-1.523438 21.882813-6.09375 30.589844-13.160157l31.0625 23.832032c-.503906 10.34375.628906 20.378906 3.285156 29.007812 1.171876 3.8125 3.8125 6.996094 7.332032 8.855469 2.179687 1.148437 4.585937 1.734375 7.003906 1.734375 1.492188 0 2.992188-.222656 4.445312-.675781l65.617188-20.363281c6.242188 10.996093 15.476562 20.015624 26.917969 26.058593 9.757812 5.148438 20.390625 7.761719 31.113281 7.761719 6.660156 0 13.359375-1.007812 19.902344-3.039062 30.496094-9.464844 49.441406-38.90625 46.984375-69.554688l66.152343-20.535156c7.898438-2.449219 12.324219-10.832032 9.890626-18.734375zm-131.921876 80.171875c-9.414062 2.921875-19.402343 2-28.117187-2.601563-4.132813-2.183593-7.75-5.066406-10.722656-8.5l64.691406-20.078125c-1.679687 14.152344-11.433594 26.707032-25.851563 31.179688zm-222.359374-61.089844c-8.398438 1.121094-16.753907-1.109375-23.503907-6.289062-9.65625-7.410157-13.933593-19.304688-12.136719-30.574219l44.65625 34.265625c-2.820312 1.292968-5.851562 2.171875-9.015624 2.597656zm-76.914063-106.777344c11.027344-7.421875 25.179687-11.195312 35.53125-8.53125 5.84375 1.503906 12.023437-.640625 15.679687-5.445312l17.597657-23.136719c9.875 29.179687 37.320312 50.234375 69.574219 50.234375 2.097656 0 4.167968-.109375 6.222656-.285156-1.207032 13.832031.171875 28.109375 4.496094 42.167968l12.414062 40.34375c-4.902344 5.789063-8.808594 12.441407-11.785156 19.53125zm60.246094-266.960937c16.25 2.332031 33.457031.074219 48.832031-5.566407 4.167969 19.707032 17.671875 48.136719 55.207031 82.40625-12.699219 6.363282-23.324219 16.3125-30.558593 28.535157-33.03125-36.808594-60.125-50.679688-78.988282-55.308594 5.769532-15.679687 8.035156-33.355469 5.507813-50.066406zm224.453125-5.566407c15.375 5.640626 32.574218 7.902344 48.832031 5.566407-2.523437 16.707031-.261719 34.386719 5.507813 50.0625-18.863282 4.632812-45.957032 18.507812-78.984376 55.3125-7.238281-12.222657-17.863281-22.175781-30.5625-28.539063 37.535157-34.265625 51.039063-62.695312 55.207032-82.402344zm74.90625 330.253907c12.839844 1.3125 27.394531 11.933593 36.277344 25.183593l-223.542969 69.386719c-.089844-15.980469 5.972656-32.992187 15.84375-41.359375 4.578125-3.882812 6.402343-10.117187 4.636719-15.851562l-15.046876-48.902344c-4.558593-14.820312-4.632812-29.96875-1.019531-43.988281 7.789063-4.824219 14.617188-11.070313 20.136719-18.375 13.4375 17.789062 34.65625 29.300781 58.503906 29.300781h.003906c19.660157 0 38.136719-7.722656 52.023438-21.75 5.003906-5.050781 9.183594-10.710938 12.496094-16.800781 5.152344 7.109375 9.167968 15.09375 11.828125 23.742187l15.050781 48.902344c1.769531 5.757812 6.8125 9.898438 12.808594 10.511719zm-206.222656-181.476563c0-24.308594 19.515624-44.082031 43.507812-44.082031 23.988281 0 43.507812 19.773437 43.507812 44.082031 0 24.304688-19.519531 44.078125-43.507812 44.078125-23.992188 0-43.507812-19.773437-43.507812-44.078125zm145.519531 62.789063c0 11.800781-4.542969 22.890625-12.792969 31.222656-8.210938 8.292969-19.121094 12.859375-30.714844 12.859375-20.769531 0-38.179687-14.832031-42.476562-34.585938 26.238281-5.910156 47.21875-25.984374 54.601562-51.824218 18.109375 5.335937 31.382813 22.285156 31.382813 42.328125zm-172.644531-42.328125c7.382812 25.839844 28.363281 45.917968 54.605468 51.824218-4.300781 19.753907-21.707031 34.585938-42.480468 34.585938-23.988282 0-43.507813-19.773438-43.507813-44.082031 0-20.042969 13.277344-36.992188 31.382813-42.328125zm0 0"/></svg>