<svg height="512pt" viewBox="-75 0 512 512.001" width="512pt" xmlns="http://www.w3.org/2000/svg"><path d="m281.933594 248.878906c0 17.425782-15.578125 31.601563-34.730469 31.601563-8.285156 0-15 6.714843-15 15 0 8.285156 6.714844 15 15 15 35.695313 0 64.730469-27.632813 64.730469-61.601563 0-8.28125-6.714844-15-15-15-8.28125 0-15 6.71875-15 15zm0 0"/><path d="m227.21875 77.828125 35.519531-54.652344c2.996094-4.613281 3.230469-10.496093.605469-15.332031-2.625-4.832031-7.683594-7.84375-13.183594-7.84375h-138.652344c-5.53125 0-10.609374 3.042969-13.222656 7.917969-2.609375 4.875-2.328125 10.792969.738282 15.394531l36.167968 54.316406c-77.6875 20.179688-135.191406 90.601563-135.191406 174.140625v145.4375c0 63.296875 51.589844 114.792969 115 114.792969h131.667969c63.410156 0 115-51.496094 115-114.792969v-145.4375c0-83.273437-57.140625-153.507812-134.449219-173.941406zm-62.875-10.542969-24.828125-37.285156h83.007813l-24.261719 37.335938c-1.582031 2.011718-4.289063 3.660156-7.589844 4.753906-3.257813-.175782-6.535156-.269532-9.835937-.269532-3.019532 0-6.015626.074219-9 .222657-3.265626-1.101563-5.9375-2.75-7.492188-4.757813zm167.324219 329.921875c0 46.753907-38.128907 84.792969-85 84.792969h-131.667969c-46.867188 0-85-38.039062-85-84.792969v-145.4375c0-61.597656 37.558594-114.628906 91.097656-137.675781-3.5 5.445312-6.574218 11.609375-8.863281 18.542969-2.601563 7.867187 1.671875 16.351562 9.535156 18.949219 1.5625.515624 3.148438.761718 4.707031.761718 6.296876 0 12.160157-3.996094 14.242188-10.300781 7.851562-23.761719 31.1875-34.394531 31.691406-34.621094 2.15625-.933593 3.964844-2.320312 5.402344-3.988281 1.160156.0625 2.328125.101562 3.507812.101562.847657 0 1.6875-.027343 2.527344-.0625 1.4375 1.65625 3.25 3.027344 5.402344 3.949219.238281.101563 23.804688 10.722657 31.699219 34.625 2.082031 6.304688 7.945312 10.296875 14.242187 10.296875 1.558594 0 3.144532-.246094 4.707032-.761718 7.863281-2.597657 12.136718-11.082032 9.535156-18.945313-2.289063-6.9375-5.367188-13.101563-8.863282-18.546875 53.539063 23.046875 91.097657 76.082031 91.097657 137.675781zm0 0"/><path d="m166.089844 405.496094c-19.417969 0-37.609375-7.027344-51.230469-19.789063-13.351563-12.507812-20.703125-29.082031-20.703125-46.664062 0-8.285157-6.714844-15-15-15-8.28125 0-15 6.714843-15 15 0 25.96875 10.722656 50.3125 30.191406 68.558593 19.199219 17.988282 44.679688 27.894532 71.742188 27.894532 8.28125 0 15-6.714844 15-15 0-8.28125-6.71875-15-15-15zm0 0"/></svg>