<svg height="512pt" viewBox="-119 0 512 512" width="512pt" xmlns="http://www.w3.org/2000/svg"><path d="m104.339844 1.347656c-8.285156 0-15 6.714844-15 15v60.320313h-59.339844v-60.320313c0-8.285156-6.714844-15-15-15s-15 6.714844-15 15v121.746094c0 8.28125 6.714844 15 15 15s15-6.71875 15-15v-31.425781h59.339844v31.425781c0 8.28125 6.714844 15 15 15 8.28125 0 15-6.71875 15-15v-121.746094c0-8.285156-6.71875-15-15-15zm0 0"/><path d="m212.859375 154.4375h.582031c16.523438 0 32.492188-6.445312 43.894532-17.742188 10.871093-10.773437 16.859374-24.96875 16.859374-39.964843v-38.171875c.003907-31.980469-27.386718-58.246094-61.058593-58.55468775-.195313-.00390625-.386719-.00390625-.582031-.00390625-16.523438 0-32.492188 6.449219-43.890626 17.742188-10.875 10.777343-16.863281 24.972656-16.863281 39.96875v38.167968c0 31.980469 27.390625 58.25 61.058594 58.558594zm-31.058594-96.726562c0-6.933594 2.835938-13.558594 7.980469-18.65625 5.816406-5.765626 14.097656-9.054688 22.765625-9.054688h.3125c17.28125.160156 31.335937 12.96875 31.335937 28.558594v38.171875c0 6.929687-2.832031 13.554687-7.976562 18.65625-5.820312 5.761719-14.101562 9.054687-22.769531 9.050781-.105469 0-.210938 0-.3125 0-17.28125-.160156-31.335938-12.96875-31.335938-28.554688zm0 0"/><path d="m104.339844 179.839844c-8.285156 0-15 6.714844-15 15v60.316406h-59.339844v-60.316406c0-8.285156-6.714844-15-15-15s-15 6.714844-15 15v121.742187c0 8.285157 6.714844 15 15 15s15-6.714843 15-15v-31.425781h59.339844v31.425781c0 8.28125 6.714844 15 15 15 8.28125 0 15-6.71875 15-15v-121.742187c0-8.285156-6.71875-15-15-15zm0 0"/><path d="m212.859375 332.925781c.195313.003907.390625.003907.585937.003907 16.519532 0 32.488282-6.449219 43.886719-17.742188 10.875-10.773438 16.863281-24.96875 16.863281-39.96875l.003907-38.171875c0-31.976563-27.394531-58.246094-61.0625-58.554687-16.769531-.148438-32.9375 6.3125-44.46875 17.738281-10.878907 10.777343-16.867188 24.972656-16.867188 39.96875v38.171875c0 31.980468 27.390625 58.246094 61.058594 58.554687zm-31.058594-96.722656c0-6.933594 2.835938-13.5625 7.980469-18.660156 5.816406-5.761719 14.097656-9.050781 22.765625-9.050781h.316406c17.277344.15625 31.332031 12.96875 31.332031 28.554687v38.171875c0 6.933594-2.832031 13.558594-7.976562 18.660156-5.816406 5.761719-14.101562 9.050782-22.769531 9.050782-.101563 0-.210938 0-.3125 0-17.28125-.160157-31.335938-12.96875-31.335938-28.558594zm0 0"/><path d="m104.339844 358.90625c-8.285156 0-15 6.71875-15 15v60.320312h-59.339844v-60.320312c0-8.28125-6.714844-15-15-15-8.28125 0-15 6.71875-15 15v121.746094c0 8.285156 6.71875 15 15 15 8.285156 0 15-6.714844 15-15v-31.425782h59.339844v31.425782c0 8.285156 6.714844 15 15 15 8.28125 0 15-6.714844 15-15v-121.746094c0-8.28125-6.71875-15-15-15zm0 0"/><path d="m213.136719 357.5625c-.191407 0-.386719 0-.578125 0-16.527344 0-32.496094 6.445312-43.894532 17.742188-10.875 10.773437-16.863281 24.96875-16.863281 39.964843v38.171875c0 31.980469 27.390625 58.246094 61.058594 58.554688.195313.003906.390625.003906.582031.003906 16.523438 0 32.492188-6.449219 43.890625-17.742188 10.875-10.773437 16.863281-24.96875 16.867188-39.96875v-38.171874c0-31.976563-27.390625-58.246094-61.0625-58.554688zm31.0625 96.726562c0 6.933594-2.835938 13.558594-7.980469 18.65625-5.816406 5.765626-14.101562 9.054688-22.769531 9.054688-.101563 0-.207031 0-.3125 0-17.277344-.160156-31.335938-12.96875-31.335938-28.558594l.003907-38.171875c0-6.929687 2.832031-13.558593 7.976562-18.65625 5.816406-5.761719 14.101562-9.050781 22.769531-9.050781h.3125c17.277344.160156 31.335938 12.96875 31.335938 28.554688zm0 0"/></svg>