<svg height="512pt" viewBox="-26 0 512 512" width="512pt" xmlns="http://www.w3.org/2000/svg"><path d="m391.816406 140.773438c-22.988281-22.9375-49.988281-40.410157-79.421875-51.765626.140625-1.996093.238281-3.996093.238281-6.015624 0-45.761719-37.28125-82.992188-83.105468-82.992188-45.828125 0-83.105469 37.230469-83.105469 82.996094 0 2.023437.097656 4.023437.238281 6.011718-29.433594 11.355469-56.4375 28.828126-79.421875 51.765626-43.359375 43.273437-67.238281 100.804687-67.238281 162.003906v194.222656c0 3.980469 1.582031 7.792969 4.394531 10.605469 2.8125 2.816406 6.628907 4.394531 10.605469 4.394531h429.050781c8.285157 0 15-6.71875 15-15v-194.222656c0-61.199219-23.878906-118.730469-67.234375-162.003906zm-215.398437-57.777344c0-29.222656 23.824219-52.996094 53.109375-52.996094 29.28125 0 53.105468 23.773438 53.105468 52.996094 0 14.148437-5.519531 27.453125-15.546874 37.464844-10.03125 10.015624-23.371094 15.53125-37.558594 15.53125-29.285156 0-53.105469-23.773438-53.109375-52.996094zm53.109375 82.996094c22.191406 0 43.058594-8.632813 58.753906-24.300782 6.894531-6.882812 12.421875-14.757812 16.460938-23.304687 72.84375 29.691406 124.308593 101.152343 124.308593 184.390625v103.875h-399.050781v-103.875c0-83.257813 51.492188-154.734375 124.363281-184.414063 13.320313 28.121094 42 47.628907 75.164063 47.628907zm58.507812 316.007812v-45.34375h57.023438v45.34375zm-87.019531 0v-45.34375h57.019531v45.34375zm-87.019531 0v-45.34375h57.019531v45.34375zm-83.996094-45.347656h53.992188v45.347656h-53.992188zm345.058594 0h53.992187v45.347656h-53.992187zm0 0"/><path d="m369.519531 324.28125c0-11.164062-8.953125-20.210938-20-20.210938-11.042969 0-19.996093 9.046876-19.996093 20.210938s8.953124 20.214844 19.996093 20.214844c11.046875 0 20-9.050782 20-20.214844zm0 0"/><path d="m249.523438 324.28125c0-11.164062-8.953126-20.210938-19.996094-20.210938-11.046875 0-20 9.046876-20 20.210938s8.953125 20.214844 20 20.214844c11.042968 0 19.996094-9.050782 19.996094-20.214844zm0 0"/><path d="m129.527344 324.28125c0-11.164062-8.953125-20.210938-19.996094-20.210938s-20 9.046876-20 20.210938 8.957031 20.214844 20 20.214844 19.996094-9.050782 19.996094-20.214844zm0 0"/><path d="m189.527344 239.933594c0-11.160156-8.953125-20.210938-20-20.210938-11.042969 0-19.996094 9.050782-19.996094 20.210938 0 11.164062 8.953125 20.214844 19.996094 20.214844 11.046875 0 20-9.050782 20-20.214844zm0 0"/><path d="m309.523438 239.933594c0-11.160156-8.953126-20.210938-20-20.210938-11.042969 0-19.996094 9.050782-19.996094 20.210938 0 11.164062 8.953125 20.214844 19.996094 20.214844 11.046874 0 20-9.050782 20-20.214844zm0 0"/></svg>