<svg height="511pt" viewBox="-30 0 511 511.99894" width="511pt" xmlns="http://www.w3.org/2000/svg"><path d="m436.550781 229.390625h-55.527343v-120.75c0-8.285156-6.714844-15-15-15h-65.363282l61.304688-21.28125c7.824218-2.71875 11.964844-11.265625 9.25-19.089844-2.71875-7.824219-11.265625-11.96875-19.089844-9.25l-36.441406 12.652344c3.289062-8.753906 3.554687-18.304687.664062-27.390625-3.414062-10.726562-10.792968-19.46875-20.777344-24.613281-7.835937-4.035157-16.597656-5.496094-25.335937-4.21875-15.425781 2.246093-28.65625 13.507812-33.71875 28.722656l-10.574219 32.003906-10.648437-32.03125c-5.050781-15.1875-18.285157-26.449219-33.707031-28.695312-8.742188-1.269531-17.503907.1875-25.335938 4.21875-7.109375 3.664062-13 9.253906-17.027344 16.167969-6.433594 11.046874-7.222656 24.207031-2.640625 35.910156l-36.65625-12.726563c-7.828125-2.722656-16.375 1.425781-19.089843 9.25-2.71875 7.824219 1.425781 16.371094 9.25 19.089844l61.304687 21.28125h-65.367187c-8.28125 0-15 6.714844-15 15v120.75h-55.523438c-8.285156 0-15 6.714844-15 15v252.609375c0 8.28125 6.714844 15 15 15h421.050781c8.285157 0 15-6.71875 15-15v-252.609375c0-8.285156-6.714843-15-15-15zm-406.050781 188.007813h76.777344c8.480468 18.632812 27.621094 33.105468 47.191406 33.105468h25.730469c15.796875 0 30.199219-6.085937 41.015625-16.035156 1.589844.132812 3.1875.21875 4.808594.21875 1.621093 0 3.222656-.085938 4.808593-.21875 10.820313 9.949219 25.222657 16.035156 41.019531 16.035156h25.726563c19.574219 0 38.710937-14.476562 47.195313-33.105468h76.777343v64.601562h-391.050781zm391.050781-158.007813v64.601563h-59.1875c-.800781-2.027344-1.722656-4.023438-2.785156-5.980469-8.882813-16.339844-25.179687-26.46875-43.570313-27.09375-.644531-.023438-1.292968-.035157-1.941406-.035157h-4.707031c-28.960937 0-55.03125 12.648438-73.03125 32.722657-3.339844-.625-6.78125-.96875-10.304687-.96875-3.519532 0-6.960938.34375-10.300782.96875-18-20.074219-44.074218-32.722657-73.035156-32.722657h-4.703125c-.648437 0-1.296875.011719-1.917969.035157-18.417968.625-34.710937 10.753906-43.59375 27.09375-1.0625 1.957031-1.984375 3.957031-2.789062 5.980469h-59.183594v-64.601563zm-123.972656 161.117187h-25.726563c-2.652343 0-5.226562-.339843-7.6875-.980468 10.878907-10.230469 17.695313-24.761719 17.695313-40.863282 0-16.011718-6.734375-30.464843-17.503906-40.683593 12.027343-10.628907 27.773437-17.09375 45.003906-17.09375h4.707031c.292969 0 .585938.003906.902344.015625 7.789062.265625 14.445312 4.433594 18.25 11.4375 3.953125 7.269531 3.785156 15.808594-.445312 22.847656l-2.753907 4.582031c-6.628906 11.03125-10.328125 24.121094-10.691406 37.859375-.304687 11.347656-12.910156 22.878906-21.75 22.878906zm-164.855469-22.878906c-.363281-13.738281-4.0625-26.828125-10.691406-37.859375l-2.753906-4.582031c-4.230469-7.039062-4.398438-15.578125-.445313-22.847656 3.804688-7.003906 10.457031-11.175782 18.273438-11.441406.292969-.007813.585937-.011719.878906-.011719h4.707031c17.230469 0 32.976563 6.464843 45.003906 17.09375-10.769531 10.21875-17.503906 24.671875-17.503906 40.683593 0 16.101563 6.816406 30.632813 17.695313 40.863282-2.457031.640625-5.035157.980468-7.6875.980468h-25.730469c-8.839844 0-21.445312-11.53125-21.746094-22.878906zm67.464844-18.964844c0-14.351562 11.589844-26.027343 25.835938-26.027343 14.246093 0 25.835937 11.675781 25.835937 26.027343 0 14.347657-11.589844 26.023438-25.835937 26.023438-14.246094 0-25.835938-11.675781-25.835938-26.023438zm-168.933594-24.671874h55.789063c1.195312 5.761718 3.359375 11.386718 6.519531 16.648437l2.753906 4.582031c2.203125 3.667969 3.847656 7.78125 4.929688 12.175782h-69.992188zm389.542969 33.40625h-69.996094c1.085938-4.394532 2.726563-8.507813 4.929688-12.175782l2.757812-4.585937c3.160157-5.257813 5.324219-10.882813 6.519531-16.644531h55.789063zm-319.773437-195.929688h110v37.828125h-110zm250-30h-110v-37.828125h110zm-140-37.828125v37.828125h-110v-37.828125zm30 67.828125h110v37.828125h-110zm23.96875-152.855469c1.507812-4.523437 5.261718-7.851562 9.570312-8.480469.519531-.074218 1.117188-.125 1.773438-.125 1.578124 0 3.5.304688 5.5 1.332032 2.839843 1.460937 4.945312 3.964844 5.925781 7.042968.730469 2.296876.761719 4.695313.113281 6.9375l-35.152344 30.441407zm-99.84375-2.679687c1.140624-1.964844 2.816406-3.554688 4.839843-4.59375 2.832031-1.460938 5.519531-1.460938 7.273438-1.207032 4.304687.628907 8.0625 3.957032 9.566406 8.476563l12.324219 37.082031-33.5-27.644531c-2.359375-3.808594-2.59375-8.527344-.503906-12.113281zm0 0"/></svg>