<svg height="512pt" viewBox="0 -29 512 512" width="512pt" xmlns="http://www.w3.org/2000/svg"><path d="m512 227.992188c0-48.644532-35.269531-89.867188-82.207031-98.507813-8.136719-34.511719-27.207031-65.832031-54.472657-89.113281-30.484374-26.035156-69.410156-40.371094-109.601562-40.371094-32.855469 0-64.695312 9.429688-92.085938 27.269531-23.988281 15.625-43.488281 36.929688-56.835937 62-65.023437 3.648438-116.796875 57.527344-116.796875 123.234375 0 48.402344 28.101562 90.382813 68.894531 110.597656l32.269531 120.535157c1.757813 6.558593 7.699219 11.121093 14.492188 11.121093h279.066406c6.738282 0 12.648438-4.492187 14.453125-10.984374l33.511719-120.53125c40.195312-13.113282 69.3125-50.851563 69.3125-95.25zm-100.515625 70.199218c-17.035156 0-33.492187-6.148437-46.335937-17.3125-5.246094-4.558594-12.933594-4.917968-18.582032-.867187-23.652344 16.960937-51.609375 25.925781-80.847656 25.925781-24.65625 0-48.871094-6.539062-70.023438-18.902344-2.347656-1.371094-4.960937-2.050781-7.566406-2.050781-3.121094 0-6.230468.96875-8.851562 2.886719-16.175782 11.820312-35.347656 18.066406-55.441406 18.066406-51.738282 0-93.835938-41.914062-93.835938-93.433594 0-51.519531 42.097656-93.433594 93.839844-93.433594.3125 0 .625.015626.9375.023438.351562.011719.703125.023438 1.058594.03125 5.960937.132812 11.4375-3.292969 13.941406-8.710938 22.550781-48.851562 71.984375-80.414062 125.941406-80.414062 68.183594 0 125.671875 48.550781 136.691406 115.445312 1.136719 6.878907 6.859375 12.070313 13.816406 12.527344 36.882813 2.433594 65.773438 33.191406 65.773438 70.019532 0 38.707031-31.632812 70.199218-70.515625 70.199218zm-62.523437 126.566406 9.570312-37.0625c2.074219-8.019531-2.75-16.203124-10.769531-18.273437-8.023438-2.070313-16.203125 2.75-18.273438 10.769531l-11.511719 44.566406h-46.976562v-40.8125c0-8.285156-6.714844-15-15-15s-15 6.714844-15 15v40.8125h-46.972656l-11.511719-44.566406c-2.074219-8.019531-10.253906-12.84375-18.277344-10.769531-8.019531 2.070313-12.84375 10.253906-10.769531 18.273437l9.574219 37.0625h-35.875l-24.253907-90.59375c6.804688 1.160157 13.792969 1.773438 20.925782 1.773438 23.242187 0 45.554687-6.34375 65.089844-18.425781 23.667968 12.078125 50.019531 18.425781 76.789062 18.425781 31.765625 0 62.300781-8.714844 88.972656-25.292969 16.296875 11.136719 35.589844 17.261719 55.488282 17.519531l-26.855469 96.589844h-34.363281zm0 0"/><path d="m396.574219 220.328125c0-11.113281-8.988281-20.128906-20.078125-20.128906s-20.082032 9.015625-20.082032 20.128906c0 11.117187 8.992188 20.132813 20.082032 20.132813s20.078125-9.015626 20.078125-20.132813zm0 0"/><path d="m276.082031 220.328125c0-11.113281-8.992187-20.128906-20.082031-20.128906s-20.082031 9.015625-20.082031 20.128906c0 11.117187 8.992187 20.132813 20.082031 20.132813s20.082031-9.015626 20.082031-20.132813zm0 0"/><path d="m155.585938 220.328125c0-11.113281-8.992188-20.128906-20.082032-20.128906s-20.078125 9.015625-20.078125 20.128906c0 11.117187 8.988281 20.132813 20.078125 20.132813s20.082032-9.015626 20.082032-20.132813zm0 0"/><path d="m215.832031 136.332031c0-11.117187-8.988281-20.128906-20.078125-20.128906-11.09375 0-20.082031 9.011719-20.082031 20.128906 0 11.117188 8.988281 20.128907 20.082031 20.128907 11.089844 0 20.078125-9.011719 20.078125-20.128907zm0 0"/><path d="m336.328125 136.332031c0-11.117187-8.988281-20.128906-20.082031-20.128906-11.089844 0-20.078125 9.011719-20.078125 20.128906 0 11.117188 8.988281 20.128907 20.078125 20.128907 11.09375 0 20.082031-9.011719 20.082031-20.128907zm0 0"/></svg>