<svg height="512pt" viewBox="0 -26 512 512" width="512pt" xmlns="http://www.w3.org/2000/svg"><path d="m467 51.152344h-58.199219v-14.402344c0-20.265625-16.535156-36.75-36.855469-36.75-20.316406 0-36.847656 16.484375-36.847656 36.75v14.398438h-39.246094v-14.398438c0-20.265625-16.53125-36.75-36.851562-36.75s-36.851562 16.484375-36.851562 36.75v14.398438h-45.246094v-14.398438c0-20.265625-16.53125-36.75-36.851563-36.75-20.320312 0-36.851562 16.484375-36.851562 36.75v14.398438h-58.199219c-24.8125 0-45 20.1875-45 45v318.199218c0 24.8125 20.1875 45 45 45h422c24.8125 0 45-20.1875 45-45v-318.195312c0-24.816406-20.1875-45-45-45zm0 378.195312h-422c-8.269531 0-15-6.730468-15-15v-225.742187h452v225.742187c0 8.269532-6.730469 15-15 15zm-422-348.195312h101.902344v17.515625c0 8.28125 6.71875 15 15 15 8.285156 0 15-6.71875 15-15v-17.515625h88.949218v17.515625c0 8.28125 6.714844 15 15 15 8.285157 0 15-6.71875 15-15v-17.515625h82.949219v17.515625c0 8.28125 6.714844 15 15 15 8.28125 0 15-6.71875 15-15v-17.515625h58.199219c8.269531 0 15 6.726562 15 15v62.453125h-452v-62.453125c0-8.273438 6.730469-15 15-15zm320.097656-44.402344c0-3.660156 3.136719-6.75 6.847656-6.75 3.714844 0 6.855469 3.089844 6.855469 6.75v14.398438h-13.703125zm-112.949218 0c0-3.660156 3.136718-6.75 6.851562-6.75s6.851562 3.089844 6.851562 6.75v14.398438h-13.703124zm-118.949219 0c0-3.660156 3.140625-6.75 6.855469-6.75 3.710937 0 6.847656 3.089844 6.847656 6.75v14.398438h-13.703125zm0 0"/><path d="m205.558594 336.566406c21.671875-20.921875 40.386718-38.992187 40.386718-59.535156 0-15.019531-5.875-29.136719-16.546874-39.75-10.644532-10.589844-24.796876-16.421875-39.84375-16.421875-22.703126 0-43.078126 13.460937-51.910157 34.292969-3.230469 7.625.332031 16.429687 7.957031 19.664062 7.625 3.230469 16.433594-.328125 19.667969-7.957031 4.117188-9.71875 13.652344-16 24.289063-16 7.0625 0 13.699218 2.734375 18.6875 7.691406 4.964844 4.941407 7.699218 11.503907 7.699218 18.480469 0 .980469-.539062 4.847656-7.476562 13.40625-6.015625 7.425781-14.628906 15.742188-23.746094 24.542969-18.195312 17.566406-38.8125 37.472656-48.925781 60.066406-2.078125 4.640625-1.664063 10.019531 1.101563 14.285156 2.765624 4.265625 7.503906 6.84375 12.585937 6.84375h81.460937c8.285157 0 15-6.71875 15-15 0-8.285156-6.714843-15-15-15h-53.925781c8.484375-10.25 18.894531-20.300781 28.539063-29.609375zm0 0"/><path d="m317.382812 279.320312-11.628906-.03125v-28.589843h55.113282c8.285156 0 15-6.714844 15-15 0-8.28125-6.714844-15-15-15h-70.117188c-3.976562 0-7.792969 1.578125-10.605469 4.394531-2.8125 2.8125-4.394531 6.628906-4.394531 10.605469v58.550781c0 8.269531 6.691406 14.976562 14.960938 15l26.632812.070312c10.019531 0 17.585938 2.558594 22.492188 7.605469 5.949218 6.117188 7.859374 15.691407 7.667968 22.609375-.421875 14.980469-11.976562 26.71875-26.304687 26.71875-10.585938 0-20.082031-6.300781-24.191407-16.054687-3.21875-7.632813-12.015624-11.210938-19.648437-7.992188s-11.214844 12.015625-7.996094 19.648438c8.8125 20.898437 29.15625 34.398437 51.835938 34.398437h.003906c30.679687 0 55.40625-24.546875 56.289063-55.878906.226562-8.109375-.890626-28.671875-16.148438-44.363281-7.402344-7.613281-21.042969-16.691407-43.960938-16.691407zm0 0"/></svg>