<svg height="512pt" viewBox="0 0 512.00114 512" width="512pt" xmlns="http://www.w3.org/2000/svg"><path d="m507.605469 111.265625-106.871094-106.871094c-3.90625-3.910156-9.652344-5.351562-14.941406-3.753906-5.292969 1.597656-9.273438 5.976563-10.367188 11.394531l-13.480469 66.867188c-10.082031-8.945313-22.953124-13.84375-36.613281-13.84375-14.785156 0-28.65625 5.726562-39.054687 16.128906l-205.179688 205.175781c-10.398437 10.398438-16.128906 24.269531-16.128906 39.054688 0 13.632812 4.882812 26.480469 13.796875 36.554687l-66.730469 13.453125c-5.417968 1.09375-9.796875 5.074219-11.394531 10.367188s-.15625 11.035156 3.753906 14.941406l106.871094 106.871094c2.855469 2.855469 6.6875 4.394531 10.609375 4.394531 1.421875 0 2.851562-.199219 4.253906-.617188 5.269532-1.558593 9.269532-5.878906 10.414063-11.253906l14.140625-66.328125c9.976562 8.554688 22.5625 13.230469 35.898437 13.230469 14.785157 0 28.65625-5.730469 39.058594-16.128906l205.175781-205.175782c20.53125-20.535156 21.472656-53.335937 2.847656-75.011718l66.464844-14.171875c5.375-1.144531 9.695313-5.140625 11.253906-10.414063 1.5625-5.273437.113282-10.972656-3.777343-14.863281zm-200.113281-8.867187c4.730468-4.734376 11.066406-7.34375 17.839843-7.34375 6.769531 0 13.105469 2.609374 17.839844 7.34375l28.925781 28.925781c.601563.734375 1.226563 1.457031 1.867188 2.175781h-97.574219zm55.644531 148.582031h-204.230469l27.234375-27.234375h204.230469zm-146.996094-57.234375 30.25-30.246094h157.882813l5.332031 5.332031c6.730469 6.734375 8.855469 16.355469 6.371093 24.914063zm-87.234375 87.234375h204.230469l-27.234375 27.234375h-204.199219c.199219-.214844.402344-.429688.609375-.640625zm119.761719 84.46875h-124.164063l-22.191406-22.191407c-1.527344-1.527343-2.828125-3.222656-3.894531-5.042968h177.484375zm-125.023438 51.320312-10.683593 50.101563-67.570313-67.566406 50.527344-10.1875c4.332031-.578126 9.746093 1.292968 14.753906 4.925781l8.039063 8.039062c3.613281 4.984375 5.484374 10.371094 4.933593 14.6875zm62.941407.261719c-6.773438 0-13.105469-2.605469-17.84375-7.339844l-14.238282-14.242187h64.164063l-14.242188 14.242187c-4.734375 4.730469-11.070312 7.339844-17.839843 7.339844zm230.183593-293.386719c-4.511719.566407-10.183593-1.488281-15.347656-5.421875l-6.894531-6.894531c-3.953125-5.1875-6.011719-10.894531-5.410156-15.410156l10.1875-50.527344 67.570312 67.570313zm0 0"/></svg>