<svg height="512pt" viewBox="-56 0 511 512" width="512pt" xmlns="http://www.w3.org/2000/svg"><path d="m283.246094 128.371094v-24.5625c0-23.835938-15.535156-44.101563-37.003906-51.242188.640624-1.667968 1.003906-3.472656 1.003906-5.367187 0-26.023438-21.085938-47.199219-47-47.199219-25.917969 0-47 21.175781-47 47.199219 0 1.894531.363281 3.699219 1.003906 5.367187-21.46875 7.140625-37.003906 27.40625-37.003906 51.246094v24.5625c-68.824219 31.753906-116.746094 101.710938-116.746094 182.71875 0 110.78125 89.605469 200.90625 199.746094 200.90625s199.746094-90.125 199.746094-200.90625c0-81.011719-47.921876-150.96875-116.746094-182.722656zm-248.425782 221.117187 23.988282 18.796875c.03125.023438.0625.046875.089844.070313 4.519531 3.484375 9.902343 5.199219 15.261718 5.199219 6.5 0 12.972656-2.519532 17.828125-7.449219l45.058594-45.691407 46.980469 45.378907c9.820312 9.484375 25.609375 9.292969 35.195312-.433594l44.320313-44.957031 47.757812 46.140625c9.042969 8.738281 23.253907 9.390625 33.089844 1.484375l20.882813-16.886719c-17.949219 74.980469-85.125 130.859375-165.027344 130.859375-80.492188 0-148.074219-56.699219-165.425782-132.511719zm136.425782-269.675781h58c13.234375 0 24 10.765625 24 24v13.566406c-16.886719-4.679687-34.65625-7.191406-53-7.191406s-36.113282 2.511719-53 7.191406v-13.566406c0-13.234375 10.765625-24 24-24zm29 60.375c67.742187 0 126.332031 40.164062 153.539062 98.078125l-24.796875 19.929687-48.046875-46.421874c-4.6875-4.527344-10.855468-7.023438-17.375-7.027344h-.183594c-.007812 0-.015624 0-.019531 0-6.648437 0-13.144531 2.71875-17.816406 7.457031l-44.226563 44.863281-46.980468-45.378906c-4.691406-4.527344-10.855469-7.023438-17.363282-7.027344-.003906 0-.011718 0-.015624 0-6.652344 0-13.144532 2.71875-17.816407 7.457032l-45.421875 46.066406-26.703125-20.59375c27.34375-57.550782 85.746094-97.402344 153.226563-97.402344zm-164.042969 126.945312 22.695313 17.503907c10 7.707031 24.222656 6.742187 33.089843-2.25l45.058594-45.695313 46.980469 45.382813c9.820312 9.484375 25.609375 9.292969 35.195312-.433594l44.320313-44.960937 47.757812 46.140624c4.816407 4.65625 11.097657 7.015626 17.394531 7.015626 5.53125 0 11.078126-1.820313 15.660157-5.503907l20.191406-16.230469c3.363281 13.023438 5.226563 26.644532 5.414063 40.667969l-40.980469 33.136719-48.039063-46.414062c-4.6875-4.523438-10.855468-7.019532-17.378906-7.027344h-.183594c-.003906 0-.011718 0-.015625 0-6.652343 0-13.144531 2.71875-17.816406 7.460937l-44.226563 44.863281-46.980468-45.382812c-4.6875-4.523438-10.855469-7.019531-17.363282-7.023438-.003906 0-.011718 0-.015624 0-6.652344 0-13.144532 2.71875-17.816407 7.457032l-45.398437 46.039062-43.207032-33.859375c.246094-14.109375 2.203126-27.804687 5.664063-40.886719zm164.042969-237.132812c9.375 0 17 7.71875 17 17.199219 0 .894531.09375 1.761719.242187 2.609375h-34.484375c.148438-.847656.242188-1.714844.242188-2.609375 0-9.480469 7.625-17.199219 17-17.199219zm0 0"/></svg>