<svg height="512pt" viewBox="-24 0 512 512" width="512pt" xmlns="http://www.w3.org/2000/svg"><path d="m231.5 66.363281c8.285156 0 15-6.714843 15-15v-7.851562c0-8.285157-6.714844-15-15-15-8.28125 0-15 6.714843-15 15v7.851562c0 8.285157 6.71875 15 15 15zm0 0"/><path d="m231.5 145.238281c8.285156 0 15-6.714843 15-15v-33.589843c0-8.28125-6.714844-15-15-15-8.28125 0-15 6.71875-15 15v33.589843c0 8.285157 6.71875 15 15 15zm0 0"/><path d="m276.480469 258.316406 23-22.484375c4.078125-3.988281 5.542969-9.945312 3.777343-15.371093-1.765624-5.421876-6.453124-9.375-12.101562-10.199219l-31.75-4.628907-14.207031-28.871093c-2.519531-5.128907-7.742188-8.375-13.457031-8.375-5.714844 0-10.933594 3.246093-13.460938 8.375l-14.207031 28.871093-31.75 4.628907c-5.644531.820312-10.335938 4.773437-12.101563 10.199219-1.765625 5.421874-.300781 11.378906 3.777344 15.367187l23.003906 22.484375-5.433594 31.761719c-.964843 5.632812 1.355469 11.320312 5.980469 14.671875 4.621094 3.355468 10.746094 3.792968 15.800781 1.125l28.386719-14.964844 28.390625 14.96875c2.199219 1.15625 4.601563 1.730469 6.992188 1.730469 3.105468 0 6.199218-.964844 8.808594-2.859375 4.625-3.351563 6.941406-9.039063 5.980468-14.667969zm-51.734375 2.363282-8.476563 4.46875 1.628907-9.53125c.832031-4.855469-.773438-9.8125-4.296876-13.253907l-6.945312-6.789062 9.558594-1.394531c4.886718-.710938 9.113281-3.785157 11.292968-8.21875l4.234376-8.605469 4.234374 8.605469c2.179688 4.433593 6.40625 7.507812 11.292969 8.21875l9.558594 1.394531-6.945313 6.789062c-3.523437 3.445313-5.128906 8.398438-4.300781 13.253907l1.632813 9.53125-8.476563-4.46875c-2.191406-1.152344-4.59375-1.730469-6.996093-1.730469-2.402344 0-4.808594.574219-6.996094 1.730469zm0 0"/><path d="m432.546875 173.882812c-2.972656-7.734374-11.652344-11.59375-19.386719-8.621093l-7.308594 2.808593c-7.734374 2.972657-11.59375 11.648438-8.621093 19.382813 2.292969 5.964844 7.976562 9.621094 14.003906 9.621094 1.789063 0 3.609375-.320313 5.378906-1l7.3125-2.808594c7.730469-2.976563 11.589844-11.652344 8.621094-19.382813zm0 0"/><path d="m325.8125 214.996094c2.292969 5.964844 7.976562 9.621094 14.003906 9.621094 1.789063 0 3.609375-.320313 5.378906-1l31.265626-12.015626c7.730468-2.96875 11.59375-11.648437 8.621093-19.378906-2.972656-7.734375-11.652343-11.59375-19.382812-8.625l-31.265625 12.015625c-7.734375 2.972657-11.59375 11.648438-8.621094 19.382813zm0 0"/><path d="m65.769531 187.453125c2.972657-7.734375-.886719-16.410156-8.621093-19.382813l-7.308594-2.8125c-7.734375-2.96875-16.414063.890626-19.386719 8.621094-2.96875 7.734375.890625 16.410156 8.621094 19.382813l7.3125 2.8125c1.769531.679687 3.589843 1 5.378906 1 6.027344 0 11.710937-3.660157 14.003906-9.621094zm0 0"/><path d="m117.804688 223.617188c1.769531.679687 3.589843 1 5.378906 1 6.027344 0 11.714844-3.65625 14.003906-9.621094 2.972656-7.734375-.886719-16.410156-8.621094-19.382813l-31.265625-12.011719c-7.730469-2.972656-16.410156.886719-19.378906 8.621094-2.972656 7.730469.886719 16.410156 8.621094 19.382813zm0 0"/><path d="m370.789062 393.523438-5.136718-5.925782c-5.425782-6.261718-14.898438-6.9375-21.160156-1.507812-6.257813 5.425781-6.933594 14.898437-1.503907 21.160156l5.136719 5.925781c2.964844 3.421875 7.140625 5.171875 11.339844 5.171875 3.480468 0 6.980468-1.203125 9.820312-3.664062 6.257813-5.425782 6.933594-14.902344 1.503906-21.160156zm0 0"/><path d="m336.027344 353.429688-21.972656-25.34375c-5.425782-6.261719-14.898438-6.933594-21.160157-1.507813-6.257812 5.429687-6.933593 14.902344-1.507812 21.160156l21.972656 25.34375c2.96875 3.421875 7.144531 5.171875 11.339844 5.171875 3.484375 0 6.984375-1.203125 9.820312-3.664062 6.261719-5.429688 6.933594-14.902344 1.507813-21.160156zm0 0"/><path d="m122.683594 386.089844c-6.257813-5.429688-15.730469-4.75-21.15625 1.507812l-5.140625 5.925782c-5.425781 6.261718-4.75 15.734374 1.507812 21.160156 2.839844 2.460937 6.335938 3.667968 9.820313 3.667968 4.199218 0 8.375-1.753906 11.339844-5.175781l5.136718-5.925781c5.429688-6.261719 4.753906-15.730469-1.507812-21.160156zm0 0"/><path d="m174.285156 326.578125c-6.257812-5.425781-15.734375-4.753906-21.160156 1.507813l-21.972656 25.34375c-5.429688 6.257812-4.753906 15.730468 1.503906 21.160156 2.839844 2.460937 6.335938 3.664062 9.820312 3.664062 4.199219 0 8.375-1.75 11.339844-5.171875l21.972656-25.34375c5.429688-6.257812 4.753907-15.730469-1.503906-21.160156zm0 0"/><path d="m409.449219 297.65625-6.980469-3.550781c-7.386719-3.757813-16.417969-.8125-20.171875 6.570312-3.753906 7.386719-.8125 16.417969 6.574219 20.171875l6.984375 3.550782c2.179687 1.105468 4.5 1.628906 6.785156 1.628906 5.464844 0 10.738281-2.996094 13.382813-8.203125 3.753906-7.386719.8125-16.414063-6.574219-20.167969zm0 0"/><path d="m332.320312 258.445312c-7.382812-3.753906-16.414062-.8125-20.167968 6.570313-3.753906 7.386719-.8125 16.417969 6.574218 20.171875l29.871094 15.183594c2.175782 1.109375 4.5 1.632812 6.785156 1.632812 5.464844 0 10.734376-2.996094 13.382813-8.203125 3.753906-7.386719.8125-16.417969-6.574219-20.171875zm0 0"/><path d="m60.535156 326.027344c2.289063 0 4.609375-.523438 6.785156-1.628906l6.984376-3.550782c7.386718-3.753906 10.328124-12.785156 6.574218-20.171875s-12.785156-10.328125-20.167968-6.570312l-6.984376 3.550781c-7.386718 3.753906-10.328124 12.78125-6.574218 20.167969 2.648437 5.207031 7.917968 8.203125 13.382812 8.203125zm0 0"/><path d="m107.792969 302.003906c2.285156 0 4.609375-.523437 6.785156-1.632812l29.871094-15.183594c7.386719-3.753906 10.328125-12.785156 6.574219-20.171875-3.753907-7.382813-12.78125-10.328125-20.167969-6.570313l-29.871094 15.183594c-7.386719 3.753906-10.328125 12.785156-6.574219 20.171875 2.648438 5.207031 7.917969 8.203125 13.382813 8.203125zm0 0"/><path d="m343.613281 121.386719c3.949219 0 7.894531-1.550781 10.839844-4.628907l5.421875-5.667968c5.726562-5.984375 5.519531-15.480469-.46875-21.207032-5.984375-5.726562-15.480469-5.519531-21.207031.46875l-5.421875 5.664063c-5.726563 5.984375-5.515625 15.480469.46875 21.207031 2.90625 2.78125 6.640625 4.164063 10.367187 4.164063zm0 0"/><path d="m289.164062 178.277344c3.949219 0 7.894532-1.550782 10.839844-4.628906l23.1875-24.230469c5.726563-5.984375 5.519532-15.476563-.464844-21.207031-5.984374-5.730469-15.484374-5.519532-21.210937.464843l-23.1875 24.230469c-5.726563 5.984375-5.519531 15.476562.46875 21.207031 2.902344 2.78125 6.636719 4.164063 10.367187 4.164063zm0 0"/><path d="m99.328125 111.089844 5.421875 5.667968c2.945312 3.078126 6.890625 4.628907 10.839844 4.628907 3.726562 0 7.460937-1.382813 10.367187-4.164063 5.984375-5.726562 6.195313-15.222656.46875-21.207031l-5.421875-5.664063c-5.730468-5.988281-15.226562-6.195312-21.207031-.46875-5.988281 5.726563-6.195313 15.222657-.46875 21.207032zm0 0"/><path d="m159.199219 173.648438c2.945312 3.078124 6.890625 4.628906 10.839843 4.628906 3.730469 0 7.464844-1.382813 10.367188-4.164063 5.988281-5.730469 6.195312-15.222656.46875-21.207031l-23.1875-24.230469c-5.730469-5.984375-15.226562-6.191406-21.210938-.464843-5.984374 5.730468-6.191406 15.222656-.464843 21.207031zm0 0"/><path d="m324.246094 480.898438c0-6.898438-5.597656-12.492188-12.5-12.492188s-12.5 5.59375-12.5 12.492188c0 6.902343 5.597656 12.496093 12.5 12.496093s12.5-5.59375 12.5-12.496093zm0 0"/><path d="m163.753906 480.898438c0-6.898438-5.597656-12.492188-12.5-12.492188s-12.5 5.59375-12.5 12.492188c0 6.902343 5.597656 12.496093 12.5 12.496093s12.5-5.59375 12.5-12.496093zm0 0"/><path d="m231.5 424.238281c-8.28125 0-15 6.71875-15 15v7.855469c0 8.285156 6.71875 15 15 15 8.285156 0 15-6.714844 15-15v-7.855469c0-8.28125-6.714844-15-15-15zm0 0"/><path d="m231.5 345.363281c-8.28125 0-15 6.714844-15 15v33.589844c0 8.285156 6.71875 15 15 15 8.285156 0 15-6.714844 15-15v-33.589844c0-8.285156-6.714844-15-15-15zm0 0"/><path d="m433.78125 456.285156h-10.613281v-10.714844c0-8.285156-6.714844-15-15-15-8.285157 0-15 6.714844-15 15v10.714844h-10.617188c-8.285156 0-15 6.714844-15 15s6.714844 15 15 15h10.613281v10.714844c0 8.285156 6.71875 15 15 15 8.285157 0 15-6.714844 15-15v-10.714844h10.617188c8.285156 0 15-6.71875 15-15 0-8.285156-6.714844-15-15-15zm0 0"/><path d="m382.550781 55.714844h10.617188v10.714844c0 8.285156 6.714843 15 15 15 8.28125 0 15-6.714844 15-15v-10.714844h10.613281c8.285156 0 15-6.714844 15-15s-6.714844-15-15-15h-10.613281v-10.714844c0-8.285156-6.714844-15-15-15-8.28125 0-15 6.714844-15 15v10.714844h-10.617188c-8.285156 0-15 6.71875-15 15 0 8.285156 6.714844 15 15 15zm0 0"/><path d="m80.449219 456.285156h-10.613281v-10.714844c0-8.285156-6.71875-15-15-15-8.285157 0-15 6.714844-15 15v10.714844h-10.617188c-8.285156 0-15 6.714844-15 15s6.714844 15 15 15h10.613281v10.714844c0 8.285156 6.714844 15 15 15 8.285157 0 15-6.714844 15-15v-10.714844h10.617188c8.285156 0 15-6.71875 15-15 0-8.285156-6.714844-15-15-15zm0 0"/><path d="m29.21875 55.714844h10.613281v10.714844c0 8.285156 6.71875 15 15 15 8.285157 0 15-6.714844 15-15v-10.714844h10.617188c8.285156 0 15-6.714844 15-15s-6.714844-15-15-15h-10.613281v-10.714844c0-8.285156-6.71875-15-15-15-8.285157 0-15 6.714844-15 15v10.714844h-10.617188c-8.285156 0-15 6.71875-15 15 0 8.285156 6.714844 15 15 15zm0 0"/><path d="m324.246094 31.40625c0-6.902344-5.597656-12.496094-12.5-12.496094s-12.5 5.59375-12.5 12.496094c0 6.898438 5.597656 12.492188 12.5 12.492188s12.5-5.59375 12.5-12.492188zm0 0"/><path d="m163.753906 31.40625c0-6.902344-5.597656-12.496094-12.5-12.496094s-12.5 5.59375-12.5 12.496094c0 6.898438 5.597656 12.492188 12.5 12.492188s12.5-5.59375 12.5-12.492188zm0 0"/><path d="m463.484375 386.199219c0-6.898438-5.597656-12.492188-12.5-12.492188s-12.5 5.59375-12.5 12.492188c0 6.902343 5.597656 12.496093 12.5 12.496093s12.5-5.59375 12.5-12.496093zm0 0"/><path d="m463.484375 125.332031c0-6.898437-5.597656-12.492187-12.5-12.492187s-12.5 5.59375-12.5 12.492187c0 6.902344 5.597656 12.496094 12.5 12.496094s12.5-5.59375 12.5-12.496094zm0 0"/><path d="m25 386.199219c0-6.898438-5.597656-12.492188-12.5-12.492188s-12.5 5.59375-12.5 12.492188c0 6.902343 5.597656 12.496093 12.5 12.496093s12.5-5.59375 12.5-12.496093zm0 0"/><path d="m25 125.332031c0-6.898437-5.597656-12.492187-12.5-12.492187s-12.5 5.59375-12.5 12.492187c0 6.902344 5.597656 12.496094 12.5 12.496094s12.5-5.59375 12.5-12.496094zm0 0"/></svg>