<svg height="511pt" viewBox="-107 1 511 511.999" width="511pt" xmlns="http://www.w3.org/2000/svg"><path d="m288.71875 9.941406c-5.933594-6.316406-14.304688-9.941406-22.96875-9.941406h-233.722656c-8.664063 0-17.035156 3.625-22.96875 9.941406-5.945313 6.332032-9.042969 14.9375-8.496094 23.609375l25.546875 406.695313c.265625 4.804687 1.609375 9.367187 3.863281 13.425781-1.390625 3.390625-2.136718 7.066406-2.136718 10.855469v19.214844c0 15.582031 12.65625 28.257812 28.222656 28.257812h185.660156c15.5625 0 28.222656-12.675781 28.222656-28.257812v-19.214844c0-4.195313-.921875-8.226563-2.628906-11.871094 1.878906-3.804688 3.007812-8.007812 3.253906-12.390625l26.652344-406.714844c.542969-8.671875-2.554688-17.277343-8.5-23.609375zm-257.792969 20.539063c.300781-.320313.671875-.480469 1.101563-.480469h233.726562c.429688 0 .800782.160156 1.097656.480469.3125.328125.453126.730469.429688 1.148437l-6.898438 105.238282h-223.273437l-6.605469-105.199219c-.03125-.457031.113282-.855469.421875-1.1875zm26.910157 451.519531v-14.171875h64.609374c8.28125 0 15-6.714844 15-15s-6.71875-15-15-15h-66.429687l-17.019531-270.957031h219.417968l-17.753906 270.957031h-48.800781c-8.285156 0-15 6.714844-15 15s6.714844 15 15 15h48.082031v14.171875zm0 0"/></svg>