<svg height="512pt" viewBox="0 0 512 512" width="512pt" xmlns="http://www.w3.org/2000/svg"><path d="m437.019531 74.980469c-48.351562-48.351563-112.640625-74.980469-181.019531-74.980469s-132.667969 26.628906-181.019531 74.980469c-48.351563 48.351562-74.980469 112.640625-74.980469 181.019531s26.628906 132.667969 74.980469 181.019531c48.351562 48.351563 112.640625 74.980469 181.019531 74.980469s132.667969-26.628906 181.019531-74.980469c48.351563-48.351562 74.980469-112.640625 74.980469-181.019531s-26.628906-132.667969-74.980469-181.019531zm-181.019531 407.019531c-124.617188 0-226-101.382812-226-226s101.382812-226 226-226 226 101.382812 226 226-101.382812 226-226 226zm0 0"/><path d="m255.695312 411.425781c0-10.414062-8.394531-18.855469-18.753906-18.855469-10.355468 0-18.753906 8.441407-18.753906 18.855469 0 10.414063 8.398438 18.855469 18.753906 18.855469 10.359375 0 18.753906-8.441406 18.753906-18.855469zm0 0"/><path d="m425.652344 225.902344c0-10.414063-8.398438-18.855469-18.753906-18.855469-10.359376 0-18.753907 8.441406-18.753907 18.855469 0 10.414062 8.394531 18.855468 18.753907 18.855468 10.355468 0 18.753906-8.441406 18.753906-18.855468zm0 0"/><path d="m282.523438 251.839844c0-10.414063-8.398438-18.855469-18.753907-18.855469-10.359375 0-18.753906 8.441406-18.753906 18.855469 0 10.414062 8.394531 18.855468 18.753906 18.855468 10.355469 0 18.753907-8.441406 18.753907-18.855468zm0 0"/><path d="m151.859375 348.058594c0-10.414063-8.398437-18.855469-18.753906-18.855469-10.359375 0-18.753907 8.441406-18.753907 18.855469 0 10.414062 8.394532 18.855468 18.753907 18.855468 10.355469 0 18.753906-8.441406 18.753906-18.855468zm0 0"/><path d="m207.445312 100.574219c0-10.414063-8.394531-18.855469-18.753906-18.855469-10.355468 0-18.753906 8.441406-18.753906 18.855469 0 10.414062 8.398438 18.855469 18.753906 18.855469 10.359375 0 18.753906-8.441407 18.753906-18.855469zm0 0"/><path d="m153.976562 174.714844c-29.414062 0-53.34375 23.929687-53.34375 53.34375 0 29.414062 23.929688 53.34375 53.34375 53.34375 29.414063 0 53.34375-23.929688 53.34375-53.34375 0-29.414063-23.929687-53.34375-53.34375-53.34375zm0 76.683594c-12.871093 0-23.34375-10.46875-23.34375-23.34375 0-12.871094 10.472657-23.34375 23.34375-23.34375 12.871094 0 23.34375 10.472656 23.34375 23.34375 0 12.875-10.472656 23.34375-23.34375 23.34375zm0 0"/><path d="m346.042969 297.238281c-29.414063 0-53.34375 23.929688-53.34375 53.34375 0 29.414063 23.929687 53.34375 53.34375 53.34375 29.414062 0 53.34375-23.929687 53.34375-53.34375 0-29.414062-23.929688-53.34375-53.34375-53.34375zm0 76.6875c-12.871094 0-23.34375-10.472656-23.34375-23.34375 0-12.871093 10.472656-23.34375 23.34375-23.34375 12.871093 0 23.34375 10.472657 23.34375 23.34375 0 12.871094-10.472657 23.34375-23.34375 23.34375zm0 0"/><path d="m360.230469 151.601562c0-24.421874-19.867188-44.289062-44.289063-44.289062s-44.289062 19.867188-44.289062 44.289062c0 24.421876 19.867187 44.289063 44.289062 44.289063s44.289063-19.867187 44.289063-44.289063zm-58.578125 0c0-7.878906 6.410156-14.289062 14.289062-14.289062s14.289063 6.410156 14.289063 14.289062c0 7.878907-6.410157 14.289063-14.289063 14.289063s-14.289062-6.410156-14.289062-14.289063zm0 0"/></svg>