<svg height="512pt" viewBox="-53 0 512 512" width="512pt" xmlns="http://www.w3.org/2000/svg"><path d="m235.550781 62.664062c-8.28125 0-15-6.714843-15-15 0-9.738281-7.878906-17.664062-17.5625-17.664062-9.679687 0-17.558593 7.925781-17.558593 17.664062 0 8.285157-6.71875 15-15 15-8.285157 0-15-6.714843-15-15 0-26.28125 21.335937-47.664062 47.558593-47.664062 26.226563 0 47.5625 21.382812 47.5625 47.664062 0 8.285157-6.714843 15-15 15zm0 0" fill="#d6995c"/><path d="m202.988281 0c26.226563 0 47.5625 21.382812 47.5625 47.664062 0 8.285157-6.714843 15-15 15-8.28125 0-15-6.714843-15-15 0-9.738281-7.878906-17.664062-17.5625-17.664062zm0 0" fill="#b27a49"/><path d="m272.183594 147.097656h-138.386719c-8.285156 0-15-6.714844-15-15v-34.492187c0-29.777344 24.222656-54 54-54h60.386719c29.777344 0 54 24.222656 54 54v34.492187c0 8.285156-6.714844 15-15 15zm0 0" fill="#d1093a"/><path d="m233.183594 43.605469h-30.226563v103.492187h69.226563c8.285156 0 15-6.714844 15-15v-34.492187c0-29.777344-24.222656-54-54-54zm0 0" fill="#8f0933"/><path d="m202.988281 512c-111.925781 0-202.98437475-91.324219-202.98437475-203.574219 0-112.253906 91.05859375-203.574219 202.98437475-203.574219 54.230469 0 105.210938 21.179688 143.550781 59.640626 38.332032 38.449218 59.4375 89.566406 59.4375 143.933593 0 112.25-91.058593 203.574219-202.988281 203.574219zm0 0" fill="#f03049"/><path d="m202.988281 104.851562c111.929688 0 202.988281 91.320313 202.988281 203.574219 0 112.25-91.058593 203.574219-202.988281 203.574219zm0 0" fill="#bd002f"/><path d="m397.335938 249.515625-12.160157 12.589844c-48.945312 53.765625-128.929687 61.171875-177.738281 16.457031l-8.894531-8.148438c-48.808594-44.714843-128.792969-37.308593-177.738281 16.453126l-20.7812505 19.613281c-.0039063.648437-.0234375 1.292969-.0234375 1.945312 0 15.3125 1.699219 30.226563 4.894531 44.574219l15.625-14.109375c54.347657-48.261719 134.664063-47.125 178.476563 2.523437l7.984375 9.046876c43.8125 49.644531 124.128906 50.78125 178.476562 2.519531l18.492188-15.777344c1.324219-9.402344 2.027343-19.007813 2.027343-28.777344.003907-20.484375-3.027343-40.257812-8.640624-58.910156zm0 0" fill="#ffb0b0"/><path d="m397.335938 249.515625-12.160157 12.589844c-48.945312 53.765625-128.929687 61.171875-177.738281 16.457031l-4.449219-4.082031v71.453125l3.992188 4.523437c43.816406 49.648438 124.128906 50.785157 178.476562 2.523438l18.492188-15.777344c1.328125-9.402344 2.027343-19.007813 2.027343-28.777344.003907-20.484375-3.027343-40.257812-8.640624-58.910156zm0 0" fill="#ff636e"/></svg>