<svg height="512pt" viewBox="0 0 512 512" width="512pt" xmlns="http://www.w3.org/2000/svg"><path d="m471.105469 512h-430.210938c-8.285156 0-15-6.714844-15-15v-278.597656c0-8.285156 6.714844-15 15-15h430.210938c8.285156 0 15 6.714844 15 15v278.597656c0 8.285156-6.714844 15-15 15zm0 0" fill="#11a892"/><path d="m471.105469 203.402344h-215.105469v308.597656h215.105469c8.285156 0 15-6.714844 15-15v-278.597656c0-8.285156-6.714844-15-15-15zm0 0" fill="#006357"/><path d="m497 251.921875h-482c-8.285156 0-15-6.71875-15-15v-98.082031c0-8.28125 6.714844-15 15-15h482c8.285156 0 15 6.71875 15 15v98.082031c0 8.28125-6.714844 15-15 15zm0 0" fill="#06ccab"/><path d="m497 123.839844h-241v128.082031h241c8.285156 0 15-6.71875 15-15v-98.082031c0-8.28125-6.714844-15-15-15zm0 0" fill="#088a7a"/><path d="m297.652344 512h-83.304688c-8.285156 0-15-6.714844-15-15v-358.199219c0-8.285156 6.714844-15 15-14.960937h83.304688c8.285156-.039063 15 6.675781 15 14.960937v358.199219c0 8.285156-6.714844 15-15 15zm0 0" fill="#ffbc36"/><path d="m369.453125 0c-26.148437 0-49.90625 13.652344-63.640625 36.542969l-21.464844 32.214843c-.921875 1.269532-1.816406 2.570313-2.640625 3.933594l-25.707031 38.585938-25.707031-38.585938c-.824219-1.367187-1.71875-2.667968-2.644531-3.9375l-21.460938-32.210937c-13.734375-22.890625-37.492188-36.542969-63.640625-36.542969-41.21875 0-74.757813 34.496094-74.757813 76.898438 0 42.253906 33.300782 76.65625 74.328126 76.894531.144531.003906.289062.007812.433593.007812h226.902344c.144531 0 .285156-.003906.429687-.007812 41.023438-.238281 74.328126-34.640625 74.328126-76.894531 0-42.402344-33.539063-76.898438-74.757813-76.898438zm-182.871094 123.839844c-.101562 0-.199219-.003906-.300781-.003906-12.03125 0-21.816406-10.378907-21.816406-23.136719 0-12.757813 9.785156-23.136719 21.816406-23.136719 6.5625 0 12.640625 3.070312 16.765625 8.34375l25.273437 37.933594zm139.199219-.003906c-.101562 0-.199219.003906-.296875.003906h-41.742187l25.273437-37.933594c4.125-5.269531 10.203125-8.34375 16.765625-8.34375 12.03125 0 21.820312 10.378906 21.820312 23.136719 0 12.757812-9.789062 23.136719-21.820312 23.136719zm0 0" fill="#ffda45"/><path d="m297.652344 123.839844h-41.652344v388.160156h41.652344c8.285156 0 15-6.714844 15-15v-358.199219c0-8.285156-6.714844-15-15-14.960937zm0 0" fill="#fe8205"/><path d="m256 153.800781h113.453125c.144531 0 .285156 0 .429687-.003906 41.023438-.242187 74.328126-34.644531 74.328126-76.898437 0-42.402344-33.539063-76.898438-74.757813-76.898438-26.148437 0-49.90625 13.652344-63.640625 36.542969l-21.464844 32.214843c-.921875 1.269532-1.816406 2.570313-2.640625 3.933594l-25.707031 38.585938zm69.78125-29.964843c-.101562 0-.199219.003906-.296875.003906h-41.742187l25.273437-37.933594c4.125-5.269531 10.203125-8.34375 16.765625-8.34375 12.03125 0 21.820312 10.378906 21.820312 23.136719 0 12.757812-9.789062 23.136719-21.820312 23.136719zm0 0" fill="#ffa426"/></svg>