<svg height="512pt" viewBox="-22 0 511 512" width="512pt" xmlns="http://www.w3.org/2000/svg"><path d="m278.769531 75.171875c-8.285156 0-15-6.714844-15-15 0-16.636719-13.457031-30.171875-30-30.171875s-30 13.535156-30 30.171875c0 8.285156-6.714843 15-15 15-8.285156 0-15-6.714844-15-15 0-33.179687 26.914063-60.171875 60-60.171875 33.082031 0 60 26.992188 60 60.171875 0 8.285156-6.714843 15-15 15zm0 0" fill="#cc9f56"/><path d="m233.769531 30c16.542969 0 30 13.535156 30 30.171875 0 8.285156 6.714844 15 15 15 8.285157 0 15-6.714844 15-15 0-33.179687-26.917969-60.171875-60-60.171875zm0 0" fill="#b08646"/><path d="m233.769531 512c-39.8125 0-72.199219-32.488281-72.199219-72.417969 0-8.285156 6.714844-15 15-15h114.398438c8.285156 0 15 6.714844 15 15 0 39.929688-32.386719 72.417969-72.199219 72.417969zm0 0" fill="#d6995c"/><path d="m290.96875 424.582031h-57.199219v87.417969c39.8125 0 72.199219-32.488281 72.199219-72.417969 0-8.285156-6.714844-15-15-15zm0 0" fill="#b27a49"/><path d="m389.078125 377.441406h-310.617187c-8.285157 0-15-6.714844-15-15v-141.429687c0-94.234375 76.398437-170.902344 170.308593-170.902344 93.910157 0 170.308594 76.667969 170.308594 170.902344v141.429687c0 8.285156-6.714844 15-15 15zm0 0" fill="#edc472"/><path d="m233.769531 377.441406h155.308594c8.285156 0 15-6.714844 15-15v-141.429687c0-94.234375-76.398437-170.902344-170.308594-170.902344z" fill="#cc9f56"/><path d="m452.039062 454.652344h-436.539062c-8.285156 0-15-6.714844-15-15v-.363282c0-56.230468 45.746094-101.976562 101.980469-101.976562h262.578125c56.230468 0 101.980468 45.746094 101.980468 101.976562v.363282c0 8.285156-6.71875 15-15 15zm0 0" fill="#ffde91"/><path d="m365.058594 337.3125h-131.289063v117.339844h218.269531c8.28125 0 15-6.714844 15-15v-.363282c0-56.230468-45.75-101.976562-101.980468-101.976562zm0 0" fill="#e8ba64"/></svg>