<svg height="512pt" viewBox="-122 0 512 512.001" width="512pt" xmlns="http://www.w3.org/2000/svg"><path d="m46.039062 512c-25.386718 0-46.039062-20.683594-46.039062-46.101562v-330.101563c0-74.621094 60.007812-135.539063 133.769531-135.796875h.480469c35.726562 0 69.324219 13.886719 94.664062 39.136719 25.519532 25.433593 39.574219 59.300781 39.574219 95.359375v21.433594c0 25.421874-20.652343 46.101562-46.035156 46.101562-25.386719 0-46.039063-20.679688-46.039063-46.101562v-19.925782c0-11.425781-4.472656-22.128906-12.589843-30.144531-8.082031-7.980469-18.789063-12.277344-30.144531-12.144531-22.941407.296875-41.605469 19.652344-41.605469 43.140625v329.042969c0 25.421874-20.652344 46.101562-46.035157 46.101562zm0 0" fill="#e3f7ff"/><g fill="#f03049"><path d="m0 365.1875 92.074219-92.636719v-100.351562l-92.074219 92.355469zm0 0"/><path d="m0 465.898438c0 25.421874 20.652344 46.101562 46.039062 46.101562 25.382813 0 46.035157-20.679688 46.035157-46.101562v-93.367188l-92.074219 92.359375zm0 0"/><path d="m133.679688 93.714844c-11.265626.144531-21.492188 4.894531-28.992188 12.464844l-104.6875 37.238281v-7.621094c0-40.566406 17.738281-77.078125 45.777344-102zm0 0"/></g><path d="m228.914062 39.136719c-25.339843-25.25-58.9375-39.136719-94.664062-39.136719-.003906 0-.003906 0-.007812 0v93.710938h-.332032v.003906c11.269532-.066406 21.882813 4.21875 29.914063 12.144531 8.121093 8.011719 12.589843 18.71875 12.589843 30.144531v19.925782c0 25.421874 20.652344 46.101562 46.039063 46.101562 25.382813 0 46.035156-20.679688 46.035156-46.101562v-21.433594c0-36.058594-14.054687-69.925782-39.574219-95.359375zm0 0" fill="#8accf5"/><path d="m228.914062 39.136719c-16.546874-16.488281-36.617187-28.128907-58.5-34.222657l-.097656 109.148438c3.976563 6.542969 6.097656 14.070312 6.097656 21.941406v19.925782c0 3.375.375 6.664062 1.066407 9.832031l71.300781-101.503907c-5.539062-9.023437-12.179688-17.457031-19.867188-25.121093zm0 0" fill="#bd002f"/></svg>