<svg height="512pt" viewBox="-30 0 512 512" width="512pt" xmlns="http://www.w3.org/2000/svg"><path d="m431.996094 327.53125c-9.785156-5.753906-21.226563-7.351562-32.21875-4.5-5.945313 1.546875-11.367188 4.304688-16.007813 8.050781l-39.375-23.152343 39.171875-10.507813c8-2.148437 12.746094-10.375 10.601563-18.375-2.148438-8.003906-10.375-12.75-18.375-10.601563l-67.675781 18.15625-52.046876-30.601562 51.914063-30.523438 67.664063 18.15625c1.304687.347657 2.609374.515626 3.898437.515626 6.621094 0 12.679687-4.417969 14.476563-11.117188 2.148437-8-2.597657-16.226562-10.601563-18.375l-39.164063-10.507812 39.511719-23.230469c4.640625 3.746093 10.0625 6.503906 16.007813 8.050781 3.5625.925781 7.171875 1.382812 10.753906 1.382812 7.476562 0 14.851562-1.992187 21.464844-5.882812 20.203125-11.875 26.976562-37.976562 15.105468-58.183594-5.75-9.792968-14.972656-16.753906-25.957031-19.609375-10.988281-2.851562-22.433593-1.253906-32.222656 4.5-15.648437 9.203125-23.234375 26.945313-20.335937 43.867188l-38.84375 22.839843 10.304687-38.433593c2.144531-8-2.601563-16.226563-10.605469-18.371094-8-2.144531-16.226562 2.601563-18.371094 10.601563l-18.199218 67.882812-51.394532 30.214844v-59.757813l49.609376-49.628906c5.859374-5.859375 5.855468-15.355469-.003907-21.214844-5.859375-5.855469-15.355469-5.855469-21.210937.003907l-28.394532 28.40625v-45.308594c16.054688-6.078125 27.5-21.605469 27.5-39.765625 0-23.441407-19.066406-42.511719-42.5-42.511719-23.433593 0-42.5 19.070312-42.5 42.511719 0 18.160156 11.445313 33.6875 27.5 39.765625v45.304687l-28.390624-28.402343c-5.855469-5.859376-15.355469-5.859376-21.214844-.003907s-5.859375 15.355469-.003906 21.214844l49.609374 49.625v59.761719l-51.402343-30.21875-18.191407-67.855469c-2.144531-8.003906-10.367187-12.75-18.371093-10.605469-8 2.144532-12.75 10.371094-10.605469 18.375l10.296875 38.40625-38.835937-22.835937c2.898437-16.921875-4.683594-34.664063-20.335938-43.867188-9.789062-5.753906-21.230469-7.355469-32.21875-4.5s-20.207031 9.816407-25.960938 19.605469c-11.871093 20.207031-5.097656 46.3125 15.105469 58.1875 6.617188 3.890625 13.988281 5.878906 21.464844 5.878906 3.582031 0 7.191406-.457031 10.753906-1.378906 5.945313-1.546875 11.367188-4.304688 16.011719-8.054688l39.535156 23.246094-39.191406 10.515625c-8 2.148438-12.746094 10.375-10.601562 18.375 1.796874 6.703125 7.855468 11.117188 14.480468 11.117188 1.285156 0 2.59375-.164063 3.894532-.515625l67.691406-18.160156 51.886718 30.507812-52.046874 30.601562-67.675782-18.15625c-8-2.144531-16.226562 2.601563-18.375 10.601563-2.144531 8 2.601563 16.226563 10.601563 18.375l39.171875 10.507813-39.375 23.15625c-4.640625-3.75-10.0625-6.507813-16.011719-8.054688-10.988281-2.851562-22.429687-1.253906-32.21875 4.5-20.199219 11.875-26.976563 37.980469-15.101563 58.1875 5.75 9.789062 14.96875 16.753906 25.957032 19.605469 3.5625.925781 7.167968 1.382812 10.753906 1.382812 7.476562 0 14.851562-1.992187 21.464844-5.878906 15.652344-9.203125 23.238281-26.945313 20.339844-43.867187l38.699218-22.757813-10.300781 38.425781c-2.148437 8 2.601563 16.226563 10.601563 18.375 1.300781.347656 2.609374.515625 3.894531.515625 6.621093 0 12.683593-4.421875 14.480469-11.121093l18.195312-67.871094 51.539062-30.304688v59.941406l-49.609374 49.625c-5.855469 5.859376-5.855469 15.359376.003906 21.214844 2.929687 2.929688 6.765625 4.390625 10.605468 4.390625 3.839844 0 7.679688-1.464843 10.605469-4.394531l28.394531-28.402344v45.125c-16.054687 6.078125-27.5 21.605469-27.5 39.765625 0 23.441407 19.066407 42.511719 42.5 42.511719 23.433594 0 42.5-19.070312 42.5-42.511719 0-18.160156-11.445312-33.6875-27.5-39.765625v-45.128906l28.390626 28.402344c2.929687 2.933594 6.769531 4.398437 10.609374 4.398437 3.839844 0 7.675782-1.464843 10.605469-4.390625 5.859375-5.859375 5.859375-15.355468.003907-21.214844l-49.609376-49.625v-59.941406l51.539063 30.300782 18.195313 67.875c1.796874 6.699218 7.855468 11.117187 14.480468 11.117187 1.285156 0 2.59375-.164063 3.894532-.515625 8-2.144531 12.75-10.371094 10.601562-18.371094l-10.300781-38.425781 38.699219 22.753906c-2.898438 16.921875 4.6875 34.664063 20.339843 43.867188 6.613281 3.890625 13.988281 5.882812 21.464844 5.882812 3.582031 0 7.191406-.460937 10.753906-1.382812 10.988281-2.855469 20.207031-9.816407 25.957031-19.605469 11.871094-20.207031 5.097657-46.3125-15.105468-58.1875zm-27.867188-190.496094c1.945313-1.144531 4.113282-1.730468 6.308594-1.730468 1.054688 0 2.117188.136718 3.164062.40625 3.230469.839843 5.941407 2.890624 7.632813 5.769531 3.496094 5.949219 1.503906 13.632812-4.441406 17.125-2.878907 1.695312-6.242188 2.164062-9.472657 1.324219-3.230468-.839844-5.945312-2.886719-7.636718-5.769532-3.492188-5.945312-1.5-13.628906 4.445312-17.125zm-177.652344-107.035156c6.894532 0 12.5 5.613281 12.5 12.511719 0 6.894531-5.605468 12.507812-12.5 12.507812-6.894531 0-12.5-5.613281-12.5-12.507812 0-6.898438 5.605469-12.511719 12.5-12.511719zm-180.84375 129.929688c-3.230468.839843-6.59375.371093-9.472656-1.320313-5.945312-3.496094-7.9375-11.179687-4.441406-17.128906 1.691406-2.878907 4.402344-4.929688 7.632812-5.765625 1.046876-.273438 2.109376-.40625 3.164063-.40625 2.195313 0 4.363281.582031 6.308594 1.726562 5.945312 3.496094 7.9375 11.175782 4.449219 17.121094 0 0 0 .003906-.003907.003906 0 0 0 .003906-.003906.003906-1.691406 2.878907-4.402344 4.929688-7.632813 5.765626zm3.191407 215.035156c-2.878907 1.691406-6.242188 2.160156-9.472657 1.320312-3.230468-.835937-5.941406-2.886718-7.632812-5.765625-3.496094-5.949219-1.503906-13.632812 4.441406-17.128906 1.945313-1.144531 4.113282-1.730469 6.3125-1.730469 1.050782 0 2.113282.136719 3.160156.40625 3.230469.839844 5.941407 2.890625 7.636719 5.769532 3.496094 5.949218 1.5 13.632812-4.445312 17.128906zm177.652343 107.035156c-6.894531 0-12.5-5.613281-12.5-12.511719 0-6.894531 5.605469-12.507812 12.5-12.507812 6.894532 0 12.5 5.613281 12.5 12.507812 0 6.898438-5.609374 12.511719-12.5 12.511719zm194.757813-111.480469c-1.691406 2.878907-4.402344 4.929688-7.632813 5.769531-3.230468.839844-6.597656.367188-9.472656-1.324218-5.941406-3.492188-7.9375-11.171875-4.449218-17.117188.003906-.003906.003906-.003906.003906-.003906 0-.003906 0-.003906.003906-.007812 1.691406-2.878907 4.402344-4.925782 7.632812-5.765626 1.046876-.273437 2.105469-.40625 3.160157-.40625 2.199219 0 4.367187.585938 6.3125 1.730469 5.945312 3.492188 7.9375 11.175781 4.441406 17.125zm0 0" fill="#e3f7ff"/><path d="m431.996094 327.53125c-9.785156-5.753906-21.226563-7.351562-32.21875-4.5-5.945313 1.546875-11.367188 4.304688-16.007813 8.050781l-39.375-23.152343 39.171875-10.507813c8-2.148437 12.746094-10.375 10.601563-18.375-2.148438-8.003906-10.375-12.75-18.375-10.601563l-67.675781 18.15625-52.046876-30.601562 51.914063-30.523438 67.664063 18.15625c1.304687.347657 2.609374.515626 3.898437.515626 6.621094 0 12.679687-4.417969 14.476563-11.117188 2.148437-8-2.597657-16.226562-10.601563-18.375l-39.164063-10.507812 39.511719-23.230469c4.640625 3.746093 10.0625 6.503906 16.007813 8.050781 3.5625.925781 7.171875 1.382812 10.753906 1.382812 7.476562 0 14.851562-1.992187 21.464844-5.882812 20.203125-11.875 26.976562-37.976562 15.105468-58.183594-5.75-9.792968-14.972656-16.753906-25.957031-19.609375-10.988281-2.851562-22.433593-1.253906-32.222656 4.5-15.648437 9.203125-23.234375 26.945313-20.335937 43.867188l-38.84375 22.839843 10.304687-38.433593c2.144531-8-2.601563-16.226563-10.605469-18.371094-8-2.144531-16.226562 2.601563-18.371094 10.601563l-18.199218 67.882812-51.394532 30.214844v-59.757813l49.609376-49.628906c5.859374-5.859375 5.855468-15.355469-.003907-21.214844-5.859375-5.855469-15.355469-5.855469-21.210937.003907l-28.394532 28.40625v-45.308594c16.054688-6.078125 27.5-21.605469 27.5-39.765625 0-23.441407-19.066406-42.511719-42.5-42.511719v30c6.890626 0 12.5 5.613281 12.5 12.511719 0 6.894531-5.605468 12.507812-12.5 12.507812v401.960938c6.890626 0 12.5 5.609375 12.5 12.507812 0 6.898438-5.609374 12.511719-12.5 12.511719v30c23.433594 0 42.5-19.070312 42.5-42.511719 0-18.160156-11.445312-33.6875-27.5-39.765625v-45.125l28.390626 28.402344c2.929687 2.929688 6.769531 4.394531 10.609374 4.394531 3.839844 0 7.675782-1.464843 10.605469-4.390625 5.859375-5.855468 5.859375-15.355468.003907-21.214844l-49.609376-49.625v-59.941406l51.539063 30.300782 18.195313 67.875c1.796874 6.699218 7.855468 11.117187 14.480468 11.117187 1.285156 0 2.59375-.164063 3.894532-.515625 8-2.144531 12.75-10.371094 10.601562-18.371094l-10.300781-38.425781 38.699219 22.753906c-2.898438 16.921875 4.6875 34.664063 20.339843 43.867188 6.613281 3.890625 13.988281 5.882812 21.464844 5.882812 3.582031 0 7.191406-.460937 10.753906-1.382812 10.988281-2.855469 20.207031-9.816407 25.957031-19.605469 11.871094-20.207031 5.097657-46.3125-15.105468-58.1875zm-27.867188-190.496094c1.945313-1.144531 4.113282-1.730468 6.308594-1.730468 1.054688 0 2.117188.136718 3.164062.40625 3.230469.839843 5.941407 2.890624 7.632813 5.769531 3.496094 5.949219 1.503906 13.632812-4.441406 17.125-2.878907 1.695312-6.242188 2.164062-9.472657 1.324219-3.230468-.839844-5.945312-2.886719-7.636718-5.769532-3.492188-5.945312-1.5-13.628906 4.445312-17.125zm17.105469 233.484375c-1.691406 2.878907-4.402344 4.929688-7.632813 5.769531-3.230468.839844-6.597656.367188-9.472656-1.324218-5.941406-3.492188-7.9375-11.171875-4.449218-17.117188.003906-.003906.003906-.003906.003906-.003906 0-.003906 0-.003906.003906-.007812 1.691406-2.878907 4.402344-4.925782 7.632812-5.765626 1.046876-.273437 2.105469-.40625 3.160157-.40625 2.199219 0 4.367187.585938 6.3125 1.730469 5.945312 3.492188 7.9375 11.175781 4.441406 17.125zm0 0" fill="#8accf5"/></svg>