<svg height="512pt" viewBox="-67 0 512 512" width="512pt" xmlns="http://www.w3.org/2000/svg"><path d="m105.230469 512c-12.871094 0-25.773438-2.402344-38.164063-7.214844-26.238281-10.195312-46.898437-29.933594-58.167968-55.578125-23.324219-53.066406.800781-115.253906 53.78125-138.625l83.59375-37.496093v-200.667969c-.003907-3.980469 1.320312-7.800781 4.136718-10.617188 2.8125-2.816406 6.632813-4.402343 10.613282-4.402343h180.015624c8.277344 0 15.160157 6.707031 15.171876 14.980468l.167968 268.1875c.050782 38.957032-21.308594 74.515625-55.785156 92.960938-4.378906 2.769531-9 5.230468-13.742188 7.324218l-139.460937 62.207032c-13.503906 5.957031-27.8125 8.941406-42.160156 8.941406zm0 0" fill="#06ccab"/><path d="m326.304688 104.746094h-152.234376c-28.804687-.039063-52.191406-23.65625-52.15625-52.644532.019532-13.945312 5.484376-27.046874 15.390626-36.894531 9.859374-9.808593 22.933593-15.207031 36.8125-15.207031h.074218 152.214844c28.804688.0390625 52.191406 23.5625 52.152344 52.441406-.015625 13.9375-5.46875 27.058594-15.347656 36.957032-9.878907 9.898437-22.964844 15.347656-36.855469 15.347656-.015625 0-.03125 0-.050781 0zm0 0" fill="#f03049"/><path d="m356.210938 72.378906c-.011719-8.273437-6.894532-14.980468-15.171876-14.980468h-151.742187v426.964843l97.554687-43.511719c4.742188-2.09375 9.363282-4.554687 13.738282-7.324218 34.480468-18.445313 55.835937-54.003906 55.789062-92.960938zm0 0" fill="#088a7a"/><path d="m125.765625 505.902344c18.105469-22.257813 26.125-50.203125 22.582031-78.6875-3.433594-27.605469-17.394531-52.21875-39.3125-69.308594-21.925781-17.097656-49.1875-24.617188-76.757812-21.171875-.113282.015625-.230469.03125-.34375.046875l-6.027344.894531c-25.8828125 29.796875-33.921875 73.058594-17.007812 111.53125 11.269531 25.644531 31.929687 45.382813 58.167968 55.574219 12.390625 4.816406 25.292969 7.21875 38.164063 7.214844 5.492187 0 10.972656-.4375 16.40625-1.3125l3.839843-4.441406c.097657-.109376.195313-.226563.289063-.339844zm0 0" fill="#f03049"/><path d="m300.589844 433.527344c34.480468-18.445313 55.835937-54.003906 55.789062-92.960938l-.042968-65.652344h-15.203126c-.089843 0-.175781 0-.261718 0-29.15625 0-56.582032 11.34375-77.25 31.953126-20.726563 20.664062-32.175782 48.175781-32.242188 77.464843-.050781 21.167969 5.9375 41.730469 17.316406 59.472657.207032.320312.429688.636718.660157.941406l7.25 9.597656 30.242187-13.492188c4.746094-2.09375 9.367188-4.554687 13.742188-7.324218zm0 0" fill="#bd002f"/><path d="m326.304688 104.746094h-152.234376c-28.804687-.039063-52.191406-23.65625-52.15625-52.644532.019532-13.945312 5.484376-27.046874 15.390626-36.894531 9.859374-9.808593 22.933593-15.207031 36.8125-15.207031h.074218 152.214844c28.804688.0390625 52.191406 23.5625 52.152344 52.441406-.015625 13.9375-5.46875 27.058594-15.347656 36.957032-9.878907 9.898437-22.964844 15.347656-36.855469 15.347656-.015625 0-.03125 0-.050781 0zm0 0" fill="#f03049"/><path d="m326.40625 0h-137.109375v104.746094h137.007813.050781c13.890625 0 26.976562-5.449219 36.855469-15.347656 9.878906-9.898438 15.332031-23.019532 15.347656-36.957032.039062-28.878906-23.347656-52.4023435-52.152344-52.441406zm0 0" fill="#bd002f"/><path d="m171.417969 225.46875h.003906c4.605469 0 8.953125-2.117188 11.796875-5.738281l28.605469-36.449219 28.601562 36.449219c2.847657 3.625 7.242188 5.738281 11.847657 5.738281h.164062c4.546875-.050781 8.828125-2.160156 11.636719-5.738281l28.601562-36.449219 28.605469 36.449219c2.835938 3.613281 7.175781 5.730469 11.769531 5.738281 4.585938.011719 8.941407-2.085938 11.792969-5.6875l11.449219-14.460938v-48.25l-23.15625 29.171876-28.226563-35.964844c-2.855468-4.015625-7.585937-6.417969-12.582031-6.316406-4.894531.105468-9.378906 2.59375-12.078125 6.566406l-28 35.675781-28.191406-35.925781c-2.851563-4.015625-7.546875-6.417969-12.582032-6.316406-4.894531.105468-9.378906 2.59375-12.078124 6.566406l-27.980469 35.652344-25.144531-32.082032v48.640625l13.351562 16.996094c2.839844 3.621094 7.1875 5.734375 11.792969 5.734375zm0 0" fill="#ffda45"/><path d="m333.132812 186.242188-28.222656-35.964844c-2.855468-4.019532-7.589844-6.421875-12.582031-6.316406-4.898437.105468-9.382813 2.589843-12.082031 6.5625l-27.996094 35.675781-28.195312-35.921875c-2.851563-4.019532-7.542969-6.421875-12.582032-6.316406-4.894531.105468-9.378906 2.589843-12.078125 6.5625l-10.054687 12.8125v48.59375l22.484375-28.648438 28.601562 36.449219c2.847657 3.625 7.242188 5.738281 11.847657 5.738281h.164062c4.546875-.050781 8.828125-2.164062 11.636719-5.738281l28.601562-36.449219 28.605469 36.449219c2.835938 3.613281 7.175781 5.726562 11.769531 5.738281 4.585938.011719 8.941407-2.085938 11.792969-5.6875l11.449219-14.464844v-48.246094zm0 0" fill="#ffa426"/></svg>