<svg height="512pt" viewBox="-57 0 512 512" width="512pt" xmlns="http://www.w3.org/2000/svg"><path d="m228.378906 512h-58.5c-8.285156 0-15-6.714844-15-15v-84.46875c0-8.28125 6.714844-15 15-15h58.5c8.28125 0 15 6.71875 15 15v84.46875c0 8.285156-6.71875 15-15 15zm0 0" fill="#d6995c"/><path d="m228.378906 397.53125h-29.25v114.46875h29.25c8.28125 0 15-6.714844 15-15v-84.46875c0-8.28125-6.71875-15-15-15zm0 0" fill="#b27a49"/><path d="m383.257812 452.121094h-368.257812c-5.453125 0-10.476562-2.960938-13.117188-7.730469-2.644531-4.769531-2.492187-10.59375.394532-15.21875l76.445312-122.359375h-9.035156c-5.574219 0-10.6875-3.089844-13.28125-8.023438-2.589844-4.933593-2.234375-10.898437.929688-15.488281l53.363281-77.449219c-5.289063-.3125-10.046875-3.402343-12.472657-8.160156-2.5625-5.019531-2.089843-11.054687 1.21875-15.621094l87.539063-120.722656c2.820313-3.890625 7.335937-6.195312 12.144531-6.195312 4.804688 0 9.320313 2.304687 12.140625 6.195312l87.542969 120.722656c3.308594 4.566407 3.777344 10.601563 1.21875 15.625-2.429688 4.753907-7.1875 7.84375-12.472656 8.15625l53.363281 77.449219c3.160156 4.589844 3.519531 10.554688.925781 15.488281-2.589844 4.933594-7.703125 8.023438-13.277344 8.023438h-9.039062l76.445312 122.359375c2.890626 4.625 3.042969 10.453125.398438 15.21875-2.644531 4.769531-7.667969 7.730469-13.117188 7.730469zm0 0" fill="#06ccab"/><path d="m166.316406 355.757812c0-11.109374-8.957031-20.113281-20-20.113281-11.046875 0-20 9.003907-20 20.113281 0 11.105469 8.953125 20.109376 20 20.109376 11.042969 0 20-9.003907 20-20.109376zm0 0" fill="#f03049"/><path d="m395.976562 429.171875-76.445312-122.359375h9.039062c5.574219 0 10.6875-3.089844 13.277344-8.023438 2.59375-4.933593 2.234375-10.898437-.925781-15.488281l-53.363281-77.449219c5.285156-.3125 10.042968-3.402343 12.472656-8.15625 2.5625-5.023437 2.089844-11.058593-1.21875-15.625l-87.542969-120.722656c-2.820312-3.890625-7.335937-6.195312-12.140625-6.195312v396.96875h184.128906c5.449219 0 10.472657-2.960938 13.117188-7.730469 2.644531-4.765625 2.492188-10.59375-.398438-15.21875zm0 0" fill="#088a7a"/><path d="m199.128906 81.402344c-22.425781 0-40.667968-18.257813-40.667968-40.699219 0-22.445313 18.242187-40.703125 40.667968-40.703125 22.421875 0 40.667969 18.257812 40.667969 40.703125 0 22.441406-18.246094 40.699219-40.667969 40.699219zm0 0" fill="#ffda45"/><path d="m199.128906 0c22.421875 0 40.667969 18.257812 40.667969 40.703125 0 22.441406-18.246094 40.699219-40.667969 40.699219zm0 0" fill="#ffa426"/><path d="m24.503906 452.226562c-3.261718 0-6.53125-.039062-9.835937-.109374-8.28125-.183594-14.847657-7.046876-14.66406275-15.328126.17968775-8.171874 6.85937475-14.667968 14.98828175-14.667968h.339843c90.417969 2.015625 164.472657-25.953125 210.679688-49.757813 19.230469-9.90625 35.390625-19.941406 48.03125-28.582031-36.386719-5.273438-74.203125-20.550781-111.378907-45.203125-38.863281-25.769531-63.351562-52.53125-64.371093-53.660156-3.796875-4.179688-4.925781-10.132813-2.921875-15.410157 2.003906-5.277343 6.800781-8.984374 12.414062-9.589843 76.734375-8.277344 110.203125-68.683594 121.027344-94.269531 3.230469-7.628907 12.03125-11.199219 19.660156-7.96875 7.628906 3.226562 11.199219 12.03125 7.96875 19.660156-7.753906 18.324218-22.378906 45.09375-48.023437 68.578125-19.855469 18.179687-42.554688 30.929687-67.75 38.097656 10.011719 8.777344 23.367187 19.523437 39.1875 29.964844 32.316406 21.332031 81.976562 45.824219 135.058593 41.347656 6.355469-.53125 12.386719 3.027344 14.976563 8.875 2.589844 5.851563 1.183594 12.695313-3.5 17.054687-1.277344 1.1875-31.910156 29.429688-85.652344 57.265626-47.8125 24.765624-123.539062 53.699218-216.234375 53.703124zm0 0" fill="#088a7a"/><path d="m199.128906 213.839844c3.160156-2.519532 6.257813-5.148438 9.289063-7.921875 25.644531-23.480469 40.269531-50.253907 48.023437-68.578125 3.230469-7.628906-.339844-16.433594-7.96875-19.660156-7.628906-3.230469-16.429687.339843-19.660156 7.96875-4.8125 11.375-14.105469 29.632812-29.683594 47.132812zm0 0" fill="#006357"/><path d="m329.890625 324.207031c-2.589844-5.851562-8.621094-9.40625-14.976563-8.878906-43.429687 3.664063-84.5625-12.066406-115.785156-29.589844v33.921875c25.199219 12.457032 50.382813 20.566406 74.914063 24.121094-12.640625 8.640625-28.800781 18.679688-48.03125 28.585938-8.117188 4.179687-17.109375 8.488281-26.882813 12.742187v32.527344c15.542969-6.28125 29.476563-12.828125 41.605469-19.109375 53.742187-27.835938 84.378906-56.082032 85.65625-57.269532 4.683594-4.355468 6.089844-11.203124 3.5-17.050781zm0 0" fill="#006357"/><path d="m247.503906 249.074219c0-11.109375-8.957031-20.113281-20-20.113281-11.046875 0-20 9.003906-20 20.113281 0 11.105469 8.953125 20.113281 20 20.113281 11.042969 0 20-9.007812 20-20.113281zm0 0" fill="#bd002f"/></svg>