<svg height="512pt" viewBox="0 0 512 512" width="512pt" xmlns="http://www.w3.org/2000/svg"><path d="m41.105469 512c-8.28125 0-15-6.714844-15-15v-418.511719c0-8.285156 6.71875-15 15-15h429.785156c8.285156 0 15 6.714844 15 15v418.511719c0 8.285156-6.714844 15-15 15" fill="#f2d1a5"/><path d="m470.894531 63.488281h-214.894531v448.511719h214.894531c8.28125 0 15-6.714844 15-15v-418.511719c0-8.285156-6.71875-15-15-15zm0 0" fill="#e3a76f"/><path d="m401.859375 482.144531c8.285156 0 15-6.714843 15-15v-175.726562c0-88.925781-72.160156-161.269531-160.859375-161.269531s-160.859375 72.347656-160.859375 161.269531v175.726562c0 8.285157 6.714844 15 15 15zm0 0" fill="#784132"/><path d="m148.554688 141.773438h-55.222657c-8.28125 0-15-6.714844-15-15 0-8.28125 6.71875-15 15-15h55.222657c8.285156 0 15 6.71875 15 15 0 8.285156-6.714844 15-15 15zm0 0" fill="#915041"/><path d="m63.199219 324.039062h-21.078125c-8.285156 0-15-6.714843-15-15 0-8.28125 6.714844-15 15-15h21.078125c8.285156 0 15 6.71875 15 15 0 8.285157-6.714844 15-15 15zm0 0" fill="#915041"/><path d="m15 511.988281c-8.285156 0-15-6.714843-15-15 0-8.285156 6.714844-15 15-15h482c8.285156 0 15 6.714844 15 15 0 8.285157-6.714844 15-15 15zm0 0" fill="#915041"/><path d="m459.847656 172.992188h-40.167968c-8.285157 0-15-6.714844-15-15 0-8.285157 6.714843-15 15-15h40.167968c8.28125 0 15 6.714843 15 15 0 8.285156-6.71875 15-15 15zm0 0" fill="#61362b"/><path d="m344.375 116.601562h-21.078125c-8.285156 0-15-6.714843-15-15 0-8.285156 6.714844-15 15-15h21.078125c8.285156 0 15 6.714844 15 15 0 8.285157-6.714844 15-15 15zm0 0" fill="#61362b"/><path d="m469.886719 430.78125h-21.078125c-8.285156 0-15-6.714844-15-15s6.714844-15 15-15h21.078125c8.285156 0 15 6.714844 15 15s-6.714844 15-15 15zm0 0" fill="#61362b"/><path d="m131.484375 189.3125h-21.082031c-8.28125 0-15 6.714844-15 15s6.71875 15 15 15h3.496094c5.351562-10.691406 11.855468-20.710938 19.347656-29.886719-.578125-.066406-1.164063-.113281-1.761719-.113281zm0 0" fill="#915041"/><path d="m423.953125 275.914062h-7.835937c.488281 5.105469.746093 10.273438.746093 15.503907v14.496093h7.089844c8.285156 0 15-6.714843 15-15 0-8.285156-6.714844-15-15-15zm0 0" fill="#61362b"/><path d="m497 93.605469h-482c-8.285156 0-15-6.714844-15-15v-63.605469c0-8.285156 6.714844-15 15-15h482c8.285156 0 15 6.714844 15 15v63.605469c0 8.285156-6.714844 15-15 15zm0 0" fill="#915041"/><path d="m497 0h-241v93.605469h241c8.285156 0 15-6.714844 15-15v-63.605469c0-8.285156-6.714844-15-15-15zm0 0" fill="#61362b"/><path d="m53.5 0h30v93.605469h-30zm0 0" fill="#fff2de"/><path d="m128.5 0h30v93.605469h-30zm0 0" fill="#fff2de"/><path d="m203.5 0h30v93.605469h-30zm0 0" fill="#fff2de"/><g fill="#f2d1a5"><path d="m278.5 0h30v93.605469h-30zm0 0"/><path d="m353.5 0h30v93.605469h-30zm0 0"/><path d="m428.5 0h30v93.605469h-30zm0 0"/></g><path d="m256 130.148438v351.996093h145.859375c8.285156 0 15-6.714843 15-15v-175.726562c0-88.921875-72.160156-161.269531-160.859375-161.269531zm0 0" fill="#61362b"/><path d="m497 481.988281h-241v30h241c8.285156 0 15-6.714843 15-15 0-8.285156-6.714844-15-15-15zm0 0" fill="#784132"/><path d="m256 422.53125c-.003906 0 0 0 0 0-21.5625 0-41.828125-8.417969-57.070312-23.703125-25.015626-25.082031-30.839844-63.070313-14.496094-94.523437l58.257812-112.125c2.796875-5.390626 8.589844-8.558594 14.621094-8.027344 6.050781.53125 11.183594 4.660156 13 10.453125l20.886719 66.59375c1.402343-.441407 2.882812-.679688 4.402343-.691407h.101563c5.59375 0 10.726563 3.113282 13.308594 8.085938l18.558593 35.710938c16.34375 31.457031 10.519532 69.441406-14.496093 94.527343-15.246094 15.28125-35.515625 23.699219-57.074219 23.699219zm0 0" fill="#ffda45"/><path d="m327.566406 304.304688-18.554687-35.714844c-2.582031-4.96875-7.714844-8.082032-13.3125-8.082032-.03125 0-.066407 0-.101563 0-1.519531.007813-3 .25-4.402344.691407l-20.882812-66.59375c-1.820312-5.792969-6.949219-9.921875-13-10.453125-.441406-.039063-.878906-.050782-1.316406-.050782v238.429688c21.5625 0 41.832031-8.417969 57.074218-23.703125 25.015626-25.082031 30.839844-63.070313 14.496094-94.523437zm0 0" fill="#ffa426"/><path d="m256 338.210938c-8.285156 0-15 6.714843-15 15v28.597656c0 8.285156 6.714844 15 15 15s15-6.714844 15-15v-28.597656c0-8.285157-6.714844-15-15-15zm0 0" fill="#f03049"/><path d="m256 338.210938v58.597656c8.285156 0 15-6.714844 15-15v-28.597656c0-8.285157-6.714844-15-15-15zm0 0" fill="#bd002f"/><path d="m193.777344 463.480469 140.582031-45.066407c13.789063-4.421874 21.46875-19.324218 17.0625-33.121093l-.046875-.136719c-4.414062-13.820312-19.335938-21.507812-33.152344-17.078125l-140.582031 45.066406c-13.792969 4.421875-21.46875 19.328125-17.0625 33.121094l.042969.136719c4.417968 13.824218 19.339844 21.507812 33.15625 17.078125zm0 0" fill="#d6995c"/><path d="m318.222656 463.480469-140.582031-45.066407c-13.789063-4.421874-21.46875-19.324218-17.0625-33.121093l.046875-.136719c4.414062-13.820312 19.335938-21.507812 33.152344-17.078125l140.582031 45.066406c13.792969 4.421875 21.46875 19.328125 17.0625 33.121094l-.042969.136719c-4.417968 13.824218-19.339844 21.507812-33.15625 17.078125zm0 0" fill="#b27a49"/></svg>