<svg height="512pt" viewBox="-31 0 512 512" width="512pt" xmlns="http://www.w3.org/2000/svg"><path d="m225.375 248.492188c-46.539062 0-84.402344-37.953126-84.402344-84.601563 0-22.585937 8.773438-43.828125 24.707032-59.804687 15.941406-15.988282 37.144531-24.792969 59.695312-24.792969 46.539062 0 84.402344 37.949219 84.402344 84.597656s-37.863282 84.601563-84.402344 84.601563zm0 0" fill="#e3f7ff"/><path d="m208 181.207031h-83.765625c-8.285156 0-15-6.714843-15-15 0-8.285156 6.714844-15 15-15h83.765625c8.28125 0 15 6.714844 15 15 0 8.285157-6.71875 15-15 15zm0 0" fill="#ffa426"/><path d="m225.375 512c-80.707031 0-146.367188-65.828125-146.367188-146.742188 0-80.914062 65.660157-146.742187 146.367188-146.742187s146.371094 65.828125 146.371094 146.742187c0 39.1875-15.21875 76.035157-42.855469 103.75-27.648437 27.722657-64.410156 42.992188-103.515625 42.992188zm0 0" fill="#e3f7ff"/><path d="m159.445312 293.386719-137.515624-71.613281c-7.347657-3.828126-16.402344-.972657-20.230469 6.375-3.828125 7.347656-.972657 16.40625 6.375 20.230468l31.808593 16.566406-26.867187 10.703126c-7.695313 3.066406-11.445313 11.789062-8.382813 19.484374 2.34375 5.875 7.980469 9.453126 13.941407 9.453126 1.847656 0 3.726562-.34375 5.546875-1.070313l50.890625-20.277344 70.578125 36.753907c2.210937 1.152343 4.582031 1.699218 6.914062 1.699218 5.414063 0 10.644532-2.9375 13.316406-8.074218 3.828126-7.34375.972657-16.402344-6.375-20.230469zm0 0" fill="#915041"/><path d="m225.375 79.292969c46.539062 0 84.402344 37.949219 84.402344 84.597656s-37.863282 84.601563-84.402344 84.601563zm0 0" fill="#8accf5"/><path d="m225.375 218.515625c80.707031 0 146.371094 65.828125 146.371094 146.742187 0 39.1875-15.21875 76.035157-42.855469 103.75-27.648437 27.722657-64.410156 42.992188-103.515625 42.992188zm0 0" fill="#8accf5"/><path d="m308.09375 97.652344h-20.601562v-82.652344c0-8.285156-6.714844-15-15-15h-94.234376c-8.285156 0-15 6.714844-15 15v82.652344h-20.601562c-8.285156 0-15 6.71875-15 15 0 8.285156 6.714844 15 15 15h165.4375c8.285156 0 15-6.714844 15-15 0-8.28125-6.714844-15-15-15zm0 0" fill="#414952"/><g fill="#06ccab"><path d="m246.316406 302.257812c0-11.601562-9.375-21.003906-20.941406-21.003906s-20.941406 9.402344-20.941406 21.003906c0 11.597657 9.375 21 20.941406 21s20.941406-9.402343 20.941406-21zm0 0"/><path d="m246.316406 365.257812c0-11.597656-9.375-21-20.941406-21s-20.941406 9.402344-20.941406 21c0 11.601563 9.375 21.003907 20.941406 21.003907s20.941406-9.402344 20.941406-21.003907zm0 0"/><path d="m246.316406 428.261719c0-11.601563-9.375-21.003907-20.941406-21.003907s-20.941406 9.402344-20.941406 21.003907c0 11.597656 9.375 21 20.941406 21s20.941406-9.402344 20.941406-21zm0 0"/></g><path d="m225.375 323.257812c11.566406 0 20.941406-9.402343 20.941406-21 0-11.601562-9.375-21.003906-20.941406-21.003906zm0 0" fill="#088a7a"/><path d="m225.375 386.261719c11.566406 0 20.941406-9.402344 20.941406-21.003907 0-11.597656-9.375-21-20.941406-21zm0 0" fill="#088a7a"/><path d="m225.375 449.261719c11.566406 0 20.941406-9.402344 20.941406-21 0-11.601563-9.375-21.003907-20.941406-21.003907zm0 0" fill="#088a7a"/><path d="m308.09375 97.652344h-20.601562v-82.652344c0-8.285156-6.714844-15-15-15h-47.117188v127.652344h82.71875c8.285156 0 15-6.714844 15-15 0-8.28125-6.714844-15-15-15zm0 0" fill="#23272b"/><path d="m437.734375 275.640625-26.863281-10.703125 31.804687-16.5625c7.347657-3.828125 10.203125-12.886719 6.375-20.230469-3.824219-7.347656-12.882812-10.203125-20.230469-6.378906l-137.515624 71.613281c-7.347657 3.828125-10.203126 12.886719-6.375 20.234375 2.675781 5.132813 7.902343 8.074219 13.316406 8.074219 2.335937 0 4.703125-.546875 6.917968-1.699219l70.574219-36.753906 50.890625 20.277344c1.824219.726562 3.699219 1.066406 5.546875 1.066406 5.960938 0 11.601563-3.574219 13.941407-9.449219 3.066406-7.695312-.6875-16.421875-8.382813-19.488281zm0 0" fill="#61362b"/></svg>