<svg height="512pt" viewBox="0 0 512.00036 512" width="512pt" xmlns="http://www.w3.org/2000/svg"><path d="m469.945312 428.554688c-12.058593 0-23.726562-5.191407-31.765624-14.351563-3.40625 3.234375-7.367188 5.898437-11.773438 7.875-17.980469 8.054687-38.703125 2.4375-50.371094-12.371094-3.300781 3.039063-7.105468 5.558594-11.316406 7.445313-21.167969 9.484375-46.136719.019531-55.65625-21.097656-7.003906-15.527344-22.574219-25.5625-39.671875-25.5625h-26.785156c-17.09375 0-32.667969 10.035156-39.667969 25.5625-9.523438 21.117187-34.488281 30.582031-55.65625 21.097656-4.210938-1.886719-8.015625-4.40625-11.316406-7.445313-11.671875 14.8125-32.390625 20.421875-50.371094 12.371094-4.40625-1.976563-8.367188-4.640625-11.773438-7.875-11.875 13.53125-31.679687 18.40625-48.949218 10.667969-10.253906-4.597656-18.105469-12.929688-22.105469-23.46875-3.992187-10.511719-3.652344-21.925782.949219-32.132813l83.867187-185.980469c12.476563-27.660156 45.191407-40.054687 72.921875-27.628906l26.636719 11.9375c43.761719 19.609375 93.957031 19.605469 137.714844 0l26.640625-11.9375c27.734375-12.425781 60.441406-.03125 72.917968 27.628906l83.871094 185.980469c4.601563 10.210938 4.9375 21.621094.945313 32.136719-4 10.535156-11.851563 18.867188-22.101563 23.464844-5.582031 2.5-11.425781 3.683594-17.183594 3.683594zm0 0" fill="#ffda45"/><path d="m508.285156 369.273438-83.871094-185.980469c-12.472656-27.664063-45.183593-40.058594-72.917968-27.628907l-26.636719 11.933594c-21.878906 9.804688-45.367187 14.707032-68.859375 14.707032v188.191406h13.390625c17.097656 0 32.671875 10.03125 39.671875 25.558594 9.523438 21.117187 34.492188 30.582031 55.65625 21.097656 4.210938-1.886719 8.015625-4.402344 11.320312-7.445313 11.667969 14.8125 32.386719 20.425781 50.367188 12.371094 4.40625-1.976563 8.367188-4.640625 11.773438-7.875 8.039062 9.160156 19.707031 14.351563 31.765624 14.351563 5.757813 0 11.605469-1.183594 17.183594-3.683594 10.253906-4.59375 18.101563-12.925782 22.101563-23.464844 3.996093-10.511719 3.65625-21.925781-.945313-32.132812zm0 0" fill="#ffa426"/><path d="m256 92.148438c-20.582031 0-40.164062-3.695313-55.144531-10.414063-25.375-11.375-29.164063-27.222656-29.164063-35.660156s3.789063-24.285157 29.164063-35.660157c14.980469-6.714843 34.5625-10.414062 55.144531-10.414062s40.164062 3.699219 55.144531 10.414062c25.375 11.375 29.164063 27.226563 29.164063 35.660157 0 8.433593-3.789063 24.285156-29.164063 35.660156-14.980469 6.71875-34.5625 10.414063-55.144531 10.414063zm-54.277344-46.074219c.457032 1.140625 3.605469 5.179687 13.535156 9.1875 10.996094 4.441406 25.464844 6.882812 40.742188 6.882812 15.273438 0 29.746094-2.441406 40.742188-6.882812 9.925781-4.003907 13.074218-8.046875 13.53125-9.1875-.457032-1.140625-3.605469-5.179688-13.53125-9.1875-11-4.4375-25.46875-6.882813-40.742188-6.882813-15.277344 0-29.746094 2.445313-40.742188 6.882813-9.929687 4.007812-13.078124 8.046875-13.535156 9.1875zm108.601563.140625h.007812zm0 0" fill="#ffde91"/><path d="m396.84375 512h-281.6875c-8.285156 0-15-6.71875-15-15 0-8.285156 6.714844-15.003906 15-15.003906 39.910156 0 72.382812-32.34375 72.382812-72.101563 0-14.855469-4.496093-29.109375-13.003906-41.238281-.789062-1.035156-1.519531-2.027344-2.222656-3.019531-.003906-.007813-.007812-.011719-.011719-.019531-12.207031-17.265626-18.660156-37.589844-18.660156-58.773438 0-56.300781 45.929687-102.101562 102.382813-102.101562 56.453124 0 102.382812 45.804687 102.382812 102.101562 0 20.863281-6.277344 40.929688-18.148438 58.042969-.003906.007812-.011718.015625-.015624.019531-1.050782 1.515625-2.132813 2.984375-3.214844 4.382812-8.222656 11.992188-12.570313 26.023438-12.570313 40.605469 0 39.757813 32.472657 72.101563 72.386719 72.101563 8.28125 0 14.996094 6.714844 14.996094 15 .003906 8.285156-6.710938 15.003906-14.996094 15.003906zm0 0" fill="#e3f7ff"/><path d="m311.144531 10.414062c-14.980469-6.714843-34.5625-10.414062-55.144531-10.414062v30.003906c15.273438 0 29.746094 2.445313 40.742188 6.882813 9.929687 4.007812 13.078124 8.046875 13.535156 9.1875-.457032 1.140625-3.605469 5.179687-13.535156 9.1875-10.996094 4.441406-25.464844 6.882812-40.742188 6.882812v30.003907c20.582031 0 40.164062-3.695313 55.144531-10.414063 25.375-11.375 29.164063-27.222656 29.164063-35.660156s-3.789063-24.285157-29.164063-35.660157zm0 0" fill="#e8ba64"/><path d="m396.84375 481.996094c-39.914062 0-72.382812-32.34375-72.382812-72.101563 0-14.582031 4.34375-28.613281 12.566406-40.605469 1.085937-1.394531 2.164062-2.867187 3.214844-4.378906.007812-.007812.011718-.015625.015624-.023437 11.875-17.109375 18.148438-37.179688 18.148438-58.039063 0-56.300781-45.929688-102.105468-102.382812-102.105468 0 0-.015626 0-.023438 0v307.257812h140.84375c8.285156 0 15-6.71875 15-15 0-8.285156-6.714844-15.003906-15-15.003906zm0 0" fill="#8accf5"/><path d="m338.707031 246.703125c-18.640625-25.417969-48.757812-41.960937-82.683593-41.960937-34.144532 0-64.4375 16.757812-83.046876 42.460937l83.023438 81.375zm0 0" fill="#ffa426"/><path d="m256 328.578125 82.707031-81.875c-18.640625-25.417969-48.757812-41.964844-82.683593-41.964844zm0 0" fill="#fe8205"/><path d="m256 235.078125c-37.207031 0-67.480469-30.195313-67.480469-67.3125s30.273438-67.3125 67.480469-67.3125c37.210938 0 67.480469 30.195313 67.480469 67.3125s-30.273438 67.3125-67.480469 67.3125zm0 0" fill="#ffdecf"/><path d="m256 100.453125c37.207031 0 67.480469 30.195313 67.480469 67.3125 0 37.113281-30.269531 67.3125-67.480469 67.3125zm0 0" fill="#ffbeaa"/></svg>