<svg height="512pt" viewBox="-22 0 512 512" width="512pt" xmlns="http://www.w3.org/2000/svg"><path d="m213.839844 153.382812c-18.332032 0-35.074219-9.34375-44.78125-24.988281-9.804688-15.800781-10.722656-35.183593-2.464844-51.851562l33.808594-68.203125c2.53125-5.109375 7.738281-8.339844 13.4375-8.339844 5.699218 0 10.910156 3.230469 13.441406 8.339844l33.804688 68.203125c8.261718 16.667969 7.339843 36.050781-2.464844 51.851562-9.707032 15.644531-26.445313 24.988281-44.78125 24.988281zm0 0" fill="#ffda45"/><path d="m213.839844 173.332031c-8.28125 0-15-6.714843-15-15v-20.292969c0-8.285156 6.71875-15 15-15 8.285156 0 15 6.714844 15 15v20.292969c0 8.285157-6.714844 15-15 15zm0 0" fill="#b27a49"/><path d="m280.003906 430.96875h-132.367187c-8.265625.230469-14.980469-6.484375-14.980469-14.769531v-240.566407c0-8.285156 6.714844-15 15-15h132.367188c8.285156 0 15 6.714844 15 15v240.566407c0 8.285156-6.714844 15-15.019532 14.769531zm0 0" fill="#ffde91"/><path d="m192.773438 259.488281c-8.285157 0-15-6.714843-15-15v-60.828125c0-8.28125 6.714843-15 15-15 8.28125 0 15 6.71875 15 15v60.828125c0 8.285157-6.71875 15-15 15zm0 0" fill="#e8ba64"/><path d="m192.773438 320.683594c-8.285157 0-15-6.71875-15-15v-20.277344c0-8.285156 6.714843-15 15-15 8.28125 0 15 6.714844 15 15v20.277344c0 8.28125-6.71875 15-15 15zm0 0" fill="#e8ba64"/><path d="m261.085938 76.542969-26.667969-53.804688v126.460938c9.84375-4.171875 18.320312-11.320313 24.207031-20.804688 9.800781-15.800781 10.722656-35.183593 2.460938-51.851562zm0 0" fill="#ffa426"/><path d="m280.023438 160.632812h-45.605469v270.335938h45.585937c8.304688.230469 15.019532-6.484375 15.019532-14.769531v-240.566407c0-8.285156-6.714844-15-15-15zm0 0" fill="#e8ba64"/><path d="m302.574219 512h-177.464844c-51.917969 0-94.15625-42.238281-94.15625-94.152344v-1.878906c0-8.285156 6.71875-15 15-15h335.773437c8.285157 0 15 6.714844 15 15v1.878906c0 51.914063-42.238281 94.152344-94.152343 94.152344zm0 0" fill="#06ccab"/><path d="m381.726562 400.96875h-147.308593v111.03125h68.15625c51.917969 0 94.152343-42.238281 94.152343-94.152344v-1.878906c0-8.285156-6.714843-15-15-15zm0 0" fill="#088a7a"/><path d="m412.683594 430.96875h-397.683594c-8.285156 0-15-6.714844-15-15 0-8.28125 6.714844-15 15-15h397.683594c8.285156 0 15 6.71875 15 15 0 8.285156-6.714844 15-15 15zm0 0" fill="#11a892"/><path d="m468.839844 374.835938c0-30.945313-25.171875-56.121094-56.113282-56.121094-30.9375 0-56.109374 25.175781-56.109374 56.121094 0 9.433593 2.351562 18.324218 6.476562 26.132812h-128.675781v30h178.265625c.128906 0 .253906-.015625.382812-.019531 30.78125-.179688 55.773438-25.277344 55.773438-56.113281zm-56.113282 26.125c-14.394531 0-26.109374-11.71875-26.109374-26.125 0-14.402344 11.714843-26.121094 26.109374-26.121094 14.398438 0 26.113282 11.71875 26.113282 26.121094 0 14.40625-11.714844 26.125-26.113282 26.125zm0 0" fill="#006357"/></svg>