<svg height="512pt" viewBox="0 -100 512 511" width="512pt" xmlns="http://www.w3.org/2000/svg"><path d="m178.039062 310.695312h-163.039062c-8.285156 0-15-6.714843-15-15v-200.265624c0-52.34375 43.300781-94.929688 96.519531-94.929688 50.359375 0 91.835938 38.132812 96.152344 86.578125 15.503906-4.769531 33.136719-1.140625 45.402344 10.886719 8.605469 8.4375 13.34375 19.675781 13.34375 31.644531 0 11.972656-4.738281 23.210937-13.34375 31.648437l-27.035157 26.503907c-11.605468 11.382812-18 26.492187-18 42.550781v65.382812c0 8.285157-6.714843 15-15 15zm0 0" fill="#f03049"/><path d="m238.074219 97.964844c-12.265625-12.027344-29.898438-15.65625-45.402344-10.886719-3.453125-38.730469-30.664063-70.851563-67.171875-82.179687v305.796874h52.539062c8.285157 0 15-6.714843 15-15v-65.382812c0-16.058594 6.394532-31.167969 18-42.550781l27.035157-26.503907c8.605469-8.4375 13.34375-19.675781 13.34375-31.648437 0-11.96875-4.738281-23.207031-13.34375-31.644531zm0 0" fill="#bd002f"/><path d="m46.460938 310.703125v-42.75c0-8.285156 6.71875-15 15-15 8.285156 0 15 6.714844 15 15v42.75zm0 0" fill="#ffb0b0"/><path d="m116.460938 310.703125v-42.75c0-8.285156 6.71875-15 15-15 8.285156 0 15 6.714844 15 15v42.75zm0 0" fill="#ffb0b0"/><path d="m318.960938 295.695312v-65.382812c0-16.058594-6.394532-31.167969-18-42.550781l-27.035157-26.503907c-8.605469-8.4375-13.34375-19.675781-13.34375-31.648437 0-11.96875 4.738281-23.207031 13.34375-31.644531 12.265625-12.027344 29.898438-15.65625 45.402344-10.886719 4.316406-48.445313 45.792969-86.578125 96.152344-86.578125 53.21875 0 96.519531 42.585938 96.519531 94.929688v200.265624c0 8.285157-6.714844 15-15 15h-163.039062c-8.285157 0-15-6.714843-15-15zm0 0" fill="#f03049"/><path d="m131.460938 252.953125c-2.117188 0-4.132813.445313-5.960938 1.238281v56.503906h-9.039062v.003907h30v-42.75c0-8.28125-6.714844-14.996094-15-14.996094zm0 0" fill="#ff636e"/><path d="m415.480469.5c-10.160157 0-19.945313 1.574219-29.148438 4.449219v305.746093h110.667969c8.285156 0 15-6.714843 15-15v-200.265624c0-52.34375-43.300781-94.929688-96.519531-94.929688zm0 0" fill="#bd002f"/><path d="m465.539062 310.703125v-42.75c0-8.285156-6.71875-15-15-15-8.285156 0-15 6.714844-15 15v42.75zm0 0" fill="#ff636e"/><path d="m395.539062 310.703125v-42.75c0-8.285156-6.71875-15-15-15-8.285156 0-15 6.714844-15 15v42.75zm0 0" fill="#ffb0b0"/><path d="m386.332031 254.113281v56.589844h9.207031v-42.75c0-6.230469-3.800781-11.570313-9.207031-13.839844zm0 0" fill="#ff636e"/></svg>