<svg height="512pt" viewBox="-42 0 512 512" width="512pt" xmlns="http://www.w3.org/2000/svg"><path d="m341.777344 382.441406h-289.277344c-28.949219 0-52.5-23.546875-52.5-52.496094v-16.519531c0-28.945312 23.550781-52.496093 52.5-52.496093h289.277344c28.949218 0 52.5 23.550781 52.5 52.496093v16.519531c0 28.949219-23.550782 52.496094-52.5 52.496094zm0 0" fill="#e3f7ff"/><path d="m341.777344 260.929688h-128.257813v121.511718h128.257813c28.949218 0 52.5-23.546875 52.5-52.496094v-16.519531c0-28.945312-23.550782-52.496093-52.5-52.496093zm0 0" fill="#8accf5"/><path d="m345.359375 408.121094c-26.894531 0-48.777344-21.898438-48.777344-48.816406v-68.449219h-249.269531c-8.28125 0-15-6.714844-15-15v-94.871094c0-99.796875 81.125-180.984375 180.835938-180.984375 99.714843 0 180.835937 81.1875 180.835937 180.980469v7.386719c.101563 1.296874.152344 2.578124.152344 3.824218v167.109375c0 26.921875-21.878907 48.820313-48.777344 48.820313zm0 0" fill="#f03049"/><path d="m393.984375 188.367188v-7.386719c0-99.667969-80.921875-180.777344-180.464844-180.97656275v290.85156275h83.0625v68.445312c0 26.921875 21.882813 48.820313 48.777344 48.820313s48.777344-21.898438 48.777344-48.820313v-167.109375c0-1.246094-.050781-2.527344-.152344-3.824218zm0 0" fill="#bd002f"/><path d="m326.457031 275.839844c0-.488282-.027343-.976563-.074219-1.460938-.023437-.226562-.0625-.441406-.097656-.664062-.035156-.261719-.066406-.527344-.117187-.789063-.050781-.25-.121094-.496093-.183594-.742187-.054687-.226563-.105469-.457032-.175781-.679688-.070313-.242187-.164063-.476562-.246094-.714844-.082031-.222656-.15625-.449218-.25-.671874-.089844-.21875-.199219-.429688-.296875-.644532-.109375-.230468-.210937-.460937-.332031-.6875-.109375-.203125-.234375-.398437-.351563-.597656-.132812-.222656-.257812-.445312-.402343-.660156-.144532-.21875-.308594-.421875-.464844-.632813-.136719-.179687-.261719-.367187-.40625-.546875-.300782-.367187-.621094-.71875-.957032-1.054687-.011718-.015625-.023437-.027344-.039062-.042969l-54.566406-54.566406c-5.859375-5.859375-15.355469-5.859375-21.214844 0-5.855469 5.859375-5.855469 15.355468 0 21.214844l50.175781 50.171874v104.929688c0 8.285156 6.714844 15 15 15 8.285157 0 15-6.714844 15-15v-111.140625c0-.007813 0-.011719 0-.019531zm0 0" fill="#8f0933"/><path d="m345.289062 512c-45.074218 0-81.746093-36.707031-81.746093-81.828125s36.671875-81.832031 81.746093-81.832031c45.074219 0 81.746094 36.710937 81.746094 81.832031s-36.671875 81.828125-81.746094 81.828125zm0 0" fill="#e3f7ff"/><path d="m345.289062 512v-163.660156c45.074219 0 81.746094 36.710937 81.746094 81.832031s-36.671875 81.828125-81.746094 81.828125zm0 0" fill="#8accf5"/></svg>