<svg height="512pt" viewBox="0 0 512 512" width="512pt" xmlns="http://www.w3.org/2000/svg"><path d="m196.148438 212.097656-65.089844-63.910156 57.238281-57.175781c5.859375-5.851563 5.867187-15.351563.011719-21.210938-5.855469-5.863281-15.351563-5.867187-21.214844-.011719l-57.445312 57.378907-12.21875-12v-100.167969c0-8.285156-6.714844-15-15-15-8.285157 0-15 6.714844-15 15v91.460938h-37.046876v-45.097657c0-8.285156-6.714843-15-15-15-8.28125 0-15 6.714844-15 15v60.097657c0 8.285156 6.71875 15 15 15h60.914063l98.832031 97.042968c2.921875 2.867188 6.714844 4.296875 10.507813 4.296875 3.886719 0 7.769531-1.5 10.707031-4.488281 5.804688-5.914062 5.714844-15.410156-.195312-21.214844zm0 0" fill="#915041"/><path d="m112.035156 308.019531h-35.035156c-42.457031 0-77-34.542969-77-77v-8.21875c0-8.28125 6.714844-15 15-15h97.035156c8.285156 0 15 6.71875 15 15v70.21875c0 8.285157-6.714844 15-15 15zm0 0" fill="#915041"/><path d="m496.957031 46.363281c-8.28125 0-15 6.714844-15 15v45.097657h-37.042969v-91.460938c0-8.285156-6.714843-15-15-15-8.28125 0-15 6.714844-15 15v100.167969l-12.222656 12-57.445312-57.378907c-5.859375-5.855468-15.355469-5.851562-21.210938.011719-5.855468 5.859375-5.847656 15.359375.011719 21.210938l57.238281 57.175781-65.089844 63.910156c-5.914062 5.804688-6 15.300782-.195312 21.214844 2.9375 2.988281 6.820312 4.488281 10.703125 4.488281 3.792969 0 7.589844-1.429687 10.507813-4.296875l98.835937-97.042968h60.910156c8.285157 0 15-6.714844 15-15v-60.097657c0-8.285156-6.714843-15-15-15zm0 0" fill="#61362b"/><path d="m435 308.101562h-35.035156c-8.285156 0-15-6.714843-15-15v-70.214843c0-8.285157 6.714844-15 15-15h97.035156c8.285156 0 15 6.714843 15 15v8.214843c0 42.460938-34.542969 77-77 77zm0 0" fill="#61362b"/><path d="m256.019531 512c-87.65625 0-158.96875-71.21875-158.96875-158.757812v-130.414063c0-8.285156 6.714844-15 15-15h287.941407c3.976562 0 7.792968 1.582031 10.605468 4.394531s4.394532 6.628906 4.394532 10.605469v130.414063c0 87.539062-71.3125 158.757812-158.972657 158.757812zm0 0" fill="#d6995c"/><path d="m410.597656 212.222656c-2.8125-2.816406-6.625-4.394531-10.605468-4.394531h-143.992188v304.171875h.023438c87.65625 0 158.96875-71.21875 158.96875-158.757812v-130.414063c0-3.980469-1.582032-7.792969-4.394532-10.605469zm0 0" fill="#b27a49"/><path d="m198.027344 321.910156c0-10.386718-8.429688-18.804687-18.828125-18.804687-10.398438 0-18.828125 8.417969-18.828125 18.804687 0 10.386719 8.429687 18.808594 18.828125 18.808594 10.398437 0 18.828125-8.421875 18.828125-18.808594zm0 0" fill="#915041"/><path d="m351.671875 321.910156c0-10.386718-8.429687-18.804687-18.828125-18.804687-10.402344 0-18.832031 8.417969-18.832031 18.804687 0 10.386719 8.429687 18.808594 18.832031 18.808594 10.398438 0 18.828125-8.421875 18.828125-18.808594zm0 0" fill="#61362b"/><path d="m256.019531 458.113281c-34.59375 0-61.695312-19.890625-61.695312-45.285156 0-25.390625 27.101562-45.28125 61.695312-45.28125 34.597657 0 61.699219 19.890625 61.699219 45.28125 0 25.394531-27.101562 45.285156-61.699219 45.285156zm0 0" fill="#f03049"/><path d="m256.019531 367.546875c-.015625 0-.035156 0-.054687 0v90.5625c.019531 0 .039062.003906.054687.003906 34.597657 0 61.699219-19.890625 61.699219-45.285156 0-25.390625-27.101562-45.28125-61.699219-45.28125zm0 0" fill="#bd002f"/></svg>