<svg height="512pt" viewBox="-57 0 511 512" width="512pt" xmlns="http://www.w3.org/2000/svg"><path d="m309.671875 279.980469-225.332031-.007813c-46.230469 0-83.839844-37.960937-83.839844-84.621094 0-30.613281 16.085938-58.257812 41.804688-73.242187-.140626-2.351563-.210938-4.710937-.210938-7.058594 0-63.4375 51.121094-115.050781 113.957031-115.050781 22.011719 0 43.375 6.351562 61.785157 18.367188 15.136718 9.875 27.675781 23.152343 36.6875 38.75 28.578124 1.496093 53.925781 19.296874 65.472656 45.328124 43.8125 5.175782 77.921875 42.875 77.921875 88.464844 0 23.773438-9.167969 46.128906-25.8125 62.949219-16.671875 16.84375-38.84375 26.121094-62.433594 26.121094zm0 0" fill="#e3f7ff"/><path d="m370.496094 377.828125h-7.121094v-7.152344c0-8.320312-6.71875-15.066406-15-15.066406-8.285156 0-15 6.746094-15 15.066406v7.152344h-7.125c-8.285156 0-15 6.746094-15 15.066406 0 8.320313 6.714844 15.0625 15 15.0625h7.125v7.15625c0 8.320313 6.714844 15.0625 15 15.0625 8.28125 0 15-6.746093 15-15.0625v-7.15625h7.121094c8.285156 0 15-6.746093 15-15.0625 0-8.320312-6.714844-15.066406-15-15.066406zm0 0" fill="#8accf5"/><path d="m192.035156 368.503906-16.988281-9.8125 16.988281-9.8125c7.183594-4.148437 9.65625-13.355468 5.527344-20.570312-4.128906-7.210938-13.300781-9.695313-20.480469-5.546875l-17.125 9.890625v-19.84375c0-8.320313-6.71875-15.066406-15-15.066406-8.285156 0-15 6.746093-15 15.066406v19.839844l-17.117187-9.886719c-7.183594-4.148438-16.355469-1.664063-20.484375 5.546875-4.128907 7.214844-1.65625 16.421875 5.527343 20.570312l16.988282 9.8125-16.988282 9.8125c-7.183593 4.148438-9.65625 13.355469-5.527343 20.566406 2.777343 4.847657 7.824219 7.558594 13.019531 7.558594 2.535156 0 5.105469-.648437 7.464844-2.007812l17.117187-9.886719v19.820313c0 8.320312 6.714844 15.066406 15 15.066406 8.28125 0 15-6.746094 15-15.066406v-19.824219l17.125 9.890625c2.355469 1.359375 4.925781 2.007812 7.464844 2.007812 5.191406 0 10.242187-2.710937 13.015625-7.558594 4.128906-7.210937 1.65625-16.421874-5.527344-20.566406zm0 0" fill="#e3f7ff"/><path d="m249.007812 429.421875c0-10.386719-8.398437-18.808594-18.753906-18.808594-10.355468 0-18.75 8.421875-18.75 18.808594s8.394532 18.808594 18.75 18.808594c10.355469 0 18.753906-8.421875 18.753906-18.808594zm0 0" fill="#8accf5"/><path d="m331.503906 493.191406c0-10.390625-8.398437-18.8125-18.753906-18.8125s-18.75 8.421875-18.75 18.8125c0 10.386719 8.394531 18.808594 18.75 18.808594s18.753906-8.421875 18.753906-18.808594zm0 0" fill="#8accf5"/><path d="m53.421875 386.214844c0-10.386719-8.394531-18.808594-18.75-18.808594s-18.75 8.421875-18.75 18.808594c0 10.386718 8.394531 18.808594 18.75 18.808594s18.75-8.421876 18.75-18.808594zm0 0" fill="#e3f7ff"/><path d="m145.511719 468.585938c0-10.386719-8.394531-18.808594-18.75-18.808594-10.359375 0-18.753907 8.421875-18.753907 18.808594 0 10.390624 8.394532 18.8125 18.753907 18.8125 10.355469 0 18.75-8.421876 18.75-18.8125zm0 0" fill="#e3f7ff"/><g fill="#8accf5"><path d="m300.910156 327.46875c0-10.390625-8.394531-18.8125-18.75-18.8125-10.355468 0-18.753906 8.421875-18.753906 18.8125 0 10.386719 8.398438 18.808594 18.753906 18.808594 10.355469 0 18.75-8.421875 18.75-18.808594zm0 0"/><path d="m319.996094 102.445312c-11.546875-26.03125-36.894532-43.832031-65.472656-45.324218-9.011719-15.601563-21.550782-28.878906-36.6875-38.753906-5.925782-3.871094-12.164063-7.140626-18.625-9.8125v271.421874l110.460937.003907c23.589844 0 45.761719-9.277344 62.433594-26.121094 16.644531-16.820313 25.8125-39.175781 25.8125-62.949219 0-45.589844-34.109375-83.289062-77.921875-88.464844zm0 0"/></g></svg>