<svg height="512pt" viewBox="-150 0 512 512" width="512pt" xmlns="http://www.w3.org/2000/svg"><path d="m105.527344 512c-58.1875 0-105.527344-47.738281-105.527344-106.421875 0-35.726563 17.777344-68.863281 46.941406-88.511719v-260.035156c0-31.445312 25.398438-57.03125 56.621094-57.03125h3.933594c31.222656 0 56.621094 25.582031 56.621094 57.03125v260.035156c29.164062 19.648438 46.941406 52.789063 46.941406 88.511719 0 58.683594-47.339844 106.421875-105.53125 106.421875zm0 0" fill="#e3f7ff"/><path d="m105.527344 512v-512h1.96875c31.222656 0 56.621094 25.582031 56.621094 57.03125v260.035156c29.164062 19.648438 46.941406 52.789063 46.941406 88.511719 0 58.683594-47.339844 106.421875-105.53125 106.421875zm0 0" fill="#8accf5"/><path d="m120.527344 353.382812v-104.921874c0-8.285157-6.714844-15-15-15-8.28125 0-15 6.714843-15 15v104.921874c-22.496094 6.5625-38.996094 27.484376-38.996094 52.230469 0 29.984375 24.222656 54.382813 53.996094 54.382813 29.777344 0 54-24.398438 54-54.382813 0-24.746093-16.5-45.667969-39-52.230469zm0 0" fill="#f03049"/><path d="m46.945312 174.59375h54.5c8.28125 0 15-6.714844 15-15s-6.71875-15-15-15h-54.5zm0 0" fill="#8accf5"/><path d="m46.941406 125.113281h54.585938c8.285156 0 15-6.71875 15-15 0-8.285156-6.714844-15-15-15h-54.585938zm0 0" fill="#8accf5"/><path d="m120.527344 353.382812v-104.921874c0-8.285157-6.714844-15-15-15v226.535156c29.777344 0 54-24.398438 54-54.382813 0-24.746093-16.5-45.667969-39-52.230469zm0 0" fill="#bd002f"/></svg>