<svg height="512pt" viewBox="-1 0 512 512" width="512pt" xmlns="http://www.w3.org/2000/svg"><path d="m370.773438 180.625h-55.882813c-8.285156 0-15-6.714844-15-15v-71.296875c0-8.28125 6.714844-15 15-15h55.882813c8.285156 0 15 6.71875 15 15v71.296875c0 8.285156-6.714844 15-15 15zm0 0" fill="#784132"/><path d="m398.800781 108.996094h-111.769531c-8.285156 0-15-6.71875-15-15 0-8.285156 6.714844-15 15-15h111.769531c8.28125 0 15 6.714844 15 15 0 8.28125-6.71875 15-15 15zm0 0" fill="#8accf5"/><path d="m391.753906 325.554688h-197.746094c-8.285156 0-15-6.714844-15-15v-144.910157c0-8.285156 6.714844-15 15-15h197.746094c30.28125 0 54.917969 24.746094 54.917969 55.167969v64.578125c0 30.417969-24.636719 55.164063-54.917969 55.164063zm0 0" fill="#06ccab"/><path d="m193.867188 325.644531h-178.390626c-8.285156 0-15-6.714843-15-15v-228.96875c0-8.285156 6.714844-15 15-15h178.390626c8.285156 0 15 6.714844 15 15v228.96875c0 8.285157-6.714844 15-15 15zm0 0" fill="#f03049"/><path d="m194.621094 96.675781h-179.144532c-8.285156 0-15-6.714843-15-15v-33.476562c0-26.578125 21.621094-48.199219 48.199219-48.199219h145.945313c26.578125 0 48.199218 21.621094 48.199218 48.199219v.277343c0 26.578126-21.621093 48.199219-48.199218 48.199219zm0 0" fill="#e3f7ff"/><path d="m139.707031 222.332031h-71.273437c-8.285156 0-15-6.714843-15-15v-71.71875c0-8.285156 6.714844-15 15-15h71.273437c8.285157 0 15 6.714844 15 15v71.71875c0 8.285157-6.714843 15-15 15zm0 0" fill="#ffda45"/><path d="m391.753906 150.644531h-136.421875l-.332031 174.910157h136.753906c30.28125 0 54.917969-24.75 54.917969-55.167969v-64.578125c0-30.417969-24.636719-55.164063-54.917969-55.164063zm0 0" fill="#088a7a"/><path d="m478.632812 441.371094h-463.15625c-8.285156 0-15-6.71875-15-15v-115.726563c0-8.285156 6.714844-15 15-15h431.222657c6.75 0 12.664062 4.503907 14.460937 11.007813l31.933594 115.730468c1.246094 4.511719.3125 9.347657-2.523438 13.074219-2.839843 3.726563-7.253906 5.914063-11.9375 5.914063zm0 0" fill="#edc472"/><path d="m493.09375 422.378906-31.933594-115.726562c-1.796875-6.503906-7.714844-11.007813-14.460937-11.007813h-191.699219v145.726563h223.632812c4.683594 0 9.097657-2.1875 11.933594-5.914063 2.835938-3.726562 3.773438-8.5625 2.527344-13.078125zm0 0" fill="#cc9f56"/><path d="m79.863281 512c-44.035156 0-79.863281-36.007812-79.863281-80.269531s35.828125-80.273438 79.863281-80.273438c44.039063 0 79.867188 36.011719 79.867188 80.273438s-35.828125 80.269531-79.867188 80.269531zm0 0" fill="#f03049"/><path d="m99.824219 431.730469c0-11.09375-8.9375-20.085938-19.960938-20.085938-11.019531 0-19.957031 8.992188-19.957031 20.085938 0 11.089843 8.9375 20.082031 19.957031 20.082031 11.023438 0 19.960938-8.992188 19.960938-20.082031zm0 0" fill="#915041"/><path d="m430.136719 512c-44.039063 0-79.867188-36.007812-79.867188-80.269531s35.828125-80.273438 79.867188-80.273438c44.035156 0 79.863281 36.011719 79.863281 80.273438s-35.828125 80.269531-79.863281 80.269531zm0 0" fill="#bd002f"/><path d="m450.09375 431.730469c0-11.09375-8.9375-20.085938-19.957031-20.085938-11.023438 0-19.960938 8.992188-19.960938 20.085938 0 11.089843 8.9375 20.082031 19.960938 20.082031 11.019531 0 19.957031-8.992188 19.957031-20.082031zm0 0" fill="#61362b"/><path d="m255 512c-44.039062 0-79.863281-36.007812-79.863281-80.269531s35.824219-80.273438 79.863281-80.273438 79.863281 36.011719 79.863281 80.273438-35.824219 80.269531-79.863281 80.269531zm0 0" fill="#f03049"/><path d="m255 351.457031c44.039062 0 79.863281 36.011719 79.863281 80.273438s-35.824219 80.269531-79.863281 80.269531zm0 0" fill="#bd002f"/><path d="m296.871094 238.097656c0-11.089844-8.933594-20.082031-19.957032-20.082031-11.023437 0-19.957031 8.992187-19.957031 20.082031 0 11.09375 8.933594 20.085938 19.957031 20.085938 11.023438 0 19.957032-8.992188 19.957032-20.085938zm0 0" fill="#ffa426"/><path d="m368.722656 238.097656c0-11.089844-8.9375-20.082031-19.957031-20.082031-11.023437 0-19.960937 8.992187-19.960937 20.082031 0 11.09375 8.9375 20.085938 19.960937 20.085938 11.019531 0 19.957031-8.992188 19.957031-20.085938zm0 0" fill="#ffa426"/><path d="m274.957031 431.730469c0-11.09375-8.933593-20.085938-19.957031-20.085938s-19.957031 8.992188-19.957031 20.085938c0 11.089843 8.933593 20.082031 19.957031 20.082031s19.957031-8.992188 19.957031-20.082031zm0 0" fill="#915041"/><path d="m255 451.8125c11.023438 0 19.957031-8.992188 19.957031-20.082031 0-11.09375-8.933593-20.085938-19.957031-20.085938zm0 0" fill="#61362b"/></svg>