<svg height="512pt" viewBox="-1 0 512 512.00005" width="512pt" xmlns="http://www.w3.org/2000/svg"><path d="m260.53125 123.941406c-1.292969 0-2.574219-.007812-3.871094-.019531-92.632812-.945313-182-35.652344-251.640625-97.722656-6.183593-5.511719-6.730469-14.996094-1.214843-21.179688 5.511718-6.183593 14.992187-6.726562 21.175781-1.214843 64.222656 57.242187 146.609375 89.246093 231.984375 90.121093 1.1875.011719 2.375.015625 3.558594.015625 85.761718 0 165.171874-31.738281 223.957031-89.589844 5.902343-5.8125 15.398437-5.734374 21.210937.167969 5.8125 5.90625 5.734375 15.402344-.167968 21.210938-64.4375 63.417969-151.3125 98.210937-244.992188 98.210937zm0 0" fill="#915041"/><path d="m255 512c-8.285156 0-15-6.714844-15-15v-19.011719c0-8.285156 6.714844-15 15-15s15 6.714844 15 15v19.011719c0 8.285156-6.714844 15-15 15zm0 0" fill="#ffda45"/><path d="m335.566406 490.65625c-5.417968 0-10.644531-2.941406-13.316406-8.078125l-8.710938-16.742187c-3.824218-7.347657-.96875-16.40625 6.382813-20.230469s16.40625-.964844 20.230469 6.382812l8.707031 16.742188c3.824219 7.351562.96875 16.40625-6.382813 20.230469-2.210937 1.152343-4.578124 1.695312-6.910156 1.695312zm0 0" fill="#ffa426"/><path d="m393.539062 434.847656c-2.816406 0-5.660156-.789062-8.191406-2.445312l-15.53125-10.148438c-6.9375-4.53125-8.886718-13.828125-4.351562-20.761718 4.527344-6.9375 13.824218-8.882813 20.761718-4.351563l15.53125 10.148437c6.933594 4.53125 8.882813 13.828126 4.351563 20.761719-2.878906 4.402344-7.675781 6.796875-12.570313 6.796875zm0 0" fill="#ffa426"/><path d="m174.433594 490.65625c-2.332032 0-4.699219-.542969-6.910156-1.695312-7.347657-3.824219-10.207032-12.878907-6.382813-20.230469l8.710937-16.742188c3.820313-7.347656 12.878907-10.207031 20.226563-6.382812 7.351563 3.824219 10.207031 12.882812 6.386719 20.230469l-8.710938 16.742187c-2.671875 5.136719-7.902344 8.078125-13.320312 8.078125zm0 0" fill="#ffda45"/><path d="m116.464844 434.847656c-4.898438 0-9.695313-2.394531-12.570313-6.796875-4.535156-6.933593-2.585937-16.230469 4.351563-20.761719l15.53125-10.148437c6.929687-4.53125 16.226562-2.585937 20.761718 4.351563 4.53125 6.933593 2.582032 16.230468-4.351562 20.761718l-15.53125 10.148438c-2.53125 1.65625-5.378906 2.445312-8.191406 2.445312zm0 0" fill="#ffda45"/><path d="m505.691406 4.519531c-5.8125-5.90625-15.308594-5.984375-21.210937-.167969-58.785157 57.851563-138.195313 89.589844-223.957031 89.589844-1.183594 0-2.371094-.007812-3.558594-.019531-.65625-.003906-1.308594-.03125-1.964844-.039063v30.003907c.554688.007812 1.105469.03125 1.660156.035156 1.292969.015625 2.578125.019531 3.871094.019531 93.679688 0 180.554688-34.792968 244.988281-98.207031 5.90625-5.8125 5.984375-15.308594.171875-21.214844zm0 0" fill="#61362b"/><path d="m280.34375 194.445312h-50.6875c-8.28125 0-15-6.714843-15-15v-65.992187c0-22.722656 18.101562-41.203125 40.34375-41.203125s40.34375 18.480469 40.34375 41.203125v65.992187c0 8.285157-6.71875 15-15 15zm0 0" fill="#f03049"/><path d="m255 72.25v122.195312h25.34375c8.28125 0 15-6.714843 15-15v-65.992187c0-22.722656-18.097656-41.203125-40.34375-41.203125zm0 0" fill="#bd002f"/><path d="m255 512c8.285156 0 15-6.714844 15-15v-19.011719c0-8.285156-6.714844-15-15-15zm0 0" fill="#ffa426"/><path d="m254.539062 425.269531c-22.742187 0-39.074218-18.359375-48.769531-33.757812-14.34375-22.789063-25.578125-56.363281-30.820312-92.113281-2.546875-17.363282-7.066407-60.664063 5.867187-87.640626 14.039063-29.277343 42.488282-47.464843 74.25-47.464843 31.757813 0 60.207032 18.1875 74.246094 47.464843 12.894531 26.886719 8.207031 70.050782 5.589844 87.359376-5.363282 35.535156-16.699219 69.035156-31.101563 91.910156-9.832031 15.621094-26.359375 34.242187-49.261719 34.242187zm0 0" fill="#06ccab"/><path d="m329.3125 211.757812c-14.035156-29.277343-42.488281-47.464843-74.246094-47.464843-.023437 0-.042968 0-.066406 0v260.964843c22.660156-.25 39.035156-18.714843 48.804688-34.230468 14.398437-22.875 25.734374-56.375 31.101562-91.910156 2.613281-17.308594 7.300781-60.472657-5.59375-87.359376zm0 0" fill="#088a7a"/></svg>