<svg height="512pt" viewBox="-73 0 512 512" width="512pt" xmlns="http://www.w3.org/2000/svg"><path d="m245.851562 146.039062c-8.28125 0-15-6.71875-15-15v-55.066406c0-25.777344-21.011718-45.972656-47.835937-45.972656-26.375 0-47.835937 21.523438-47.835937 47.976562v53.0625c0 8.28125-6.714844 15-15 15-8.28125 0-15-6.71875-15-15v-53.0625c0-42.996093 34.917968-77.976562 77.835937-77.976562 43.648437 0 77.835937 33.371094 77.835937 75.972656v55.066406c0 8.28125-6.714843 15-15 15zm0 0" fill="#d6995c"/><path d="m183.015625 0v30c26.824219 0 47.835937 20.195312 47.835937 45.972656v55.066406c0 8.28125 6.71875 15 15 15 8.285157 0 15-6.71875 15-15v-55.066406c0-42.601562-34.1875-75.972656-77.835937-75.972656zm0 0" fill="#b27a49"/><path d="m351.035156 512h-336.035156c-8.285156 0-15-6.714844-15-15v-363.855469c0-8.28125 6.714844-15 15-15h336.03125c8.285156 0 15 6.71875 15 15v363.855469c.003906 8.285156-6.714844 15-14.996094 15zm0 0" fill="#915041"/><path d="m183.015625 443.828125c-8.28125 0-15-6.714844-15-15v-48.105469c0-8.285156 6.71875-15 15-15 8.285156 0 15 6.714844 15 15v48.105469c0 8.285156-6.714844 15-15 15zm0 0"/><path d="m351.035156 118.144531h-168.019531v393.855469h168.019531c8.28125 0 15-6.714844 15-15v-363.855469c0-8.28125-6.71875-15-15-15zm0 0" fill="#61362b"/><path d="m183.015625 443.828125c-8.28125 0-15-6.714844-15-15v-48.105469c0-8.285156 6.71875-15 15-15 8.285156 0 15 6.714844 15 15v48.105469c0 8.285156-6.714844 15-15 15zm0 0" fill="#d6995c"/><path d="m183.015625 365.722656c8.285156 0 15 6.714844 15 15v48.105469c0 8.285156-6.714844 15-15 15zm0 0" fill="#b27a49"/><path d="m265.1875 395.441406h-164.339844c-5.601562 0-10.734375-3.121094-13.3125-8.089844-2.582031-4.972656-2.175781-10.964843 1.050782-15.546874l31.851562-45.234376c-5.335938-.234374-10.167969-3.300781-12.644531-8.074218-2.578125-4.972656-2.175781-10.96875 1.050781-15.546875l25.0625-35.59375c-1.203125-1.140625-2.230469-2.484375-3.019531-4.003907-2.578125-4.972656-2.175781-10.964843 1.050781-15.546874l38.816406-55.121094c2.808594-3.992188 7.386719-6.367188 12.265625-6.367188 4.878907 0 9.453125 2.375 12.265625 6.367188l38.816406 55.121094c3.222657 4.582031 3.628907 10.574218 1.050782 15.546874-.789063 1.519532-1.816406 2.867188-3.023438 4.003907l25.066406 35.59375c3.226563 4.578125 3.628907 10.574219 1.050782 15.546875-2.476563 4.769531-7.308594 7.839844-12.644532 8.074218l31.851563 45.234376c3.226563 4.582031 3.628906 10.574218 1.050781 15.546874-2.582031 4.96875-7.71875 8.089844-13.316406 8.089844zm0 0" fill="#06ccab"/><path d="m183.015625 395.441406h82.171875c5.597656 0 10.734375-3.121094 13.3125-8.089844 2.578125-4.972656 2.175781-10.964843-1.050781-15.546874l-31.851563-45.234376c5.335938-.234374 10.167969-3.300781 12.644532-8.074218 2.578124-4.972656 2.175781-10.96875-1.050782-15.546875l-25.066406-35.59375c1.207031-1.140625 2.234375-2.484375 3.023438-4.003907 2.578124-4.972656 2.171874-10.964843-1.050782-15.546874l-38.816406-55.121094c-2.8125-3.992188-7.386719-6.367188-12.265625-6.367188z" fill="#088a7a"/></svg>