<svg height="512pt" viewBox="0 -41 512 512" width="512pt" xmlns="http://www.w3.org/2000/svg"><g fill="#088a7a"><path d="m497 264.089844h-52.894531c-8.285157 0-15-6.714844-15-15s6.714843-15 15-15h52.894531c8.285156 0 15 6.714844 15 15s-6.714844 15-15 15zm0 0"/><path d="m497 316.089844h-52.894531c-8.285157 0-15-6.714844-15-15s6.714843-15 15-15h52.894531c8.285156 0 15 6.714844 15 15s-6.714844 15-15 15zm0 0"/><path d="m497 368.089844h-52.894531c-8.285157 0-15-6.714844-15-15s6.714843-15 15-15h52.894531c8.285156 0 15 6.714844 15 15s-6.714844 15-15 15zm0 0"/><path d="m497 420.089844h-52.894531c-8.285157 0-15-6.714844-15-15s6.714843-15 15-15h52.894531c8.285156 0 15 6.714844 15 15s-6.714844 15-15 15zm0 0"/></g><path d="m67.894531 40.757812h-52.894531c-8.285156 0-15-6.71875-15-15 0-8.285156 6.714844-15 15-15h52.894531c8.285157 0 15 6.714844 15 15 0 8.28125-6.714843 15-15 15zm0 0" fill="#06ccab"/><path d="m67.894531 92.757812h-52.894531c-8.285156 0-15-6.71875-15-15 0-8.285156 6.714844-15 15-15h52.894531c8.285157 0 15 6.714844 15 15 0 8.28125-6.714843 15-15 15zm0 0" fill="#06ccab"/><path d="m67.894531 144.757812h-52.894531c-8.285156 0-15-6.71875-15-15 0-8.285156 6.714844-15 15-15h52.894531c8.285157 0 15 6.714844 15 15 0 8.28125-6.714843 15-15 15zm0 0" fill="#06ccab"/><path d="m67.894531 196.757812h-52.894531c-8.285156 0-15-6.71875-15-15 0-8.285156 6.714844-15 15-15h52.894531c8.285157 0 15 6.714844 15 15 0 8.28125-6.714843 15-15 15zm0 0" fill="#06ccab"/><path d="m443.855469 221.835938h-83.0625v-167.570313h-.132813v.003906.011719c-.191406-14.445312-6.089844-28.03125-16.683594-38.324219-10.589843-10.289062-24.472656-15.957031-39.085937-15.957031h-236.773437c-8.28125 0-15 6.714844-15 15v178.5c0 8.285156 6.71875 15 15 15h113.175781v13.335938l.003906 152.957031c0 15.753906 5.929687 29.621093 16.699219 40.085937 10.59375 10.289063 24.472656 15.957032 39.089844 15.957032h206.769531c8.285156 0 15-6.71875 15-15v-179c0-8.285157-6.714844-15-15-15zm0 0" fill="#f03049"/><path d="m443.855469 221.835938h-187.855469v209h187.855469c8.285156 0 15-6.71875 15-15v-179c0-8.285157-6.714844-15-15-15zm0 0" fill="#bd002f"/><path d="m384.539062 425.132812c3.355469-2.65625 5.410157-6.625 5.65625-10.894531.246094-4.273437-1.347656-8.449219-4.375-11.476562-.398437-.398438-.820312-.777344-1.261718-1.128907l-39.839844-31.714843 39.398438-31.222657c3.675781-2.914062 5.777343-7.425781 5.679687-12.113281-.089844-4.460937-2.164063-8.648437-5.652344-11.425781l-39.84375-31.71875 39.402344-31.222656c3.585937-2.84375 5.679687-7.164063 5.683594-11.742188.003906-4.574218-2.078125-8.902344-5.65625-11.75l-8.570313-6.886718h-48.171875l23.28125 18.597656-38.839843 30.777344c-3.984376 2.855468-6.375 7.535156-6.269532 12.535156.101563 4.875 2.558594 9.34375 6.496094 12.050781l39.058594 31.09375-38.871094 30.800781c-3.984375 2.855469-6.371094 7.535156-6.269531 12.53125.101562 4.878906 2.558593 9.34375 6.5 12.054688l39.03125 31.074218-22.0625 17.484376h48.300781zm0 0" fill="#ffa426"/><path d="m360.660156 54.265625c.003906.246094.019532.492187.019532.738281v.234375c-.113282 21.351563-12.628907 40.8125-31.96875 49.714844l-132.355469 65.582031c-.148438.074219-.300781.144532-.453125.214844-8.886719 4.035156-14.605469 12.992188-14.605469 22.8125l-.003906 14.941406v13.328125h179.5v-167.566406zm0 0" fill="#8f0933"/><path d="m343.980469 15.964844c-10.59375-10.292969-24.472657-15.9570315-39.089844-15.9570315h-48.917969v140.9882815l72.738282-36.042969c19.339843-8.902344 31.851562-28.363281 31.964843-49.710937.003907-.078126.003907-.15625.003907-.234376 0-14.714843-5.933594-28.582031-16.699219-39.042968zm0 0" fill="#bd002f"/><path d="m360.660156 54.265625c.003906.25.019532.492187.019532.742187 0 .078126 0 .15625-.003907.234376-.113281 21.351562-12.625 40.808593-31.964843 49.710937l-72.738282 36.042969v80.839844h104.820313v-167.570313zm0 0" fill="#700029"/><path d="m207.285156 137.316406c-.398437-.398437-.820312-.777344-1.261718-1.128906l-39.839844-31.714844 39.398437-31.226562c3.675781-2.910156 5.777344-7.421875 5.679688-12.109375-.089844-4.460938-2.164063-8.648438-5.652344-11.425781l-39.84375-31.71875 22.652344-17.9531255h-48.300781l-7.222657 5.7265625c-3.984375 2.851563-6.375 7.53125-6.269531 12.53125.101562 4.878906 2.558594 9.34375 6.496094 12.054687l39.058594 31.089844-38.871094 30.800782c-3.984375 2.855468-6.371094 7.535156-6.269532 12.535156.101563 4.875 2.558594 9.34375 6.5 12.050781l39.03125 31.074219-38.839843 30.78125c-3.984375 2.851562-6.375 7.53125-6.269531 12.53125.101562 4.878906 2.558593 9.34375 6.5 12.054687l6.570312 5.230469h40.757812v-5.898438l-14.6875-11.691406 39.402344-31.222656c3.355469-2.65625 5.410156-6.625 5.65625-10.894531.246094-4.273438-1.347656-8.449219-4.375-11.476563zm0 0" fill="#ffda45"/></svg>