<svg height="512pt" viewBox="0 0 511 512" width="512pt" xmlns="http://www.w3.org/2000/svg"><path d="m311.042969 269.695312c-7.253907 0-13.632813-5.273437-14.800781-12.664062-1.289063-8.183594 4.292968-15.863281 12.480468-17.15625 9.652344-1.523438 18.4375-4.414062 25.90625-8.394531-8.269531-8.699219-14.988281-18.9375-19.574218-30.277344-5.519532-13.644531-6.476563-26.074219-2.84375-36.945313 5.566406-16.652343 22.824218-27.0625 38.484374-23.191406 14.191407 3.5 25.800782 13.414063 32.695313 27.914063 7.992187 16.800781 8.203125 37.300781.554687 53.5-.804687 1.707031-1.6875 3.378906-2.636718 5.019531 5.191406 2.027344 10.617187 3.390625 16.136718 3.980469 23.597657 2.527343 48.464844-9.125 61.878907-29 13.40625-19.867188 17.3125-47.769531 11.941406-85.300781-1.171875-8.203126 4.523437-15.800782 12.722656-16.976563 8.207031-1.171875 15.800781 4.523437 16.976563 12.726563 6.472656 45.230468.984375 80.015624-16.773438 106.332031-17.90625 26.527343-48.574218 42.570312-80.121094 42.570312-3.269531 0-6.542968-.171875-9.820312-.523437-12.039062-1.289063-23.632812-4.949219-34.195312-10.539063-12.707032 9.347657-28.730469 15.90625-46.65625 18.738281-.789063.125-1.578126.1875-2.355469.1875zm32.738281-99.433593c-.824219.265625-2.507812 1.6875-3.117188 3.507812-1.285156 3.847657-.523437 9.445313 2.203126 16.1875 3.105468 7.6875 7.746093 14.703125 13.460937 20.707031.167969-.328124.332031-.660156.488281-.992187 3.84375-8.144531 3.640625-19.058594-.519531-27.808594-1.691406-3.554687-5.550781-9.746093-12.515625-11.601562zm0 0" fill="#ffda45"/><path d="m403.71875 318.6875c0-10.417969-8.351562-18.863281-18.65625-18.863281s-18.65625 8.445312-18.65625 18.863281c0 10.421875 8.351562 18.867188 18.65625 18.867188s18.65625-8.445313 18.65625-18.867188zm0 0" fill="#088a7a"/><path d="m431.578125 115.222656c0-10.417968-8.351563-18.867187-18.65625-18.867187-10.300781 0-18.65625 8.449219-18.65625 18.867187 0 10.417969 8.355469 18.863282 18.65625 18.863282 10.304687 0 18.65625-8.445313 18.65625-18.863282zm0 0" fill="#06ccab"/><path d="m469.136719 85.398438c-23.355469 0-42.359375-19.15625-42.359375-42.699219 0-23.546875 19.003906-42.699219 42.359375-42.699219 23.359375 0 42.363281 19.15625 42.363281 42.699219 0 23.546875-19.003906 42.699219-42.363281 42.699219zm0-55.398438c-6.816407 0-12.359375 5.695312-12.359375 12.699219 0 7.003906 5.542968 12.699219 12.359375 12.699219 6.816406 0 12.363281-5.695313 12.363281-12.699219 0-7-5.546875-12.699219-12.363281-12.699219zm0 0" fill="#ffbc36"/><path d="m270.394531 179.6875c0-10.417969-8.355469-18.867188-18.65625-18.867188-10.304687 0-18.65625 8.449219-18.65625 18.867188s8.351563 18.863281 18.65625 18.863281c10.300781 0 18.65625-8.445312 18.65625-18.863281zm0 0" fill="#06ccab"/><path d="m367.609375 40.296875c0-10.417969-8.351563-18.863281-18.65625-18.863281s-18.65625 8.445312-18.65625 18.863281 8.351563 18.863281 18.65625 18.863281 18.65625-8.445312 18.65625-18.863281zm0 0" fill="#06ccab"/><path d="m288.839844 72.269531h-7.015625v-7.285156c0-8.285156-6.714844-15-15-15-8.28125 0-15 6.714844-15 15v7.285156h-7.011719c-8.285156 0-15 6.714844-15 15 0 8.285157 6.714844 15 15 15h7.011719v7.285157c0 8.285156 6.71875 15 15 15 8.285156 0 15-6.714844 15-15v-7.285157h7.015625c8.28125 0 15-6.714843 15-15 0-8.285156-6.71875-15-15-15zm0 0" fill="#8accf5"/><path d="m40.558594 510.230469c-3.378906 1.203125-6.777344 1.769531-10.175782 1.769531-8.089843 0-15.882812-3.316406-21.71875-9.546875-8.28125-8.847656-10.445312-21.257813-5.648437-32.386719l135.285156-313.640625c2.015625-4.671875 6.257813-8 11.273438-8.851562 5.011719-.84375 10.117187.902343 13.554687 4.652343l202.191406 220.4375c3.402344 3.707032 4.71875 8.871094 3.503907 13.753907-1.210938 4.882812-4.792969 8.832031-9.53125 10.515625zm0 0" fill="#f03049"/><path d="m315.066406 201.195312c4.585938 11.335938 11.300782 21.574219 19.570313 30.273438-7.464844 3.976562-16.25 6.867188-25.902344 8.394531-8.183594 1.289063-13.769531 8.972657-12.476563 17.152344 1.167969 7.390625 7.542969 12.664063 14.796876 12.664063.777343 0 1.566406-.0625 2.355468-.1875 17.925782-2.832032 33.945313-9.390626 46.652344-18.734376 10.5625 5.589844 22.152344 9.25 34.195312 10.539063 3.277344.351563 6.550782.523437 9.820313.523437 31.542969-.003906 62.210937-16.042968 80.113281-42.570312 17.761719-26.316406 23.246094-61.09375 16.773438-106.328125-1.175782-8.199219-8.769532-13.894531-16.972656-12.722656-8.203126 1.175781-13.898438 8.773437-12.722657 16.976562 5.371094 37.527344 1.464844 65.425781-11.941406 85.292969-13.414063 19.875-38.277344 31.527344-61.875 29-5.519531-.589844-10.945313-1.953125-16.136719-3.980469.949219-1.640625 1.828125-3.3125 2.636719-5.019531 7.648437-16.199219 7.433594-36.695312-.554687-53.496094-4.375-9.203125-10.652344-16.546875-18.28125-21.589844l-51.09375 51.09375c.328124.898438.671874 1.804688 1.042968 2.71875zm25.609375-27.4375c.605469-1.820312 2.289063-3.238281 3.113281-3.503906 6.964844 1.851563 10.828126 8.042969 12.515626 11.601563 4.160156 8.746093 4.363281 19.660156.519531 27.800781-.15625.335938-.316407.664062-.484375.992188-5.714844-6-10.355469-13.019532-13.464844-20.703126-2.726562-6.742187-3.488281-12.339843-2.199219-16.1875zm0 0" fill="#ffa426"/><path d="m511.5 42.695312c0-11.539062-4.574219-22.019531-11.984375-29.714843l-21.214844 21.21875c1.980469 2.253906 3.203125 5.230469 3.203125 8.496093 0 7.003907-5.546875 12.699219-12.363281 12.699219-3.300781 0-6.296875-1.34375-8.519531-3.515625l-21.203125 21.203125c7.652343 7.605469 18.152343 12.3125 29.722656 12.3125 23.355469 0 42.359375-19.152343 42.359375-42.699219zm0 0" fill="#fe8205"/><path d="m412.921875 134.089844c10.304687 0 18.65625-8.449219 18.65625-18.867188 0-9.398437-6.800781-17.167968-15.695313-18.605468l-21.390624 21.390624c1.335937 9.09375 9.066406 16.082032 18.429687 16.082032zm0 0" fill="#088a7a"/><path d="m257.445312 255.054688-248.09375 248.09375c5.75 5.777343 13.253907 8.851562 21.03125 8.851562 3.398438 0 6.796876-.566406 10.175782-1.769531l318.734375-113.292969c4.738281-1.6875 8.320312-5.636719 9.53125-10.519531 1.214843-4.882813-.101563-10.046875-3.5-13.753907zm0 0" fill="#bd002f"/><path d="m366.164062 410.609375c-4.054687.003906-8.097656-1.628906-11.058593-4.851563l-226.304688-246.421874c-5.601562-6.101563-5.199219-15.589844.902344-21.195313 6.101563-5.601563 15.589844-5.199219 21.195313.902344l226.300781 246.421875c5.605469 6.101562 5.199219 15.589844-.898438 21.191406-2.878906 2.644531-6.511719 3.949219-10.136719 3.953125zm0 0" fill="#ffda45"/><path d="m257.433594 255.050781-21.21875 21.246094 118.890625 129.460937c2.960937 3.222657 7.003906 4.855469 11.058593 4.851563 3.625 0 7.257813-1.308594 10.136719-3.953125 6.101563-5.601562 6.503907-15.089844.898438-21.191406zm0 0" fill="#ffa426"/><path d="m69.699219 315.46875 66.996093 160.589844 100.347657-35.667969-108.765625-260.722656zm0 0" fill="#06ccab"/><path d="m107.183594 405.316406 29.511718 70.742188 100.347657-35.667969-48.550781-116.382813zm0 0" fill="#088a7a"/></svg>