<svg height="512pt" viewBox="-53 0 512 512" width="512pt" xmlns="http://www.w3.org/2000/svg"><path d="m203.273438 66.703125c-8.285157 0-15-6.71875-15-15v-36.703125c0-8.285156 6.714843-15 15-15 8.285156 0 15 6.714844 15 15v36.703125c0 8.28125-6.714844 15-15 15zm0 0" fill="#915041"/><path d="m203.273438 66.703125c8.285156 0 15-6.71875 15-15v-36.703125c0-8.285156-6.714844-15-15-15zm0 0" fill="#61362b"/><path d="m203.273438 512c-1.542969 0-3.082032-.238281-4.570313-.714844-52.476563-16.785156-96.761719-45.972656-126.550781-82.179687-27.140625-32.988281-41.488282-71.832031-41.488282-112.335938v-33.203125c0-8.28125 6.71875-15 15-15h317.253907c8.28125 0 15 6.71875 15 15v33.203125c0 39.957031-14.617188 78.675781-42.265625 111.96875-30.121094 36.261719-76.128906 65.566407-127.695313 82.511719-1.519531.5-3.101562.75-4.683593.75zm0 0" fill="#9e6f46"/><path d="m405.453125 260.429688c-3.617187-18.695313-10.847656-35.59375-21.511719-49.09375-3.03125-97.117188-82.941406-174.59375-180.667968-174.632813v319.898437c3.871093-.003906 7.738281-1.488281 10.667968-4.460937l52.835938-52.015625 54.109375 52.273438c2.894531 2.792968 6.65625 4.210937 10.425781 4.210937 3.316406 0 6.648438-1.09375 9.402344-3.3125l43.402344-34.988281c17.371093-13.976563 25.546874-36.121094 21.335937-57.878906zm0 0" fill="#b27a49"/><path d="m203.273438 36.703125v213.144531c3.90625.023438 7.8125-1.460937 10.765624-4.457031l51.285157-52.023437 54.109375 52.28125c2.894531 2.796874 6.652344 4.214843 10.425781 4.210937 3.3125 0 6.640625-1.09375 9.394531-3.308594l44.675782-35.449219c-3.148438-97.007812-83.007813-174.359374-180.65625-174.398437zm0 0" fill="#b27a49"/><path d="m362.917969 268.566406h-159.644531v243.433594c1.582031 0 3.164062-.25 4.683593-.75 51.566407-16.945312 97.574219-46.25 127.695313-82.515625 27.648437-33.289063 42.265625-72.007813 42.265625-111.964844v-33.203125c0-8.285156-6.71875-15-15-15zm0 0" fill="#7d5837"/><path d="m331.3125 356.613281c-3.769531 0-7.53125-1.417969-10.421875-4.214843l-54.113281-52.273438-52.835938 52.019531c-5.773437 5.855469-15.1875 5.96875-21.101562.257813l-52.558594-52.277344-51.285156 52.019531c-5.320313 5.394531-13.832032 5.972657-19.835938 1.351563l-45.738281-35.183594c-17.992187-13.867188-26.566406-36.339844-22.375-58.5625 3.589844-19.019531 10.800781-34.863281 21.457031-48.414062 1.734375-45.972657 20.546875-89.5625 53.324219-122.117188 34.097656-33.867188 79.328125-52.519531 127.371094-52.519531 97.761719 0 177.714843 77.492187 180.742187 174.636719 10.667969 13.5 17.894532 30.398437 21.511719 49.09375 4.210937 21.757812-3.964844 43.902343-21.335937 57.878906l-43.402344 34.988281c-2.753906 2.21875-6.082032 3.316406-9.402344 3.316406zm0 0" fill="#b27a49"/><path d="m405.453125 260.429688c-3.617187-18.695313-10.847656-35.59375-21.511719-49.09375-3.03125-97.117188-82.941406-174.59375-180.667968-174.632813v319.898437c3.871093-.003906 7.738281-1.488281 10.667968-4.460937l52.835938-52.015625 54.109375 52.273438c2.894531 2.792968 6.65625 4.210937 10.425781 4.210937 3.316406 0 6.648438-1.09375 9.402344-3.3125l43.402344-34.988281c17.371093-13.976563 25.546874-36.121094 21.335937-57.878906zm0 0" fill="#9e6f46"/><path d="m87.539062 245.390625 51.285157-52.011719 54.113281 52.269532c5.914062 5.714843 15.328125 5.601562 21.101562-.257813l51.285157-52.019531 54.109375 52.277344c2.894531 2.796874 6.652344 4.214843 10.425781 4.214843 3.3125 0 6.640625-1.097656 9.394531-3.3125l44.675782-35.449219c-3.152344-97.03125-83.050782-174.398437-180.734376-174.398437-48.039062 0-93.273437 18.648437-127.367187 52.515625-32.777344 32.554688-51.589844 76.148438-53.324219 122.117188-.035156.046874-.070312.097656-.109375.144531l45.300781 35.257812c6.007813 4.628907 14.523438 4.050781 19.84375-1.347656zm0 0" fill="#d6995c"/><path d="m203.273438 36.703125v213.144531c3.90625.023438 7.8125-1.460937 10.765624-4.457031l51.285157-52.023437 54.109375 52.28125c2.894531 2.796874 6.652344 4.214843 10.425781 4.210937 3.3125 0 6.640625-1.09375 9.394531-3.308594l44.675782-35.449219c-3.148438-97.007812-83.007813-174.359374-180.65625-174.398437zm0 0" fill="#b27a49"/></svg>