<svg height="512pt" viewBox="-1 0 512 512" width="512pt" xmlns="http://www.w3.org/2000/svg"><path d="m119.175781 512c-.285156 0-.570312-.007812-.859375-.023438-7.25-.414062-13.164062-5.960937-14.039062-13.171874l-17.1875-141.6875-63.199219 46.492187c-5.074219 3.730469-11.929687 3.898437-17.179687.417969-5.246094-3.476563-7.761719-9.863282-6.300782-15.984375 11.664063-48.855469 32.3125-93.453125 61.371094-132.546875 27.28125-36.695313 61.222656-67.636719 100.886719-91.957032 84.320312-51.699218 186.5-68.433593 280.410156-45.925781.132813.03125.265625.0625.398437.097657.207032.046874.40625.101562.609376.160156h.003906c7.847656 2.242187 12.460937 10.347656 10.382812 18.238281-2.074218 7.894531-10.082031 12.675781-18.015625 10.769531-.097656-.023437-.199219-.050781-.292969-.070312-39.671874-9.484375-78.535156-2.792969-115.519531 19.886718-79.804687 48.933594-147.925781 170.59375-186.886719 333.789063-1.617187 6.78125-7.683593 11.515625-14.582031 11.515625zm0 0" fill="#ffbc36"/><path d="m327.289062 246.269531h-7.125v-7.214843c0-8.285157-6.714843-15-15-15-8.28125 0-15 6.714843-15 15v7.214843h-7.121093c-8.285157 0-15 6.714844-15 15 0 8.285157 6.714843 15 15 15h7.121093v7.214844c0 8.285156 6.71875 15 15 15 8.285157 0 15-6.714844 15-15v-7.214844h7.125c8.285157 0 15-6.714843 15-15 0-8.285156-6.714843-15-15-15zm0 0" fill="#8accf5"/><path d="m168.125 71.421875h-7.125v-7.21875c0-8.28125-6.714844-15-15-15s-15 6.71875-15 15v7.21875h-7.125c-8.28125 0-15 6.714844-15 15 0 8.28125 6.71875 15 15 15h7.125v7.214844c0 8.285156 6.714844 15 15 15s15-6.714844 15-15v-7.214844h7.125c8.28125 0 15-6.71875 15-15 0-8.285156-6.714844-15-15-15zm0 0" fill="#e3f7ff"/><path d="m262.65625 46.128906c0-10.417968-8.351562-18.863281-18.65625-18.863281s-18.65625 8.445313-18.65625 18.863281c0 10.417969 8.351562 18.863282 18.65625 18.863282s18.65625-8.445313 18.65625-18.863282zm0 0" fill="#e3f7ff"/><path d="m274.65625 357.421875c0-10.417969-8.351562-18.867187-18.65625-18.867187s-18.65625 8.449218-18.65625 18.867187 8.351562 18.863281 18.65625 18.863281 18.65625-8.445312 18.65625-18.863281zm0 0" fill="#8accf5"/><path d="m407.3125 300.398438c0-10.421876-8.351562-18.867188-18.65625-18.867188-10.300781 0-18.65625 8.445312-18.65625 18.867188 0 10.417968 8.355469 18.863281 18.65625 18.863281 10.304688 0 18.65625-8.445313 18.65625-18.863281zm0 0" fill="#8accf5"/><path d="m87.089844 357.117188 17.1875 141.6875c.875 7.210937 6.789062 12.757812 14.039062 13.171874.289063.015626.574219.023438.859375.023438 6.902344 0 12.964844-4.734375 14.582031-11.515625 38.964844-163.195313 107.082032-284.855469 186.886719-333.792969 36.984375-22.675781 75.847657-29.367187 115.523438-19.886718.09375.023437.195312.046874.289062.070312 7.933594 1.910156 15.941407-2.871094 18.019531-10.765625.070313-.273437.117188-.542969.171876-.816406-267.027344-60.160157-367.558594 221.824219-367.558594 221.824219zm0 0" fill="#ffa426"/><path d="m459.511719 207.511719c-2.398438 0-4.800781-.574219-7.003907-1.738281l-50.417968-26.621094-50.414063 26.621094c-5.050781 2.667968-11.179687 2.234374-15.808593-1.117188-4.625-3.351562-6.945313-9.039062-5.984376-14.671875l9.644532-56.476563-40.839844-39.988281c-4.074219-3.988281-5.535156-9.941406-3.769531-15.363281 1.769531-5.421875 6.457031-9.371094 12.097656-10.195312l56.382813-8.230469 25.230468-51.34375c2.523438-5.132813 7.746094-8.386719 13.464844-8.386719s10.9375 3.253906 13.460938 8.386719l25.226562 51.34375 56.386719 8.230469c5.640625.824218 10.328125 4.773437 12.09375 10.195312s.308593 11.375-3.765625 15.363281l-40.839844 39.988281 9.644531 56.476563c.960938 5.632813-1.359375 11.320313-5.984375 14.671875-2.613281 1.894531-5.703125 2.855469-8.804687 2.855469zm0 0" fill="#ffda45"/><path d="m402.09375 0c5.71875 0 10.9375 3.253906 13.460938 8.386719l25.226562 51.34375 56.386719 8.230469c5.640625.824218 10.328125 4.773437 12.09375 10.195312s.308593 11.375-3.765625 15.363281l-40.839844 39.988281 9.644531 56.476563c.960938 5.632813-1.359375 11.320313-5.984375 14.671875-2.609375 1.894531-5.699218 2.855469-8.804687 2.855469-2.394531 0-4.800781-.574219-7.003907-1.738281l-50.414062-26.621094zm0 0" fill="#ffbc36"/></svg>