<svg height="512pt" viewBox="-55 0 512 512.0016" width="512pt" xmlns="http://www.w3.org/2000/svg"><path d="m103.699219 512c-8.542969 0-17.011719-2.023438-24.820313-6.023438-26.539062-13.597656-37.425781-46.089843-24.726562-73l54.5-185.238281h-53.652344c-30.328125 0-55-24.816406-55-55.320312 0-30.503907 24.671875-55.324219 55-55.324219h66.957031c-7.765625-13.632812-11.957031-29.21875-11.957031-45.480469 0-50.515625 40.824219-91.613281 91-91.613281 50.179688 0 91 41.097656 91 91.613281 0 16.261719-4.1875 31.847657-11.957031 45.484375h66.957031c30.328125 0 55 24.816406 55 55.320313 0 30.507812-24.671875 55.324219-55 55.324219h-53.648438l54.5 185.234374c12.695313 26.910157 1.808594 59.40625-24.730468 73.003907-13.035156 6.675781-27.917969 7.84375-41.902344 3.285156-14.058594-4.582031-25.464844-14.367187-32.113281-27.554687l-45.457031-90.152344c-.5625-1.113282-1.453126-1.675782-2.648438-1.675782s-2.085938.5625-2.644531 1.671876l-45.457031 90.152343c-6.652344 13.1875-18.054688 22.976563-32.113282 27.558594-5.609375 1.828125-11.367187 2.734375-17.085937 2.734375zm0 0" fill="#d6995c"/><path d="m103.003906 511.980469c.234375 0 .464844.019531.695313.019531.34375 0 .6875-.015625 1.03125-.019531zm0 0" fill="#b27a49"/><path d="m402 192.417969c0-30.503907-24.671875-55.320313-55-55.320313h-66.957031c7.769531-13.636718 11.957031-29.222656 11.957031-45.484375 0-50.515625-40.820312-91.613281-91-91.613281v389.882812c1.195312 0 2.085938.5625 2.648438 1.671876l45.457031 90.152343c6.648437 13.1875 18.054687 22.976563 32.113281 27.558594 13.984375 4.554687 28.867188 3.390625 41.902344-3.289063 26.539062-13.597656 37.425781-46.089843 24.730468-73l-54.5-185.238281h53.648438c30.328125 0 55-24.816406 55-55.320312zm0 0" fill="#b27a49"/><path d="m219.65625 215.816406c0-10.460937-8.351562-18.9375-18.65625-18.9375-10.300781 0-18.65625 8.476563-18.65625 18.9375 0 10.460938 8.355469 18.941406 18.65625 18.941406 10.304688 0 18.65625-8.480468 18.65625-18.941406zm0 0" fill="#06ccab"/><path d="m219.65625 282.136719c0-10.460938-8.351562-18.941407-18.65625-18.941407-10.300781 0-18.65625 8.480469-18.65625 18.941407 0 10.457031 8.355469 18.9375 18.65625 18.9375 10.304688 0 18.65625-8.480469 18.65625-18.9375zm0 0" fill="#06ccab"/><path d="m201 127.574219c-12.039062 0-23.351562-4.722657-31.863281-13.300781-5.832031-5.882813-5.792969-15.378907.085937-21.214844 5.882813-5.832032 15.378906-5.796875 21.214844.085937 2.832031 2.855469 6.582031 4.429688 10.5625 4.429688s7.730469-1.574219 10.5625-4.429688c5.835938-5.882812 15.332031-5.917969 21.214844-.085937 5.878906 5.835937 5.917968 15.332031.085937 21.214844-8.507812 8.574218-19.824219 13.300781-31.863281 13.300781zm0 0" fill="#f03049"/><path d="m232.777344 93.058594c-5.882813-5.832032-15.378906-5.792969-21.210938.085937-2.828125 2.851563-6.574218 4.421875-10.542968 4.425781v30c12.027343-.003906 23.335937-4.726562 31.839843-13.300781 5.835938-5.878906 5.796875-15.375-.085937-21.210937zm0 0" fill="#bd002f"/><path d="m201 196.878906c10.304688 0 18.65625 8.480469 18.65625 18.9375 0 10.460938-8.351562 18.941406-18.65625 18.941406zm0 0" fill="#088a7a"/><path d="m201 263.195312c10.304688 0 18.65625 8.480469 18.65625 18.941407 0 10.457031-8.351562 18.9375-18.65625 18.9375zm0 0" fill="#088a7a"/><path d="m54.152344 432.976562c-12.699219 26.910157-1.8125 59.402344 24.726562 73 7.808594 4 16.277344 6.023438 24.820313 6.023438 5.71875 0 11.476562-.90625 17.085937-2.738281 14.058594-4.582031 25.460938-14.367188 32.109375-27.554688l12.859375-25.503906-105.082031-45.398437zm0 0" fill="#915041"/><path d="m55 247.738281c-30.328125 0-55-24.816406-55-55.320312 0-30.503907 24.671875-55.324219 55-55.324219zm0 0" fill="#915041"/><g fill="#61362b"><path d="m249.105469 481.707031c6.648437 13.1875 18.054687 22.976563 32.113281 27.558594 13.984375 4.554687 28.867188 3.390625 41.902344-3.289063 26.539062-13.597656 37.425781-46.089843 24.730468-73l-6.523437-22.167968-105.082031 45.398437zm0 0"/><path d="m347 247.738281c30.328125 0 55-24.816406 55-55.320312 0-30.503907-24.671875-55.324219-55-55.324219zm0 0"/></g></svg>