<svg height="511pt" viewBox="-60 0 511 511.99973" width="511pt" xmlns="http://www.w3.org/2000/svg"><path d="m338.324219 415.527344c-28.949219 0-52.503907-23.554688-52.503907-52.503906v-114.925782c0-28.953125 23.554688-52.503906 52.503907-52.503906s52.503906 23.550781 52.503906 52.503906v114.925782c0 28.949218-23.554687 52.503906-52.503906 52.503906zm0-189.933594c-12.410157 0-22.503907 10.09375-22.503907 22.503906v114.925782c0 12.40625 10.09375 22.5 22.503907 22.5 12.410156 0 22.503906-10.09375 22.503906-22.5v-114.925782c0-12.410156-10.097656-22.503906-22.503906-22.503906zm0 0" fill="#915041"/><path d="m230.527344 512h-145.027344c-46.871094 0-85-38.132812-85-85v-282.734375c0-8.28125 6.714844-15 15-15h285.027344c8.285156 0 15 6.71875 15 15v282.734375c0 46.867188-38.128906 85-85 85zm0 0" fill="#f2d1a5"/><path d="m242.71875 394.273438h-164.339844c-5.597656 0-10.730468-3.121094-13.3125-8.089844-2.578125-4.96875-2.175781-10.964844 1.046875-15.542969l31.867188-45.285156c-5.339844-.230469-10.179688-3.296875-12.65625-8.074219-2.582031-4.96875-2.175781-10.960938 1.046875-15.542969l25.074218-35.632812c-1.207031-1.136719-2.238281-2.484375-3.027343-4.003907-2.578125-4.96875-2.175781-10.964843 1.046875-15.542968l38.816406-55.160156c2.808594-3.992188 7.386719-6.367188 12.265625-6.367188 4.882813 0 9.460937 2.375 12.269531 6.367188l38.816406 55.160156c3.222657 4.578125 3.625 10.574218 1.046876 15.542968-.792969 1.519532-1.820313 2.867188-3.027344 4.003907l25.074218 35.632812c3.222657 4.582031 3.625 10.574219 1.046876 15.542969-2.480469 4.777344-7.316407 7.84375-12.65625 8.074219l31.867187 45.285156c3.222656 4.578125 3.625 10.574219 1.046875 15.542969s-7.710938 8.089844-13.3125 8.089844zm0 0" fill="#06ccab"/><path d="m160.550781 442.691406c-8.285156 0-15-6.71875-15-15v-48.140625c0-8.285156 6.714844-15 15-15 8.28125 0 15 6.714844 15 15v48.140625c0 8.285156-6.71875 15-15 15zm0 0" fill="#d6995c"/><path d="m300.527344 129.265625h-104.785156v382.734375h34.789062c46.867188 0 84.996094-38.132812 84.996094-85v-282.734375c0-8.28125-6.714844-15-15-15zm0 0" fill="#e3a76f"/><path d="m242.71875 394.273438h-164.339844c-5.597656 0-10.730468-3.121094-13.3125-8.089844-2.578125-4.96875-2.175781-10.964844 1.046875-15.542969l31.867188-45.285156c-5.339844-.230469-10.179688-3.296875-12.65625-8.074219-2.582031-4.96875-2.175781-10.960938 1.046875-15.542969l25.074218-35.632812c-1.207031-1.136719-2.238281-2.484375-3.027343-4.003907-2.578125-4.96875-2.175781-10.964843 1.046875-15.542968l38.816406-55.160156c2.808594-3.992188 7.386719-6.367188 12.265625-6.367188 4.882813 0 9.460937 2.375 12.269531 6.367188l38.816406 55.160156c3.222657 4.578125 3.625 10.574218 1.046876 15.542968-.792969 1.519532-1.820313 2.867188-3.027344 4.003907l25.074218 35.632812c3.222657 4.582031 3.625 10.574219 1.046876 15.542969-2.480469 4.777344-7.316407 7.84375-12.65625 8.074219l31.867187 45.285156c3.222656 4.578125 3.625 10.574219 1.046875 15.542969s-7.710938 8.089844-13.3125 8.089844zm0 0" fill="#06ccab"/><path d="m254.984375 370.640625-31.867187-45.285156c5.34375-.230469 10.179687-3.300781 12.660156-8.074219 2.578125-4.96875 2.175781-10.964844-1.046875-15.542969l-25.074219-35.632812c1.207031-1.136719 2.234375-2.484375 3.023438-4.003907 2.582031-4.972656 2.175781-10.964843-1.046876-15.542968l-15.96875-22.695313v170.410157h47.054688c5.601562 0 10.734375-3.121094 13.3125-8.089844 2.582031-4.972656 2.175781-10.964844-1.046875-15.542969zm0 0" fill="#088a7a"/><path d="m80.246094 106.050781c-3.589844 0-7.195313-1.28125-10.0625-3.882812-6.140625-5.558594-6.609375-15.046875-1.050782-21.1875l3.261719-3.597657c4.117188-4.546874 4.117188-11.398437 0-15.945312-13.890625-15.335938-14.402343-38.914062-1.191406-54.84375l.96875-1.171875c5.289063-6.375 14.746094-7.257813 21.121094-1.964844 6.375 5.289063 7.257812 14.746094 1.96875 21.121094l-.96875 1.167969c-3.746094 4.515625-3.601563 11.203125.335937 15.554687 14.515625 16.023438 14.515625 40.195313 0 56.222657l-3.257812 3.597656c-2.960938 3.269531-7.035156 4.929687-11.125 4.929687zm0 0" fill="#ffa426"/><path d="m154.1875 106.050781c-3.589844 0-7.191406-1.28125-10.0625-3.882812-6.140625-5.558594-6.609375-15.046875-1.050781-21.1875l3.261719-3.597657c4.117187-4.546874 4.117187-11.398437 0-15.945312-13.890626-15.335938-14.402344-38.914062-1.191407-54.84375l.96875-1.171875c5.289063-6.375 14.746094-7.257813 21.121094-1.964844 6.375 5.289063 7.257813 14.746094 1.96875 21.121094l-.96875 1.167969c-3.746094 4.515625-3.601563 11.203125.339844 15.554687 14.511719 16.023438 14.511719 40.195313 0 56.222657l-3.261719 3.597656c-2.960938 3.269531-7.035156 4.929687-11.125 4.929687zm0 0" fill="#ffa426"/><path d="m228.128906 106.050781c-3.589844 0-7.191406-1.28125-10.0625-3.882812-6.140625-5.558594-6.609375-15.042969-1.050781-21.183594l3.261719-3.601563c4.117187-4.546874 4.117187-11.398437 0-15.945312-13.890625-15.335938-14.402344-38.914062-1.191406-54.847656l.964843-1.164063c5.289063-6.378906 14.746094-7.261719 21.121094-1.972656 6.378906 5.289063 7.261719 14.746094 1.972656 21.121094l-.964843 1.167969c-3.75 4.519531-3.605469 11.207031.332031 15.558593 14.515625 16.023438 14.515625 40.195313 0 56.222657l-3.257813 3.597656c-2.960937 3.269531-7.035156 4.929687-11.125 4.929687zm0 0" fill="#fe8205"/></svg>