<svg height="512pt" viewBox="-33 0 512 512" width="512pt" xmlns="http://www.w3.org/2000/svg"><path d="m222.878906 512c-103.394531 0-187.515625-82.648438-187.515625-184.234375 0-49.4375 20.394531-109.296875 53.222657-156.21875 17.488281-25 37.265624-44.976563 58.773437-59.371094 24.378906-16.3125 49.789063-24.585937 75.519531-24.585937 25.734375 0 51.140625 8.273437 75.519532 24.585937 21.507812 14.394531 41.285156 34.371094 58.777343 59.371094 32.828125 46.921875 53.222657 106.78125 53.222657 156.21875-.003907 101.585937-84.121094 184.234375-187.519532 184.234375zm0 0" fill="#ffdecf"/><path d="m222.917969 87.589844c25.730469 0 51.101562 8.273437 75.480469 24.585937 21.507812 14.394531 41.285156 34.371094 58.777343 59.371094 32.828125 46.921875 53.21875 106.78125 53.21875 156.21875 0 101.585937-84.082031 184.234375-187.476562 184.234375zm0 0" fill="#ffbeaa"/><path d="m222.917969 512c-103.398438 0-187.519531-82.648438-187.519531-184.234375 0-20.925781 3.480468-43.398437 10.335937-66.792969 1.867187-6.371094 7.734375-10.75 14.398437-10.75h30.195313c8.273437 0 14.988281 6.675782 15 14.914063.035156 27.226562 13.238281 55.121093 36.222656 76.527343 22.976563 21.398438 52.632813 33.671876 81.363281 33.671876 28.71875 0 58.339844-12.269532 81.265626-33.660157 22.933593-21.402343 36.105468-49.296875 36.144531-76.539062.011719-8.238281 6.722656-14.914063 15-14.914063h30.375c6.667969 0 12.53125 4.378906 14.398437 10.75 6.859375 23.394532 10.335938 45.867188 10.335938 66.792969 0 101.585937-84.121094 184.234375-187.515625 184.234375zm0 0" fill="#e3f7ff"/><path d="m400.101562 260.972656c-1.871093-6.371094-7.734374-10.75-14.402343-10.75h-30.375c-8.277344 0-14.988281 6.675782-15 14.914063-.035157 27.242187-13.210938 55.136719-36.144531 76.539062-22.925782 21.390625-52.542969 33.660157-81.261719 33.660157v136.664062c103.394531 0 187.515625-82.648438 187.515625-184.234375 0-20.925781-3.476563-43.402344-10.332032-66.792969zm0 0" fill="#8accf5"/><path d="m222.917969 397.484375c-.003907 0 0 0-.003907 0-17.890624-.003906-32.445312-14.371094-32.445312-32.035156.003906-17.664063 14.558594-32.03125 32.449219-32.03125s32.445312 14.371093 32.445312 32.03125v.003906c0 17.660156-14.558593 32.03125-32.445312 32.03125zm19.0625-32.035156h.007812zm0 0" fill="#ffbeaa"/><path d="m222.917969 333.417969c17.890625 0 32.445312 14.371093 32.445312 32.03125 0 17.664062-14.558593 32.03125-32.445312 32.03125zm0 0" fill="#faa68e"/><path d="m222.917969 444.902344c-8.421875 0-16.847657-1.640625-24.859375-4.917969-7.664063-3.136719-11.324219-11.863281-8.175782-19.492187 3.144532-7.628907 11.910157-11.273438 19.574219-8.140626 8.679688 3.550782 18.238281 3.550782 26.921875 0 7.664063-3.132812 16.425782.511719 19.574219 8.140626 3.144531 7.628906-.515625 16.355468-8.175781 19.492187-8.015625 3.277344-16.4375 4.917969-24.859375 4.917969zm0 0" fill="#f03049"/><path d="m255.953125 420.492188c-3.148437-7.628907-11.910156-11.273438-19.574219-8.140626-4.355468 1.78125-8.925781 2.667969-13.5 2.664063v29.882813c.011719 0 .023438.003906.039063.003906 8.421875 0 16.84375-1.640625 24.859375-4.917969 7.660156-3.136719 11.324218-11.863281 8.175781-19.492187zm0 0" fill="#bd002f"/><path d="m386.75 280.03125h-327.664062c-32.582032 0-59.085938-26.390625-59.085938-58.832031v-.363281c0-32.441407 26.503906-58.832032 59.085938-58.832032h327.664062c32.578125 0 59.085938 26.390625 59.085938 58.832032v.363281c0 32.441406-26.507813 58.832031-59.085938 58.832031zm0 0" fill="#cdebfc"/><path d="m386.75 162.003906h-163.832031v118.027344h163.832031c32.578125 0 59.085938-26.390625 59.085938-58.832031v-.363281c0-32.441407-26.507813-58.832032-59.085938-58.832032zm0 0" fill="#8bc8e8"/><path d="m345.28125 295.730469c-25.519531 0-46.28125-20.429688-46.28125-45.542969v-60.585938h-229.730469c-8.28125 0-15-6.6875-15-14.933593v-9.515625c0-91.066406 75.625-165.152344 168.574219-165.152344 92.953125 0 168.574219 74.085938 168.574219 165.152344v6.621094c.097656 1.199218.144531 2.378906.144531 3.523437v74.890625c0 25.113281-20.761719 45.542969-46.28125 45.542969zm0 0" fill="#f03049"/><path d="m391.417969 171.773438v-6.621094c0-91.042969-75.582031-165.1132815-168.5-165.152344v189.601562h76.082031v60.585938c0 25.113281 20.761719 45.542969 46.28125 45.542969s46.28125-20.429688 46.28125-45.542969v-74.890625c0-1.144531-.046875-2.324219-.144531-3.523437zm0 0" fill="#bd002f"/><path d="m294.234375 178.933594-45.351563-44.246094c-5.917968-5.773438-15.414062-5.679688-21.210937.214844-2.859375 2.902344-4.285156 6.675781-4.289063 10.445312 0 3.875 1.503907 7.75 4.503907 10.675782l34.417969 33.578124h36.433593c0-3.871093-1.503906-7.742187-4.503906-10.667968zm0 0" fill="#8f0933"/><path d="m188.402344 310.765625c0-10.300781-8.394532-18.648437-18.75-18.648437-10.355469 0-18.753906 8.347656-18.753906 18.648437s8.398437 18.648437 18.753906 18.648437c10.355468 0 18.75-8.347656 18.75-18.648437zm0 0" fill="#915041"/><path d="m294.933594 310.765625c0-10.300781-8.394532-18.648437-18.75-18.648437-10.355469 0-18.75 8.347656-18.75 18.648437s8.394531 18.648437 18.75 18.648437c10.355468 0 18.75-8.347656 18.75-18.648437zm0 0" fill="#61362b"/><path d="m346.859375 321.527344c-31.691406 0-57.476563-25.8125-57.476563-57.535156 0-31.726563 25.785157-57.539063 57.476563-57.539063 31.695313 0 57.480469 25.8125 57.480469 57.539063 0 31.722656-25.785156 57.535156-57.480469 57.535156zm0 0" fill="#e3f7ff"/><path d="m346.859375 321.527344v-115.074219c31.695313 0 57.480469 25.8125 57.480469 57.539063 0 31.722656-25.785156 57.535156-57.480469 57.535156zm0 0" fill="#cdebfc"/></svg>