<svg height="512pt" viewBox="0 -38 512 511" width="512pt" xmlns="http://www.w3.org/2000/svg"><path d="m309.097656 64.070312 40.898438-37.515624c4.558594-4.183594 6.082031-10.730469 3.839844-16.496094-2.242188-5.761719-7.792969-9.558594-13.980469-9.558594h-127.941407c-6.183593 0-11.734374 3.796875-13.976562 9.558594-2.246094 5.765625-.71875 12.3125 3.835938 16.496094l40.902343 37.515624c-56.195312 16.375-97.777343 73.277344-97.777343 140.769532 0 71.503906 48.292968 112.511718 132.492187 112.511718 37.886719 0 68.246094-8.3125 90.230469-24.699218 26.042968-19.417969 39.25-48.960938 39.25-87.8125 0-67.492188-41.578125-124.394532-97.773438-140.769532zm0 0" fill="#d6995c"/><path d="m497 405.546875h-82.371094v-69.488281c0-8.285156-6.714844-15-15-15s-15 6.714844-15 15v69.488281h-155.398437v-69.488281c0-8.285156-6.714844-15-15-15-8.285157 0-15 6.714844-15 15v69.488281h-111.414063c-31.878906 0-57.816406-25.800781-57.816406-57.511719 0-31.714844 25.9375-57.515625 57.816406-57.515625 8.285156 0 15-6.714843 15-15 0-8.285156-6.714844-15-15-15-48.421875 0-87.816406 39.257813-87.816406 87.515625 0 48.253906 39.394531 87.511719 87.816406 87.511719h409.183594c8.285156 0 15-6.714844 15-15 0-8.28125-6.714844-15-15-15zm0 0" fill="#ffde91"/><path d="m497 405.546875h-82.371094v-69.488281c0-8.285156-6.714844-15-15-15s-15 6.714844-15 15v69.488281h-128.128906v30h240.5c8.285156 0 15-6.714844 15-15 0-8.28125-6.714844-15-15-15zm0 0" fill="#e8ba64"/><path d="m309.097656 64.070312 40.898438-37.515624c4.558594-4.183594 6.082031-10.730469 3.839844-16.496094-2.242188-5.761719-7.792969-9.558594-13.980469-9.558594h-83.355469v315.941406c6.695312.597656 13.65625.910156 20.894531.910156 37.886719 0 68.242188-8.3125 90.226563-24.699218 26.046875-19.417969 39.253906-48.960938 39.253906-87.8125-.003906-67.492188-41.582031-124.394532-97.777344-140.769532zm0 0" fill="#b27a49"/><path d="m453.835938 350.894531h-294.332032c-6.648437 0-12.503906-4.375-14.386718-10.75l-41.894532-141.863281c-1.339844-4.535156-.460937-9.4375 2.367188-13.226562 2.832031-3.789063 7.285156-6.023438 12.015625-6.023438h87.988281c6.78125 0 12.722656 4.554688 14.484375 11.105469l13.769531 51.222656h44.476563c1.855469-17.402344 6.945312-34.363281 15.203125-50.601563 10.480468-20.589843 25.539062-38.992187 44.769531-54.691406 40.214844-32.832031 96.128906-50.914062 157.4375-50.914062 4.4375 0 8.648437 1.964844 11.496094 5.367187 2.851562 3.402344 4.046875 7.890625 3.273437 12.257813l-41.898437 235.742187c-1.273438 7.160157-7.5 12.375-14.769531 12.375zm0 0" fill="#f03049"/><path d="m507.230469 90.519531c-2.847657-3.402343-7.058594-5.367187-11.496094-5.367187-61.3125 0-117.222656 18.082031-157.4375 50.914062-19.230469 15.699219-34.289063 34.101563-44.769531 54.691406-8.257813 16.234376-13.351563 33.199219-15.203125 50.601563h-21.824219v109.535156h197.335938c7.269531 0 13.496093-5.214843 14.769531-12.375l41.898437-235.742187c.773438-4.367188-.421875-8.855469-3.273437-12.257813zm0 0" fill="#bd002f"/></svg>