<svg height="512pt" viewBox="0 -19 512.00026 512" width="512pt" xmlns="http://www.w3.org/2000/svg"><path d="m188.375 287.035156c-.398438 0-.796875-.015625-1.195312-.046875-4.375-.351562-8.378907-2.597656-10.953126-6.152343-50.597656-69.847657-90.671874-97.925782-115.378906-109.179688-23.890625-10.882812-37.832031-8.191406-39.65625-7.765625-6.140625 2.503906-12.816406.503906-16.96875-4.703125-4.1992185-5.265625-3.957031-12.847656-.011718-18.304688 23.417968-32.375 29.085937-86.417968.191406-115.269531v.003907c0-.003907 0-.003907 0-.003907-5.863282-5.851562-5.871094-15.347656-.019532-21.210937 5.855469-5.863282 15.351563-5.871094 21.214844-.019532 12.894532 12.875 32.527344 19.617188 55.234375 18.96875 21.847657-.617187 44.046875-7.863281 60.90625-19.878906 5.46875-3.898437 13.003907-4.042968 18.238281.164063 5.191407 4.171875 7.148438 10.910156 4.621094 17.046875-.515625 1.875-3.792968 16.105468 6.78125 40.898437 10.761719 25.238281 38.238282 65.878907 108.015625 116.167969 3.566407 2.574219 5.828125 6.585938 6.179688 10.96875.351562 4.386719-1.238281 8.707031-4.351563 11.816406l-82.253906 82.113282c-2.820312 2.820312-6.636719 4.386718-10.59375 4.386718zm0 0" fill="#06ccab"/><path d="m229.980469 245.589844c-3.835938 0-7.671875-1.460938-10.597657-4.386719l-90.660156-90.507813c-5.863281-5.855468-5.871094-15.351562-.019531-21.214843s15.351563-5.871094 21.214844-.015625l90.660156 90.507812c5.859375 5.851563 5.867187 15.351563.015625 21.214844-2.929688 2.933594-6.773438 4.402344-10.613281 4.402344zm0 0" fill="#088a7a"/><path d="m323.625 287.035156c-3.957031 0-7.773438-1.566406-10.597656-4.386718l-82.25-82.113282c-3.113282-3.109375-4.707032-7.429687-4.355469-11.8125.355469-4.386718 2.613281-8.398437 6.183594-10.96875 39.863281-28.734375 91.214843-72.832031 109.46875-119.738281 9.21875-23.683594 5.4375-37.046875 5.394531-37.167969-2.261719-6.175781-.238281-13.101562 4.992188-17.089844 5.230468-3.984374 12.445312-4.101562 17.800781-.285156 16.859375 12.015625 39.058593 19.261719 60.90625 19.878906 22.722656.65625 42.339843-6.089843 55.234375-18.964843 5.863281-5.855469 15.359375-5.84375 21.214844.019531 5.851562 5.859375 5.84375 15.359375-.019532 21.210938-23.328125 23.289062-28.816406 75.167968.191406 115.269531 3.945313 5.457031 4.1875 13.035156-.011718 18.300781-4.152344 5.207031-10.828125 7.207031-16.972656 4.707031-1.824219-.429687-15.761719-3.121093-39.652344 7.765625-24.710938 11.253906-64.78125 39.332032-115.378906 109.175782-2.578126 3.554687-6.578126 5.804687-10.957032 6.152343-.394531.03125-.796875.046875-1.191406.046875zm0 0" fill="#088a7a"/><path d="m282.019531 245.589844c-3.839843 0-7.683593-1.46875-10.613281-4.402344-5.855469-5.863281-5.847656-15.359375.019531-21.214844l90.660157-90.507812c5.859374-5.855469 15.355468-5.847656 21.210937.015625s5.847656 15.363281-.019531 21.214843l-90.65625 90.511719c-2.929688 2.921875-6.765625 4.382813-10.601563 4.382813zm0 0" fill="#006357"/><path d="m340.359375 276.242188c-35.550781 0-66.796875 18.746093-84.359375 46.859374-17.5625-28.113281-48.804688-46.859374-84.359375-46.859374-54.785156 0-99.359375 44.507812-99.359375 99.21875 0 54.710937 44.574219 99.21875 99.359375 99.21875 35.554687 0 66.800781-18.746094 84.359375-46.859376 17.5625 28.113282 48.808594 46.859376 84.359375 46.859376 54.789063 0 99.359375-44.507813 99.359375-99.21875 0-54.710938-44.570312-99.21875-99.359375-99.21875zm0 0" fill="#bd002f"/><path d="m340.359375 276.242188c-35.550781 0-66.796875 18.746093-84.359375 46.859374v-.003906 104.726563s0 0 0-.003907c17.5625 28.113282 48.808594 46.859376 84.359375 46.859376 54.789063 0 99.359375-44.507813 99.359375-99.21875 0-54.710938-44.570312-99.21875-99.359375-99.21875zm0 0" fill="#8f0933"/><path d="m255.808594 361.816406c-54.785156 0-99.359375-44.507812-99.359375-99.21875 0-54.710937 44.574219-99.21875 99.359375-99.21875 54.789062 0 99.359375 44.507813 99.359375 99.21875 0 54.710938-44.570313 99.21875-99.359375 99.21875zm0 0" fill="#f03049"/><path d="m256 163.378906v198.4375c54.699219-.105468 99.167969-44.574218 99.167969-99.21875 0-54.648437-44.46875-99.113281-99.167969-99.21875zm0 0" fill="#bd002f"/></svg>