<svg height="512pt" viewBox="0 0 512 512" width="512pt" xmlns="http://www.w3.org/2000/svg"><path d="m120.851562 198.742188c0-11.082032-8.929687-20.0625-19.949218-20.0625-11.019532 0-19.949219 8.980468-19.949219 20.0625 0 11.078124 8.929687 20.0625 19.949219 20.0625 11.019531 0 19.949218-8.984376 19.949218-20.0625zm0 0"/><path d="m248.796875 429.441406c0-11.082031-8.933594-20.0625-19.953125-20.0625-11.015625 0-19.949219 8.980469-19.949219 20.0625 0 11.078125 8.933594 20.0625 19.949219 20.0625 11.019531 0 19.953125-8.984375 19.953125-20.0625zm0 0"/><path d="m512 255.40625c0-21.597656-8.699219-42.058594-23.550781-56.964844.949219-1.273437 1.832031-2.601562 2.640625-3.980468 11.859375-20.289063 5.085937-46.5-15.097656-58.429688-5.761719-3.402344-12.183594-5.328125-18.695313-5.761719-3.007813-40.519531-35.972656-72.765625-76.609375-74.285156-1.589844-12.75-8.886719-24.558594-20.644531-31.507813-9.78125-5.78125-21.222657-7.386718-32.207031-4.523437-4.9375 1.285156-9.515626 3.40625-13.582032 6.242187-14.898437-16.507812-36.109375-26.195312-59.003906-26.195312-22.730469 0-43.878906 9.609375-58.78125 25.972656-.765625-.523437-1.546875-1.019531-2.351562-1.496094-9.785157-5.78125-21.222657-7.386718-32.207032-4.523437-10.992187 2.867187-20.214844 9.863281-25.96875 19.703125-2.960937 5.066406-4.804687 10.617188-5.511718 16.292969-41.128907.957031-74.667969 33.390625-77.738282 74.246093-13.519531.929688-26.304687 8.371094-33.695312 21.015626-9.171875 15.683593-7.203125 34.910156 3.484375 48.335937-14.183594 14.824219-22.480469 34.851563-22.480469 55.859375 0 20.980469 7.9375 40.585938 21.875 55.320312-1.042969 1.371094-2.007812 2.804688-2.878906 4.300782-11.863282 20.289062-5.089844 46.5 15.097656 58.429687 5.703125 3.371094 12.023438 5.289063 18.433594 5.757813 1.679687 42.621094 36.46875 76.816406 79.128906 77.160156 2.03125 12.058594 9.210938 23.039062 20.382812 29.640625 9.785157 5.78125 21.222657 7.390625 32.207032 4.527344 4.210937-1.097657 8.160156-2.800781 11.753906-5.039063 14.933594 16.675782 36.308594 26.496094 59.25 26.496094 22.773438 0 43.992188-9.664062 58.90625-26.109375.589844.390625 1.195312.765625 1.8125 1.128906 9.78125 5.78125 21.21875 7.390625 32.207031 4.527344 10.988281-2.867187 20.210938-9.863281 25.964844-19.703125 2.804687-4.800781 4.605469-10.074219 5.386719-15.488281 20.644531-.46875 39.980468-8.785157 54.625-23.542969 14.652344-14.757812 22.902344-34.246094 23.347656-55.039062 12.046875-2.03125 23.019531-9.261719 29.59375-20.5 8.070312-13.8125 7.472656-30.46875-.148438-43.429688 15.757813-15.027344 25.054688-36.152344 25.054688-58.4375zm-128.757812-9.570312c-.605469 3.171874-.914063 6.394531-.914063 9.570312 0 1.160156.054687 2.410156.167969 3.933594.621094 8.132812-5.316406 15.277344-13.394532 16.125-13.589843 1.429687-23.839843 13.246094-23.839843 27.492187 0 5.222657 1.414062 10.3125 4.085937 14.714844 3.878906 6.394531 2.488282 14.683594-3.265625 19.449219-4.683593 3.882812-8.601562 8.554687-11.640625 13.890625-3.859375 6.78125-12.246094 9.472656-19.3125 6.199219-3.699218-1.71875-7.664062-2.585938-11.785156-2.585938-11.480469 0-21.847656 7.046875-25.792969 17.535156-2.457031 6.523438-9.066406 10.5-15.9375 9.613282-2.230469-.285157-4.3125-.425782-6.363281-.425782-3.519531 0-7.0625.382813-10.535156 1.136719-1.066406.230469-2.128906.339844-3.179688.339844-6.25 0-12-3.941407-14.144531-10.078125-3.785156-10.839844-14.234375-18.121094-25.996094-18.121094-3.078125 0-6.113281.5-9.023437 1.484375-6.632813 2.246094-13.933594-.410156-17.589844-6.40625-3.109375-5.097656-7.082031-9.574219-11.800781-13.304687-5.851563-4.621094-7.4375-12.855469-3.726563-19.339844 2.4375-4.253906 3.722656-9.128906 3.722656-14.101563 0-13.226562-9.039062-24.632812-21.492187-27.125-7.492187-1.5-12.667969-8.414062-12.015625-16.054687.136719-1.601563.203125-3.03125.203125-4.371094 0-3.324219-.328125-6.667969-.976563-9.933594-.789062-3.980468.054688-8.113281 2.34375-11.460937 2.285157-3.347657 5.824219-5.625 9.808594-6.316407 12.824219-2.230468 22.128906-13.6875 22.128906-27.242187 0-3.425781-.597656-6.773437-1.78125-9.957031-2.164062-5.824219-.539062-12.390625 4.09375-16.519532 3.878907-3.460937 7.183594-7.472656 9.820313-11.925781 3.585937-6.050781 10.867187-8.800781 17.535156-6.621093 2.828125.925781 5.773438 1.394531 8.75 1.394531 11.609375 0 22.011719-7.152344 25.890625-17.800781 2.574219-7.074219 9.96875-11.152344 17.296875-9.539063 3.523438.773437 7.113281 1.167969 10.667969 1.167969 2.113281 0 4.25-.144532 6.53125-.445313 6.832031-.898437 13.382812 2.984375 15.90625 9.414063 4.035156 10.289062 14.34375 17.203125 25.65625 17.203125 4.019531 0 7.898438-.832031 11.53125-2.476563 7.105469-3.210937 15.480469-.421875 19.265625 6.417969 2.535156 4.574219 5.75 8.710937 9.5625 12.296875 4.53125 4.265625 5.976563 10.890625 3.636719 16.667969-1.378906 3.394531-2.074219 7.003906-2.074219 10.722656 0 14.328125 10.738281 26.421875 24.453125 27.53125 4.246094.34375 8.148438 2.488281 10.730469 5.894531s3.597656 7.753906 2.792969 11.957032zm0 0" fill="#06ccab"/><path d="m203.199219 195.324219h-29.597657c-28.644531 0-56.472656-28.039063-57.265624-57.695313-.269532-10.222656-2.929688-19.808594-7.691407-27.71875l-3.167969-5.269531c-10.808593-17.960937-11.277343-39.722656-1.261718-58.214844 9.820312-18.132812 27.875-29.375 48.292968-30.066406.699219-.023437 1.414063-.035156 2.128907-.035156h5.410156c61.089844 0 110.789063 49.863281 110.789063 111.152343 0 37.410157-30.34375 67.847657-67.636719 67.847657zm0 0" fill="#bd002f"/><path d="m120.851562 198.742188c0-11.082032-8.929687-20.0625-19.949218-20.0625-11.019532 0-19.949219 8.980468-19.949219 20.0625 0 11.078124 8.929687 20.0625 19.949219 20.0625 11.019531 0 19.949218-8.984376 19.949218-20.0625zm0 0" fill="#ffda45"/><path d="m132.015625 329.628906c0-11.078125-8.933594-20.0625-19.953125-20.0625-11.015625 0-19.949219 8.984375-19.949219 20.0625s8.933594 20.0625 19.949219 20.0625c11.019531 0 19.953125-8.984375 19.953125-20.0625zm0 0" fill="#ffda45"/><path d="m248.796875 429.441406c0-11.082031-8.933594-20.0625-19.953125-20.0625-11.015625 0-19.949219 8.980469-19.949219 20.0625 0 11.078125 8.933594 20.0625 19.949219 20.0625 11.019531 0 19.953125-8.984375 19.953125-20.0625zm0 0" fill="#ffda45"/><path d="m512 255.40625c0-21.597656-8.699219-42.058594-23.550781-56.964844.949219-1.273437 1.832031-2.601562 2.640625-3.980468 11.859375-20.289063 5.085937-46.5-15.097656-58.429688-5.761719-3.402344-12.183594-5.328125-18.695313-5.761719-3.007813-40.519531-35.972656-72.765625-76.609375-74.285156-1.589844-12.75-8.886719-24.558594-20.644531-31.507813-9.78125-5.78125-21.222657-7.386718-32.207031-4.523437-4.9375 1.285156-9.515626 3.40625-13.582032 6.242187-14.75-16.347656-35.695312-25.992187-58.335937-26.1757808v130.6210938c1.898437-.027344 3.820312-.167969 5.863281-.4375 6.832031-.894531 13.382812 2.988281 15.90625 9.417969 4.035156 10.289062 14.34375 17.199218 25.65625 17.199218 4.019531 0 7.898438-.832031 11.53125-2.472656 7.105469-3.210937 15.480469-.421875 19.265625 6.417969 2.535156 4.570313 5.75 8.710937 9.5625 12.296875 4.53125 4.261719 5.976563 10.890625 3.636719 16.664062-1.378906 3.394532-2.074219 7.003907-2.074219 10.722657 0 14.332031 10.738281 26.425781 24.453125 27.535156 4.246094.34375 8.148438 2.484375 10.730469 5.890625s3.597656 7.753906 2.792969 11.957031c-.605469 3.175781-.914063 6.394531-.914063 9.574219 0 1.160156.054687 2.410156.167969 3.933594.621094 8.128906-5.316406 15.277344-13.394532 16.125-13.589843 1.425781-23.835937 13.246094-23.835937 27.488281 0 5.226563 1.410156 10.316406 4.082031 14.71875 3.882813 6.394531 2.492188 14.683594-3.265625 19.449219-4.683593 3.878906-8.597656 8.554687-11.636719 13.890625-3.863281 6.78125-12.246093 9.472656-19.3125 6.195312-3.699218-1.714843-7.667968-2.585937-11.789062-2.585937-11.480469 0-21.847656 7.050781-25.792969 17.535156-2.457031 6.523438-9.066406 10.5-15.9375 9.617188-1.988281-.257813-3.855469-.375-5.695312-.402344v130.609375c22.519531-.1875 43.46875-9.808594 58.238281-26.09375.589844.390625 1.195312.769531 1.8125 1.132812 9.78125 5.78125 21.21875 7.390625 32.207031 4.523438 10.988281-2.863281 20.210938-9.863281 25.964844-19.703125 2.804687-4.800782 4.605469-10.074219 5.386719-15.484375 20.644531-.46875 39.980468-8.789063 54.625-23.542969 14.652344-14.761719 22.902344-34.246094 23.347656-55.039062 12.046875-2.035157 23.019531-9.265626 29.59375-20.503907 8.070312-13.8125 7.472656-30.46875-.148438-43.429687 15.757813-15.023438 25.054688-36.148438 25.054688-58.433594zm0 0" fill="#088a7a"/><path d="m338.238281 195.324219h-29.601562c-37.292969 0-67.636719-30.433594-67.636719-67.847657 0-61.289062 49.699219-111.152343 110.789062-111.152343h5.410157c.714843 0 1.429687.011719 2.140625.035156 20.40625.691406 38.460937 11.933594 48.28125 30.066406 10.019531 18.492188 9.546875 40.253907-1.261719 58.214844l-3.167969 5.269531c-4.761718 7.910156-7.421875 17.496094-7.691406 27.71875-.792969 29.65625-28.621094 57.695313-57.261719 57.695313zm0 0" fill="#8f0933"/><path d="m255.917969 177.152344c-34.175781 0-61.980469-27.890625-61.980469-62.171875 0-34.285157 27.804688-62.171875 61.980469-62.171875s61.980469 27.886718 61.980469 62.171875c0 34.28125-27.804688 62.171875-61.980469 62.171875zm0 0" fill="#f03049"/><path d="m255.917969 52.808594c34.175781 0 61.980469 27.890625 61.980469 62.171875s-27.804688 62.171875-61.980469 62.171875zm0 0" fill="#bd002f"/><g fill="#ffa426"><path d="m454.703125 258.925781c0-11.082031-8.929687-20.0625-19.949219-20.0625-11.019531 0-19.949218 8.980469-19.949218 20.0625 0 11.078125 8.929687 20.058594 19.949218 20.058594 11.019532 0 19.949219-8.980469 19.949219-20.058594zm0 0"/><path d="m384.070312 377.773438c0-11.078126-8.929687-20.058594-19.949218-20.058594-11.019532 0-19.949219 8.980468-19.949219 20.058594 0 11.082031 8.929687 20.0625 19.949219 20.0625 11.019531 0 19.949218-8.980469 19.949218-20.0625zm0 0"/><path d="m454.703125 258.925781c0-11.082031-8.929687-20.0625-19.949219-20.0625-11.019531 0-19.949218 8.980469-19.949218 20.0625 0 11.078125 8.929687 20.058594 19.949218 20.058594 11.019532 0 19.949219-8.980469 19.949219-20.058594zm0 0"/><path d="m384.070312 377.773438c0-11.078126-8.929687-20.058594-19.949218-20.058594-11.019532 0-19.949219 8.980468-19.949219 20.058594 0 11.082031 8.929687 20.0625 19.949219 20.0625 11.019531 0 19.949218-8.980469 19.949218-20.0625zm0 0"/></g></svg>