<svg height="512pt" viewBox="-5 0 512 512.1" width="512pt" xmlns="http://www.w3.org/2000/svg"><g fill="#e3f7ff"><path d="m493.320312 445.601562-54.601562-27.300781c-.597656-.300781-1.199219-.5-1.796875-.800781-5.601563-1.898438-11.300781-2.800781-17-2.800781l-23.101563-77c13.5-7.398438 24.601563-19 31.300782-33.199219 8.898437-18.800781 9.597656-40.601562 1.800781-59.898438l-56.703125-155.101562c-2.699219-7.5-10.796875-11.5-18.398438-9.199219l-44.800781 13.597657c-.597656.101562-1.300781.203124-1.898437.402343-.699219.199219-1.300782.5-1.902344.699219l-44.796875 13.601562c-6.101563 1.796876-10.203125 7.199219-10.601563 13.296876v2c.101563.800781.199219 1.703124.398438 2.5l38.203125 160.902343c4.097656 20.398438 16.597656 38.300781 34.398437 49 11.5 6.898438 24.699219 10.5 37.898438 10.5 2.101562 0 4.300781-.101562 6.402344-.300781l23.199218 77.199219c-4.398437 3-8.398437 6.699219-11.898437 11-.402344.5-.800781 1.101562-1.101563 1.699219l-31.300781 53c-3.097656 5.300781-2.699219 12 1.101563 16.902343 2.898437 3.699219 7.300781 5.699219 11.800781 5.699219 1.398437 0 2.898437-.199219 4.296875-.601562l126.601562-38c5.898438-1.796876 10.101563-7 10.601563-13.097657.5-6.101562-2.601563-12-8.101563-14.699219zm0 0"/><path d="m240.21875 108.601562-44.796875-13.601562c-.601563-.300781-1.203125-.5-1.902344-.699219-.597656-.199219-1.300781-.300781-1.898437-.402343l-44.800782-13.597657c-7.601562-2.300781-15.699218 1.699219-18.398437 9.199219l-56.703125 155.199219c-7.796875 19.300781-7.199219 41.101562 1.800781 59.902343 6.699219 14.199219 17.800781 25.796876 31.300781 33.199219l-23.101562 77c-5.699219 0-11.398438.898438-17 2.800781-.597656.199219-1.199219.5-1.796875.796876l-54.601563 27.300781c-5.5 2.800781-8.800781 8.601562-8.199218 14.699219.597656 6.101562 4.699218 11.300781 10.597656 13.101562l126.601562 38c1.398438.398438 2.898438.601562 4.300782.601562 4.5 0 8.898437-2.101562 11.800781-5.703124 3.796875-4.898438 4.296875-11.597657 1.097656-16.898438l-31.300781-53c-.296875-.601562-.699219-1.101562-1.097656-1.699219-3.402344-4.300781-7.402344-8-11.902344-11l23.203125-77.199219c2.097656.199219 4.296875.296876 6.398437.296876 13.199219 0 26.398438-3.597657 37.898438-10.5 17.800781-10.699219 30.300781-28.5 34.402344-49l38.199218-160.898438c.199219-.800781.300782-1.699219.398438-2.5v-2c-.296875-6.101562-4.398438-11.5-10.5-13.398438zm0 0"/><path d="m250.820312 50.398438c-8.300781 0-15-6.699219-15-15v-20.398438c0-8.300781 6.699219-15 15-15 8.300782 0 15 6.699219 15 15v20.398438c0 8.300781-6.699218 15-15 15zm0 0"/><path d="m179.019531 68.398438c-5.398437 0-10.699219-3-13.300781-8.097657l-8.699219-16.902343c-3.800781-7.398438-.898437-16.398438 6.5-20.199219 7.402344-3.800781 16.402344-.898438 20.199219 6.5l8.703125 16.902343c3.796875 7.398438.898437 16.398438-6.5 20.199219-2.300781 1.097657-4.601563 1.597657-6.902344 1.597657zm0 0"/></g><path d="m322.621094 68.398438c-2.300782 0-4.699219-.5-6.902344-1.699219-7.398438-3.800781-10.296875-12.800781-6.5-20.199219l8.703125-16.898438c3.796875-7.402343 12.796875-10.300781 20.199219-6.5 7.398437 3.796876 10.300781 12.796876 6.5 20.199219l-8.699219 16.898438c-2.601563 5.199219-7.800781 8.199219-13.300781 8.199219zm0 0" fill="#8bc8e8"/><path d="m493.320312 445.601562-54.601562-27.300781c-.597656-.300781-1.199219-.5-1.796875-.800781-5.601563-1.898438-11.300781-2.800781-17-2.800781l-23.101563-77c13.5-7.398438 24.601563-19 31.300782-33.199219 8.898437-18.800781 9.597656-40.601562 1.800781-59.898438l-56.703125-155.101562c-2.699219-7.5-10.796875-11.5-18.398438-9.199219l-44.800781 13.597657c-.597656.101562-1.300781.203124-1.898437.402343l119.5 398.097657 63.300781-19c5.898437-1.796876 10.097656-7 10.597656-13.097657.5-6.101562-2.699219-12-8.199219-14.699219zm0 0" fill="#8bc8e8"/><path d="m429.921875 244.699219-27.300781-74.699219h-141.101563l27.800781 117.300781c4.101563 20.398438 16.601563 38.300781 34.398438 49 11.5 6.898438 24.703125 10.5 37.902344 10.5 7.097656 0 14.300781-1 21.300781-3.199219 19.796875-6 36.296875-20.203124 45.199219-39 9-18.800781 9.597656-40.601562 1.800781-59.902343zm0 0" fill="#ffde91"/><path d="m429.921875 244.699219-27.300781-74.699219h-71.800782l52.101563 173.601562c19.796875-6 36.296875-20.203124 45.199219-39 9-18.800781 9.597656-40.601562 1.800781-59.902343zm0 0" fill="#e8ba64"/><path d="m250.820312 121.898438c-.398437-6-4.5-11.398438-10.601562-13.296876l-44.796875-13.601562c-.601563-.300781-1.203125-.5-1.902344-.699219l-119.398437 398.097657 63.300781 19c1.398437.402343 2.898437.601562 4.296875.601562 4.5 0 8.902344-2.101562 11.800781-5.699219 3.800781-4.902343 4.300781-11.601562 1.101563-16.902343l-31.300782-53c-.300781-.597657-.699218-1.097657-1.101562-1.699219-3.398438-4.300781-7.398438-8-11.898438-11l23.199219-77.199219c2.101563.199219 4.300781.300781 6.402344.300781 13.199219 0 26.398437-3.601562 37.898437-10.5 17.800782-10.699219 30.300782-28.5 34.398438-49l38.203125-160.902343c.199219-.796876.296875-1.699219.398437-2.5zm0 0" fill="#8bc8e8"/><path d="m99.019531 170.101562-27.300781 74.699219c-7.796875 19.300781-7.199219 41.097657 1.800781 59.898438 8.902344 18.800781 25.402344 33 45.199219 39 7 2.101562 14.101562 3.199219 21.300781 3.199219 13.199219 0 26.402344-3.597657 37.902344-10.5 17.796875-10.699219 30.296875-28.5 34.398437-49l27.800782-117.296876zm0 0" fill="#ffde91"/><path d="m170.820312 170.101562-52.101562 173.597657c7 2.101562 14.101562 3.199219 21.300781 3.199219 13.199219 0 26.402344-3.597657 37.902344-10.5 17.796875-10.699219 30.296875-28.5 34.398437-49l27.800782-117.296876zm0 0" fill="#e8ba64"/><path d="m250.820312 50.398438c8.300782 0 15-6.699219 15-15v-20.398438c0-8.300781-6.699218-15-15-15zm0 0" fill="#8bc8e8"/></svg>