<svg height="512pt" viewBox="-15 0 512 512" width="512pt" xmlns="http://www.w3.org/2000/svg"><path d="m359.21875 512h-221.617188c-24.089843 0-43.691406-19.652344-43.691406-43.8125v-14.4375c-2.792968.644531-5.703125.988281-8.691406.988281h-46.503906c-21.335938 0-38.6914065-17.457031-38.6914065-38.910156v-213.296875l-.0234375-64.5625c0-39.984375 12.648438-67.996094 39.808594-88.152344 23.367187-17.34375 54.648437-26.667968 90.867187-37.46875 11.476563-3.421875 23.339844-6.957031 35.597657-10.941406 2.871093-.933594 5.847656-1.40625 8.855468-1.40625h130.597656c2.628907 0 5.25.363281 7.789063 1.082031 8.195313 2.320313 16.300781 4.523438 24.136719 6.652344 39.457031 10.730469 73.527344 19.996094 99.398437 37.871094 29.964844 20.699219 44.53125 50.910156 44.53125 92.359375l.085938 63.941406v213.917969c0 21.457031-17.355469 38.914062-38.691407 38.914062h-45.234374c-2.898438 0-5.75-.320312-8.511719-.941406l-.011719 28.152344c-.003906 16.570312-13.464844 30.050781-30 30.050781zm0 0" fill="#f03049"/><path d="m481.582031 137.964844c0-41.445313-14.566406-71.660156-44.53125-92.359375-25.867187-17.875-59.941406-27.140625-99.394531-37.867188-7.839844-2.132812-15.941406-4.335937-24.140625-6.65625-2.539063-.71875-5.160156-1.082031-7.789063-1.082031h-64.890624v512h118.382812c16.535156 0 29.996094-13.480469 30-30.050781l.011719-28.152344c2.761719.621094 5.613281.941406 8.511719.941406h45.234374c21.335938 0 38.695313-17.457031 38.695313-38.910156v-213.921875zm0 0" fill="#bd002f"/><path d="m240.835938 97.058594c-44.910157 0-81.441407-36.8125-81.441407-82.058594 0-8.285156 6.714844-15 15-15h132.882813c8.285156 0 15 6.714844 15 15 0 45.246094-36.535156 82.058594-81.441406 82.058594zm-49.265626-67.058594c6.378907 21.417969 26.050782 37.058594 49.265626 37.058594 23.214843 0 42.886718-15.640625 49.265624-37.058594zm0 0" fill="#8f0933"/><path d="m240.835938 387.386719c-8.285157 0-15-6.714844-15-15v-48.105469c0-8.285156 6.714843-15 15-15 8.28125 0 15 6.714844 15 15v48.105469c0 8.285156-6.71875 15-15 15zm0 0" fill="#d6995c"/><path d="m240.835938 387.386719c8.28125 0 15-6.714844 15-15v-48.105469c0-8.285156-6.71875-15-15-15zm0 0" fill="#b27a49"/><path d="m323.003906 339h-164.339844c-5.597656 0-10.734374-3.117188-13.3125-8.089844-2.578124-4.972656-2.171874-10.964844 1.050782-15.546875l31.851562-45.230469c-5.335937-.238281-10.167968-3.304687-12.644531-8.078124-2.582031-4.972657-2.175781-10.964844 1.050781-15.546876l25.066406-35.597656c-1.207031-1.136718-2.234374-2.480468-3.023437-4.003906-2.578125-4.96875-2.171875-10.964844 1.050781-15.542969l38.816406-55.125c2.8125-3.988281 7.382813-6.359375 12.265626-6.359375 4.878906 0 9.453124 2.371094 12.261718 6.359375l38.816406 55.125c3.226563 4.578125 3.632813 10.574219 1.050782 15.542969-.789063 1.523438-1.8125 2.867188-3.019532 4.003906l25.066407 35.597656c3.222656 4.582032 3.628906 10.574219 1.050781 15.546876-2.476562 4.773437-7.308594 7.839843-12.648438 8.078124l31.851563 45.230469c3.226563 4.578125 3.632813 10.574219 1.050781 15.546875-2.578125 4.972656-7.710937 8.089844-13.3125 8.089844zm0 0" fill="#06ccab"/><path d="m335.269531 315.363281-31.855469-45.230469c5.339844-.238281 10.171876-3.304687 12.648438-8.078124 2.578125-4.972657 2.171875-10.964844-1.050781-15.546876l-25.066407-35.597656c1.207032-1.136718 2.234376-2.480468 3.023438-4.003906 2.578125-4.96875 2.171875-10.964844-1.050781-15.542969l-38.816407-55.125c-2.8125-3.988281-7.386718-6.359375-12.265624-6.359375v209.121094h82.167968c5.601563 0 10.734375-3.117188 13.316406-8.089844 2.578126-4.972656 2.171876-10.96875-1.050781-15.546875zm0 0" fill="#088a7a"/><path d="m39.808594 49.816406c-27.160156 20.15625-39.808594 48.167969-39.808594 88.152344l.0234375 64.5625v213.296875c0 21.453125 17.3554685 38.910156 38.6914065 38.910156h46.503906c2.988281 0 5.898438-.34375 8.691406-.988281v-429.960938c-20.773437 7.046876-39.082031 14.878907-54.101562 26.027344zm0 0" fill="#ff475a"/><path d="m481.582031 137.964844c0-41.445313-14.566406-71.660156-44.53125-92.359375-13.753906-9.503907-29.847656-16.566407-47.820312-22.714844v430.90625c2.761719.625 5.613281.941406 8.511719.941406h45.234374c21.335938 0 38.695313-17.453125 38.695313-38.910156v-213.921875zm0 0" fill="#8f0933"/><path d="m93.910156 415.828125v37.921875c-2.792968.644531-5.703125.988281-8.691406.988281h-46.503906c-21.335938 0-38.6914065-17.457031-38.6914065-38.910156zm0 0" fill="#8f0933"/><g fill="#700029"><path d="m389.230469 453.796875c2.761719.621094 5.613281.941406 8.511719.941406h45.234374c21.335938 0 38.695313-17.457031 38.695313-38.910156h-92.441406zm0 0"/><path d="m307.277344 0h-66.441406v30h49.265624c-6.378906 21.417969-26.050781 37.058594-49.265624 37.058594v30c44.90625 0 81.441406-36.8125 81.441406-82.058594 0-8.285156-6.714844-15-15-15zm0 0"/></g></svg>