<svg height="512pt" viewBox="0 -26 512 512" width="512pt" xmlns="http://www.w3.org/2000/svg"><path d="m467 459.347656h-422c-24.8125 0-45-20.1875-45-45v-318.195312c0-24.8125 20.1875-45 45-45h422c24.8125 0 45 20.1875 45 45v318.195312c0 24.8125-20.1875 45-45 45zm0 0" fill="#e3f7ff"/><path d="m467 51.152344h-211v408.195312h211c24.8125 0 45-20.1875 45-45v-318.195312c0-24.816406-20.1875-45-45-45zm0 0" fill="#8accf5"/><path d="m354.40625 365.570312h-11.71875v-128.4375c0-6.378906-4.035156-12.0625-10.058594-14.164062-6.027344-2.097656-12.71875-.160156-16.6875 4.835938l-36.785156 46.300781c-5.152344 6.484375-4.070312 15.921875 2.417969 21.074219 6.484375 5.152343 15.921875 4.070312 21.074219-2.414063l10.039062-12.636719v85.441406h-11.722656c-8.285156 0-15 6.714844-15 15 0 8.285157 6.714844 15 15 15h53.445312c8.28125 0 15-6.714843 15-15 0-8.285156-6.71875-15-15.003906-15zm0 0" fill="#088a7a"/><path d="m194.582031 394.667969c-22.230469 0-42.175781-13.234375-50.8125-33.714844-3.21875-7.632813.359375-16.429687 7.996094-19.648437 7.632813-3.21875 16.429687.359374 19.648437 7.992187 3.9375 9.339844 13.03125 15.371094 23.167969 15.371094 13.722657 0 24.785157-11.246094 25.191407-25.605469.1875-6.648438-1.644532-15.84375-7.347657-21.707031-4.695312-4.828125-11.960937-7.277344-21.597656-7.277344-5.667969 0-10.851563-3.195313-13.398437-8.261719-2.546876-5.0625-2.023438-11.128906 1.355468-15.679687l24.578125-33.101563h-38.410156c-8.28125 0-15-6.71875-15-15 0-8.285156 6.71875-15 15-15h68.230469c5.667968 0 10.851562 3.195313 13.398437 8.261719 2.546875 5.0625 2.023438 11.128906-1.355469 15.679687l-28.222656 38.011719c7.621094 3.214844 13.121094 7.53125 16.933594 11.453125 14.953125 15.378906 16.046875 35.519532 15.824219 43.464844-.863281 30.707031-25.101563 54.761719-55.179688 54.761719zm0 0" fill="#06ccab"/><path d="m512 96.152344c0-24.8125-20.1875-45-45-45h-422c-24.8125 0-45 20.1875-45 45v77.621094h512zm0 0" fill="#f03049"/><path d="m467 51.152344h-211v122.621094h256v-77.621094c0-24.816406-20.1875-45-45-45zm0 0" fill="#bd002f"/><path d="m335.097656 51.152344v-14.402344c0-20.265625 16.53125-36.75 36.847656-36.75 20.320313 0 36.855469 16.484375 36.855469 36.75v61.914062c0 8.285157-6.71875 15-15 15-8.285156 0-15-6.714843-15-15v-61.914062c0-3.660156-3.140625-6.75-6.855469-6.75-3.710937 0-6.847656 3.089844-6.847656 6.75v14.398438h-30zm0 0" fill="#ffa426"/><path d="m103.199219 51.152344v-14.402344c0-20.265625 16.535156-36.75 36.855469-36.75 20.316406 0 36.847656 16.484375 36.847656 36.75v61.914062c0 8.285157-6.714844 15-15 15-8.28125 0-15-6.714843-15-15v-61.914062c0-3.660156-3.136719-6.75-6.847656-6.75-3.714844 0-6.855469 3.089844-6.855469 6.75v14.398438h-30zm0 0" fill="#ffda45"/><path d="m222.148438 51.152344v-14.402344c0-20.265625 16.53125-36.75 36.851562-36.75s36.851562 16.484375 36.851562 36.75v61.914062c0 8.285157-6.714843 15-15 15-8.285156 0-15-6.714843-15-15v-61.914062c0-3.660156-3.136718-6.75-6.851562-6.75s-6.851562 3.089844-6.851562 6.75v14.398438h-30zm0 0" fill="#ffda45"/><path d="m259 0c-1.011719 0-2.007812.0507812-3 .132812v30.582032c.914062-.453125 1.929688-.714844 3-.714844 3.714844 0 6.851562 3.089844 6.851562 6.75v61.914062c0 8.285157 6.714844 15 15 15 8.285157 0 15-6.714843 15-15v-61.914062c0-20.265625-16.53125-36.75-36.851562-36.75zm0 0" fill="#ffa426"/></svg>