<svg height="512pt" viewBox="0 0 512 512" width="512pt" xmlns="http://www.w3.org/2000/svg"><path d="m256 512c-68.378906 0-132.667969-26.628906-181.019531-74.980469-48.351563-48.351562-74.980469-112.640625-74.980469-181.019531s26.628906-132.667969 74.980469-181.019531c48.351562-48.351563 112.640625-74.980469 181.019531-74.980469s132.667969 26.628906 181.019531 74.980469c48.351563 48.351562 74.980469 112.640625 74.980469 181.019531s-26.628906 132.667969-74.980469 181.019531c-48.351562 48.351563-112.640625 74.980469-181.019531 74.980469zm0 0" fill="#e3f7ff"/><path d="m256 0c68.378906 0 132.667969 26.628906 181.019531 74.980469 48.351563 48.351562 74.980469 112.640625 74.980469 181.019531s-26.628906 132.667969-74.980469 181.019531c-48.351562 48.351563-112.640625 74.980469-181.019531 74.980469zm0 0" fill="#8accf5"/><path d="m271 214.476562v-110.679687c0-8.285156-6.714844-15-15-15s-15 6.714844-15 15v110.679687c-16.984375 6.152344-29.152344 22.441407-29.152344 41.523438 0 24.34375 19.808594 44.152344 44.152344 44.152344s44.152344-19.808594 44.152344-44.152344c0-19.082031-12.167969-35.371094-29.152344-41.523438zm0 0" fill="#414952"/><path d="m274.753906 48.992188c0-10.46875-8.394531-18.957032-18.753906-18.957032s-18.753906 8.488282-18.753906 18.957032c0 10.472656 8.394531 18.960937 18.753906 18.960937s18.753906-8.488281 18.753906-18.960937zm0 0" fill="#f03049"/><path d="m274.753906 464.628906c0-10.472656-8.394531-18.960937-18.753906-18.960937s-18.753906 8.488281-18.753906 18.960937c0 10.46875 8.394531 18.957032 18.753906 18.957032s18.753906-8.488282 18.753906-18.957032zm0 0" fill="#f03049"/><path d="m483.332031 256c0-10.472656-8.394531-18.960938-18.753906-18.960938-10.355469 0-18.753906 8.488282-18.753906 18.960938s8.398437 18.960938 18.753906 18.960938c10.359375 0 18.753906-8.488282 18.753906-18.960938zm0 0" fill="#b27a49"/><path d="m67.195312 256c0-10.472656-8.398437-18.960938-18.753906-18.960938-10.359375 0-18.753906 8.488282-18.753906 18.960938s8.394531 18.960938 18.753906 18.960938c10.355469 0 18.753906-8.488282 18.753906-18.960938zm0 0" fill="#d6995c"/><path d="m271 214.476562v-110.679687c0-8.285156-6.714844-15-15-15v211.355469c24.34375 0 44.152344-19.808594 44.152344-44.152344 0-19.082031-12.167969-35.371094-29.152344-41.523438zm0 0" fill="#23272b"/><path d="m256 30.035156c10.355469 0 18.753906 8.488282 18.753906 18.957032 0 10.472656-8.398437 18.960937-18.753906 18.960937zm0 0" fill="#b27a49"/><path d="m256 483.585938c10.355469 0 18.753906-8.488282 18.753906-18.957032 0-10.472656-8.394531-18.960937-18.753906-18.960937zm0 0" fill="#b27a49"/><path d="m256 67.953125c10.355469 0 18.753906-8.488281 18.753906-18.960937 0-10.46875-8.398437-18.957032-18.753906-18.957032zm0 0" fill="#bd002f"/><path d="m256 483.585938c10.355469 0 18.753906-8.488282 18.753906-18.957032 0-10.472656-8.394531-18.960937-18.753906-18.960937zm0 0" fill="#bd002f"/><path d="m483.332031 256c0-10.472656-8.394531-18.960938-18.753906-18.960938-10.355469 0-18.753906 8.488282-18.753906 18.960938s8.398437 18.960938 18.753906 18.960938c10.359375 0 18.753906-8.488282 18.753906-18.960938zm0 0" fill="#bd002f"/><path d="m67.195312 256c0-10.472656-8.398437-18.960938-18.753906-18.960938-10.359375 0-18.753906 8.488282-18.753906 18.960938s8.394531 18.960938 18.753906 18.960938c10.355469 0 18.753906-8.488282 18.753906-18.960938zm0 0" fill="#f03049"/><path d="m380.214844 77.621094c0-10.472656-8.398438-18.960938-18.753906-18.960938-10.359376 0-18.753907 8.488282-18.753907 18.960938 0 10.46875 8.394531 18.957031 18.753907 18.957031 10.355468 0 18.753906-8.488281 18.753906-18.957031zm0 0" fill="#bd002f"/><path d="m452.800781 150.636719c0-10.472657-8.398437-18.960938-18.753906-18.960938-10.359375 0-18.757813 8.488281-18.757813 18.960938 0 10.46875 8.398438 18.957031 18.757813 18.957031 10.355469 0 18.753906-8.488281 18.753906-18.957031zm0 0" fill="#bd002f"/><g fill="#f03049"><path d="m169.546875 77.621094c0-10.472656-8.398437-18.960938-18.753906-18.960938-10.359375 0-18.753907 8.488282-18.753907 18.960938 0 10.46875 8.394532 18.957031 18.753907 18.957031 10.355469 0 18.753906-8.488281 18.753906-18.957031zm0 0"/><path d="m96.960938 150.636719c0-10.472657-8.394532-18.960938-18.753907-18.960938-10.355469 0-18.753906 8.488281-18.753906 18.960938 0 10.46875 8.398437 18.957031 18.753906 18.957031 10.359375 0 18.753907-8.488281 18.753907-18.957031zm0 0"/><path d="m169.546875 435.378906c0-10.46875-8.398437-18.957031-18.753906-18.957031-10.359375 0-18.753907 8.488281-18.753907 18.957031 0 10.472656 8.394532 18.960938 18.753907 18.960938 10.355469 0 18.753906-8.488282 18.753906-18.960938zm0 0"/><path d="m96.960938 362.363281c0-10.46875-8.394532-18.957031-18.753907-18.957031-10.355469 0-18.753906 8.488281-18.753906 18.957031 0 10.472657 8.398437 18.960938 18.753906 18.960938 10.359375 0 18.753907-8.488281 18.753907-18.960938zm0 0"/></g><path d="m380.214844 435.378906c0-10.46875-8.398438-18.957031-18.753906-18.957031-10.359376 0-18.753907 8.488281-18.753907 18.957031 0 10.472656 8.394531 18.960938 18.753907 18.960938 10.355468 0 18.753906-8.488282 18.753906-18.960938zm0 0" fill="#bd002f"/><path d="m452.800781 362.363281c0-10.46875-8.398437-18.957031-18.753906-18.957031-10.359375 0-18.757813 8.488281-18.757813 18.957031 0 10.472657 8.398438 18.960938 18.757813 18.960938 10.355469 0 18.753906-8.488281 18.753906-18.960938zm0 0" fill="#bd002f"/></svg>