<svg height="512pt" viewBox="0 0 512 512.0005" width="512pt" xmlns="http://www.w3.org/2000/svg"><g style="fill:none;stroke-width:30;stroke-linecap:round;stroke-linejoin:round;stroke:#000;stroke-miterlimit:10" transform="translate(-.000019 .0005)"><path d="m91.617206 230.722156h328.6875"/><path d="m91.617206 284.09325h328.6875"/><path d="m91.617206 337.464344h328.6875"/><path d="m91.617206 390.835438h328.6875"/><path d="m91.617206 444.206531h328.6875"/></g><path d="m417.480469 129.234375h-55.554688c-8.28125 0-15-6.71875-15-15v-83.363281c0-8.285156 6.71875-15 15-15h55.554688c8.285156 0 15 6.714844 15 15v83.363281c0 8.28125-6.714844 15-15 15zm0 0" fill="#61362b"/><path d="m433.800781 512h-355.683593c-8.285157 0-15-6.714844-15-15v-272.375c0-4.773438 2.269531-9.261719 6.117187-12.085938l177.839844-130.722656c5.285156-3.882812 12.480469-3.882812 17.765625 0l177.839844 130.636719c3.847656 2.828125 6.121093 7.316406 6.121093 12.089844v272.460937c0 3.976563-1.582031 7.792969-4.394531 10.605469s-6.628906 4.390625-10.605469 4.390625zm0 0" fill="#915041"/><path d="m442.679688 212.453125-177.839844-130.636719c-2.625-1.929687-5.722656-2.898437-8.820313-2.910156v433.09375h177.78125c3.976563 0 7.792969-1.578125 10.605469-4.390625s4.394531-6.628906 4.394531-10.605469v-272.460937c0-4.773438-2.273437-9.261719-6.121093-12.089844zm0 0" fill="#61362b"/><path d="m314.601562 245.636719h-117.285156c-8.28125 0-15-6.714844-15-14.996094v-61c0-8.28125 6.71875-14.996094 15-14.996094h117.285156c8.285157 0 15 6.714844 15 14.996094v61c0 8.285156-6.714843 14.996094-15 14.996094zm0 0" fill="#e3f7ff"/><path d="m63.117188 284.09375h385.683593v53.371094h-385.683593zm0 0" fill="#b27a49"/><path d="m63.117188 390.835938h385.683593v53.371093h-385.683593zm0 0" fill="#b27a49"/><path d="m256 284.09375h192.800781v53.371094h-192.800781zm0 0" fill="#9e6f46"/><path d="m256 390.835938h192.800781v53.371093h-192.800781zm0 0" fill="#9e6f46"/><path d="m306.882812 509.546875h-101.847656c-8.28125 0-15-6.714844-15-14.996094v-157.078125c0-8.28125 6.71875-14.996094 15-14.996094h101.847656c8.28125 0 15 6.714844 15 14.996094v157.078125c0 8.28125-6.714843 14.996094-15 14.996094zm0 0" fill="#edc472"/><path d="m306.882812 322.476562h-50.882812v187.070313h50.882812c8.285157 0 15-6.714844 15-14.996094v-157.078125c0-8.28125-6.714843-14.996094-15-14.996094zm0 0" fill="#cc9f56"/><path d="m314.601562 154.644531h-58.601562v90.996094h58.601562c8.285157 0 15-6.714844 15-15v-61c0-8.28125-6.714843-14.996094-15-14.996094zm0 0" fill="#8accf5"/><path d="m461.421875 251.242188c-10.449219 0-20.980469-3.195313-29.988281-9.816407l-163.136719-119.921875c-7.242187-5.324218-17.355469-5.324218-24.59375 0l-163.136719 119.921875c-22.292968 16.382813-53.929687 11.777344-70.527344-10.273437-8.074218-10.726563-11.445312-23.925782-9.5-37.167969 1.949219-13.289063 9.015626-25.007813 19.894532-33.003906l205.5-151.066407c17.980468-13.21875 42.148437-13.21875 60.132812 0l205.5 151.066407c10.878906 7.996093 17.945313 19.71875 19.898438 33.003906 1.945312 13.242187-1.429688 26.445313-9.503906 37.167969-9.890626 13.140625-25.125 20.085937-40.539063 20.089844zm0 0" fill="#d6995c"/><path d="m511.460938 193.984375c-1.949219-13.285156-9.015626-25.007813-19.894532-33.003906l-205.5-151.066407c-8.984375-6.605468-19.515625-9.91015575-30.046875-9.914062v117.511719c4.332031.003906 8.664063 1.335937 12.277344 3.992187l163.136719 119.921875c9.007812 6.621094 19.539062 9.816407 29.988281 9.8125 15.414063 0 30.648437-6.945312 40.539063-20.085937 8.074218-10.722656 11.445312-23.925782 9.5-37.167969zm0 0" fill="#b27a49"/></svg>