<svg height="512pt" viewBox="-69 0 512 512" width="512pt" xmlns="http://www.w3.org/2000/svg"><path d="m131.75 510.773438c-.003906 0-.003906 0-.003906 0l-104.503906-.003907c-15.023438 0-27.242188-12.214843-27.242188-27.222656l.0078125-236.957031c0-22.535156 9.8124995-43.90625 26.9218755-58.628906 10.6875-9.199219 16.820312-18.332032 16.820312-25.050782l.003906-135.6875c.003906-15.011718 2.222656-27.222656 17.246094-27.222656h37.019531c15.023438 0 17.242188 12.214844 17.242188 27.226562l-.003907 135.6875c0 6.71875 6.132813 15.851563 16.820313 25.050782 17.109375 14.726562 26.917969 36.09375 26.917969 58.628906l-.007813 236.957031c0 7.277344-2.835937 14.117188-7.984375 19.257813-5.144531 5.136718-11.984375 7.964844-19.253906 7.964844zm0 0" fill="#414952"/><path d="m348.832031 488.085938-44.515625-31.625v-67.511719c17.992188-3.296875 34.640625-12.449219 47.125-26.214844 16.058594-17.703125 23.933594-41.539063 21.601563-65.394531-.011719-.125-.023438-.253906-.039063-.378906l-13.945312-113.128907c-.929688-7.519531-7.316406-13.167969-14.886719-13.167969h-109.707031c-7.574219 0-13.957032 5.648438-14.886719 13.167969l-13.945313 113.128907c-.015624.125-.027343.25-.039062.378906-2.332031 23.855468 5.539062 47.691406 21.597656 65.394531 12.488282 13.765625 29.132813 22.917969 47.125 26.214844v67.511719l-44.511718 31.625c-4.675782 3.320312-6.664063 9.28125-4.921876 14.742187 1.742188 5.464844 6.816407 9.171875 12.550782 9.171875h103.769531c5.734375 0 10.808594-3.707031 12.550781-9.171875 1.742188-5.460937-.246094-11.421875-4.921875-14.742187zm0 0" fill="#e3f7ff"/><path d="m132.078125 187.964844c-10.6875-9.199219-16.820313-18.332032-16.820313-25.050782l.003907-135.6875c0-15.011718-2.21875-27.226562-17.242188-27.226562h-18.519531v510.773438h52.246094.003906c7.269531 0 14.109375-2.828126 19.253906-7.964844 5.148438-5.140625 7.984375-11.980469 7.984375-19.257813l.007813-236.957031c0-22.535156-9.808594-43.90625-26.917969-58.628906zm0 0" fill="#23272b"/><path d="m143.992188 438.996094-63.667969-.003906c-3.976563 0-7.792969-1.582032-10.605469-4.394532s-4.394531-6.628906-4.394531-10.605468l.003906-154.023438c0-3.976562 1.582031-7.792969 4.394531-10.605469s6.628906-4.394531 10.605469-4.394531l63.667969.003906c8.285156 0 15 6.714844 15 15l-.003906 154.023438c0 8.28125-6.714844 15-15 15zm0 0" fill="#088a7a"/><path d="m348.832031 488.085938-44.515625-31.625v-67.511719c17.992188-3.296875 34.640625-12.449219 47.125-26.214844 16.058594-17.703125 23.933594-41.539063 21.601563-65.394531-.011719-.125-.023438-.253906-.039063-.378906l-13.945312-113.128907c-.929688-7.519531-7.316406-13.167969-14.886719-13.167969h-54.851563v341.335938h51.882813c5.734375 0 10.808594-3.707031 12.550781-9.171875 1.742188-5.460937-.246094-11.421875-4.921875-14.742187zm0 0" fill="#8accf5"/><path d="m373.003906 296.960938c.015625.125.027344.253906.039063.378906 2.332031 23.855468-5.542969 47.691406-21.601563 65.394531-15.898437 17.53125-38.542968 27.582031-62.125 27.582031-23.582031 0-46.222656-10.050781-62.125-27.582031-16.054687-17.703125-23.929687-41.539063-21.597656-65.394531.011719-.125.023438-.253906.039062-.378906zm0 0" fill="#8f0933"/><path d="m373.042969 297.339844c-.011719-.125-.027344-.253906-.042969-.378906h-83.683594v93.355468c23.582032 0 46.226563-10.050781 62.125-27.582031 16.058594-17.703125 23.933594-41.539063 21.601563-65.394531zm0 0" fill="#700029"/><path d="m115.261719 27.226562c0-15.011718-2.21875-27.226562-17.242188-27.226562h-37.019531c-15.023438 0-17.242188 12.210938-17.242188 27.222656l-.003906 114.585938h71.507813zm0 0" fill="#edc472"/><path d="m98.019531 0h-18.511719v141.808594h35.753907l.003906-114.582032c-.003906-15.011718-2.222656-27.226562-17.246094-27.226562zm0 0" fill="#cc9f56"/><path d="m43.753906 40.941406h71.507813v30h-71.507813zm0 0" fill="#06ccab"/><path d="m79.507812 40.941406h35.753907v30h-35.753907zm0 0" fill="#088a7a"/></svg>