<svg height="512pt" viewBox="0 -43 512 512" width="512pt" xmlns="http://www.w3.org/2000/svg"><path d="m449.621094 0h-143.378906c-8.28125 0-15 6.714844-15 15v138.90625c0 36.152344-41.976563 52.996094-70.34375 52.996094h-28.3125c-43.757813 0-79.632813 34.226562-82.125 77.226562l354.15625.003906v-269.132812c.003906-8.285156-6.714844-15-14.996094-15zm0 0" fill="#cdebfc"/><path d="m497 395.003906h-96.851562v-46.707031c0-8.285156-6.71875-15-15-15-8.285157 0-15 6.714844-15 15v46.707031h-148.382813v-46.707031c0-8.285156-6.714844-15-15-15s-15 6.714844-15 15v46.707031h-117.71875c-24.289063 0-44.046875-19.652344-44.046875-43.808594s19.761719-43.804687 44.046875-43.804687c8.285156 0 15-6.714844 15-15s-6.714844-15-15-15c-40.828125 0-74.046875 33.109375-74.046875 73.804687 0 40.699219 33.21875 73.808594 74.046875 73.808594h422.953125c8.285156 0 15-6.714844 15-15s-6.714844-15-15-15zm0 0" fill="#414952"/><path d="m497 395.003906h-96.851562v-46.707031c0-8.285156-6.71875-15-15-15-8.285157 0-15 6.714844-15 15v46.707031h-114.148438v30h241c8.285156 0 15-6.714844 15-15s-6.714844-15-15-15zm0 0" fill="#23272b"/><path d="m110.3125 284.128906v4.773438c0-1.605469.058594-3.191406.152344-4.773438zm0 0" fill="#8accf5"/><path d="m408.65625 362.214844h-224.792969c-40.554687 0-73.550781-32.890625-73.550781-73.3125 0-45.214844 36.90625-82 82.273438-82h28.3125c28.367187 0 70.34375-16.84375 70.34375-52.996094v-138.90625c0-8.285156 6.71875-15 15-15h143.378906c8.28125 0 15 6.714844 15 15v291.414062c0 30.769532-25.105469 55.800782-55.964844 55.800782zm0 0" fill="#cdebfc"/><path d="m449.621094 0h-143.378906c-8.28125 0-15 6.714844-15 15v138.90625c0 22.449219-16.183594 37.449219-35.242188 45.597656v162.710938h152.65625c30.859375 0 55.964844-25.03125 55.964844-55.800782v-291.414062c0-8.285156-6.71875-15-15-15zm0 0" fill="#8bc8e8"/><path d="m362.8125 94.109375h-79.003906c-8.285156 0-15-6.714844-15-15 0-8.28125 6.714844-15 15-15h79.003906c8.285156 0 15 6.71875 15 15 0 8.285156-6.714844 15-15 15zm0 0" fill="#d6995c"/><path d="m362.8125 146.566406h-79.003906c-8.285156 0-15-6.71875-15-15 0-8.285156 6.714844-15 15-15h79.003906c8.285156 0 15 6.714844 15 15 0 8.28125-6.714844 15-15 15zm0 0" fill="#d6995c"/><path d="m110.3125 288.902344c0 8.859375 1.585938 17.359375 4.488281 25.226562l349.269531.003906c.355469-2.527343.550782-5.097656.550782-7.71875v-22.28125l-354.15625-.003906c-.09375 1.582032-.152344 3.171875-.152344 4.773438zm0 0" fill="#f03049"/><path d="m256 284.128906v30l208.074219.003906c.351562-2.527343.546875-5.097656.546875-7.71875v-22.28125zm0 0" fill="#bd002f"/></svg>