<svg height="512pt" viewBox="0 -20 512.001 512" width="512pt" xmlns="http://www.w3.org/2000/svg"><path d="m458.347656 112.054688-32.574218-35.382813c-14.925782-16.214844-40.464844-17.320313-56.75-2.453125l-2.960938 2.703125c-3.125 2.851563-5.683594 6.097656-7.6875 9.589844l-9.269531 13.28125c-19.953125 28.578125-52.695313 45.617187-87.644531 45.617187h-87.46875c-26.777344 0-44.515626 13.414063-48.554688 31.234375-.09375.402344-.214844.800781-.347656 1.195313-.011719.03125-.023438.0625-.03125.089844l-31.484375 160.171874c-3.554688 12.71875 3.984375 26.019532 16.753906 29.558594 12.769531 3.542969 26.125-3.964844 29.679687-16.683594l27.277344-84.816406c15.84375 10.867188 47.046875 17.25 67.628906 17.25h30.125c20.707032 0 64.433594-11.011718 80.332032-22l18.808594 82.902344c3.554687 12.714844 16.910156 20.222656 29.679687 16.683594 12.769531-3.542969 20.308594-16.84375 16.753906-29.558594l-14.957031-157.359375-3.5-9.621094 4.015625 4.363281c14.929687 16.214844 40.46875 17.320313 56.75 2.453126l2.960937-2.703126c16.285157-14.867187 17.394532-40.300781 2.464844-56.515624zm0 0" fill="#d6995c"/><path d="m458.347656 112.054688-32.574218-35.382813c-14.925782-16.214844-40.464844-17.320313-56.75-2.453125l-2.960938 2.703125c-3.125 2.851563-5.683594 6.097656-7.6875 9.589844l-9.269531 13.28125c-19.953125 28.578125-52.691407 45.617187-87.644531 45.617187h-5.460938v138h9.039062c20.707032 0 64.433594-11.011718 80.332032-22l18.808594 82.902344c3.554687 12.714844 16.910156 20.222656 29.679687 16.683594 12.769531-3.542969 20.308594-16.84375 16.753906-29.558594l-14.957031-157.359375-3.5-9.621094 4.015625 4.363281c14.929687 16.214844 40.46875 17.320313 56.75 2.453126l2.960937-2.703126c16.285157-14.867187 17.394532-40.300781 2.464844-56.515624zm0 0" fill="#b27a49"/><path d="m256.003906 471.210938c-.003906 0 0 0-.003906 0-50.3125 0-99.449219-6.5625-142.109375-18.972657-46.398437-13.5-84.25-33.863281-109.457031-58.882812-2.835938-2.816407-4.433594-6.648438-4.433594-10.644531v-20.320313c0-17.757813 11.378906-34.421875 28.308594-41.472656 15.253906-6.351563 31.707031-3.375 42.9375 7.773437 33.746094 33.492188 104.394531 54.484375 184.371094 54.78125.570312 0 1.140624.003906 1.707031.003906 79.480469 0 149.59375-20.675781 183.273437-54.105468 11.292969-11.210938 27.828125-14.207032 43.144532-7.828125 16.902343 7.035156 28.257812 23.679687 28.257812 41.417969v19.75c0 3.996093-1.597656 7.828124-4.433594 10.644531-25.207031 25.019531-63.054687 45.382812-109.457031 58.882812-42.65625 12.414063-91.796875 18.972657-142.105469 18.972657zm0 0" fill="#f03049"/><path d="m300.183594 130.410156h-88.367188c-8.285156 0-15 6.714844-15 15v40.996094c0 24.265625 19.738282 44.003906 44.003906 44.003906h.867188c-.003906.113282-.015625.222656-.015625.332032v54.753906c0 8.28125 6.714844 15 15 15 8.28125 0 15-6.71875 15-15v-54.753906c0-.113282-.015625-.226563-.019531-.34375 24.046875-.253907 43.53125-19.886719 43.53125-43.992188v-40.996094c0-8.285156-6.714844-15-15-15zm0 0" fill="#06ccab"/><path d="m422.984375 116.742188c0-11.046876-8.972656-20-20.042969-20-11.066406 0-20.039062 8.953124-20.039062 20 0 11.046874 8.972656 20.003906 20.039062 20.003906 11.070313 0 20.042969-8.957032 20.042969-20.003906zm0 0" fill="#61362b"/><path d="m84.859375 260.988281c-30.695313 0-55.667969-24.894531-55.667969-55.496093 0-5.101563 2.433594-9.917969 6.71875-12.679688 4.269532-2.75 9.480469-3.222656 14.105469-1.148438 1.304687.507813 7.664063 2.746094 14.644531 1.128907-6.667968-9.265625-10.375-20.488281-10.375-32.300781 0-30.601563 24.972656-55.5 55.667969-55.5 30.691406 0 55.664063 24.898437 55.664063 55.5 0 18.835937-9.726563 36.246093-25.105469 46.371093-.734375 29.972657-25.417969 54.125-55.652344 54.125zm0 0" fill="#915041"/><path d="m483.742188 321.542969c-15.316407-6.378907-31.851563-3.378907-43.144532 7.828125-33.679687 33.433594-103.792968 54.105468-183.273437 54.105468-.4375 0-.882813 0-1.324219-.003906v87.738282h.003906c50.308594 0 99.449219-6.558594 142.105469-18.972657 46.402344-13.5 84.25-33.859375 109.457031-58.878906 2.839844-2.816406 4.433594-6.648437 4.433594-10.648437v-19.75c0-17.738282-11.355469-34.378907-28.257812-41.417969zm0 0" fill="#bd002f"/><path d="m300.183594 130.410156h-44.183594v170.050782c.222656.007812.445312.035156.671875.035156 8.28125 0 15-6.71875 15-15v-54.753906c0-.113282-.015625-.226563-.019531-.34375 24.046875-.253907 43.53125-19.886719 43.53125-43.992188v-40.996094c0-8.285156-6.714844-15-15-15zm0 0" fill="#088a7a"/><path d="m297.71875 164.992188h-4.015625c-30.417969 0-55.164063-24.671876-55.164063-55v-3.996094c0-30.324219 24.746094-55 55.164063-55h4.015625c.71875 0 1.4375.015625 2.15625.042968l23.027344-27.777343c7.523437-14.195313 22.441406-23.261719 38.582031-23.261719h88.863281c24.050782 0 43.617188 19.511719 43.617188 43.5 0 23.984375-19.566406 43.496094-43.617188 43.496094h-67.09375l-33.035156 39.851562c-7.3125 22.636719-28.402344 38.144532-52.5 38.144532zm0 0" fill="#61362b"/></svg>