<svg height="511pt" viewBox="0 0 511.99998 511" width="511pt" xmlns="http://www.w3.org/2000/svg"><path d="m78.636719 364.113281c-3.863281 0-7.726563-1.484375-10.660157-4.445312-5.828124-5.886719-5.78125-15.382813.101563-21.214844l9.953125-9.851563c5.882812-5.828124 15.382812-5.785156 21.210938.101563 5.832031 5.886719 5.785156 15.382813-.101563 21.214844l-9.949219 9.851562c-2.925781 2.894531-6.742187 4.34375-10.554687 4.34375zm0 0" fill="#ffa426"/><path d="m119.226562 323.507812c-3.839843 0-7.679687-1.464843-10.609374-4.390624-5.855469-5.859376-5.855469-15.359376.003906-21.214844l74.46875-74.460938c5.859375-5.855468 15.351562-5.855468 21.214844 0 5.855468 5.859375 5.855468 15.355469-.003907 21.214844l-74.46875 74.460938c-2.929687 2.925781-6.765625 4.390624-10.605469 4.390624zm0 0" fill="#ffa426"/><path d="m302.546875 356.878906c-3.816406 0-7.632813-1.449218-10.558594-4.34375l-133.195312-131.917968c-2.84375-2.816407-4.441407-6.652344-4.441407-10.65625 0-4.003907 1.601563-7.839844 4.441407-10.65625l134.613281-133.324219c5.847656-5.789063 15.265625-5.789063 21.113281 0l133.191407 131.917969c2.847656 2.816406 4.445312 6.65625 4.445312 10.65625 0 4.003906-1.601562 7.84375-4.445312 10.65625l-134.609376 133.324218c-2.921874 2.894532-6.738281 4.34375-10.554687 4.34375zm0 0" fill="#06ccab"/><path d="m336.257812 429.792969c-.847656-7.652344-7.601562-13.292969-15.300781-13.292969h-6.957031v-7.0625c0-8.847656-7.660156-15.90625-16.707031-14.90625-7.652344.84375-13.292969 7.597656-13.292969 15.300781v6.667969h-6.984375c-8.84375 0-15.902344 7.65625-14.90625 16.707031.84375 7.652344 7.601563 13.292969 15.300781 13.292969h6.589844v6.453125c0 7.699219 5.640625 14.453125 13.292969 15.296875 9.046875 1 16.707031-6.058594 16.707031-14.902344v-6.847656h7.351562c8.84375 0 15.902344-7.660156 14.90625-16.707031zm0 0" fill="#fe8205"/><path d="m82.9375 222.5h-6.9375v-6.890625c0-8.847656-7.660156-15.90625-16.707031-14.90625-7.652344.84375-13.292969 7.597656-13.292969 15.296875v6.5h-7c-8.847656 0-15.90625 7.65625-14.90625 16.707031.84375 7.652344 7.597656 13.292969 15.300781 13.292969h6.605469v6.621094c0 7.703125 5.640625 14.457031 13.292969 15.300781 9.046875.996094 16.707031-6.058594 16.707031-14.90625v-7.015625h7.332031c8.847657 0 15.90625-7.660156 14.90625-16.707031-.84375-7.652344-7.597656-13.292969-15.300781-13.292969zm0 0" fill="#ffa426"/><path d="m130.25 481.496094c-3.859375 0-7.722656-1.480469-10.65625-4.445313-5.828125-5.886719-5.785156-15.382812.101562-21.210937l9.949219-9.855469c5.882813-5.828125 15.382813-5.785156 21.214844.101563 5.828125 5.886718 5.78125 15.382812-.105469 21.214843l-9.945312 9.851563c-2.925782 2.898437-6.742188 4.34375-10.558594 4.34375zm0 0" fill="#fe8205"/><path d="m170.839844 440.890625c-3.839844 0-7.675782-1.464844-10.605469-4.394531-5.859375-5.855469-5.855469-15.355469 0-21.210938l98.324219-98.3125c5.859375-5.855468 15.351562-5.855468 21.210937 0 5.859375 5.859375 5.855469 15.355469 0 21.214844l-98.324219 98.3125c-2.925781 2.925781-6.765624 4.390625-10.605468 4.390625zm0 0" fill="#fe8205"/><path d="m380.839844 131.667969-155.167969 155.183593 66.320313 65.683594c2.921874 2.894532 6.738281 4.34375 10.554687 4.34375s7.632813-1.449218 10.554687-4.34375l134.613282-133.320312c2.84375-2.816406 4.445312-6.65625 4.445312-10.65625 0-4.003906-1.601562-7.84375-4.445312-10.660156zm0 0" fill="#088a7a"/><g fill="#ffa426"><path d="m380.839844 131.667969-23.828125 23.832031h47.890625zm0 0"/><path d="m35.609375 477.089844c-.027344-.027344-.058594-.050782-.085937-.074219-5.835938-5.808594-15.269532-5.828125-21.128907-.027344l-9.949219 9.851563c-5.886718 5.832031-5.933593 15.328125-.101562 21.214844.023438.023437.050781.046874.074219.070312 2.921875 2.910156 6.75 4.375 10.582031 4.375 3.8125 0 7.628906-1.445312 10.554688-4.34375l9.949218-9.851562c5.886719-5.832032 5.933594-15.328126.105469-21.214844zm0 0"/><path d="m164.53125 347.996094c-.003906-.007813-.007812-.011719-.011719-.015625-5.859375-5.859375-15.355469-5.859375-21.214843 0l-98.320313 98.308593c-5.859375 5.855469-5.859375 15.355469-.003906 21.210938.011719.011719.019531.019531.03125.027344 2.925781 2.910156 6.75 4.367187 10.578125 4.367187 3.839844 0 7.675781-1.460937 10.605468-4.390625l98.320313-98.3125c5.855469-5.851562 5.859375-15.335937.015625-21.195312zm0 0"/></g><path d="m35.523438 477.011719c.027343.027343.058593.050781.082031.078125 5.832031 5.886718 5.785156 15.382812-.101563 21.214844l-9.949218 9.851562c-2.925782 2.898438-6.742188 4.34375-10.554688 4.34375-3.832031 0-7.660156-1.464844-10.585938-4.375-.023437-.023438-.050781-.046875-.074218-.070312zm0 0" fill="#fe8205"/><path d="m44.980469 467.5c.011719.011719.019531.019531.03125.027344 2.925781 2.910156 6.75 4.367187 10.578125 4.367187 3.839844 0 7.675781-1.460937 10.605468-4.390625l98.320313-98.3125c5.855469-5.851562 5.859375-15.339844.015625-21.199218-.003906-.003907-.007812-.007813-.011719-.011719zm0 0" fill="#fe8205"/><path d="m374.613281 125.5h-141.300781l-30.289062 30h201.878906zm0 0" fill="#ffda45"/><path d="m233.394531 294.5h138.304688l30.289062-30h-198.886719zm0 0" fill="#ffda45"/><path d="m447.714844 219.214844c2.84375-2.816406 4.441406-6.65625 4.441406-10.65625 0-4.003906-1.597656-7.84375-4.441406-10.660156l-3.433594-3.398438h-280.636719l-4.851562 4.804688c-2.84375 2.816406-4.441407 6.652343-4.441407 10.65625 0 4.003906 1.601563 7.839843 4.441407 10.65625l3.921875 3.882812h279.660156zm0 0" fill="#ffda45"/><path d="m233.394531 294.5h138.304688l30.289062-30h-153.96875l-22.347656 22.351562zm0 0" fill="#ffa426"/><path d="m444.28125 194.5h-126.265625l-30 30h154.359375l5.335938-5.285156c2.847656-2.816406 4.445312-6.65625 4.445312-10.65625 0-4.003906-1.601562-7.84375-4.445312-10.660156zm0 0" fill="#ffa426"/><path d="m460.359375 246.585938c-3.894531 0-7.703125-1.515626-10.558594-4.339844l-183.21875-181.460938c-4.015625-3.976562-5.453125-9.882812-3.71875-15.265625 1.738281-5.378906 6.355469-9.328125 11.941407-10.207031l219.859374-34.628906c4.769532-.7500002 9.609376.835937 13.003907 4.269531 3.394531 3.4375 4.925781 8.292969 4.121093 13.054687l-36.644531 216.085938c-.9375 5.519531-4.867187 10.058594-10.195312 11.773438-1.507813.484374-3.054688.71875-4.589844.71875zm0 0" fill="#f03049"/><path d="m507.601562 4.898438-148 148.011718 90.199219 89.335938c2.855469 2.824218 6.664063 4.339844 10.558594 4.339844 1.535156 0 3.082031-.234376 4.589844-.71875 5.328125-1.714844 9.261719-6.253907 10.199219-11.769532l36.640624-216.089844c.808594-4.761718-.726562-9.617187-4.121093-13.050781-.019531-.023437-.046875-.039062-.066407-.058593zm0 0" fill="#bd002f"/></svg>