<svg height="512pt" viewBox="0 0 512 512" width="512pt" xmlns="http://www.w3.org/2000/svg"><path d="m.0820312 212.121094c-.0390624.359375-.0664062.722656-.07812495 1.089844-.01953125.628906.01562495 1.25.07812495 1.867187zm0 0" fill="#8f0933"/><path d="m506.097656 208.996094-189.871094-149.929688h-120.230468l-190.246094 149.921875c-3.609375 2.84375-5.7148438 7.1875-5.7148438 11.78125v143.5625h511.7656248v-143.5625c0-4.589843-2.101562-8.925781-5.703125-11.773437zm0 0" fill="#bd002f"/><path d="m506.097656 208.996094-189.871094-149.929688h-60.308593l.015625 305.269532h255.867187v-143.566407c0-4.589843-2.101562-8.925781-5.703125-11.773437zm0 0" fill="#8f0933"/><path d="m417.144531 512h-322.539062c-15.992188 0-29-13.039062-29-29.066406v-453.867188c0-16.027344 13.011719-29.066406 29-29.066406h322.539062c15.992188 0 29.003907 13.039062 29.003907 29.066406v453.871094c0 16.023438-13.011719 29.0625-29.003907 29.0625zm0 0" fill="#e3f7ff"/><path d="m417.144531 0h-161.226562v512h161.226562c15.992188 0 29.003907-13.039062 29.003907-29.066406v-453.867188c0-16.027344-13.011719-29.066406-29.003907-29.066406zm0 0" fill="#8bc8e8"/><path d="m223.632812 104.671875h-73.484374c-8.28125 0-14.996094-6.726563-14.996094-15.027344s6.714844-15.03125 14.996094-15.03125h73.484374c8.285157 0 15 6.730469 15 15.03125s-6.714843 15.027344-15 15.027344zm0 0" fill="#915041"/><path d="m361.644531 167.03125h-211.457031c-8.28125 0-14.996094-6.726562-14.996094-15.027344 0-8.300781 6.714844-15.03125 14.996094-15.03125h211.457031c8.285157 0 15 6.730469 15 15.03125 0 8.300782-6.714843 15.027344-15 15.027344zm0 0" fill="#915041"/><path d="m361.644531 167.03125c8.285157 0 15-6.726562 15-15.027344 0-8.300781-6.714843-15.03125-15-15.03125h-105.726562v30.058594zm0 0" fill="#61362b"/><path d="m361.644531 222.40625h-211.457031c-8.28125 0-14.996094-6.726562-14.996094-15.027344 0-8.300781 6.714844-15.03125 14.996094-15.03125h211.457031c8.285157 0 15 6.730469 15 15.03125 0 8.300782-6.714843 15.027344-15 15.027344zm0 0" fill="#915041"/><path d="m361.644531 222.40625c8.285157 0 15-6.726562 15-15.027344 0-8.300781-6.714843-15.03125-15-15.03125h-105.726562v30.058594zm0 0" fill="#61362b"/><path d="m504.414062 236.296875c-4.578124-2.695313-10.238281-2.769531-14.882812-.195313l-198.191406 109.808594c-22.179688 12.289063-48.664063 12.289063-70.84375 0l-198.191406-109.808594c-4.644532-2.574218-10.308594-2.5-14.882813.195313-4.578125 2.695313-7.3867188 7.613281-7.3867188 12.925781v217.351563c0 24.8125 20.1874998 45 44.9999998 45h421.765625c24.8125 0 45-20.1875 45-45v-217.351563c0-5.3125-2.808593-10.230468-7.386719-12.925781zm0 0" fill="#f03049"/><g fill="#bd002f"><path d="m504.414062 236.296875c-4.578124-2.695313-10.238281-2.769531-14.882812-.195313l-198.191406 109.808594c-11.050782 6.125-23.171875 9.195313-35.296875 9.21875h-.125v156.445313h210.882812c24.8125 0 45-20.1875 45-45v-217.351563c0-5.3125-2.808593-10.230468-7.386719-12.925781zm0 0"/><path d="m106.691406 423.742188c-3.847656 0-7.695312-1.472657-10.625-4.417969-5.847656-5.882813-5.828125-15.394531.039063-21.253907l38.972656-38.921874c5.863281-5.859376 15.359375-5.84375 21.210937.039062 5.84375 5.878906 5.828126 15.394531-.039062 21.253906l-38.972656 38.917969c-2.929688 2.921875-6.757813 4.382813-10.585938 4.382813zm0 0"/><path d="m64.726562 465.648438c-3.847656 0-7.691406-1.476563-10.621093-4.421876-5.847657-5.878906-5.832031-15.394531.035156-21.253906l10.65625-10.640625c5.863281-5.859375 15.359375-5.84375 21.207031.039063 5.847656 5.878906 5.832032 15.394531-.035156 21.253906l-10.65625 10.636719c-2.925781 2.925781-6.753906 4.386719-10.585938 4.386719zm0 0"/></g><path d="m405.460938 423.742188c-3.832032 0-7.660157-1.457032-10.585938-4.382813l-38.976562-38.917969c-5.867188-5.859375-5.882813-15.375-.035157-21.253906 5.847657-5.882812 15.34375-5.898438 21.210938-.039062l38.972656 38.921874c5.867187 5.859376 5.882813 15.375.035156 21.253907-2.929687 2.945312-6.777343 4.417969-10.621093 4.417969zm0 0" fill="#8f0933"/><path d="m447.421875 465.648438c-3.828125 0-7.660156-1.460938-10.585937-4.382813l-10.65625-10.640625c-5.867188-5.859375-5.882813-15.375-.039063-21.253906 5.847656-5.882813 15.34375-5.898438 21.210937-.039063l10.65625 10.640625c5.867188 5.855469 5.882813 15.375.039063 21.253906-2.933594 2.945313-6.777344 4.421876-10.625 4.421876zm0 0" fill="#8f0933"/></svg>