<svg height="512pt" viewBox="-48 0 512 512" width="512pt" xmlns="http://www.w3.org/2000/svg"><path d="m208.285156 417.578125c-114.851562-.003906-208.285156-93.664063-208.285156-208.789063 0-115.128906 93.433594-208.789062 208.285156-208.789062 114.847656 0 208.28125 93.660156 208.28125 208.789062 0 115.125-93.433594 208.789063-208.28125 208.789063zm0 0" fill="#e3f7ff"/><path d="m208.285156 0c114.847656 0 208.28125 93.660156 208.28125 208.789062 0 115.125-93.433594 208.789063-208.28125 208.789063zm0 0" fill="#8bc8e8"/><path d="m208.285156 371.921875c-8.285156 0-15-6.714844-15-15v-42.964844c0-8.285156 6.714844-15 15-15 8.28125 0 15 6.714844 15 15v42.964844c0 8.285156-6.71875 15-15 15zm0 0" fill="#d6995c"/><path d="m340.621094 206.992188h-7.125v-7.183594c0-8.285156-6.714844-15-15-15s-15 6.714844-15 15v7.183594h-7.125c-8.28125 0-15 6.714843-15 15 0 8.28125 6.71875 15 15 15h7.125v7.179687c0 8.285156 6.714844 15 15 15s15-6.714844 15-15v-7.179687h7.125c8.28125 0 15-6.71875 15-15 0-8.285157-6.71875-15-15-15zm0 0" fill="#ffa426"/><path d="m138.648438 131.816406h-7.125v-7.183594c0-8.285156-6.714844-15-15-15-8.285157 0-15 6.714844-15 15v7.183594h-7.121094c-8.285156 0-15 6.714844-15 15 0 8.28125 6.714844 15 15 15h7.121094v7.179688c0 8.285156 6.714843 15 15 15 8.285156 0 15-6.714844 15-15v-7.179688h7.125c8.285156 0 15-6.71875 15-15 0-8.285156-6.714844-15-15-15zm0 0" fill="#ffda45"/><path d="m106.332031 239.605469c0-10.402344-8.351562-18.835938-18.65625-18.835938-10.304687 0-18.65625 8.433594-18.65625 18.835938 0 10.402343 8.351563 18.835937 18.65625 18.835937 10.304688 0 18.65625-8.433594 18.65625-18.835937zm0 0" fill="#ffda45"/><path d="m299.007812 140.339844c0-10.40625-8.355468-18.835938-18.65625-18.835938-10.304687 0-18.65625 8.429688-18.65625 18.835938 0 10.402344 8.351563 18.835937 18.65625 18.835937 10.300782 0 18.65625-8.433593 18.65625-18.835937zm0 0" fill="#ffa426"/><path d="m208.34375 74.160156c0-10.402344-8.355469-18.835937-18.65625-18.835937-10.304688 0-18.65625 8.433593-18.65625 18.835937s8.351562 18.835938 18.65625 18.835938c10.300781 0 18.65625-8.433594 18.65625-18.835938zm0 0" fill="#ffda45"/><path d="m208.285156 371.921875c8.28125 0 15-6.714844 15-15v-42.964844c0-8.285156-6.71875-15-15-15zm0 0" fill="#b27a49"/><path d="m260.050781 326.226562h-103.53125c-4.886719 0-9.464843-2.378906-12.273437-6.375-2.808594-3.996093-3.492188-9.109374-1.839844-13.707031l51.765625-143.816406c2.140625-5.949219 7.789063-9.917969 14.113281-9.917969 6.324219 0 11.972656 3.96875 14.113282 9.917969l51.761718 143.816406c1.65625 4.597657.96875 9.710938-1.839844 13.707031-2.808593 3.996094-7.386718 6.375-12.269531 6.375zm0 0" fill="#06ccab"/><path d="m274.160156 306.144531-51.761718-143.816406c-2.136719-5.933594-7.753907-9.890625-14.054688-9.917969v173.816406h51.703125c4.886719 0 9.464844-2.378906 12.273437-6.375 2.808594-3.996093 3.496094-9.109374 1.839844-13.707031zm0 0" fill="#088a7a"/><path d="m337.328125 444.328125h-258.089844c-26.851562 0-48.695312-21.847656-48.695312-48.695313v-.28125c0-26.851562 21.84375-48.695312 48.695312-48.695312h258.089844c26.855469 0 48.699219 21.84375 48.699219 48.695312v.28125c0 26.847657-21.847656 48.695313-48.699219 48.695313zm0 0" fill="#f03049"/><path d="m350.828125 512h-285.089844c-26.851562 0-48.695312-21.84375-48.695312-48.695312v-.28125c0-26.851563 21.84375-48.695313 48.695312-48.695313h285.089844c26.851563 0 48.695313 21.84375 48.695313 48.695313v.28125c0 26.851562-21.84375 48.695312-48.695313 48.695312zm0 0" fill="#bd002f"/><path d="m337.328125 346.652344h-129.042969v97.675781h129.042969c26.855469 0 48.699219-21.847656 48.699219-48.695313v-.28125c0-26.851562-21.847656-48.699218-48.699219-48.699218zm0 0" fill="#bd002f"/><path d="m350.828125 414.328125h-142.484375v97.671875h142.484375c26.851563 0 48.695313-21.84375 48.695313-48.695312v-.28125c0-26.851563-21.84375-48.695313-48.695313-48.695313zm0 0" fill="#8f0933"/></svg>