<svg height="511pt" viewBox="-86 0 511 511.99992" width="511pt" xmlns="http://www.w3.org/2000/svg"><path d="m15.503906 512c-3.253906 0-6.457031-1.058594-9.101562-3.078125-3.71875-2.839844-5.898438-7.246094-5.898438-11.921875v-411.292969c0-.429687.019532-.851562.054688-1.269531-.6250002-7.144531 3.960937-13.910156 11.128906-15.796875l258.9375-68.144531c4.496094-1.1875 9.289062-.214844 12.976562 2.625 3.683594 2.839844 5.839844 7.230468 5.839844 11.878906v411.296875c0 6.761719-4.523437 12.6875-11.046875 14.46875l-258.9375 70.703125c-1.304687.355469-2.632812.53125-3.953125.53125zm0 0" fill="#8f0933"/><path d="m283.601562 3.121094c-3.6875-2.839844-8.480468-3.8125-12.976562-2.625l-100.398438 26.421875v443.382812l108.167969-29.535156c6.523438-1.78125 11.046875-7.707031 11.046875-14.472656v-411.292969c0-4.648438-2.160156-9.039062-5.839844-11.878906zm0 0" fill="#700029"/><path d="m324.953125 512h-309.449219c-8.28125 0-15-6.714844-15-15v-411.292969c0-3.980469 1.582032-7.792969 4.394532-10.605469s6.628906-4.394531 10.605468-4.394531h309.449219c8.285156 0 15 6.714844 15 15v411.292969c0 3.980469-1.582031 7.792969-4.394531 10.605469s-6.628906 4.394531-10.605469 4.394531zm0 0" fill="#f03049"/><path d="m339.953125 85.707031c0-8.285156-6.71875-15-15-15h-154.726563v441.292969h154.726563c3.976563 0 7.792969-1.582031 10.605469-4.394531s4.394531-6.628907 4.394531-10.605469zm0 0" fill="#bd002f"/><path d="m170.226562 360.984375c-28.066406 0-50.902343-22.832031-50.902343-50.894531 0-8.28125 6.714843-15 14.996093-15h71.8125c8.285157 0 15 6.71875 15 15 0 28.0625-22.835937 50.894531-50.90625 50.894531zm0 0" fill="#d6995c"/><path d="m170.226562 180.101562c-8.28125 0-15-6.714843-15-15v-29c0-8.285156 6.71875-15 15-15 8.285157 0 15 6.714844 15 15v29c0 8.285157-6.714843 15-15 15zm0 0" fill="#edc472"/><path d="m214.402344 412.851562h-88.347656c-8.285157 0-15-6.714843-15-15 0-8.28125 6.714843-15 15-15h88.347656c8.285156 0 15 6.71875 15 15 0 8.285157-6.714844 15-15 15zm0 0" fill="#784132"/><path d="m240.296875 459.417969h-140.136719c-8.285156 0-15-6.714844-15-15 0-8.285157 6.714844-15 15-15h140.136719c8.285156 0 15 6.714843 15 15 0 8.285156-6.714844 15-15 15zm0 0" fill="#784132"/><path d="m206.132812 295.089844h-35.90625v65.894531c28.070313 0 50.90625-22.828125 50.90625-50.894531 0-8.28125-6.714843-15-15-15zm0 0" fill="#b27a49"/><path d="m170.226562 180.101562c8.285157 0 15-6.714843 15-15v-29c0-8.285156-6.714843-15-15-15zm0 0" fill="#cc9f56"/><path d="m262.996094 324.824219h-185.539063c-8.285156 0-15-6.714844-15-15 0-20.011719 11.195313-41.128907 26.761719-52.398438v-26.644531c0-44.65625 36.339844-80.984375 81.007812-80.984375 44.671876 0 81.011719 36.328125 81.011719 80.984375v26.644531c15.566407 11.269531 26.761719 32.386719 26.761719 52.398438-.003906 8.285156-6.71875 15-15.003906 15zm0 0" fill="#ffde91"/><path d="m251.238281 257.425781v-26.644531c0-44.65625-36.339843-80.984375-81.011719-80.984375v175.027344h92.773438c8.28125 0 15-6.714844 15-15-.003906-20.011719-11.195312-41.128907-26.761719-52.398438zm0 0" fill="#e8ba64"/><g fill="#61362b"><path d="m214.402344 412.851562c8.285156 0 15-6.714843 15-15 0-8.28125-6.714844-15-15-15h-44.175782v30zm0 0"/><path d="m240.296875 429.417969h-70.070313v30h70.070313c8.285156 0 15-6.714844 15-15 0-8.285157-6.714844-15-15-15zm0 0"/></g></svg>