<svg height="512pt" viewBox="-19 0 512 512.00125" width="512pt" xmlns="http://www.w3.org/2000/svg"><path d="m414.480469 512h-354.867188c-8.28125 0-15-6.714844-15-15v-340.09375c0-8.285156 6.71875-15 15-15h354.867188c8.285156 0 15 6.714844 15 15v340.09375c0 8.285156-6.714844 15-15 15zm0 0" fill="#d6995c"/><path d="m414.480469 141.90625h-177.433594v370.09375h177.433594c8.285156 0 15-6.714844 15-15v-340.09375c0-8.285156-6.714844-15-15-15zm0 0" fill="#b27a49"/><path d="m450.351562 171.90625h-426.605468c-8.285156 0-15-6.71875-15-15v-95.355469c0-8.285156 6.714844-15 15-15h426.605468c8.28125 0 15 6.714844 15 15v95.351563c0 8.285156-6.71875 15.003906-15 15.003906zm0 0" fill="#915041"/><path d="m161.457031 344.292969h-86.980469c-8.285156 0-15-6.71875-15-15v-23.523438c0-8.285156 6.714844-15 15-15h86.980469c8.285157 0 15 6.714844 15 15v23.523438c0 8.28125-6.714843 15-15 15zm0 0" fill="#915041"/><path d="m399.667969 401.039062h-52.105469c-8.285156 0-15-6.714843-15-15v-23.523437c0-8.285156 6.714844-15 15-15h52.105469c8.28125 0 15 6.714844 15 15v23.523437c0 8.285157-6.71875 15-15 15zm0 0" fill="#61362b"/><path d="m339.027344 256.023438h-86.980469c-8.285156 0-15-6.714844-15-15v-23.523438c0-8.285156 6.714844-15 15-15h86.980469c8.285156 0 15 6.714844 15 15v23.523438c0 8.285156-6.714844 15-15 15zm0 0" fill="#61362b"/><path d="m259.5 497h-86.980469c-8.285156 0-15-6.714844-15-15v-23.523438c0-8.285156 6.714844-15 15-15h86.980469c8.285156 0 15 6.714844 15 15v23.523438c0 8.285156-6.714844 15-15 15zm0 0" fill="#915041"/><path d="m259.5 443.476562h-22.378906v53.523438h22.378906c8.285156 0 15-6.714844 15-15v-23.523438c0-8.285156-6.714844-15-15-15zm0 0" fill="#61362b"/><path d="m153.40625 403.933594h-72.71875c-8.285156 0-15-6.71875-15-15 0-8.285156 6.714844-15 15-15h72.71875c8.28125 0 14.996094 6.714844 14.996094 15 0 8.28125-6.714844 15-14.996094 15zm0 0" fill="#f2d1a5"/><path d="m343.003906 314.984375h-72.71875c-8.285156 0-15-6.714844-15-15s6.714844-15 15-15h72.71875c8.28125 0 15 6.714844 15 15s-6.71875 15-15 15zm0 0" fill="#e3a76f"/><path d="m191.246094 241.878906h-72.71875c-8.28125 0-15-6.714844-15-15 0-8.28125 6.71875-15 15-15h72.71875c8.285156 0 15 6.71875 15 15 0 8.285156-6.714844 15-15 15zm0 0" fill="#f2d1a5"/><path d="m396.75 459.074219h-44.164062c-8.28125 0-15-6.714844-15-15 0-8.285157 6.71875-15 15-15h44.164062c8.285156 0 15 6.714843 15 15 0 8.285156-6.714844 15-15 15zm0 0" fill="#e3a76f"/><path d="m450.351562 46.550781h-213.304687v125.351563h213.304687c8.28125 0 15-6.714844 15-15v-95.351563c0-8.285156-6.71875-15-15-15zm0 0" fill="#61362b"/><path d="m368.164062 166.65625c-28.75 0-52.140624-23.480469-52.140624-52.34375v-17.746094h-33.242188c-8.925781 13.734375-24.34375 22.417969-41.0625 22.417969h-3.160156c-16.71875 0-32.136719-8.683594-41.0625-22.417969h-6.480469c-1.484375 19.621094-17.875 35.132813-37.808594 35.132813-19.933593 0-36.324219-15.511719-37.808593-35.132813h-26.566407c-5.558593 18.59375-22.769531 32.183594-43.082031 32.183594h-.78125c-24.796875 0-44.96875-20.246094-44.96875-45.132812v-35.21875c0-.015626 0-.035157 0-.054688s0-.039062 0-.058594c0-26.621094 21.582031-48.28124975 48.105469-48.28124975h104.933593c.117188-.00390625.21875-.00390625.335938 0l272.613281-.00390625c26.523438 0 48.105469 21.660156 48.105469 48.28125 0 26.625-21.582031 48.28125-48.105469 48.28125h-5.679687v17.75c0 28.863281-23.390625 52.34375-52.144532 52.34375zm0 0" fill="#cdebfc"/><path d="m425.988281 0-188.941406.00390625v118.93359375c.503906.015625 1.003906.046875 1.511719.046875h3.160156c16.71875 0 32.136719-8.683594 41.0625-22.417969h33.242188v17.746094c0 28.863281 23.390624 52.34375 52.144531 52.34375 28.75 0 52.144531-23.480469 52.144531-52.34375v-17.746094h5.679688c26.523437 0 48.101562-21.660156 48.101562-48.28125 0-26.625-21.578125-48.285156-48.105469-48.285156zm0 0" fill="#8bc8e8"/></svg>