<svg height="512pt" viewBox="0 -22 512 512" width="512pt" xmlns="http://www.w3.org/2000/svg"><path d="m261.289062 450.3125c-49.363281 0-87.320312-3.363281-119.457031-10.585938-45.210937-10.160156-77.476562-28.410156-95.902343-54.238281-22.039063-30.894531-24.457032-71.996093-7.1875-122.160156 12.257812-35.601563 39.941406-65.921875 77.957031-85.371094 40.148437-20.542969 90.613281-28.738281 145.949219-23.710937 119.5625 10.871094 222.003906 114.855468 222.003906 192.359375 0 20.351562-7.039063 38.171875-20.917969 52.964843-11.988281 12.773438-29.261719 23.253907-51.34375 31.148438-36.367187 13-87.207031 19.59375-151.101563 19.59375zm0 0" fill="#b27a49"/><path d="m262.648438 154.246094c-2.226563-.199219-4.4375-.375-6.648438-.535156v296.589843c1.75.007813 3.511719.011719 5.289062.011719 63.894532 0 114.734376-6.59375 151.105469-19.59375 22.078125-7.894531 39.355469-18.375 51.34375-31.148438 13.878907-14.792968 20.914063-32.613281 20.914063-52.964843 0-77.503907-102.441406-181.488281-222.003906-192.359375zm0 0" fill="#9e6f46"/><path d="m302.066406 406.078125c-2.089844 0-4.210937-.085937-6.363281-.257813-19.976563-1.585937-40.128906-10.574218-56.742187-25.3125-2.976563-2.640624-4.78125-6.351562-5.019532-10.324218-.238281-3.972656 1.109375-7.875 3.75-10.851563l71.097656-80.152343c2.640626-2.976563 6.355469-4.78125 10.324219-5.023438 3.964844-.230469 7.875 1.113281 10.851563 3.753906 16.613281 14.734375 27.941406 33.671875 31.902344 53.316406 4.273437 21.195313-.363282 40.75-13.058594 55.058594-11.425782 12.882813-27.851563 19.792969-46.742188 19.792969zm0 0" fill="#ffa426"/><path d="m364.007812 402.753906c-7.8125 0-15.460937-1.554687-22.691406-4.683594-17.554687-7.601562-30.027344-23.359374-35.121094-44.371093-4.71875-19.476563-2.457031-41.429688 6.367188-61.808594 3.292969-7.601563 12.121094-11.097656 19.722656-7.804687l98.324219 42.566406c3.652344 1.582031 6.523437 4.546875 7.988281 8.246094 1.464844 3.699218 1.398438 7.828124-.183594 11.480468-8.820312 20.378906-23.28125 37.046875-40.714843 46.933594-11.058594 6.273438-22.539063 9.441406-33.691407 9.441406zm0 0" fill="#fe8205"/><path d="m497 375.582031h-482c-8.285156 0-15 6.71875-15 15 0 8.285157 6.714844 15 15 15h1.132812v16.066407c0 25.164062 20.472657 45.632812 45.636719 45.632812h388.464844c25.164063 0 45.632813-20.46875 45.632813-45.632812v-16.066407h1.132812c8.285156 0 15-6.714843 15-15 0-8.28125-6.714844-15-15-15zm0 0" fill="#f03049"/><path d="m105.402344 168.320312-56.113282-56.761718.054688-9.617188c.046875-8.285156-6.628906-15.039062-14.914062-15.085937-.027344 0-.058594 0-.085938 0-8.246094 0-14.953125 6.660156-15 14.914062l-.003906.832031-.832032-.003906c-.03125 0-.058593 0-.085937 0-8.246094 0-14.953125 6.660156-15 14.914063-.046875 8.285156 6.632813 15.039062 14.914063 15.085937l9.621093.054688 56.113281 56.757812c2.933594 2.96875 6.800782 4.453125 10.667969 4.453125 3.808594 0 7.621094-1.441406 10.542969-4.332031 5.894531-5.824219 5.949219-15.320312.121094-21.210938zm0 0" fill="#cdebfc"/><path d="m195.347656 353.53125c-2.132812 0-4.273437-.09375-6.421875-.28125-21.386719-1.882812-40.761719-13.007812-53.15625-30.53125l-64.136719-90.65625c-11.535156-16.308594-9.601562-38.339844 4.605469-52.382812l19.523438-19.304688c14.207031-14.042969 36.257812-15.730469 52.433593-4.007812l89.914063 65.164062c17.382813 12.597656 28.289063 32.097656 29.925781 53.5 1.636719 21.40625-6.179687 42.335938-21.445312 57.425781-13.730469 13.578125-32.121094 21.074219-51.242188 21.074219zm0 0" fill="#d6995c"/><path d="m178.792969 135.683594c-3.601563 0-7.21875-1.289063-10.09375-3.90625-6.125-5.578125-6.570313-15.0625-.996094-21.191406l3.261719-3.582032c4.074218-4.480468 4.074218-11.234375 0-15.71875-13.929688-15.304687-14.441406-38.832031-1.195313-54.726562l.96875-1.164063c5.304688-6.363281 14.765625-7.222656 21.125-1.917969 6.367188 5.304688 7.226563 14.761719 1.921875 21.125l-.96875 1.164063c-3.710937 4.453125-3.566406 11.042969.335938 15.332031 14.550781 15.988282 14.550781 40.105469 0 56.097656l-3.261719 3.585938c-2.960937 3.25-7.023437 4.902344-11.097656 4.902344zm0 0" fill="#ffa426"/><path d="m252.734375 105.683594c-3.601563 0-7.214844-1.289063-10.089844-3.90625-6.128906-5.574219-6.574219-15.0625-1-21.1875l3.261719-3.582032c4.078125-4.480468 4.078125-11.238281 0-15.71875-13.929688-15.304687-14.441406-38.835937-1.191406-54.730468l.964844-1.160156c5.304687-6.367188 14.765624-7.222657 21.128906-1.921876 6.363281 5.304688 7.222656 14.765626 1.917968 21.128907l-.96875 1.160156c-3.710937 4.453125-3.566406 11.042969.335938 15.332031 14.550781 15.988282 14.550781 40.109375 0 56.101563l-3.261719 3.582031c-2.960937 3.25-7.019531 4.902344-11.097656 4.902344zm0 0" fill="#ffa426"/><path d="m326.675781 135.683594c-3.601562 0-7.214843-1.289063-10.089843-3.90625-6.125-5.578125-6.574219-15.0625-.996094-21.191406l3.257812-3.582032c4.078125-4.480468 4.078125-11.234375 0-15.714844-13.925781-15.308593-14.441406-38.835937-1.191406-54.730468l.964844-1.164063c5.304687-6.363281 14.765625-7.222656 21.128906-1.917969 6.363281 5.304688 7.222656 14.761719 1.917969 21.125l-.96875 1.164063c-3.710938 4.453125-3.566407 11.042969.335937 15.332031 14.554688 15.988282 14.554688 40.105469 0 56.097656l-3.261718 3.585938c-2.957032 3.25-7.019532 4.902344-11.097657 4.902344zm0 0" fill="#fe8205"/><path d="m497 375.582031h-240.984375v91.699219h194.21875c25.164063 0 45.632813-20.46875 45.632813-45.632812v-16.066407h1.132812c8.285156 0 15-6.714843 15-15 0-8.28125-6.714844-15-15-15zm0 0" fill="#bd002f"/><path d="m267.09375 41.097656c-3.902344-4.289062-4.046875-10.882812-.335938-15.332031l.96875-1.164063c5.304688-6.363281 4.445313-15.820312-1.917968-21.125-2.847656-2.371093-6.3125-3.5039058-9.75-3.4687495v105.2929685c2.894531-.65625 5.625-2.160156 7.773437-4.519531l3.261719-3.585938c14.554688-15.988281 14.554688-40.109374 0-56.097656zm0 0" fill="#fe8205"/></svg>