<svg height="512pt" viewBox="0 -97 512.00043 512" width="512pt" xmlns="http://www.w3.org/2000/svg"><path d="m130.449219 317.347656c-19.230469 0-38.734375-4.238281-57.140625-13.199218-31.410156-15.292969-54.929688-41.855469-66.230469-74.804688-11.257813-32.824219-9.027344-68.058594 6.28125-99.210938 31.644531-64.386718 109.996094-91.15625 174.664063-59.671874 31.410156 15.289062 54.929687 41.855468 66.230468 74.804687 11.257813 32.820313 9.027344 68.054687-6.28125 99.210937-22.636718 46.058594-69.1875 72.871094-117.523437 72.871094zm0 0" fill="#edc472"/><path d="m232.503906 252.472656c-2.203125 0-4.4375-.488281-6.554687-1.515625l-204.15625-99.390625c-7.449219-3.628906-10.546875-12.605468-6.921875-20.054687 3.625-7.445313 12.597656-10.550781 20.050781-6.921875l204.15625 99.390625c7.449219 3.628906 10.546875 12.605469 6.921875 20.054687-2.597656 5.332032-7.9375 8.4375-13.496094 8.4375zm0 0" fill="#d6995c"/><path d="m197.371094 102.777344c-7.589844 0-15.28125-1.671875-22.542969-5.207032-12.402344-6.039062-21.691406-16.535156-26.160156-29.554687-4.453125-12.980469-3.570313-26.914063 2.484375-39.234375 12.496094-25.425781 43.421875-36 68.941406-23.570312 12.402344 6.035156 21.695312 16.53125 26.160156 29.554687 4.453125 12.976563 3.570313 26.914063-2.484375 39.230469-8.941406 18.191406-27.320312 28.78125-46.398437 28.78125zm.113281-72.785156c-7.992187 0-15.675781 4.421874-19.414063 12.023437-2.507812 5.105469-2.875 10.882813-1.03125 16.265625 1.859376 5.417969 5.738282 9.792969 10.917969 12.316406 10.707031 5.210938 23.667969.800782 28.894531-9.835937 2.507813-5.105469 2.875-10.882813 1.03125-16.265625-1.859374-5.417969-5.738281-9.792969-10.917968-12.3125-3.054688-1.488282-6.289063-2.191406-9.480469-2.191406zm0 0" fill="#d6995c"/><path d="m188.023438 70.460938c31.410156 15.289062 54.929687 41.855468 66.230468 74.804687 11.257813 32.820313 9.027344 68.054687-6.28125 99.210937-22.636718 46.0625-69.1875 72.871094-117.523437 72.871094-19.230469 0-38.738281-4.238281-57.140625-13.199218zm0 0" fill="#cc9f56"/><path d="m115.570312 218.023438c-9.300781-4.527344-20.566406-.613282-25.167968 8.746093-1.863282 3.796875-2.324219 7.902344-1.617188 11.746094l-22.375 45.527344c-3.652344 7.4375-.585937 16.425781 6.847656 20.078125 2.128907 1.046875 4.382813 1.542968 6.601563 1.542968 5.539063 0 10.863281-3.082031 13.472656-8.386718l22.425781-45.632813c3.484376-1.800781 6.457032-4.683593 8.320313-8.480469 4.601563-9.359374.789063-20.613281-8.507813-25.140624zm0 0" fill="#915041"/><path d="m115.582031 218.03125-42.273437 86.113281c2.113281 1.027344 4.347656 1.519531 6.550781 1.519531 5.539063 0 10.863281-3.078124 13.472656-8.386718l22.425781-45.628906c3.484376-1.804688 6.457032-4.6875 8.320313-8.484376 4.597656-9.351562.792969-20.601562-8.496094-25.132812zm0 0" fill="#61362b"/><path d="m239.078125 223.980469-102.03125-49.671875-13.222656 26.929687 102.125 49.71875c2.113281 1.027344 4.351562 1.515625 6.554687 1.515625 5.558594 0 10.898438-3.105468 13.496094-8.4375 3.625-7.449218.527344-16.425781-6.921875-20.054687zm0 0" fill="#b27a49"/><path d="m246.253906 34.765625c-4.464844-13.011719-13.746094-23.503906-26.136718-29.542969l-13.230469 26.925782c.027343.011718.050781.023437.078125.035156 5.179687 2.519531 9.058594 6.894531 10.917968 12.3125 1.84375 5.382812 1.476563 11.160156-1.03125 16.269531-5.222656 10.621094-18.164062 15.035156-28.863281 9.84375l-13.226562 26.925781c.019531.011719.042969.023438.066406.035156 7.261719 3.535157 14.953125 5.207032 22.539063 5.207032 19.082031 0 37.460937-10.589844 46.402343-28.777344 6.054688-12.320312 6.9375-26.257812 2.484375-39.234375zm0 0" fill="#b27a49"/><path d="m381.550781 317.347656c-48.339843 0-94.882812-26.804687-117.523437-72.871094-15.308594-31.15625-17.542969-66.390624-6.285156-99.210937 11.304687-32.949219 34.824218-59.515625 66.234374-74.804687 64.667969-31.480469 143.019532-4.714844 174.660157 59.671874 15.3125 31.152344 17.542969 66.386719 6.285156 99.210938-11.300781 32.949219-34.820313 59.511719-66.230469 74.804688-18.402344 8.957031-37.914062 13.199218-57.140625 13.199218zm0 0" fill="#edc472"/><path d="m314.628906 102.777344c-19.082031 0-37.457031-10.589844-46.398437-28.78125-6.054688-12.316406-6.9375-26.253906-2.484375-39.230469 4.464844-13.023437 13.757812-23.519531 26.160156-29.558594 25.519531-12.425781 56.449219-1.847656 68.941406 23.574219 6.054688 12.320312 6.9375 26.253906 2.484375 39.234375-4.464843 13.019531-13.757812 23.515625-26.160156 29.554687-7.261719 3.535157-14.957031 5.207032-22.542969 5.207032zm-.113281-72.785156c-3.191406 0-6.425781.703124-9.480469 2.1875-5.179687 2.523437-9.058594 6.898437-10.917968 12.316406-1.84375 5.382812-1.476563 11.15625 1.03125 16.265625 5.230468 10.636719 18.191406 15.046875 28.894531 9.835937 5.179687-2.523437 9.058593-6.898437 10.917969-12.316406 1.84375-5.382812 1.476562-11.160156-1.03125-16.269531-3.738282-7.597657-11.425782-12.019531-19.414063-12.019531zm0 0" fill="#d6995c"/><path d="m323.976562 70.460938c64.667969-31.480469 143.019532-4.714844 174.664063 59.671874 15.308594 31.152344 17.542969 66.386719 6.28125 99.210938-11.300781 32.949219-34.820313 59.511719-66.230469 74.804688zm0 0" fill="#cc9f56"/><path d="m445.589844 284.042969-22.375-45.527344c.707031-3.84375.246094-7.949219-1.617188-11.746094-4.601562-9.359375-15.867187-13.273437-25.167968-8.746093-9.296876 4.527343-13.109376 15.785156-8.511719 25.140624 1.867187 3.796876 4.839843 6.679688 8.324219 8.484376l22.425781 45.628906c2.609375 5.308594 7.933593 8.386718 13.472656 8.386718 2.21875 0 4.472656-.496093 6.601563-1.542968 7.433593-3.652344 10.5-12.640625 6.847656-20.078125zm0 0" fill="#915041"/><path d="m279.496094 252.472656c-5.558594 0-10.898438-3.101562-13.496094-8.4375-3.625-7.449218-.527344-16.425781 6.921875-20.050781l204.15625-99.394531c7.449219-3.621094 16.425781-.523438 20.050781 6.921875 3.625 7.449219.523438 16.429687-6.921875 20.054687l-204.15625 99.390625c-2.113281 1.027344-4.351562 1.515625-6.554687 1.515625zm0 0" fill="#d6995c"/><path d="m360.847656 28.78125c-12.496094-25.421875-43.421875-36-68.941406-23.574219-.082031.039063-.160156.085938-.242188.128907l13.285157 26.894531c.03125-.015625.058593-.035157.085937-.046875 3.054688-1.488282 6.289063-2.191406 9.480469-2.191406 7.988281 0 15.675781 4.421874 19.414063 12.023437 2.507812 5.105469 2.875 10.886719 1.03125 16.265625-1.859376 5.421875-5.738282 9.792969-10.917969 12.316406-.039063.015625-.078125.03125-.113281.046875l13.289062 26.902344c12.378906-6.042969 21.652344-16.527344 26.113281-29.53125 4.453125-12.980469 3.570313-26.914063-2.484375-39.234375zm0 0" fill="#b27a49"/><path d="m497.128906 131.511719c-3.625-7.445313-12.597656-10.542969-20.050781-6.921875l-102.125 49.71875 13.222656 26.929687 102.03125-49.671875c7.449219-3.628906 10.546875-12.605468 6.921875-20.054687zm0 0" fill="#b27a49"/><path d="m396.429688 218.023438c9.300781-4.527344 20.566406-.613282 25.167968 8.746093 1.863282 3.796875 2.324219 7.902344 1.617188 11.746094l22.375 45.527344c3.652344 7.433593.585937 16.425781-6.847656 20.078125zm0 0" fill="#61362b"/></svg>