<svg height="512pt" viewBox="-6 0 512 512" width="512pt" xmlns="http://www.w3.org/2000/svg"><path d="m308.839844 512c-18.445313 0-33.976563-11.65625-39.023438-29.519531-.21875-.769531-.417968-1.546875-.601562-2.335938-.058594-.246093-.113282-.496093-.15625-.746093l-40.90625-224.761719c-6.425782-28.355469 11.234375-56.75 39.53125-63.421875l44.816406-10.570313c13.761719-3.246093 27.960938-.929687 39.988281 6.515625 11.941407 7.394532 20.320313 18.96875 23.628907 32.617188l63.28125 219.488281c.070312.242187.132812.488281.191406.734375.183594.785156.347656 1.570312.496094 2.351562 3.550781 18.941407-5.96875 36.914063-23.695313 44.730469-17.992187 7.9375-37.980469 2.765625-49.738281-12.855469l-8.085938-10.746093c-.933594-1.238281-2.160156-1.6875-3.65625-1.335938-1.511718.355469-2.425781 1.320313-2.714844 2.867188l-2.460937 13.234375c-3.585937 19.265625-19.210937 32.8125-38.882813 33.707031-.675781.03125-1.347656.046875-2.011718.046875zm26.148437-36.5h.007813zm0 0" fill="#ffa426"/><path d="m191.371094 512c-.667969 0-1.335938-.015625-2.011719-.046875-19.671875-.898437-35.296875-14.445313-38.882813-33.710937l-2.460937-13.230469c-.289063-1.546875-1.203125-2.511719-2.714844-2.867188-1.492187-.351562-2.722656.097657-3.65625 1.335938l-8.085937 10.746093c-11.757813 15.621094-31.746094 20.789063-49.742188 12.855469-17.722656-7.816406-27.246094-25.789062-23.695312-44.722656.152344-.789063.316406-1.574219.5-2.359375.058594-.246094.121094-.492188.191406-.734375l63.277344-219.488281c3.3125-13.648438 11.691406-25.222656 23.632812-32.617188 12.023438-7.445312 26.226563-9.761718 39.988282-6.515625l44.816406 10.570313c28.296875 6.671875 45.957031 35.0625 39.53125 63.421875l-40.90625 224.761719c-.046875.25-.097656.5-.15625.746093-.183594.785157-.386719 1.5625-.601563 2.332031-5.046875 17.867188-20.582031 29.523438-39.023437 29.523438zm0 0" fill="#ffda45"/><path d="m384.605469 274.582031h-48.363281c-55.691407 0-101.003907-45.640625-101.003907-101.738281 0-95.304688 76.941407-172.84375 171.511719-172.84375h8.839844c1.0625 0 2.117187.0195312 3.167968.0546875 29.8125 1.0156245 56.246094 17.4726565 70.703126 44.0195315 14.898437 27.367187 14.277343 59.605469-1.667969 86.238281l-5.175781 8.648438c-8.640626 14.429687-13.464844 31.824218-13.957032 50.296874-.546875 20.691407-10.324218 42.160157-26.820312 58.894532-16.550782 16.796875-37.410156 26.429687-57.234375 26.429687zm0 0" fill="#8f0933"/><path d="m163.964844 274.582031h-48.359375c-19.824219 0-40.6875-9.632812-57.238281-26.429687-16.496094-16.734375-26.269532-38.203125-26.820313-58.894532-.488281-18.472656-5.3125-35.867187-13.953125-50.296874l-5.175781-8.648438c-15.945313-26.632812-16.570313-58.871094-1.667969-86.238281 14.457031-26.550781 40.890625-43.003907 70.707031-44.0195315 1.046875-.0351563 2.101563-.0546875 3.164063-.0546875h8.839844c94.570312 0 171.511718 77.539062 171.511718 172.84375 0 56.097656-45.3125 101.738281-101.007812 101.738281zm0 0" fill="#bd002f"/><path d="m176.582031 147.070312c-1.082031 0-2.179687-.117187-3.277343-.363281l-46.613282-10.386719c-8.085937-1.804687-13.179687-9.816406-11.375-17.902343 1.800782-8.085938 9.816406-13.179688 17.902344-11.378907l46.613281 10.386719c8.085938 1.800781 13.179688 9.816407 11.375 17.902344-1.554687 6.984375-7.753906 11.742187-14.625 11.742187zm0 0" fill="#8f0933"/><path d="m129.941406 193.8125c-6.875 0-13.070312-4.753906-14.625-11.738281-1.804687-8.089844 3.289063-16.105469 11.375-17.90625l46.613282-10.386719c8.082031-1.804688 16.101562 3.292969 17.902343 11.378906 1.800781 8.085938-3.292969 16.101563-11.378906 17.902344l-46.609375 10.386719c-1.097656.246093-2.195312.363281-3.277344.363281zm0 0" fill="#8f0933"/><path d="m326.746094 147.070312c-6.875 0-13.070313-4.753906-14.628906-11.742187-1.800782-8.085937 3.292968-16.101563 11.378906-17.902344l46.613281-10.386719c8.085937-1.808593 16.101563 3.292969 17.902344 11.378907 1.804687 8.085937-3.292969 16.101562-11.378907 17.902343l-46.609374 10.386719c-1.097657.246094-2.199219.363281-3.277344.363281zm0 0" fill="#700029"/><path d="m373.386719 193.8125c-1.082031 0-2.179688-.117188-3.277344-.363281l-46.613281-10.386719c-8.085938-1.800781-13.179688-9.816406-11.378906-17.902344 1.804687-8.085937 9.820312-13.183594 17.90625-11.378906l46.609374 10.386719c8.085938 1.804687 13.179688 9.816406 11.378907 17.90625-1.554688 6.984375-7.753907 11.738281-14.625 11.738281zm0 0" fill="#700029"/><path d="m250.105469 244.738281c-50.597657 0-91.761719-41.457031-91.761719-92.414062s41.164062-92.414063 91.761719-92.414063c50.597656 0 91.757812 41.457032 91.757812 92.414063s-41.160156 92.414062-91.757812 92.414062zm0 0" fill="#f03049"/><path d="m250.105469 59.910156c-.046875 0-.089844.003906-.132813.003906v184.824219h.132813c50.597656 0 91.757812-41.457031 91.757812-92.414062s-41.160156-92.414063-91.757812-92.414063zm0 0" fill="#bd002f"/></svg>