<svg height="512pt" viewBox="0 0 512 512" width="512pt" xmlns="http://www.w3.org/2000/svg"><path d="m497 512h-482c-8.285156 0-15-6.714844-15-15v-67.140625c0-8.285156 6.714844-15 15-15h29.183594v-317.71875h-29.183594c-8.285156 0-15-6.714844-15-15v-67.140625c0-8.285156 6.714844-15 15-15h482c8.285156 0 15 6.714844 15 15v67.140625c0 8.285156-6.714844 15-15 15h-29.183594v317.71875h29.183594c8.285156 0 15 6.714844 15 15v67.140625c0 8.285156-6.714844 15-15 15zm0 0" fill="#bd002f"/><path d="m497 97.140625c8.285156 0 15-6.714844 15-15v-67.140625c0-8.285156-6.714844-15-15-15h-241v512h241c8.285156 0 15-6.714844 15-15v-67.140625c0-8.285156-6.714844-15-15-15h-29.183594v-317.71875zm0 0" fill="#8f0933"/><path d="m141.90625 100.136719h228.1875v312.730469h-228.1875zm0 0" fill="#cdebfc"/><path d="m256 100.136719h114.09375v312.730469h-114.09375zm0 0" fill="#8accf5"/><path d="m379.765625 77.4375h-247.53125c-8.28125 0-15 6.71875-15 15v328.125c0 8.285156 6.71875 15 15 15h247.527344c8.285156 0 15-6.714844 15-15v-328.125c.003906-8.28125-6.714844-15-14.996094-15zm-15 164.0625h-93.765625v-134.0625h93.765625zm-123.765625-134.0625v134.0625h-93.765625v-134.0625zm-93.765625 164.0625h93.765625v134.0625h-93.765625zm123.765625 134.0625v-134.0625h93.765625v134.0625zm0 0" fill="#f2d1a5"/><path d="m379.765625 77.4375h-123.765625v358.125h123.765625c8.28125 0 15-6.714844 15-15v-328.125c0-8.28125-6.71875-15-15-15zm-15 328.125h-93.765625v-134.0625h93.765625zm0-164.0625h-93.765625v-134.0625h93.765625zm0 0" fill="#e3a76f"/><path d="m325.152344 143.265625c0-11.082031-8.929688-20.0625-19.949219-20.0625-11.015625 0-19.949219 8.980469-19.949219 20.0625s8.933594 20.0625 19.949219 20.0625c11.019531 0 19.949219-8.980469 19.949219-20.0625zm0 0" fill="#e3f7ff"/><path d="m166.34375 107.4375c0 11.082031 8.929688 20.066406 19.949219 20.066406 11.015625 0 19.949219-8.984375 19.949219-20.066406zm0 0" fill="#fff"/><path d="m227.328125 340.398438c0-11.082032-8.933594-20.066407-19.949219-20.066407-11.019531 0-19.949218 8.984375-19.949218 20.066407 0 11.078124 8.929687 20.0625 19.949218 20.0625 11.015625 0 19.949219-8.984376 19.949219-20.0625zm0 0" fill="#fff"/><path d="m329.746094 302.742188c0-11.082032-8.929688-20.0625-19.949219-20.0625-11.015625 0-19.949219 8.980468-19.949219 20.0625 0 11.082031 8.933594 20.0625 19.949219 20.0625 11.019531 0 19.949219-8.980469 19.949219-20.0625zm0 0" fill="#e3f7ff"/><path d="m187.109375 194.21875c0-11.082031-8.933594-20.066406-19.953125-20.066406-11.015625 0-19.949219 8.984375-19.949219 20.066406 0 11.078125 8.933594 20.0625 19.949219 20.0625 11.019531 0 19.953125-8.984375 19.953125-20.0625zm0 0" fill="#fff"/><path d="m360.070312 181.402344c-11.019531 0-19.949218 8.980468-19.949218 20.0625 0 11.082031 8.929687 20.0625 19.949218 20.0625 1.617188 0 3.1875-.214844 4.695313-.582032v-38.960937c-1.511719-.367187-3.078125-.582031-4.695313-.582031zm0 0" fill="#e3f7ff"/></svg>