<svg height="512pt" viewBox="-16 0 512 512" width="512pt" xmlns="http://www.w3.org/2000/svg"><path d="m240.230469 512c-94.875 0-172.058594-73.652344-172.058594-164.1875l-.003906-133.953125c0-3.980469 1.582031-7.796875 4.394531-10.605469 2.8125-2.816406 6.628906-4.394531 10.605469-4.394531h314.121093c3.980469 0 7.792969 1.578125 10.605469 4.394531 2.8125 2.8125 4.394531 6.625 4.394531 10.605469v133.953125c0 90.535156-77.183593 164.1875-172.058593 164.1875zm0 0" fill="#ffdecf"/><path d="m407.894531 203.253906c-2.8125-2.816406-6.625-4.394531-10.605469-4.394531h-157.046874l-.011719 313.140625c94.875 0 172.058593-73.652344 172.058593-164.1875v-133.953125c0-3.980469-1.578124-7.796875-4.394531-10.605469zm0 0" fill="#ffbeaa"/><path d="m59.601562 398.699219c-21.402343 0-38.816406-17.441407-38.816406-38.886719v-101.328125l-8.042968-1.222656c-8.1875-1.25-13.816407-8.898438-12.570313-17.089844 1.25-8.1875 8.90625-13.8125 17.089844-12.570313l68.417969 10.421876c7.328124 1.117187 12.742187 7.417968 12.742187 14.828124v106.960938c0 21.445312-17.414063 38.886719-38.820313 38.886719zm0 0" fill="#ffbeaa"/><path d="m420.882812 398.699219c-21.40625 0-38.816406-17.441407-38.816406-38.886719v-106.960938c0-7.410156 5.414063-13.710937 12.738282-14.828124l68.417968-10.421876c8.195313-1.242187 15.84375 4.378907 17.089844 12.570313 1.246094 8.1875-4.382812 15.839844-12.570312 17.089844l-8.042969 1.222656v101.328125c0 21.445312-17.414063 38.886719-38.816407 38.886719zm0 0" fill="#faa68e"/><path d="m219.800781 365.691406c0-10.652344-8.679687-19.289062-19.386719-19.289062-10.707031 0-19.386718 8.636718-19.386718 19.289062s8.679687 19.289063 19.386718 19.289063c10.707032 0 19.386719-8.636719 19.386719-19.289063zm0 0" fill="#915041"/><path d="m116.429688 279.054688c-28.945313 0-52.496094-23.550782-52.496094-52.496094v-5.128906c0-28.949219 23.550781-52.5 52.496094-52.5h250.371093c28.945313 0 52.496094 23.550781 52.496094 52.5v5.128906c0 28.945312-23.550781 52.496094-52.496094 52.496094zm0 0" fill="#bd002f"/><path d="m88.609375 311.054688c-26.449219 0-47.96875-21.246094-47.96875-47.359376v-79.171874c0-1.199219.050781-2.4375.152344-3.691407v-7.03125c0-95.835937 79.335937-173.800781 176.855469-173.800781 97.515624 0 176.851562 77.964844 176.851562 173.800781v10.058594c0 8.285156-6.714844 15-15 15h-242.921875v64.835937c0 26.113282-21.519531 47.359376-47.96875 47.359376zm-32.816406-129.574219h.011719zm0 0" fill="#06ccab"/><path d="m85.628906 335.847656c-32.957031 0-59.769531-26.4375-59.769531-58.9375s26.8125-58.9375 59.769531-58.9375c32.957032 0 59.769532 26.4375 59.769532 58.9375s-26.8125 58.9375-59.769532 58.9375zm0 0" fill="#cdebfc"/><path d="m85.628906 335.847656v-117.875c32.957032 0 59.769532 26.4375 59.769532 58.9375 0 32.496094-26.8125 58.9375-59.769532 58.9375zm0 0" fill="#8bc8e8"/><path d="m240.242188 442.847656c-8.675782 0-17.347657-1.691406-25.601563-5.078125-7.664063-3.144531-11.328125-11.90625-8.1875-19.570312 3.144531-7.664063 11.90625-11.328125 19.570313-8.183594 9.167968 3.761719 19.265624 3.761719 28.433593 0 7.667969-3.144531 16.429688.519531 19.570313 8.183594 3.144531 7.664062-.519532 16.425781-8.183594 19.570312-8.253906 3.386719-16.929688 5.078125-25.601562 5.078125zm0 0" fill="#f03049"/><path d="m301.53125 365.691406c0-10.652344-8.675781-19.289062-19.382812-19.289062-10.707032 0-19.386719 8.636718-19.386719 19.289062s8.679687 19.289063 19.386719 19.289063c10.707031 0 19.382812-8.636719 19.382812-19.289063zm0 0" fill="#61362b"/><path d="m366.800781 168.929688h-126.558593v110.125h126.558593c28.945313 0 52.496094-23.550782 52.496094-52.496094v-5.128906c0-28.949219-23.550781-52.5-52.496094-52.5zm0 0" fill="#8f0933"/><path d="m240.242188 1.414062v197.445313h139.257812c8.285156 0 15-6.714844 15-15v-10.058594c0-88.3125-67.371094-161.453125-154.257812-172.386719zm0 0" fill="#088a7a"/><path d="m209.320312 156.824219c.003907-3.800781-1.433593-7.601563-4.308593-10.527344-5.8125-5.902344-15.3125-5.976563-21.214844-.167969l-42.6875 42.019532c-2.980469 2.9375-4.476563 6.808593-4.476563 10.6875v.023437h36.363282l31.847656-31.347656c2.980469-2.9375 4.476562-6.808594 4.476562-10.6875zm0 0" fill="#006357"/><path d="m274.027344 418.199219c-3.140625-7.664063-11.898438-11.328125-19.570313-8.1875-4.585937 1.882812-9.40625 2.824219-14.226562 2.824219v30.011718h.011719c8.671874 0 17.347656-1.691406 25.601562-5.078125 7.664062-3.144531 11.328125-11.90625 8.183594-19.570312zm0 0" fill="#bd002f"/></svg>