<svg height="512pt" viewBox="-21 0 512 512.00055" width="512pt" xmlns="http://www.w3.org/2000/svg"><path d="m110.679688 448.921875c-13.492188 0-26.542969-4.40625-37.445313-12.757813-27.050781-20.726562-32.273437-59.625-11.640625-86.714843 2.417969-3.171875 5.996094-5.25 9.949219-5.777344 3.957031-.53125 7.957031.535156 11.121093 2.960937l74.40625 57.007813c6.550782 5.023437 7.808594 14.390625 2.808594 20.953125-10.011718 13.144531-24.535156 21.585938-40.898437 23.773438-2.777344.371093-5.546875.554687-8.300781.554687zm0 0" fill="#edc472"/><path d="m207.242188 475.507812c-3.285157 0-6.5-1.078124-9.132813-3.09375l-192.238281-147.296874c-6.554688-5.019532-7.808594-14.386719-2.808594-20.949219 15.492188-20.34375 43.554688-32.84375 67.726562-31.28125l22.480469-29.519531c16.359375-21.480469 40.101563-35.28125 66.847657-38.859376 26.753906-3.578124 53.316406 3.511719 74.78125 19.957032 44.246093 33.902344 52.789062 97.535156 19.039062 141.847656l-22.519531 29.566406c7.898437 22.9375 3.25 53.382813-12.238281 73.71875-2.414063 3.171875-5.996094 5.25-9.949219 5.78125-.664063.085938-1.328125.128906-1.988281.128906zm0 0" fill="#ffde91"/><path d="m326.359375 512c-10.726563 0-21.359375-2.609375-31.117187-7.75-15.851563-8.355469-27.488282-22.394531-32.769532-39.535156-2.429687-7.894532 1.992188-16.261719 9.890625-18.710938l99.355469-30.796875c3.804688-1.175781 7.921875-.796875 11.445312 1.058594 3.527344 1.859375 6.164063 5.039063 7.335938 8.84375 10.878906 35.304687-8.96875 72.925781-44.238281 83.855469-6.546875 2.03125-13.242188 3.035156-19.902344 3.035156zm0 0" fill="#b08646"/><path d="m197.609375 499.238281c-2.417969 0-4.824219-.585937-7.003906-1.734375-3.523438-1.855468-6.160157-5.039062-7.332031-8.839844-7.367188-23.910156-3.082032-58.617187 15.679687-80.742187l-12.414063-40.289063c-17.960937-58.304687 14.800782-120.425781 73.039063-138.476562 28.191406-8.738281 58.09375-5.976562 84.195313 7.78125 26.164062 13.792969 45.375 36.972656 54.09375 65.265625l12.402343 40.257813c27.945313 7.675781 51.003907 33.90625 58.375 57.820312 2.429688 7.894531-1.992187 16.261719-9.890625 18.710938l-256.699218 79.574218c-1.453126.445313-2.953126.671875-4.445313.671875zm0 0" fill="#edc472"/><path d="m468.644531 400.28125c-7.371093-23.914062-30.429687-50.144531-58.375-57.820312l-12.402343-40.257813c-8.71875-28.292969-27.929688-51.472656-54.09375-65.265625-26.101563-13.757812-56.003907-16.519531-84.195313-7.78125-8.9375 2.769531-17.273437 6.582031-24.921875 11.257812v248.042969l224.097656-69.464843c7.898438-2.445313 12.320313-10.816407 9.890625-18.710938zm0 0" fill="#cc9f56"/><path d="m187.753906 210.035156c-.394531 0-.792968-.015625-1.191406-.046875-4.40625-.351562-8.429688-2.621093-11.003906-6.207031-60.753906-84.71875-98.554688-80.855469-102.335938-80.210938-6.089844 2.667969-12.648437.742188-16.933594-4.40625-4.355468-5.234374-4-13.003906-.035156-18.542968 14.886719-20.792969 18.792969-56.746094.59375-75.101563-5.828125-5.878906-5.78125-15.363281.105469-21.183593 5.882813-5.820313 15.382813-5.773438 21.210937.101562l.003907.003906s0 0 .003906.003906c17.910156 18.046876 53.636719 13.886719 74.503906-1.136718 5.503907-3.960938 13.195313-4.257813 18.457031.027344 5.183594 4.21875 7.140626 10.847656 4.535157 16.960937-.71875 3.515625-6.59375 43.558594 77.96875 105.125 3.53125 2.574219 5.765625 6.554687 6.113281 10.90625.351562 4.351563-1.21875 8.636719-4.292969 11.742187l-57.046875 57.527344c-2.828125 2.851563-6.667968 4.4375-10.65625 4.4375zm-12.203125-189.472656" fill="#06ccab"/><path d="m281.558594 210.035156c-3.988282 0-7.828125-1.585937-10.65625-4.4375l-57.046875-57.527344c-3.074219-3.101562-4.644531-7.390624-4.292969-11.738281.347656-4.351562 2.582031-8.335937 6.113281-10.90625 84.5625-61.570312 78.6875-101.609375 77.96875-105.128906-2.605469-6.109375-.648437-12.742187 4.535157-16.960937 5.261718-4.28125 12.953124-3.988282 18.457031-.023438 20.867187 15.023438 56.597656 19.179688 74.503906 1.132812 0 0 .003906 0 .003906-.003906 5.832031-5.878906 15.328125-5.925781 21.214844-.105468 5.886719 5.820312 5.933594 15.304687.101563 21.1875-.007813.007812-.015626.015624-.019532.019531-18.171875 18.363281-14.265625 54.296875.617188 75.078125 3.964844 5.539062 4.320312 13.308594-.035156 18.542968-4.28125 5.148438-10.847657 7.074219-16.933594 4.40625-3.769532-.632812-41.582032-4.507812-102.335938 80.207032-2.574218 3.589844-6.597656 5.859375-11.003906 6.210937-.398438.035157-.796875.046875-1.191406.046875zm0 0" fill="#088a7a"/><path d="m307.964844 342.199219c-40.53125 0-73.507813-33.191407-73.507813-73.984375 0-40.796875 32.976563-73.984375 73.507813-73.984375 40.535156 0 73.511718 33.191406 73.511718 73.984375 0 40.796875-32.976562 73.984375-73.511718 73.984375zm0 0" fill="#8f0933"/><path d="m161.34375 342.199219c-40.53125 0-73.507812-33.191407-73.507812-73.984375 0-19.734375 7.625-38.292969 21.480468-52.261719 13.886719-14.007813 32.363282-21.722656 52.027344-21.722656 40.535156 0 73.511719 33.1875 73.511719 73.984375 0 40.792968-32.976563 73.984375-73.511719 73.984375zm0 0" fill="#bd002f"/><path d="m234.65625 262.429688c-40.535156 0-73.507812-33.1875-73.507812-73.984376 0-40.792968 32.972656-73.984374 73.507812-73.984374 40.53125 0 73.507812 33.191406 73.507812 73.984374 0 40.796876-32.976562 73.984376-73.507812 73.984376zm0 0" fill="#f03049"/><path d="m234.65625 114.460938c40.53125 0 73.507812 33.191406 73.507812 73.984374 0 40.796876-32.976562 73.984376-73.507812 73.984376zm0 0" fill="#bd002f"/></svg>