<svg height="512pt" viewBox="-75 0 512 512" width="512pt" xmlns="http://www.w3.org/2000/svg"><path d="m181.320312 103.539062c-17.320312 0-32.78125-7.015624-41.355468-18.765624-.128906-.171876-.25-.347657-.371094-.527344l-40.570312-60.933594c-3.066407-4.601562-3.347657-10.519531-.738282-15.394531s7.691406-7.917969 13.222656-7.917969h138.652344c5.5 0 10.558594 3.011719 13.183594 7.84375 2.625 4.835938 2.390625 10.71875-.605469 15.332031l-39.597656 60.929688c-.148437.230469-.300781.453125-.460937.671875-8.574219 11.746094-24.035157 18.761718-41.359376 18.761718zm29.242188-27.605468h.011719zm0 0" fill="#d6995c"/><path d="m263.34375 7.84375c-2.625-4.832031-7.683594-7.84375-13.183594-7.84375h-69.324218v103.527344c.160156 0 .320312.011718.484374.011718 17.320313 0 32.785157-7.015624 41.359376-18.765624.160156-.21875.3125-.441407.460937-.667969l39.597656-60.933594c2.996094-4.609375 3.230469-10.492187.605469-15.328125zm0 0" fill="#b27a49"/><path d="m246.667969 512h-131.667969c-63.410156 0-115-51.496094-115-114.792969v-145.4375c0-99.226562 81.121094-179.949219 180.835938-179.949219 99.710937 0 180.832031 80.726563 180.832031 179.949219v145.4375c0 63.296875-51.589844 114.792969-115 114.792969zm0 0" fill="#b27a49"/><path d="m180.835938 71.816406c-.027344 0-.054688.003906-.078126.003906v440.179688h65.910157c63.410156 0 115-51.496094 115-114.792969v-145.4375c0-99.226562-81.121094-179.953125-180.832031-179.953125zm0 0" fill="#9e6f46"/><path d="m166.089844 435.496094c-27.066406 0-52.542969-9.90625-71.742188-27.894532-19.46875-18.242187-30.191406-42.589843-30.191406-68.558593 0-8.285157 6.714844-15 15-15s15 6.714843 15 15c0 17.582031 7.351562 34.15625 20.703125 46.664062 13.621094 12.761719 31.8125 19.789063 51.230469 19.789063 8.28125 0 15 6.71875 15 15 0 8.285156-6.71875 15-15 15zm0 0" fill="#915041"/><path d="m125.851562 146.472656c-1.558593 0-3.144531-.246094-4.707031-.761718-7.863281-2.601563-12.136719-11.082032-9.535156-18.949219 12.226563-37.019531 46.871094-52.152344 48.339844-52.777344 7.617187-3.246094 16.429687.296875 19.679687 7.917969 3.238282 7.59375-.273437 16.375-7.84375 19.648437-.503906.226563-23.839844 10.859375-31.691406 34.621094-2.082031 6.304687-7.945312 10.300781-14.242188 10.300781zm0 0" fill="#915041"/><g fill="#61362b"><path d="m235.859375 146.472656c-6.292969 0-12.15625-3.996094-14.238281-10.300781-7.894532-23.898437-31.460938-34.519531-31.699219-34.625-7.621094-3.246094-11.125-12.042969-7.875-19.660156 3.25-7.621094 12.101563-11.148438 19.71875-7.902344 1.46875.628906 36.113281 15.761719 48.339844 52.777344 2.601562 7.867187-1.671875 16.351562-9.535157 18.949219-1.5625.515624-3.148437.761718-4.710937.761718zm0 0"/><path d="m247.199219 310.480469c-8.28125 0-15-6.714844-15-15 0-8.285157 6.71875-15 15-15 19.152343 0 34.734375-14.175781 34.734375-31.601563 0-8.285156 6.714844-15 15-15s15 6.714844 15 15c0 33.96875-29.039063 61.601563-64.734375 61.601563zm0 0"/></g></svg>