<svg height="512pt" viewBox="-119 0 512 512" width="512pt" xmlns="http://www.w3.org/2000/svg"><path d="m119.339844 16.347656c0-8.285156-6.71875-15-15-15-8.285156 0-15 6.714844-15 15v60.320313h-59.339844v-60.320313c0-8.285156-6.714844-15-15-15s-15 6.714844-15 15v121.746094c0 8.28125 6.714844 15 15 15s15-6.71875 15-15v-31.425781h59.339844v31.425781c0 8.28125 6.714844 15 15 15 8.28125 0 15-6.71875 15-15zm0 0" fill="#f03049"/><path d="m213.441406 154.4375c-.195312 0-.386718 0-.582031-.003906-33.667969-.308594-61.058594-26.574219-61.058594-58.554688v-38.167968c0-15 5.988281-29.191407 16.863281-39.96875 11.398438-11.292969 27.367188-17.742188 43.890626-17.742188.195312 0 .386718 0 .582031.00390625 33.671875.30859375 61.0625 26.57421875 61.058593 58.55468775v38.171875c0 14.996093-5.988281 29.191406-16.859374 39.964843-11.402344 11.292969-27.371094 17.742188-43.894532 17.742188zm-.894531-124.4375c-8.667969 0-16.949219 3.289062-22.765625 9.054688-5.148438 5.097656-7.980469 11.722656-7.980469 18.65625v38.171874c0 15.585938 14.054688 28.394532 31.335938 28.554688h.3125c8.667969.003906 16.949219-3.289062 22.769531-9.050781 5.144531-5.101563 7.976562-11.726563 7.976562-18.65625v-38.171875c0-15.589844-14.054687-28.398438-31.335937-28.558594-.101563 0-.207031 0-.3125 0zm0 0" fill="#bd002f"/><path d="m104.339844 179.839844c-8.285156 0-15 6.714844-15 15v60.316406h-59.339844v-60.316406c0-8.285156-6.714844-15-15-15s-15 6.714844-15 15v121.742187c0 8.285157 6.714844 15 15 15s15-6.714843 15-15v-31.425781h59.339844v31.425781c0 8.28125 6.714844 15 15 15 8.28125 0 15-6.71875 15-15v-121.742187c0-8.285156-6.71875-15-15-15zm0 0" fill="#06ccab"/><path d="m213.445312 332.929688c-.195312 0-.390624 0-.585937-.003907-33.667969-.308593-61.058594-26.574219-61.058594-58.554687v-38.171875c0-14.996094 5.988281-29.191407 16.867188-39.96875 11.53125-11.425781 27.695312-17.886719 44.46875-17.738281 33.667969.308593 61.0625 26.578124 61.0625 58.554687l-.003907 38.171875c0 15-5.988281 29.191406-16.863281 39.96875-11.398437 11.292969-27.367187 17.742188-43.886719 17.742188zm-.898437-124.4375c-8.667969 0-16.949219 3.289062-22.765625 9.050781-5.144531 5.097656-7.980469 11.726562-7.980469 18.660156v38.167969c0 15.589844 14.054688 28.398437 31.335938 28.558594h.3125c8.667969 0 16.949219-3.289063 22.769531-9.050782 5.144531-5.101562 7.976562-11.726562 7.976562-18.660156v-38.171875c0-15.585937-14.054687-28.394531-31.332031-28.554687-.105469 0-.210937 0-.316406 0zm0 0" fill="#088a7a"/><path d="m104.339844 358.90625c-8.285156 0-15 6.71875-15 15v60.320312h-59.339844v-60.320312c0-8.28125-6.714844-15-15-15-8.28125 0-15 6.71875-15 15v121.746094c0 8.285156 6.71875 15 15 15 8.285156 0 15-6.714844 15-15v-31.425782h59.339844v31.425782c0 8.285156 6.714844 15 15 15 8.28125 0 15-6.714844 15-15v-121.746094c0-8.28125-6.71875-15-15-15zm0 0" fill="#ffda45"/><path d="m213.441406 512c-.191406 0-.386718 0-.582031-.003906-33.667969-.308594-61.058594-26.574219-61.058594-58.554688v-38.171875c0-14.996093 5.988281-29.191406 16.863281-39.964843 11.398438-11.296876 27.367188-17.742188 43.894532-17.742188h.578125c33.671875.308594 61.0625 26.578125 61.0625 58.554688v38.171874c-.003907 15-5.992188 29.191407-16.867188 39.96875-11.398437 11.292969-27.367187 17.742188-43.890625 17.742188zm-.890625-124.4375c-8.671875 0-16.953125 3.289062-22.769531 9.050781-5.144531 5.101563-7.980469 11.726563-7.980469 18.660157v38.167968c0 15.589844 14.058594 28.398438 31.335938 28.558594h.3125c8.667969 0 16.949219-3.289062 22.769531-9.050781 5.144531-5.101563 7.976562-11.726563 7.976562-18.660157v-38.171874c.003907-15.585938-14.054687-28.394532-31.332031-28.554688-.105469 0-.210937 0-.3125 0zm46.648438 66.726562h.007812zm0 0" fill="#ffa426"/></svg>