<svg height="512pt" viewBox="-26 0 512 512" width="512pt" xmlns="http://www.w3.org/2000/svg"><path d="m15 511.757812c-3.976562 0-7.792969-1.578124-10.605469-4.390624s-4.394531-6.625-4.394531-10.601563v-194.128906c0-61.167969 23.878906-118.675781 67.238281-161.925781 43.351563-43.246094 100.984375-67.0625 162.289063-67.0625 61.300781 0 118.9375 23.816406 162.289062 67.058593 43.359375 43.25 67.234375 100.757813 67.234375 161.929688v194.128906c0 8.277344-6.714843 14.992187-15 14.992187zm0 0" fill="#06ccab"/><path d="m391.816406 140.707031c-43.351562-43.242187-100.988281-67.058593-162.289062-67.058593v438.109374h214.523437c8.285157 0 15-6.710937 15-14.992187v-194.128906c0-61.171875-23.878906-118.679688-67.234375-161.929688zm0 0" fill="#088a7a"/><path d="m369.519531 324.128906c0-11.15625-8.953125-20.203125-20-20.203125-11.042969 0-19.996093 9.046875-19.996093 20.203125s8.953124 20.203125 19.996093 20.203125c11.046875 0 20-9.046875 20-20.203125zm0 0" fill="#006357"/><g fill="#088a7a"><path d="m249.523438 324.128906c0-11.15625-8.953126-20.203125-19.996094-20.203125-11.046875 0-20 9.046875-20 20.203125s8.953125 20.203125 20 20.203125c11.042968 0 19.996094-9.046875 19.996094-20.203125zm0 0"/><path d="m129.527344 324.128906c0-11.15625-8.953125-20.203125-19.996094-20.203125s-20 9.046875-20 20.203125 8.957031 20.203125 20 20.203125 19.996094-9.046875 19.996094-20.203125zm0 0"/><path d="m189.527344 239.820312c0-11.15625-8.953125-20.203124-20-20.203124-11.042969 0-19.996094 9.046874-19.996094 20.203124 0 11.160157 8.953125 20.203126 19.996094 20.203126 11.046875 0 20-9.042969 20-20.203126zm0 0"/></g><path d="m309.523438 239.820312c0-11.15625-8.953126-20.203124-20-20.203124-11.042969 0-19.996094 9.046874-19.996094 20.203124 0 11.160157 8.953125 20.203126 19.996094 20.203126 11.046874 0 20-9.042969 20-20.203126zm0 0" fill="#006357"/><path d="m229.527344 303.925781c11.042968 0 19.996094 9.042969 19.996094 20.203125 0 11.15625-8.953126 20.203125-19.996094 20.203125zm0 0" fill="#006357"/><path d="m229.527344 165.914062c-45.828125 0-83.105469-37.214843-83.109375-82.957031 0-45.742187 37.28125-82.957031 83.109375-82.957031 45.824218 0 83.105468 37.214844 83.105468 82.957031 0 22.160157-8.648437 42.996094-24.351562 58.667969-15.695312 15.660156-36.5625 24.289062-58.753906 24.289062zm0 0" fill="#ffda45"/><path d="m229.527344 0c45.824218 0 83.105468 37.214844 83.105468 82.957031 0 22.160157-8.648437 42.996094-24.351562 58.667969-15.695312 15.660156-36.5625 24.289062-58.753906 24.289062zm0 0" fill="#ffa426"/><path d="m0 421.453125v75.3125c0 3.976563 1.582031 7.789063 4.394531 10.601563s6.628907 4.390624 10.605469 4.390624h429.050781c8.285157 0 15-6.714843 15-14.996093v-75.308594zm0 0" fill="#f03049"/><path d="m229.527344 421.453125v90.304687h214.523437c8.285157 0 15-6.710937 15-14.992187v-75.308594h-229.523437zm0 0" fill="#bd002f"/><path d="m102.027344 512v-59.148438c0-8.277343-6.71875-14.992187-15-14.992187-8.285156 0-15 6.714844-15 14.992187v59.148438zm0 0" fill="#ffb0b0"/><path d="m197.027344 512v-59.148438c0-8.277343-6.71875-14.992187-15-14.992187-8.285156 0-15 6.714844-15 14.992187v59.148438zm0 0" fill="#ffb0b0"/><path d="m292.027344 512v-59.148438c0-8.28125-6.71875-14.992187-15-14.992187-8.285156 0-15 6.710937-15 14.992187v59.148438zm0 0" fill="#ff636e"/><path d="m387.027344 512v-59.148438c0-8.28125-6.71875-14.992187-15-14.992187-8.285156 0-15 6.710937-15 14.992187v59.148438zm0 0" fill="#ff636e"/></svg>