<svg height="511pt" viewBox="-30 0 511 511.99987" width="511pt" xmlns="http://www.w3.org/2000/svg"><path d="m226.414062 106.789062 134.628907-34.441406c7.816406-2.738281 11.9375-11.292968 9.203125-19.113281-2.734375-7.816406-11.289063-11.9375-19.113282-9.203125l-35.265624 12.339844c3.183593-8.671875 3.410156-18.109375.550781-27.089844-3.414063-10.730469-10.792969-19.472656-20.773438-24.613281-7.835937-4.035157-16.597656-5.492188-25.335937-4.222657-15.425782 2.25-28.65625 13.511719-33.71875 28.726563l-10.574219 32.003906-10.648437-32.035156c-5.054688-15.183594-18.285157-26.445313-33.710938-28.691406-8.742188-1.269531-17.5.1875-25.332031 4.21875-7.113281 3.664062-13 9.253906-17.027344 16.164062-6.378906 10.953125-7.214844 23.984375-2.765625 35.609375l-35.472656-12.410156c-7.820313-2.738281-16.378906 1.386719-19.113282 9.207031-2.734374 7.816407 1.386719 16.375 9.207032 19.109375zm38.648438-68.175781c1.507812-4.523437 5.261719-7.851562 9.570312-8.480469.519532-.074218 1.117188-.128906 1.777344-.128906 1.574219 0 3.5.304688 5.496094 1.332032 2.84375 1.464843 4.945312 3.96875 5.925781 7.042968.734375 2.300782.761719 4.699219.113281 6.9375l-35.152343 30.445313zm-99.84375-2.679687c1.140625-1.964844 2.816406-3.554688 4.839844-4.597656 2.832031-1.457032 5.519531-1.460938 7.273437-1.203126 4.308594.628907 8.0625 3.957032 9.566407 8.476563l12.328124 37.082031-33.503906-27.648437c-2.359375-3.808594-2.59375-8.523438-.503906-12.109375zm0 0" fill="#ff636e"/><path d="m370.246094 53.234375c-2.734375-7.816406-11.289063-11.9375-19.113282-9.203125l-35.265624 12.339844c3.183593-8.671875 3.410156-18.109375.550781-27.089844-3.414063-10.730469-10.792969-19.472656-20.773438-24.613281-7.835937-4.035157-16.597656-5.492188-25.335937-4.222657-15.425782 2.25-28.65625 13.511719-33.71875 28.726563l-10.566406 31.976563v45.539062l.390624.101562 134.628907-34.441406c7.816406-2.738281 11.9375-11.292968 9.203125-19.113281zm-82.300782-7.917969-35.152343 30.441406 12.269531-37.144531c1.507812-4.523437 5.261719-7.851562 9.570312-8.480469.519532-.074218 1.117188-.128906 1.777344-.128906 1.574219 0 3.5.304688 5.496094 1.332032 2.84375 1.464843 4.945312 3.96875 5.925781 7.042968.734375 2.300782.761719 4.699219.113281 6.9375zm0 0" fill="#f03049"/><path d="m366.023438 259.292969h-280c-8.285157 0-15-6.714844-15-15v-135.652344c0-8.285156 6.714843-15 15-15h280c8.285156 0 15 6.714844 15 15v135.652344c0 8.285156-6.714844 15-15 15zm0 0" fill="#ffa426"/><path d="m436.550781 323.992188h-210.527343v93.40625h210.527343c8.285157 0 15-6.71875 15-15v-63.40625c0-8.28125-6.714843-15-15-15zm0 0" fill="#088a7a"/><path d="m226.023438 322.636719c30.789062 0 55.835937 25.132812 55.835937 56.027343 0 30.890626-25.046875 56.023438-55.835937 56.023438zm0 0" fill="#088a7a"/><path d="m366.023438 93.640625h-140v165.652344h140c8.285156 0 15-6.714844 15-15v-135.652344c0-8.285156-6.714844-15-15-15zm0 0" fill="#fe8205"/><path d="m381.023438 161.46875h-140v-67.828125h-30v67.828125h-140v30h140v67.824219h30v-67.824219h140zm0 0" fill="#ff636e"/><path d="m241.023438 161.46875v-67.828125h-15v165.652344h15v-67.824219h140v-30zm0 0" fill="#f03049"/><path d="m436.550781 512h-421.050781c-8.285156 0-15-6.714844-15-15v-252.609375c0-8.285156 6.714844-15 15-15h421.050781c8.285157 0 15 6.714844 15 15v252.609375c0 8.285156-6.714843 15-15 15zm0 0" fill="#f03049"/><path d="m436.550781 229.390625h-210.527343v282.609375h210.527343c8.285157 0 15-6.71875 15-15v-252.609375c0-8.285156-6.714843-15-15-15zm0 0" fill="#bd002f"/><path d="m436.550781 417.398438h-421.050781c-8.285156 0-15-6.71875-15-15v-63.40625c0-8.28125 6.714844-15 15-15h421.050781c8.285157 0 15 6.71875 15 15v63.40625c0 8.28125-6.714843 15-15 15zm0 0" fill="#06ccab"/><path d="m436.550781 323.992188h-210.453125v93.40625h210.453125c8.285157 0 15-6.71875 15-15v-63.40625c0-8.28125-6.714843-15-15-15zm0 0" fill="#088a7a"/><path d="m180.199219 450.503906h-25.730469c-25.878906 0-51.023438-25.308594-51.734375-52.078125-.226563-8.574219-2.449219-16.597656-6.417969-23.203125l-2.753906-4.582031c-9.765625-16.246094-10.171875-35.921875-1.089844-52.628906 8.882813-16.339844 25.179688-26.46875 43.59375-27.09375.621094-.023438 1.269532-.03125 1.917969-.03125h4.703125c54.183594 0 98.265625 44.253906 98.265625 98.648437 0 33.621094-27.253906 60.96875-60.753906 60.96875zm0 0" fill="#088a7a"/><path d="m297.582031 450.503906h-25.730469c-33.5 0-60.753906-27.347656-60.753906-60.96875 0-54.394531 44.082032-98.648437 98.265625-98.648437h4.703125c.648438 0 1.296875.007812 1.941406.03125 18.394532.625 34.6875 10.753906 43.570313 27.09375 9.082031 16.707031 8.671875 36.382812-1.089844 52.628906l-2.753906 4.582031c-3.972656 6.605469-6.1875 14.628906-6.417969 23.203125-.710937 26.769531-25.855468 52.078125-51.734375 52.078125zm0 0" fill="#006357"/><path d="m226.023438 434.6875c-30.789063 0-55.835938-25.132812-55.835938-56.023438 0-30.894531 25.046875-56.027343 55.835938-56.027343 30.789062 0 55.835937 25.132812 55.835937 56.027343 0 30.890626-25.046875 56.023438-55.835937 56.023438zm0 0" fill="#06ccab"/><path d="m226.023438 322.636719c30.789062 0 55.835937 25.132812 55.835937 56.027343 0 30.890626-25.046875 56.023438-55.835937 56.023438zm0 0" fill="#088a7a"/></svg>