<svg height="512pt" viewBox="0 0 512 512" width="512pt" xmlns="http://www.w3.org/2000/svg"><g fill="#ffda45"><path d="m150.5 301.042969c-5.484375 0-10.53125-2.992188-13.160156-7.804688l-45.800782-83.75-83.738281-45.804687c-4.808593-2.632813-7.800781-7.679688-7.800781-13.160156 0-5.484376 2.992188-10.53125 7.800781-13.160157l83.738281-45.808593 45.800782-83.75c2.628906-4.8125 7.675781-7.804688 13.160156-7.804688 5.480469 0 10.527344 2.992188 13.160156 7.804688l45.800782 83.75 83.734374 45.808593c4.8125 2.628907 7.800782 7.675781 7.800782 13.160157 0 5.480468-2.988282 10.527343-7.800782 13.160156l-83.734374 45.804687-45.800782 83.75c-2.632812 4.8125-7.679687 7.804688-13.160156 7.804688zm0 0"/><path d="m404.773438 403.519531c-5.484376 0-10.53125-2.992187-13.160157-7.800781l-30.5-55.777344-55.765625-30.503906c-4.8125-2.628906-7.800781-7.675781-7.800781-13.160156 0-5.480469 2.988281-10.527344 7.800781-13.160156l55.765625-30.503907 30.5-55.773437c2.628907-4.8125 7.675781-7.804688 13.160157-7.804688 5.484374 0 10.53125 2.992188 13.160156 7.804688l30.5 55.773437 55.765625 30.503907c4.808593 2.632812 7.800781 7.679687 7.800781 13.160156 0 5.484375-2.992188 10.53125-7.800781 13.160156l-55.765625 30.503906-30.5 55.777344c-2.628906 4.808594-7.675782 7.800781-13.160156 7.800781zm0 0"/><path d="m226.214844 512c-5.484375 0-10.53125-2.992188-13.160156-7.804688l-19.199219-35.105468-35.101563-19.203125c-4.808594-2.628907-7.800781-7.675781-7.800781-13.160157 0-5.480468 2.992187-10.527343 7.800781-13.160156l35.101563-19.199218 19.199219-35.105469c2.628906-4.8125 7.675781-7.804688 13.160156-7.804688s10.53125 2.992188 13.160156 7.804688l19.199219 35.105469 35.101562 19.199218c4.808594 2.632813 7.800781 7.679688 7.800781 13.160156 0 5.484376-2.992187 10.53125-7.800781 13.160157l-35.101562 19.203125-19.199219 35.105468c-2.628906 4.8125-7.675781 7.804688-13.160156 7.804688zm0 0"/></g><path d="m293.195312 137.359375-83.734374-45.804687-45.800782-83.75c-2.558594-4.679688-7.402344-7.628907-12.707031-7.789063v301.011719c5.304687-.160156 10.148437-3.109375 12.707031-7.785156l45.800782-83.753907 83.734374-45.804687c4.8125-2.632813 7.800782-7.679688 7.800782-13.160156 0-5.484376-2.988282-10.53125-7.800782-13.164063zm0 0" fill="#ffa426"/><path d="m293.675781 423.566406-35.101562-19.199218-19.199219-35.109376c-2.628906-4.8125-7.675781-7.804687-13.160156-7.804687-.078125 0-.160156.007813-.238282.011719v150.527344c.078126 0 .15625.007812.238282.007812 5.484375 0 10.53125-2.992188 13.160156-7.804688l19.199219-35.105468 35.101562-19.203125c4.808594-2.632813 7.800781-7.675781 7.800781-13.160157 0-5.480468-2.992187-10.527343-7.800781-13.160156zm0 0" fill="#ffa426"/><path d="m504.199219 283.117188-55.765625-30.503907-30.5-55.773437c-2.628906-4.8125-7.675782-7.804688-13.160156-7.804688v214.484375c5.484374 0 10.53125-2.992187 13.160156-7.800781l30.5-55.777344 55.765625-30.503906c4.808593-2.628906 7.800781-7.675781 7.800781-13.160156 0-5.480469-2.992188-10.527344-7.800781-13.160156zm0 0" fill="#ffa426"/></svg>