<svg height="512pt" viewBox="0 -29 512 512" width="512pt" xmlns="http://www.w3.org/2000/svg"><path d="m395.457031 454.757812h-279.070312c-6.789063 0-12.734375-4.5625-14.488281-11.121093l-42.179688-157.546875c-1.207031-4.503906-.25-9.3125 2.589844-13.011719s7.238281-5.867187 11.898437-5.867187h365.050781c4.6875 0 9.105469 2.191406 11.941407 5.925781 2.835937 3.730469 3.765625 8.574219 2.511719 13.09375l-43.804688 157.542969c-1.804688 6.492187-7.714844 10.984374-14.449219 10.984374zm0 0" fill="#f03049"/><path d="m451.199219 273.136719c-2.835938-3.734375-7.253907-5.925781-11.941407-5.925781h-182.527343v187.546874h138.722656c6.738281 0 12.648437-4.492187 14.453125-10.984374l43.804688-157.542969c1.253906-4.519531.324218-9.363281-2.511719-13.09375zm0 0" fill="#bd002f"/><path d="m182.144531 450.949219c-6.671875 0-12.765625-4.488281-14.511719-11.253907l-13.433593-52c-2.070313-8.019531 2.75-16.203124 10.769531-18.273437 8.023438-2.070313 16.203125 2.75 18.277344 10.769531l13.433594 52c2.070312 8.023438-2.75 16.203125-10.773438 18.277344-1.257812.324219-2.519531.480469-3.761719.480469zm0 0" fill="#ff636e"/><path d="m331.320312 450.949219c-1.242187 0-2.503906-.15625-3.761718-.480469-8.023438-2.070312-12.84375-10.253906-10.773438-18.273438l13.433594-52c2.074219-8.023437 10.253906-12.84375 18.277344-10.773437 8.019531 2.074219 12.84375 10.253906 10.769531 18.277344l-13.433594 52c-1.746093 6.761719-7.839843 11.25-14.511719 11.25zm0 0" fill="#f03049"/><path d="m256.730469 450.945312c-8.28125 0-15-6.714843-15-15v-52c0-8.285156 6.71875-15 15-15 8.285156 0 15 6.714844 15 15v52c0 8.285157-6.714844 15-15 15zm0 0" fill="#ff636e"/><path d="m256.730469 450.945312c8.285156 0 15-6.714843 15-15v-52c0-8.285156-6.714844-15-15-15zm0 0" fill="#f03049"/><path d="m265.71875 335.9375c-26.773438 0-53.121094-6.34375-76.789062-18.425781-19.535157 12.082031-41.847657 18.425781-65.089844 18.425781-68.285156 0-123.839844-55.371094-123.839844-123.433594 0-65.707031 51.773438-119.585937 116.796875-123.234375 13.347656-25.070312 32.847656-46.375 56.835937-62 27.390626-17.839843 59.230469-27.269531 92.085938-27.269531 40.191406 0 79.117188 14.335938 109.601562 40.371094 27.265626 23.28125 46.335938 54.601562 54.472657 89.113281 46.9375 8.640625 82.207031 49.863281 82.207031 98.507813 0 55.25-45.089844 100.199218-100.515625 100.199218-20.363281 0-40.140625-6.167968-56.792969-17.546875-26.671875 16.582031-57.207031 25.292969-88.972656 25.292969zm0 0" fill="#f2d1a5"/><path d="m429.792969 129.484375c-8.136719-34.511719-27.207031-65.832031-54.472657-89.113281-30.484374-26.035156-69.410156-40.371094-109.601562-40.371094-3.007812 0-6 .105469-8.988281.261719v335.425781c2.988281.15625 5.984375.25 8.988281.25 31.765625 0 62.296875-8.714844 88.972656-25.292969 16.652344 11.378907 36.429688 17.546875 56.792969 17.546875 55.421875 0 100.515625-44.949218 100.515625-100.199218 0-48.644532-35.269531-89.867188-82.207031-98.507813zm0 0" fill="#e3a76f"/><path d="m397.308594 220.328125c0-11.113281-8.988282-20.128906-20.082032-20.128906-11.089843 0-20.078124 9.015625-20.078124 20.128906 0 11.117187 8.988281 20.132813 20.078124 20.132813 11.09375 0 20.082032-9.015626 20.082032-20.132813zm0 0" fill="#61362b"/><g fill="#915041"><path d="m276.8125 220.328125c0-11.113281-8.988281-20.128906-20.082031-20.128906-11.089844 0-20.078125 9.015625-20.078125 20.128906 0 11.117187 8.988281 20.132813 20.078125 20.132813 11.09375 0 20.082031-9.015626 20.082031-20.132813zm0 0"/><path d="m156.316406 220.328125c0-11.113281-8.988281-20.128906-20.078125-20.128906-11.089843 0-20.082031 9.015625-20.082031 20.128906 0 11.117187 8.992188 20.132813 20.082031 20.132813 11.089844 0 20.078125-9.015626 20.078125-20.132813zm0 0"/><path d="m216.566406 136.332031c0-11.117187-8.992187-20.128906-20.082031-20.128906s-20.082031 9.011719-20.082031 20.128906c0 11.117188 8.992187 20.128907 20.082031 20.128907s20.082031-9.011719 20.082031-20.128907zm0 0"/></g><path d="m337.0625 136.332031c0-11.117187-8.992188-20.128906-20.082031-20.128906-11.089844 0-20.082031 9.011719-20.082031 20.128906 0 11.117188 8.992187 20.128907 20.082031 20.128907 11.089843 0 20.082031-9.011719 20.082031-20.128907zm0 0" fill="#61362b"/><path d="m256.730469 200.191406c11.089843 0 20.082031 9.011719 20.082031 20.128906 0 11.117188-8.992188 20.128907-20.082031 20.128907zm0 0" fill="#61362b"/></svg>