<svg height="512pt" viewBox="0 -13 512.42727 512" width="512pt" xmlns="http://www.w3.org/2000/svg"><path d="m15.001206 199.928771h482" style="fill:none;stroke-width:30;stroke-linecap:round;stroke-linejoin:round;stroke:#000;stroke-miterlimit:10" transform="translate(.213637 -26.112365)"/><path d="m467.214844 459.5625h-422c-24.8125 0-45-20.1875-45-45v-318.199219c0-24.8125 20.1875-45 45-45h422c24.8125 0 45 20.1875 45 45v318.199219c0 24.8125-20.1875 45-45 45zm0 0" fill="#e3f7ff"/><path d="m149.699219 396.390625c-5.085938 0-9.824219-2.578125-12.589844-6.84375-2.765625-4.269531-3.179687-9.644531-1.101563-14.285156 10.113282-22.59375 30.734376-42.503907 48.925782-60.066407 9.117187-8.800781 17.734375-17.117187 23.746094-24.542968 6.9375-8.5625 7.480468-12.425782 7.480468-13.40625 0-6.976563-2.738281-13.539063-7.703125-18.480469-4.988281-4.960937-11.625-7.691406-18.6875-7.691406-10.636719 0-20.167969 6.28125-24.289062 16-3.234375 7.628906-12.039063 11.1875-19.664063 7.957031-7.628906-3.234375-11.191406-12.039062-7.957031-19.664062 8.828125-20.832032 29.203125-34.292969 51.910156-34.292969 15.042969 0 29.195313 5.832031 39.84375 16.421875 10.667969 10.613281 16.542969 24.730468 16.542969 39.75 0 20.542968-18.714844 38.613281-40.386719 59.535156-9.644531 9.308594-20.054687 19.359375-28.539062 29.609375h53.925781c8.285156 0 15 6.714844 15 15 0 8.28125-6.714844 15-15 15zm0 0" fill="#06ccab"/><path d="m467.214844 51.363281h-211v408.199219h211c24.8125 0 45-20.1875 45-45v-318.199219c0-24.8125-20.1875-45-45-45zm0 0" fill="#8accf5"/><path d="m512.214844 96.363281c0-24.8125-20.1875-45-45-45h-422c-24.8125 0-45 20.1875-45 45v77.453125h512zm0 0" fill="#bd002f"/><path d="m467.214844 51.363281h-211v122.453125h256v-77.453125c0-24.8125-20.1875-45-45-45zm0 0" fill="#8f0933"/><path d="m321.414062 396.46875c-22.679687 0-43.027343-13.503906-51.835937-34.398438-3.21875-7.632812.359375-16.429687 7.992187-19.648437 7.636719-3.21875 16.433594.363281 19.648438 7.996094 4.113281 9.75 13.609375 16.050781 24.195312 16.050781 14.328126 0 25.882813-11.734375 26.300782-26.71875.195312-6.917969-1.714844-16.492188-7.664063-22.609375-4.90625-5.046875-12.476562-7.605469-22.496093-7.605469l-26.632813-.070312c-8.265625-.023438-14.957031-6.730469-14.957031-15v-58.550782c0-3.976562 1.582031-7.792968 4.394531-10.605468s6.628906-4.394532 10.605469-4.394532l70.117187.003907c8.285157 0 15 6.714843 15 15 0 8.28125-6.714843 15-15 15l-55.117187-.003907v28.589844l11.632812.03125c22.914063.003906 36.558594 9.078125 43.960938 16.695313 15.257812 15.691406 16.375 36.25 16.144531 44.363281-.878906 31.328125-25.605469 55.875-56.289063 55.875zm0 0" fill="#088a7a"/><path d="m365.308594 51.363281v-14.402343c0-3.65625 3.136718-6.746094 6.851562-6.746094s6.851563 3.089844 6.851563 6.746094v61.917968c0 8.285156 6.71875 15 15 15 8.285156 0 15-6.714844 15-15v-61.917968c0-20.261719-16.53125-36.746094-36.851563-36.746094-20.320312 0-36.851562 16.484375-36.851562 36.746094v14.402343zm0 0" fill="#ffa426"/><path d="m133.414062 51.363281v-14.402343c0-3.65625 3.136719-6.746094 6.851563-6.746094s6.851563 3.089844 6.851563 6.746094v61.917968c0 8.285156 6.714843 15 15 15 8.285156 0 15-6.714844 15-15v-61.917968c0-20.261719-16.53125-36.746094-36.851563-36.746094s-36.851563 16.484375-36.851563 36.746094v14.402343zm0 0" fill="#ffda45"/><path d="m249.363281 51.363281v-14.402343c0-3.65625 3.136719-6.746094 6.851563-6.746094 3.710937 0 6.851562 3.089844 6.851562 6.746094v61.917968c0 8.285156 6.714844 15 15 15s15-6.714844 15-15v-61.917968c0-20.261719-16.53125-36.746094-36.851562-36.746094-20.320313 0-36.851563 16.484375-36.851563 36.746094v14.402343zm0 0" fill="#ffda45"/><path d="m256.214844 30.214844c3.710937 0 6.851562 3.089844 6.851562 6.746094v61.917968c0 8.285156 6.714844 15 15 15s15-6.714844 15-15v-61.917968c0-20.261719-16.53125-36.746094-36.851562-36.746094zm0 0" fill="#ffa426"/></svg>