<svg height="511pt" viewBox="0 0 511.99898 511" width="511pt" xmlns="http://www.w3.org/2000/svg"><path d="m121.875 512.496094c-3.921875 0-7.753906-1.535156-10.609375-4.386719l-106.871094-106.785156c-3.910156-3.90625-5.351562-9.644531-3.753906-14.929688 1.597656-5.289062 5.976563-9.269531 11.394531-10.363281l78.339844-15.777344c.210938-.042968.421875-.082031.632812-.117187 15.257813-2.394531 32.164063 3.960937 45.214844 17 13.050782 13.042969 19.410156 29.933593 17.011719 45.179687-.039063.265625-.089844.53125-.144531.796875l-16.542969 77.523438c-1.148437 5.371093-5.144531 9.6875-10.414063 11.246093-1.40625.414063-2.835937.613282-4.257812.613282zm0 0" fill="#06ccab"/><path d="m135.8125 376.75-78.003906 77.941406 53.457031 53.417969c2.855469 2.851563 6.6875 4.386719 10.609375 4.386719 1.421875 0 2.851562-.199219 4.253906-.613282 5.269532-1.558593 9.269532-5.875 10.414063-11.25l16.542969-77.519531c.058593-.265625.105468-.53125.148437-.800781 2.398437-15.246094-3.960937-32.132812-17.015625-45.175781-.128906-.132813-.269531-.253907-.40625-.386719zm0 0" fill="#088a7a"/><path d="m415.289062 154.105469c-13.4375 0-27.523437-6.269531-38.761718-17.496094-13.050782-13.042969-19.410156-29.929687-17.011719-45.175781.03125-.214844.070313-.425782.113281-.636719l15.792969-78.273437c1.09375-5.414063 5.074219-9.789063 10.367187-11.382813 5.289063-1.597656 11.03125-.15625 14.941407 3.75l106.871093 106.785156c3.890626 3.886719 5.339844 9.582031 3.777344 14.851563-1.558594 5.265625-5.878906 9.257812-11.253906 10.40625l-77.585938 16.527344c-.265624.058593-.53125.105468-.800781.148437-2.121093.332031-4.277343.496094-6.449219.496094zm4.125-15.304688h.007813zm0 0" fill="#06ccab"/><path d="m500.125 136.929688c5.378906-1.144532 9.695312-5.136719 11.257812-10.40625 1.558594-5.269532.109376-10.964844-3.777343-14.851563l-53.25-53.203125-78.007813 77.945312c.0625.0625.117188.128907.179688.191407 11.238281 11.226562 25.324218 17.5 38.761718 17.5 2.171876 0 4.332032-.167969 6.453126-.5zm0 0" fill="#088a7a"/><path d="m186.585938 447.582031c-14.785157 0-28.65625-5.722656-39.054688-16.117187l-66.433594-66.378906c-10.398437-10.390626-16.128906-24.25-16.128906-39.019532 0-14.773437 5.730469-28.632812 16.128906-39.023437l205.179688-205.011719c10.398437-10.390625 24.269531-16.113281 39.054687-16.113281 14.78125 0 28.652344 5.722656 39.054688 16.113281l66.429687 66.378906c21.535156 21.519532 21.535156 56.53125 0 78.046875l-205.175781 205.007813c-10.402344 10.394531-24.269531 16.117187-39.054687 16.117187zm0 0" fill="#f03049"/><path d="m397.578125 115.199219-283.285156 283.054687 33.238281 33.210938c10.398438 10.394531 24.269531 16.117187 39.054688 16.117187 14.78125 0 28.652343-5.722656 39.054687-16.117187l205.175781-205.007813c21.535156-21.519531 21.535156-56.53125 0-78.046875zm0 0" fill="#bd002f"/><g fill="#ffda45"><path d="m95.574219 272.578125h289.082031l30-29.972656h-289.082031zm0 0"/><path d="m157.753906 210.449219h284.203125c4.320313-9.4375 5.835938-19.851563 4.558594-29.976563h-258.761719zm0 0"/><path d="m430.816406 148.410156-29.207031-29.183594h-152.558594l-30 29.976563h212.519531c-.253906-.261719-.492187-.535156-.753906-.792969zm0 0"/><path d="m364.382812 82.03125c-10.398437-10.390625-24.269531-16.113281-39.054687-16.113281-14.78125 0-28.652344 5.722656-39.054687 16.113281l-6.414063 6.414062h90.941406zm0 0"/><path d="m64.96875 326.066406c0 2.179688.140625 4.332032.386719 6.464844h259.300781l30-29.976562h-284.480469c-3.40625 7.253906-5.207031 15.238281-5.207031 23.511718zm0 0"/><path d="m81.097656 365.085938 27.417969 27.394531h156.140625l30-29.976563h-215.964844c.773438.878906 1.570313 1.746094 2.40625 2.582032zm0 0"/><path d="m147.53125 431.464844c10.398438 10.394531 24.269531 16.117187 39.054688 16.117187 14.785156 0 28.652343-5.722656 39.054687-16.117187l9.015625-9.007813h-96.140625zm0 0"/></g><path d="m384.65625 272.578125 30-29.972656h-144.585938l-30 29.972656zm0 0" fill="#ffa426"/><path d="m332.25 180.472656-30 29.976563h139.707031c4.320313-9.4375 5.835938-19.847657 4.558594-29.976563zm0 0" fill="#ffa426"/><path d="m430.816406 148.410156-29.207031-29.183594h-8.0625l-30 29.976563h68.023437c-.253906-.261719-.492187-.535156-.753906-.792969zm0 0" fill="#ffa426"/><path d="m324.65625 332.53125 30-29.976562h-144.585938l-30 29.976562zm0 0" fill="#ffa426"/><path d="m264.65625 392.480469 30-29.976563h-144.585938l-30 29.976563zm0 0" fill="#ffa426"/><path d="m147.53125 431.464844c10.398438 10.394531 24.269531 16.117187 39.054688 16.117187 14.785156 0 28.652343-5.722656 39.054687-16.117187l9.015625-9.007813h-96.140625zm0 0" fill="#ffa426"/></svg>