<svg height="512pt" viewBox="-56 0 511 512" width="512pt" xmlns="http://www.w3.org/2000/svg"><path d="m232.246094 62.199219c-8.285156 0-15-6.714844-15-15 0-9.480469-7.625-17.199219-17-17.199219s-17 7.71875-17 17.199219c0 8.285156-6.714844 15-15 15s-15-6.714844-15-15c0-26.023438 21.082031-47.199219 47-47.199219 25.914062 0 47 21.175781 47 47.199219 0 8.285156-6.714844 15-15 15zm0 0" fill="#d6995c"/><path d="m268.246094 152.261719h-136c-8.285156 0-15-6.714844-15-15v-33.449219c0-29.777344 24.226562-54 54-54h58c29.773437 0 54 24.222656 54 54v33.449219c0 8.285156-6.714844 15-15 15zm0 0" fill="#088a7a"/><path d="m200.246094 512c-110.140625 0-199.746094-90.125-199.746094-200.90625s89.605469-200.90625 199.746094-200.90625 199.746094 90.125 199.746094 200.90625-89.605469 200.90625-199.746094 200.90625zm0 0" fill="#06ccab"/><path d="m200.246094 0v30c9.375 0 17 7.71875 17 17.199219 0 8.285156 6.714844 15 15 15s15-6.714844 15-15c0-26.023438-21.085938-47.199219-47-47.199219zm0 0" fill="#b27a49"/><path d="m229.246094 49.8125h-29v102.449219h68c8.285156 0 15-6.714844 15-15v-33.449219c0-29.777344-24.226563-54-54-54zm0 0" fill="#006357"/><path d="m200.246094 110.1875c110.140625 0 199.746094 90.125 199.746094 200.90625s-89.605469 200.90625-199.746094 200.90625zm0 0" fill="#088a7a"/><path d="m91.101562 282.425781 45.058594-45.691406 46.976563 45.375c9.824219 9.488281 25.613281 9.296875 35.199219-.429687l44.320312-44.957032 47.757812 46.140625c4.816407 4.652344 11.097657 7.015625 17.394532 7.011719 5.53125 0 11.078125-1.816406 15.660156-5.5l46.226562-36.980469c-3.3125-9.941406-7.378906-19.535156-12.128906-28.714843l-49.464844 39.558593-48.050781-46.425781c-4.6875-4.527344-10.855469-7.023438-17.375-7.027344h-.183593c-.003907 0-.011719 0-.015626 0-6.652343 0-13.148437 2.722656-17.820312 7.460938l-44.222656 44.863281-46.984375-45.382813c-4.683594-4.523437-10.851563-7.019531-17.359375-7.023437-.003906 0-.011719 0-.019532 0-6.648437 0-13.140624 2.71875-17.8125 7.457031l-45.421874 46.066406-50.308594-38.789062c-4.691406 9.167969-8.695313 18.746094-11.960938 28.660156l47.445313 36.578125c9.996093 7.710938 24.222656 6.746094 33.089843-2.25zm0 0" fill="#915041"/><path d="m398.355469 285.335938-70.402344 56.636718-48.039063-46.414062c-4.683593-4.527344-10.851562-7.023438-17.375-7.027344h-.183593c-.003907 0-.011719 0-.015625 0-6.652344 0-13.148438 2.71875-17.820313 7.460938l-44.222656 44.863281-46.984375-45.382813c-4.683594-4.523437-10.851562-7.019531-17.359375-7.023437-.007813 0-.011719 0-.019531 0-6.648438 0-13.144532 2.71875-17.8125 7.457031l-45.398438 46.039062-70.71875-55.476562c-.988281 8.074219-1.503906 16.289062-1.503906 24.625 0 4.25.148438 8.460938.40625 12.644531l56.875 44.613281c.03125.023438.0625.046876.09375.070313 4.519531 3.484375 9.898438 5.199219 15.261719 5.199219 6.5 0 12.96875-2.519532 17.828125-7.445313l45.054687-45.695312 46.980469 45.378906c9.820312 9.488281 25.609375 9.292969 35.199219-.429687l44.320312-44.960938 47.753907 46.140625c9.046874 8.738281 23.257812 9.390625 33.089843 1.484375l56.28125-45.285156c.222657-3.878906.347657-7.78125.347657-11.714844 0-8.726562-.558594-17.324219-1.636719-25.757812zm0 0" fill="#915041"/><g fill="#61362b"><path d="m377.566406 218.675781-49.464844 39.558594-48.050781-46.421875c-4.6875-4.527344-10.855469-7.023438-17.375-7.027344h-.183593c-.003907 0-.011719 0-.015626 0-6.652343 0-13.148437 2.71875-17.820312 7.460938l-44.222656 44.863281-.1875-.183594v32.15625c6.566406.070313 13.152344-2.390625 18.089844-7.402343l44.320312-44.957032 47.757812 46.140625c4.816407 4.652344 11.097657 7.015625 17.394532 7.011719 5.53125 0 11.078125-1.816406 15.660156-5.5l46.226562-36.980469c-3.3125-9.941406-7.378906-19.535156-12.128906-28.71875zm0 0"/><path d="m398.355469 285.335938-70.402344 56.636718-48.039063-46.414062c-4.683593-4.527344-10.851562-7.023438-17.375-7.027344h-.183593c-.003907 0-.011719 0-.015625 0-6.652344 0-13.148438 2.71875-17.820313 7.460938l-44.222656 44.863281-.050781-.046875v32.023437c6.519531.03125 13.046875-2.429687 17.953125-7.40625l44.320312-44.957031 47.757813 46.140625c9.042968 8.738281 23.253906 9.386719 33.089844 1.484375l56.277343-45.285156c.222657-3.878906.347657-7.78125.347657-11.714844 0-8.726562-.558594-17.324219-1.636719-25.757812zm0 0"/></g></svg>