<svg height="512pt" viewBox="-24 0 512 512" width="512pt" xmlns="http://www.w3.org/2000/svg"><path d="m231.742188 66.363281c-8.285157 0-15-6.714843-15-15v-7.851562c0-8.285157 6.714843-15 15-15 8.285156 0 15 6.714843 15 15v7.851562c0 8.285157-6.714844 15-15 15zm0 0" fill="#e3f7ff"/><path d="m231.742188 145.238281c-8.285157 0-15-6.714843-15-15v-33.589843c0-8.28125 6.714843-15 15-15 8.285156 0 15 6.71875 15 15v33.589843c0 8.285157-6.714844 15-15 15zm0 0" fill="#e3f7ff"/><path d="m267.121094 307.605469c-2.390625 0-4.792969-.574219-6.992188-1.730469l-28.386718-14.96875-28.390626 14.964844c-5.054687 2.667968-11.179687 2.230468-15.800781-1.125-4.625-3.351563-6.941406-9.039063-5.980469-14.671875l5.433594-31.761719-23-22.484375c-4.082031-3.988281-5.542968-9.945313-3.777344-15.367187 1.765626-5.425782 6.453126-9.378907 12.097657-10.199219l31.75-4.628907 14.210937-28.871093c2.523438-5.128907 7.742188-8.375 13.457032-8.375 5.71875 0 10.9375 3.246093 13.460937 8.375l14.203125 28.871093 31.753906 4.628907c5.644532.824219 10.332032 4.777343 12.097656 10.199219 1.765626 5.425781.300782 11.382812-3.777343 15.371093l-23 22.484375 5.429687 31.761719c.964844 5.628906-1.355468 11.316406-5.976562 14.667969-2.613282 1.894531-5.703125 2.859375-8.8125 2.859375zm0 0" fill="#ffda45"/><path d="m411.234375 197.074219c-6.027344 0-11.710937-3.660157-14.003906-9.621094-2.972657-7.734375.886719-16.410156 8.621093-19.382813l7.308594-2.8125c7.734375-2.96875 16.414063.890626 19.386719 8.621094 2.96875 7.734375-.890625 16.410156-8.621094 19.382813l-7.3125 2.8125c-1.769531.679687-3.589843 1-5.378906 1zm0 0" fill="#8bc8e8"/><path d="m339.816406 224.617188c-6.027344 0-11.710937-3.65625-14.003906-9.621094-2.972656-7.734375.886719-16.410156 8.621094-19.382813l31.265625-12.015625c7.730469-2.96875 16.410156.890625 19.382812 8.625 2.972657 7.730469-.890625 16.410156-8.621093 19.378906l-31.265626 12.015626c-1.769531.679687-3.589843 1-5.378906 1zm0 0" fill="#8bc8e8"/><path d="m51.765625 197.074219c-1.789063 0-3.609375-.320313-5.378906-1l-7.3125-2.8125c-7.730469-2.972657-11.589844-11.648438-8.621094-19.382813 2.972656-7.730468 11.652344-11.589844 19.386719-8.621094l7.308594 2.8125c7.734374 2.972657 11.59375 11.648438 8.621093 19.382813-2.292969 5.960937-7.976562 9.621094-14.003906 9.621094zm0 0" fill="#e3f7ff"/><path d="m123.183594 224.617188c-1.789063 0-3.609375-.320313-5.378906-1l-31.261719-12.011719c-7.734375-2.972657-11.59375-11.652344-8.621094-19.382813 2.96875-7.734375 11.648437-11.59375 19.378906-8.621094l31.265625 12.011719c7.734375 2.972657 11.59375 11.648438 8.621094 19.382813-2.289062 5.964844-7.976562 9.621094-14.003906 9.621094zm0 0" fill="#e3f7ff"/><path d="m359.464844 418.351562c-4.199219 0-8.375-1.753906-11.339844-5.175781l-5.136719-5.925781c-5.429687-6.261719-4.753906-15.730469 1.503907-21.160156 6.261718-5.429688 15.734374-4.75 21.160156 1.507812l5.136718 5.925782c5.429688 6.261718 4.753907 15.734374-1.503906 21.160156-2.839844 2.460937-6.339844 3.667968-9.820312 3.667968zm0 0" fill="#8bc8e8"/><path d="m324.699219 378.253906c-4.195313 0-8.371094-1.75-11.339844-5.171875l-21.972656-25.34375c-5.425781-6.257812-4.75-15.730469 1.507812-21.160156 6.261719-5.425781 15.734375-4.753906 21.160157 1.507813l21.972656 25.34375c5.425781 6.257812 4.753906 15.730468-1.507813 21.160156-2.835937 2.460937-6.335937 3.664062-9.820312 3.664062zm0 0" fill="#8bc8e8"/><path d="m107.714844 418.351562c-3.480469 0-6.980469-1.207031-9.820313-3.667968-6.257812-5.425782-6.933593-14.898438-1.503906-21.160156l5.136719-5.925782c5.425781-6.257812 14.898437-6.9375 21.160156-1.507812 6.257812 5.429687 6.933594 14.898437 1.503906 21.160156l-5.136718 5.925781c-2.964844 3.421875-7.140626 5.175781-11.339844 5.175781zm0 0" fill="#e3f7ff"/><path d="m142.476562 378.253906c-3.484374 0-6.980468-1.203125-9.820312-3.664062-6.257812-5.429688-6.933594-14.902344-1.503906-21.160156l21.972656-25.34375c5.425781-6.261719 14.902344-6.933594 21.160156-1.507813 6.257813 5.429687 6.933594 14.902344 1.503906 21.160156l-21.972656 25.34375c-2.964844 3.421875-7.140625 5.171875-11.339844 5.171875zm0 0" fill="#e3f7ff"/><path d="m402.640625 326.027344c-2.285156 0-4.605469-.523438-6.785156-1.628906l-6.984375-3.550782c-7.386719-3.753906-10.328125-12.785156-6.574219-20.171875 3.753906-7.382812 12.785156-10.328125 20.171875-6.570312l6.980469 3.550781c7.386719 3.753906 10.328125 12.78125 6.574219 20.167969-2.644532 5.207031-7.917969 8.203125-13.382813 8.203125zm0 0" fill="#8bc8e8"/><path d="m355.382812 302.003906c-2.285156 0-4.605468-.523437-6.785156-1.632812l-29.871094-15.183594c-7.382812-3.753906-10.328124-12.785156-6.574218-20.171875s12.785156-10.324219 20.171875-6.570313l29.871093 15.183594c7.382813 3.753906 10.328126 12.785156 6.570313 20.171875-2.644531 5.207031-7.917969 8.203125-13.382813 8.203125zm0 0" fill="#8bc8e8"/><path d="m60.535156 326.027344c-5.464844 0-10.734375-2.996094-13.382812-8.203125-3.753906-7.386719-.8125-16.414063 6.574218-20.167969l6.984376-3.550781c7.382812-3.757813 16.414062-.816407 20.167968 6.570312s.8125 16.417969-6.574218 20.171875l-6.984376 3.550782c-2.175781 1.105468-4.496093 1.628906-6.785156 1.628906zm0 0" fill="#e3f7ff"/><path d="m107.792969 302.003906c-5.464844 0-10.734375-2.996094-13.382813-8.203125-3.753906-7.386719-.8125-16.417969 6.574219-20.171875l29.871094-15.183594c7.386719-3.757812 16.414062-.8125 20.167969 6.570313 3.753906 7.386719.8125 16.417969-6.574219 20.171875l-29.871094 15.183594c-2.175781 1.109375-4.5 1.632812-6.785156 1.632812zm0 0" fill="#e3f7ff"/><path d="m343.613281 121.386719c-3.726562 0-7.460937-1.382813-10.367187-4.164063-5.984375-5.726562-6.195313-15.222656-.46875-21.207031l5.421875-5.664063c5.726562-5.988281 15.222656-6.195312 21.207031-.46875 5.984375 5.726563 6.195312 15.222657.46875 21.207032l-5.421875 5.667968c-2.945313 3.078126-6.890625 4.628907-10.839844 4.628907zm0 0" fill="#8bc8e8"/><path d="m289.164062 178.277344c-3.730468 0-7.464843-1.382813-10.367187-4.164063-5.988281-5.730469-6.195313-15.222656-.46875-21.207031l23.1875-24.230469c5.726563-5.984375 15.226563-6.191406 21.210937-.464843 5.984376 5.730468 6.191407 15.222656.464844 21.207031l-23.1875 24.230469c-2.949218 3.078124-6.890625 4.628906-10.839844 4.628906zm0 0" fill="#8bc8e8"/><path d="m115.589844 121.386719c-3.949219 0-7.894532-1.550781-10.839844-4.628907l-5.421875-5.667968c-5.726563-5.984375-5.519531-15.480469.46875-21.207032 5.980469-5.726562 15.476563-5.519531 21.207031.46875l5.421875 5.664063c5.726563 5.984375 5.515625 15.480469-.46875 21.207031-2.90625 2.78125-6.640625 4.164063-10.367187 4.164063zm0 0" fill="#e3f7ff"/><path d="m170.039062 178.277344c-3.949218 0-7.894531-1.550782-10.839843-4.628906l-23.1875-24.230469c-5.726563-5.984375-5.519531-15.476563.464843-21.207031 5.984376-5.726563 15.480469-5.519532 21.210938.464843l23.1875 24.230469c5.726562 5.984375 5.519531 15.476562-.46875 21.207031-2.902344 2.78125-6.640625 4.164063-10.367188 4.164063zm0 0" fill="#e3f7ff"/><path d="m324.246094 480.898438c0-6.898438-5.597656-12.492188-12.5-12.492188s-12.5 5.59375-12.5 12.492188c0 6.902343 5.597656 12.496093 12.5 12.496093s12.5-5.59375 12.5-12.496093zm0 0" fill="#ffa426"/><path d="m163.753906 480.898438c0-6.898438-5.597656-12.492188-12.5-12.492188s-12.5 5.59375-12.5 12.492188c0 6.902343 5.597656 12.496093 12.5 12.496093s12.5-5.59375 12.5-12.496093zm0 0" fill="#ffda45"/><path d="m231.742188 462.09375c-8.285157 0-15-6.714844-15-15v-7.855469c0-8.28125 6.714843-15 15-15 8.285156 0 15 6.71875 15 15v7.855469c0 8.285156-6.714844 15-15 15zm0 0" fill="#e3f7ff"/><path d="m231.742188 408.953125c-8.285157 0-15-6.714844-15-15v-33.589844c0-8.285156 6.714843-15 15-15 8.285156 0 15 6.714844 15 15v33.589844c0 8.285156-6.714844 15-15 15zm0 0" fill="#e3f7ff"/><path d="m433.78125 456.285156h-10.613281v-10.714844c0-8.285156-6.714844-15-15-15-8.285157 0-15 6.714844-15 15v10.714844h-10.617188c-8.285156 0-15 6.714844-15 15s6.714844 15 15 15h10.613281v10.714844c0 8.285156 6.71875 15 15 15 8.285157 0 15-6.714844 15-15v-10.714844h10.617188c8.285156 0 15-6.71875 15-15 0-8.285156-6.714844-15-15-15zm0 0" fill="#ffa426"/><path d="m382.550781 55.714844h10.617188v10.714844c0 8.285156 6.714843 15 15 15 8.28125 0 15-6.714844 15-15v-10.714844h10.613281c8.285156 0 15-6.714844 15-15s-6.714844-15-15-15h-10.613281v-10.714844c0-8.285156-6.714844-15-15-15-8.28125 0-15 6.714844-15 15v10.714844h-10.617188c-8.285156 0-15 6.71875-15 15 0 8.285156 6.714844 15 15 15zm0 0" fill="#ffa426"/><path d="m80.449219 456.285156h-10.613281v-10.714844c0-8.285156-6.71875-15-15-15-8.285157 0-15 6.714844-15 15v10.714844h-10.617188c-8.285156 0-15 6.714844-15 15s6.714844 15 15 15h10.613281v10.714844c0 8.285156 6.714844 15 15 15 8.285157 0 15-6.714844 15-15v-10.714844h10.617188c8.285156 0 15-6.71875 15-15 0-8.285156-6.714844-15-15-15zm0 0" fill="#ffda45"/><path d="m80.449219 25.714844h-10.613281v-10.714844c0-8.285156-6.71875-15-15-15-8.285157 0-15 6.714844-15 15v10.714844h-10.617188c-8.285156 0-15 6.71875-15 15 0 8.285156 6.714844 15 15 15h10.613281v10.714844c0 8.285156 6.71875 15 15 15 8.285157 0 15-6.714844 15-15v-10.714844h10.617188c8.285156 0 15-6.714844 15-15s-6.714844-15-15-15zm0 0" fill="#ffda45"/><path d="m324.246094 31.40625c0-6.902344-5.597656-12.496094-12.5-12.496094s-12.5 5.59375-12.5 12.496094c0 6.898438 5.597656 12.492188 12.5 12.492188s12.5-5.59375 12.5-12.492188zm0 0" fill="#ffa426"/><path d="m163.753906 31.40625c0-6.902344-5.597656-12.496094-12.5-12.496094s-12.5 5.59375-12.5 12.496094c0 6.898438 5.597656 12.492188 12.5 12.492188s12.5-5.59375 12.5-12.492188zm0 0" fill="#ffda45"/><path d="m463.484375 386.199219c0-6.898438-5.597656-12.492188-12.5-12.492188s-12.5 5.59375-12.5 12.492188c0 6.902343 5.597656 12.496093 12.5 12.496093s12.5-5.59375 12.5-12.496093zm0 0" fill="#ffa426"/><path d="m463.484375 125.332031c0-6.898437-5.597656-12.492187-12.5-12.492187s-12.5 5.59375-12.5 12.492187c0 6.902344 5.597656 12.496094 12.5 12.496094s12.5-5.59375 12.5-12.496094zm0 0" fill="#ffa426"/><path d="m25 386.199219c0-6.898438-5.597656-12.492188-12.5-12.492188s-12.5 5.59375-12.5 12.492188c0 6.902343 5.597656 12.496093 12.5 12.496093s12.5-5.59375 12.5-12.496093zm0 0" fill="#ffda45"/><path d="m25 125.332031c0-6.898437-5.597656-12.492187-12.5-12.492187s-12.5 5.59375-12.5 12.492187c0 6.902344 5.597656 12.496094 12.5 12.496094s12.5-5.59375 12.5-12.496094zm0 0" fill="#ffda45"/><path d="m303.257812 220.460938c-1.765624-5.421876-6.453124-9.375-12.097656-10.199219l-31.753906-4.628907-14.203125-28.871093c-2.523437-5.128907-7.742187-8.375-13.460937-8.375v122.519531l28.386718 14.96875c2.199219 1.15625 4.601563 1.730469 6.992188 1.730469 3.109375 0 6.199218-.964844 8.8125-2.859375 4.621094-3.351563 6.9375-9.039063 5.976562-14.667969l-5.429687-31.761719 23-22.484375c4.078125-3.988281 5.542969-9.945312 3.777343-15.371093zm0 0" fill="#ffa426"/><g fill="#8bc8e8"><path d="m231.742188 462.09375c8.285156 0 15-6.714844 15-15v-7.855469c0-8.28125-6.714844-15-15-15zm0 0"/><path d="m231.742188 408.953125c8.285156 0 15-6.714844 15-15v-33.589844c0-8.285156-6.714844-15-15-15zm0 0"/><path d="m231.742188 66.363281c8.285156 0 15-6.714843 15-15v-7.851562c0-8.285157-6.714844-15-15-15zm0 0"/><path d="m231.742188 145.238281c8.285156 0 15-6.714843 15-15v-33.589843c0-8.28125-6.714844-15-15-15zm0 0"/></g></svg>