<svg height="512pt" viewBox="-108 0 512 512" width="512pt" xmlns="http://www.w3.org/2000/svg"><path d="m241.21875 512h-185.660156c-15.5625 0-28.222656-12.675781-28.222656-28.253906v-19.21875c0-3.75.746093-8.253906 2.132812-11.617188-2.25-4.082031-3.59375-7.820312-3.859375-12.664062l-25.546875-406.695313c-.546875-8.671875 2.550781-17.277343 8.496094-23.609375 5.933594-6.316406 14.304687-9.941406 22.96875-9.941406h233.726562c8.660156 0 17.03125 3.625 22.964844 9.941406 5.945312 6.332032 9.042969 14.9375 8.5 23.609375l-26.652344 406.71875c-.242187 4.34375-1.371094 8.859375-3.253906 12.640625 1.707031 3.667969 2.632812 7.386719 2.632812 11.617188v19.21875c0 15.578125-12.660156 28.253906-28.226562 28.253906zm-.820312-45.910156h.011718zm0 0" fill="#cdebfc"/><path d="m288.21875 9.941406c-5.933594-6.316406-14.304688-9.941406-22.96875-9.941406h-117.113281v512h93.082031c15.566406 0 28.226562-12.675781 28.226562-28.253906v-19.21875c0-4.230469-.925781-7.949219-2.632812-11.617188 1.882812-3.78125 3.011719-8.296875 3.253906-12.640625l26.652344-406.71875c.542969-8.671875-2.554688-17.277343-8.5-23.609375zm0 0" fill="#8bc8e8"/><path d="m289.085938 150h-281.710938l18.234375 290.246094c.265625 4.84375 1.609375 8.582031 3.859375 12.664062-1.386719 3.363282-2.136719 7.867188-2.136719 11.617188v19.21875c0 15.578125 12.660157 28.253906 28.222657 28.253906h185.664062c15.5625 0 28.222656-12.675781 28.222656-28.253906v-19.21875c0-4.230469-.925781-7.949219-2.632812-11.617188 1.886718-3.78125 3.015625-8.296875 3.257812-12.640625zm0 0" fill="#f2eee6"/><path d="m136.9375 452.910156c0-8.28125-6.71875-14.929687-15-14.929687h-96.476562l.140624 2.265625c.269532 4.84375 1.609376 8.582031 3.859376 12.664062-1.386719 3.363282-2.132813 7.867188-2.132813 11.617188v3.453125h94.609375c8.28125 0 15-6.785157 15-15.070313zm0 0" fill="#ded9d0"/><path d="m289.085938 150h-140.949219v362h93.082031c15.566406 0 28.226562-12.675781 28.226562-28.253906v-19.21875c0-4.230469-.925781-7.949219-2.632812-11.617188 1.882812-3.78125 3.011719-8.296875 3.253906-12.640625zm0 0" fill="#ded9d0"/><path d="m176.359375 452.910156c0 8.285156 6.714844 14.765625 15 14.765625h78.082031v-3.148437c0-4.226563-.925781-7.949219-2.632812-11.617188 1.882812-3.777344 3.011718-8.296875 3.253906-12.640625l.171875-2.59375h-78.875c-8.285156 0-15 6.953125-15 15.234375zm64.046875 13.179688h-.007812zm0 0" fill="#cdc3b4"/></svg>