<svg height="512pt" viewBox="0 0 512 512" width="512pt" xmlns="http://www.w3.org/2000/svg"><path d="m255.695312 411.425781c0-10.414062-8.394531-18.855469-18.753906-18.855469-10.355468 0-18.753906 8.441407-18.753906 18.855469 0 10.414063 8.398438 18.855469 18.753906 18.855469 10.359375 0 18.753906-8.441406 18.753906-18.855469zm0 0"/><path d="m425.652344 225.902344c0-10.414063-8.398438-18.855469-18.753906-18.855469-10.359376 0-18.753907 8.441406-18.753907 18.855469 0 10.414062 8.394531 18.855468 18.753907 18.855468 10.355468 0 18.753906-8.441406 18.753906-18.855468zm0 0"/><path d="m282.523438 251.839844c0-10.414063-8.398438-18.855469-18.753907-18.855469-10.359375 0-18.753906 8.441406-18.753906 18.855469 0 10.414062 8.394531 18.855468 18.753906 18.855468 10.355469 0 18.753907-8.441406 18.753907-18.855468zm0 0"/><path d="m151.859375 348.058594c0-10.414063-8.398437-18.855469-18.753906-18.855469-10.359375 0-18.753907 8.441406-18.753907 18.855469 0 10.414062 8.394532 18.855468 18.753907 18.855468 10.355469 0 18.753906-8.441406 18.753906-18.855468zm0 0"/><path d="m207.445312 100.574219c0-10.414063-8.394531-18.855469-18.753906-18.855469-10.355468 0-18.753906 8.441406-18.753906 18.855469 0 10.414062 8.398438 18.855469 18.753906 18.855469 10.359375 0 18.753906-8.441407 18.753906-18.855469zm0 0"/><path d="m256 512c-68.378906 0-132.667969-26.628906-181.019531-74.980469-48.351563-48.351562-74.980469-112.640625-74.980469-181.019531s26.628906-132.667969 74.980469-181.019531c48.351562-48.351563 112.640625-74.980469 181.019531-74.980469s132.667969 26.628906 181.019531 74.980469c48.351563 48.351562 74.980469 112.640625 74.980469 181.019531s-26.628906 132.667969-74.980469 181.019531c-48.351562 48.351563-112.640625 74.980469-181.019531 74.980469zm0 0" fill="#b27a49"/><path d="m256 0c68.378906 0 132.667969 26.628906 181.019531 74.980469 48.351563 48.351562 74.980469 112.640625 74.980469 181.019531s-26.628906 132.667969-74.980469 181.019531c-48.351562 48.351563-112.640625 74.980469-181.019531 74.980469zm0 0" fill="#9e6f46"/><path d="m255.695312 411.425781c0-10.414062-8.394531-18.855469-18.753906-18.855469-10.355468 0-18.753906 8.441407-18.753906 18.855469 0 10.414063 8.398438 18.855469 18.753906 18.855469 10.359375 0 18.753906-8.441406 18.753906-18.855469zm0 0" fill="#915041"/><path d="m425.652344 225.902344c0-10.414063-8.398438-18.855469-18.753906-18.855469-10.359376 0-18.753907 8.441406-18.753907 18.855469 0 10.414062 8.394531 18.855468 18.753907 18.855468 10.355468 0 18.753906-8.441406 18.753906-18.855468zm0 0" fill="#61362b"/><g fill="#915041"><path d="m282.523438 251.839844c0-10.414063-8.398438-18.855469-18.753907-18.855469-10.359375 0-18.753906 8.441406-18.753906 18.855469 0 10.414062 8.394531 18.855468 18.753906 18.855468 10.355469 0 18.753907-8.441406 18.753907-18.855468zm0 0"/><path d="m151.859375 348.058594c0-10.414063-8.398437-18.855469-18.753906-18.855469-10.359375 0-18.753907 8.441406-18.753907 18.855469 0 10.414062 8.394532 18.855468 18.753907 18.855468 10.355469 0 18.753906-8.441406 18.753906-18.855468zm0 0"/><path d="m207.445312 100.574219c0-10.414063-8.394531-18.855469-18.753906-18.855469-10.355468 0-18.753906 8.441406-18.753906 18.855469 0 10.414062 8.398438 18.855469 18.753906 18.855469 10.359375 0 18.753906-8.441407 18.753906-18.855469zm0 0"/><path d="m153.976562 281.398438c-29.414062 0-53.34375-23.929688-53.34375-53.34375 0-29.414063 23.929688-53.34375 53.34375-53.34375 29.414063 0 53.34375 23.929687 53.34375 53.34375 0 29.414062-23.929687 53.34375-53.34375 53.34375zm0 0"/></g><path d="m346.042969 403.925781c-29.414063 0-53.34375-23.929687-53.34375-53.34375 0-29.414062 23.929687-53.34375 53.34375-53.34375 29.414062 0 53.34375 23.929688 53.34375 53.34375 0 29.414063-23.929688 53.34375-53.34375 53.34375zm0 0" fill="#61362b"/><path d="m315.941406 195.890625c-24.421875 0-44.289062-19.867187-44.289062-44.289063 0-24.421874 19.867187-44.289062 44.289062-44.289062s44.289063 19.867188 44.289063 44.289062c0 24.421876-19.867188 44.289063-44.289063 44.289063zm0 0" fill="#61362b"/><path d="m263.769531 232.984375c-2.773437 0-5.398437.621094-7.769531 1.710937v34.292969c2.367188 1.085938 4.992188 1.707031 7.769531 1.707031 10.355469 0 18.753907-8.441406 18.753907-18.855468 0-10.414063-8.398438-18.855469-18.753907-18.855469zm0 0" fill="#61362b"/></svg>